<?xml version="1.0" encoding="UTF-8" standalone="no"?>
<!DOCTYPE svg PUBLIC "-//W3C//DTD SVG 1.1//EN"
 "http://www.w3.org/Graphics/SVG/1.1/DTD/svg11.dtd">
<!-- Generated by graphviz version 2.50.0 (20211204.2007)
 -->
<!-- Title: G Pages: 1 -->
<svg width="828pt" height="226pt"
 viewBox="0.00 0.00 828.20 226.20" xmlns="http://www.w3.org/2000/svg" xmlns:xlink="http://www.w3.org/1999/xlink">
<g id="graph0" class="graph" transform="scale(1 1) rotate(0) translate(21.6 204.6)">
<title>G</title>
<polygon fill="#111111" stroke="transparent" points="-21.6,21.6 -21.6,-204.6 806.6,-204.6 806.6,21.6 -21.6,21.6"/>
<!-- CustomerWizard.css -->
<g id="node1" class="node">
<title>CustomerWizard.css</title>
<path fill="none" stroke="#cfffac" d="M485.83,-183C485.83,-183 358.17,-183 358.17,-183 354.33,-183 350.5,-179.17 350.5,-175.33 350.5,-175.33 350.5,-167.67 350.5,-167.67 350.5,-163.83 354.33,-160 358.17,-160 358.17,-160 485.83,-160 485.83,-160 489.67,-160 493.5,-163.83 493.5,-167.67 493.5,-167.67 493.5,-175.33 493.5,-175.33 493.5,-179.17 489.67,-183 485.83,-183"/>
<text text-anchor="middle" x="422" y="-167.8" font-family="Arial" font-size="14.00" fill="#cfffac">CustomerWizard.css</text>
</g>
<!-- Steps/AboutMe/actionTypes.js -->
<g id="node2" class="node">
<title>Steps/AboutMe/actionTypes.js</title>
<path fill="none" stroke="#cfffac" d="M763.33,-113C763.33,-113 579.67,-113 579.67,-113 575.83,-113 572,-109.17 572,-105.33 572,-105.33 572,-97.67 572,-97.67 572,-93.83 575.83,-90 579.67,-90 579.67,-90 763.33,-90 763.33,-90 767.17,-90 771,-93.83 771,-97.67 771,-97.67 771,-105.33 771,-105.33 771,-109.17 767.17,-113 763.33,-113"/>
<text text-anchor="middle" x="671.5" y="-97.8" font-family="Arial" font-size="14.00" fill="#cfffac">Steps/AboutMe/actionTypes.js</text>
</g>
<!-- Steps/AboutMe/index.js -->
<g id="node3" class="node">
<title>Steps/AboutMe/index.js</title>
<path fill="none" stroke="#c6c5fe" d="M263.83,-123C263.83,-123 120.17,-123 120.17,-123 116.33,-123 112.5,-119.17 112.5,-115.33 112.5,-115.33 112.5,-107.67 112.5,-107.67 112.5,-103.83 116.33,-100 120.17,-100 120.17,-100 263.83,-100 263.83,-100 267.67,-100 271.5,-103.83 271.5,-107.67 271.5,-107.67 271.5,-115.33 271.5,-115.33 271.5,-119.17 267.67,-123 263.83,-123"/>
<text text-anchor="middle" x="192" y="-107.8" font-family="Arial" font-size="14.00" fill="#c6c5fe">Steps/AboutMe/index.js</text>
</g>
<!-- Steps/AboutMe/index.js&#45;&gt;CustomerWizard.css -->
<g id="edge1" class="edge">
<title>Steps/AboutMe/index.js&#45;&gt;CustomerWizard.css</title>
<path fill="none" stroke="#757575" d="M236.88,-123.08C261.84,-129.66 293.67,-138.05 322,-145.5 336.66,-149.36 352.55,-153.53 367.21,-157.38"/>
<polygon fill="#757575" stroke="#757575" points="366.57,-160.83 377.14,-159.99 368.35,-154.06 366.57,-160.83"/>
</g>
<!-- Steps/AboutMe/index.js&#45;&gt;Steps/AboutMe/actionTypes.js -->
<g id="edge2" class="edge">
<title>Steps/AboutMe/index.js&#45;&gt;Steps/AboutMe/actionTypes.js</title>
<path fill="none" stroke="#757575" d="M271.79,-112.21C288.38,-112.33 305.76,-112.44 322,-112.5 410.89,-112.84 433.17,-115.79 522,-112.5 534.87,-112.02 548.35,-111.32 561.72,-110.49"/>
<polygon fill="#757575" stroke="#757575" points="562.15,-113.97 571.91,-109.83 561.7,-106.98 562.15,-113.97"/>
</g>
<!-- Steps/AboutMe/reducer.js -->
<g id="node4" class="node">
<title>Steps/AboutMe/reducer.js</title>
<path fill="none" stroke="#c6c5fe" d="M500.33,-103C500.33,-103 343.67,-103 343.67,-103 339.83,-103 336,-99.17 336,-95.33 336,-95.33 336,-87.67 336,-87.67 336,-83.83 339.83,-80 343.67,-80 343.67,-80 500.33,-80 500.33,-80 504.17,-80 508,-83.83 508,-87.67 508,-87.67 508,-95.33 508,-95.33 508,-99.17 504.17,-103 500.33,-103"/>
<text text-anchor="middle" x="422" y="-87.8" font-family="Arial" font-size="14.00" fill="#c6c5fe">Steps/AboutMe/reducer.js</text>
</g>
<!-- Steps/AboutMe/index.js&#45;&gt;Steps/AboutMe/reducer.js -->
<g id="edge3" class="edge">
<title>Steps/AboutMe/index.js&#45;&gt;Steps/AboutMe/reducer.js</title>
<path fill="none" stroke="#757575" d="M271.78,-104.59C289.19,-103.06 307.81,-101.43 325.78,-99.85"/>
<polygon fill="#757575" stroke="#757575" points="326.33,-103.32 335.99,-98.96 325.72,-96.34 326.33,-103.32"/>
</g>
<!-- Steps/AboutMe/reducer.js&#45;&gt;Steps/AboutMe/actionTypes.js -->
<g id="edge4" class="edge">
<title>Steps/AboutMe/reducer.js&#45;&gt;Steps/AboutMe/actionTypes.js</title>
<path fill="none" stroke="#757575" d="M508.18,-94.94C525.44,-95.64 543.81,-96.38 561.76,-97.11"/>
<polygon fill="#757575" stroke="#757575" points="561.84,-100.61 571.97,-97.52 562.12,-93.62 561.84,-100.61"/>
</g>
<!-- Steps/ProfileImages/actionTypes.js -->
<g id="node5" class="node">
<title>Steps/ProfileImages/actionTypes.js</title>
<path fill="none" stroke="#cfffac" d="M777.33,-53C777.33,-53 565.67,-53 565.67,-53 561.83,-53 558,-49.17 558,-45.33 558,-45.33 558,-37.67 558,-37.67 558,-33.83 561.83,-30 565.67,-30 565.67,-30 777.33,-30 777.33,-30 781.17,-30 785,-33.83 785,-37.67 785,-37.67 785,-45.33 785,-45.33 785,-49.17 781.17,-53 777.33,-53"/>
<text text-anchor="middle" x="671.5" y="-37.8" font-family="Arial" font-size="14.00" fill="#cfffac">Steps/ProfileImages/actionTypes.js</text>
</g>
<!-- Steps/ProfileImages/index.js -->
<g id="node6" class="node">
<title>Steps/ProfileImages/index.js</title>
<path fill="none" stroke="#c6c5fe" d="M278.33,-63C278.33,-63 105.67,-63 105.67,-63 101.83,-63 98,-59.17 98,-55.33 98,-55.33 98,-47.67 98,-47.67 98,-43.83 101.83,-40 105.67,-40 105.67,-40 278.33,-40 278.33,-40 282.17,-40 286,-43.83 286,-47.67 286,-47.67 286,-55.33 286,-55.33 286,-59.17 282.17,-63 278.33,-63"/>
<text text-anchor="middle" x="192" y="-47.8" font-family="Arial" font-size="14.00" fill="#c6c5fe">Steps/ProfileImages/index.js</text>
</g>
<!-- Steps/ProfileImages/index.js&#45;&gt;Steps/ProfileImages/actionTypes.js -->
<g id="edge5" class="edge">
<title>Steps/ProfileImages/index.js&#45;&gt;Steps/ProfileImages/actionTypes.js</title>
<path fill="none" stroke="#757575" d="M286.2,-49.55C360.77,-47.99 465.97,-45.78 547.46,-44.08"/>
<polygon fill="#757575" stroke="#757575" points="547.85,-47.57 557.78,-43.86 547.71,-40.57 547.85,-47.57"/>
</g>
<!-- Steps/ProfileImages/reducer.js -->
<g id="node7" class="node">
<title>Steps/ProfileImages/reducer.js</title>
<path fill="none" stroke="#c6c5fe" d="M514.33,-23C514.33,-23 329.67,-23 329.67,-23 325.83,-23 322,-19.17 322,-15.33 322,-15.33 322,-7.67 322,-7.67 322,-3.83 325.83,0 329.67,0 329.67,0 514.33,0 514.33,0 518.17,0 522,-3.83 522,-7.67 522,-7.67 522,-15.33 522,-15.33 522,-19.17 518.17,-23 514.33,-23"/>
<text text-anchor="middle" x="422" y="-7.8" font-family="Arial" font-size="14.00" fill="#c6c5fe">Steps/ProfileImages/reducer.js</text>
</g>
<!-- Steps/ProfileImages/index.js&#45;&gt;Steps/ProfileImages/reducer.js -->
<g id="edge6" class="edge">
<title>Steps/ProfileImages/index.js&#45;&gt;Steps/ProfileImages/reducer.js</title>
<path fill="none" stroke="#757575" d="M258.64,-39.98C285.71,-35.24 317.24,-29.7 345.27,-24.79"/>
<polygon fill="#757575" stroke="#757575" points="346.18,-28.18 355.43,-23 344.97,-21.28 346.18,-28.18"/>
</g>
<!-- Steps/ProfileImages/reducer.js&#45;&gt;Steps/ProfileImages/actionTypes.js -->
<g id="edge7" class="edge">
<title>Steps/ProfileImages/reducer.js&#45;&gt;Steps/ProfileImages/actionTypes.js</title>
<path fill="none" stroke="#757575" d="M517.98,-23.01C533.41,-24.88 549.48,-26.83 565.14,-28.73"/>
<polygon fill="#757575" stroke="#757575" points="565.01,-32.24 575.36,-29.97 565.86,-25.29 565.01,-32.24"/>
</g>
<!-- index.js -->
<g id="node8" class="node">
<title>index.js</title>
<path fill="none" stroke="#c6c5fe" d="M54.33,-83C54.33,-83 7.67,-83 7.67,-83 3.83,-83 0,-79.17 0,-75.33 0,-75.33 0,-67.67 0,-67.67 0,-63.83 3.83,-60 7.67,-60 7.67,-60 54.33,-60 54.33,-60 58.17,-60 62,-63.83 62,-67.67 62,-67.67 62,-75.33 62,-75.33 62,-79.17 58.17,-83 54.33,-83"/>
<text text-anchor="middle" x="31" y="-67.8" font-family="Arial" font-size="14.00" fill="#c6c5fe">index.js</text>
</g>
<!-- index.js&#45;&gt;Steps/AboutMe/index.js -->
<g id="edge8" class="edge">
<title>index.js&#45;&gt;Steps/AboutMe/index.js</title>
<path fill="none" stroke="#757575" d="M62.28,-79.12C82.87,-84.3 110.72,-91.3 135.25,-97.48"/>
<polygon fill="#757575" stroke="#757575" points="134.62,-100.93 145.17,-99.97 136.33,-94.14 134.62,-100.93"/>
</g>
<!-- index.js&#45;&gt;Steps/ProfileImages/index.js -->
<g id="edge9" class="edge">
<title>index.js&#45;&gt;Steps/ProfileImages/index.js</title>
<path fill="none" stroke="#757575" d="M62.28,-67.69C70.46,-66.66 79.78,-65.49 89.58,-64.26"/>
<polygon fill="#757575" stroke="#757575" points="90.04,-67.73 99.52,-63.01 89.17,-60.78 90.04,-67.73"/>
</g>
</g>
</svg>
