<svg width="40" height="40" viewBox="0 0 40 40" fill="none" xmlns="http://www.w3.org/2000/svg">
<path d="M25.4208 20.0095H22.1502C22.1502 25.2349 22.1502 31.6668 22.1502 31.6668H17.3038C17.3038 31.6668 17.3038 25.2972 17.3038 20.0095H15V15.8894H17.3038V13.2245C17.3038 11.3159 18.2107 8.3335 22.1947 8.3335L25.786 8.34726V12.3467C25.786 12.3467 23.6037 12.3467 23.1794 12.3467C22.7551 12.3467 22.1518 12.5588 22.1518 13.469V15.8902H25.8444L25.4208 20.0095Z" fill="#C2D1D9"/>
<mask id="mask0_5170_49154" style="mask-type:alpha" maskUnits="userSpaceOnUse" x="15" y="8" width="11" height="24">
<path d="M25.4208 20.0095H22.1502C22.1502 25.2349 22.1502 31.6668 22.1502 31.6668H17.3038C17.3038 31.6668 17.3038 25.2972 17.3038 20.0095H15V15.8894H17.3038V13.2245C17.3038 11.3159 18.2107 8.3335 22.1947 8.3335L25.786 8.34726V12.3467C25.786 12.3467 23.6037 12.3467 23.1794 12.3467C22.7551 12.3467 22.1518 12.5588 22.1518 13.469V15.8902H25.8444L25.4208 20.0095Z" fill="white"/>
</mask>
<g mask="url(#mask0_5170_49154)">
<rect width="40" height="40" fill="#4C32FF"/>
</g>
</svg>
