<svg width="40" height="40" viewBox="0 0 40 40" fill="none" xmlns="http://www.w3.org/2000/svg">
<path fill-rule="evenodd" clip-rule="evenodd" d="M10.3976 32.4858V36.0005L10.4652 35.9682C10.5671 35.9195 10.6376 35.8858 10.7067 35.8504L11.5009 35.4284L11.501 35.4283L11.5012 35.4282C12.9844 34.64 14.4664 33.8525 15.9557 33.0773C16.1454 32.992 16.3554 32.9652 16.5598 33.0002C16.8988 33.0519 17.2368 33.1185 17.5747 33.185L17.5747 33.185L17.5748 33.1851C18.1382 33.2961 18.7011 33.407 19.2671 33.4482C23.5796 33.7558 27.4744 32.5919 30.8084 29.7595C34.1301 26.9397 35.9623 23.3111 35.9992 18.8722C36.0367 14.4202 34.2685 10.7428 30.9642 7.88016C27.3275 4.72772 23.0687 3.55263 18.3474 4.15005C14.7741 4.60191 11.6581 6.09645 9.14741 8.73118C5.53984 12.5179 4.22241 17.0246 5.44477 22.1926C6.1536 25.189 7.80152 27.6287 10.0936 29.6186C10.3232 29.8182 10.4131 30.0105 10.404 30.3122C10.3889 30.8258 10.392 31.3394 10.3951 31.853C10.3963 32.0639 10.3976 32.2749 10.3976 32.4858ZM11.0609 23.4215L18.1467 19.3778L22.0505 23.6217L29.9001 14.9541C29.7759 14.9607 29.6556 14.9999 29.5508 15.0681C29.1218 15.313 28.6927 15.5576 28.2636 15.8023C26.6059 16.7474 24.9486 17.6923 23.2974 18.6493C23.0303 18.8041 22.8848 18.7797 22.6739 18.5597C21.9501 17.805 21.2156 17.0599 20.4809 16.3148C20.2231 16.0533 19.9653 15.7918 19.7079 15.5298C19.468 15.2854 19.2293 15.043 18.9706 14.7842L11.0156 23.3655L11.0609 23.4215Z" fill="#4C32FF"/>
</svg>
