<svg width="40" height="40" viewBox="0 0 40 40" fill="none" xmlns="http://www.w3.org/2000/svg">
<path fill-rule="evenodd" clip-rule="evenodd" d="M11.0788 10C9.41599 10 8.32812 11.0915 8.32812 12.5255C8.32812 13.9291 9.38445 15.0522 11.015 15.0522H11.0465C12.7419 15.0522 13.7961 13.9291 13.7961 12.5255C13.7638 11.0915 12.7419 10 11.0788 10ZM31.0045 23.2831V31.667H26.1438V23.845C26.1438 21.881 25.442 20.5397 23.682 20.5397C22.339 20.5397 21.5411 21.4427 21.1888 22.3171C21.0608 22.6295 21.0278 23.0635 21.0278 23.5017V31.6667H16.1667C16.1667 31.6667 16.2319 18.4187 16.1667 17.0474H21.0282V19.1191C21.0236 19.1267 21.0181 19.1343 21.0127 19.1418C21.0066 19.1503 21.0005 19.1587 20.9959 19.1669H21.0282V19.1191C21.6741 18.1251 22.8262 16.7041 25.409 16.7041C28.607 16.7041 31.0045 18.7936 31.0045 23.2831ZM13.4739 31.6664H8.61458V17.0467H13.4739V31.6664Z" fill="#C2D1D9"/>
<mask id="mask0_5170_49155" style="mask-type:alpha" maskUnits="userSpaceOnUse" x="8" y="10" width="24" height="22">
<path fill-rule="evenodd" clip-rule="evenodd" d="M11.0788 10C9.41599 10 8.32812 11.0915 8.32812 12.5255C8.32812 13.9291 9.38445 15.0522 11.015 15.0522H11.0465C12.7419 15.0522 13.7961 13.9291 13.7961 12.5255C13.7638 11.0915 12.7419 10 11.0788 10ZM31.0045 23.2831V31.667H26.1438V23.845C26.1438 21.881 25.442 20.5397 23.682 20.5397C22.339 20.5397 21.5411 21.4427 21.1888 22.3171C21.0608 22.6295 21.0278 23.0635 21.0278 23.5017V31.6667H16.1667C16.1667 31.6667 16.2319 18.4187 16.1667 17.0474H21.0282V19.1191C21.0236 19.1267 21.0181 19.1343 21.0127 19.1418C21.0066 19.1503 21.0005 19.1587 20.9959 19.1669H21.0282V19.1191C21.6741 18.1251 22.8262 16.7041 25.409 16.7041C28.607 16.7041 31.0045 18.7936 31.0045 23.2831ZM13.4739 31.6664H8.61458V17.0467H13.4739V31.6664Z" fill="white"/>
</mask>
<g mask="url(#mask0_5170_49155)">
<rect width="40" height="40" fill="#4C32FF"/>
</g>
</svg>
