<svg width="40" height="40" viewBox="0 0 40 40" fill="none" xmlns="http://www.w3.org/2000/svg">
<path d="M35.9992 20.8622C35.8318 21.3979 35.7038 21.9501 35.4872 22.4646C35.213 23.1144 34.7532 23.6453 34.1854 24.067C33.9839 24.2156 33.8942 24.3782 33.8535 24.63C33.6078 26.1469 32.9235 27.4532 31.9013 28.5848C30.2592 30.405 28.1869 31.5238 25.8731 32.2343C23.938 32.8277 21.9554 33.0564 19.9329 32.9885C17.7545 32.9151 15.6524 32.4952 13.6475 31.6336C11.7178 30.8048 10.0246 29.652 8.74946 27.9513C7.99566 26.9605 7.4958 25.8003 7.29352 24.5718C7.26133 24.441 7.18316 24.3262 7.07331 24.2484C4.67343 22.5495 4.29913 19.3192 6.25373 17.1247C7.60412 15.6078 9.913 15.2244 11.6638 16.2455C11.9246 16.3978 12.1042 16.3887 12.3614 16.2455C14.1868 15.2195 16.1608 14.6492 18.2288 14.3877C18.5881 14.3357 18.9497 14.3019 19.3123 14.2863C19.5465 14.2803 19.6363 14.1783 19.7072 13.9733C20.4117 11.9269 21.1215 9.88201 21.8365 7.83851C21.8729 7.73415 21.9148 7.63222 21.9652 7.49995C22.6634 7.66499 23.3556 7.8282 24.0471 7.99323C24.968 8.21227 25.8883 8.43676 26.8116 8.64548C26.8996 8.6655 27.0543 8.62242 27.1028 8.55447C27.7513 7.66559 28.6073 7.1438 29.7114 7.03762C29.7506 7.02903 29.7888 7.01643 29.8254 7H30.2501C30.3374 7.01942 30.4248 7.04611 30.5133 7.06067C32.4406 7.30883 33.8438 9.22855 33.4907 11.1337C33.1504 12.9691 31.5095 14.2475 29.7102 14.0715C27.6087 13.8653 26.3688 12.045 26.4949 10.4159C26.5095 10.2291 26.4343 10.1793 26.2687 10.1417C25.5031 9.96817 24.7405 9.78069 23.9768 9.59563L22.9764 9.35718C22.4044 10.9954 21.8426 12.6105 21.2778 14.2396C21.3622 14.2505 21.4101 14.2602 21.4598 14.2627C24.092 14.3931 26.5963 14.9993 28.9124 16.2886C29.0823 16.3826 29.1921 16.3304 29.3237 16.2534C30.0031 15.8485 30.7846 15.6479 31.575 15.6758C32.5396 15.7069 33.4694 16.0443 34.2296 16.6392C34.9897 17.234 35.5409 18.0553 35.8033 18.9843C35.8833 19.2634 35.9361 19.5498 36.0016 19.8338L35.9992 20.8622ZM20.5341 31.4401C22.8236 31.4261 25.016 31.0499 27.0949 30.1301C28.7711 29.3887 30.23 28.3663 31.3159 26.8501C31.9896 25.9094 32.3523 24.7816 32.3532 23.6245C32.354 22.4675 31.9931 21.3391 31.3208 20.3974C30.2052 18.8363 28.6965 17.7969 26.9645 17.0573C24.7017 16.0902 22.3279 15.7322 19.8759 15.8275C17.5367 15.9179 15.3042 16.4251 13.2271 17.5227C11.6195 18.3721 10.2466 19.4916 9.40524 21.1492C8.56382 22.8068 8.57292 24.4668 9.41434 26.1141C10.2557 27.7614 11.6353 28.8839 13.2435 29.7321C15.5311 30.9371 17.9953 31.414 20.5341 31.4401ZM28.0564 10.5191C28.0523 10.9049 28.1626 11.2832 28.3736 11.6063C28.5845 11.9293 28.8865 12.1825 29.2414 12.3337C29.5963 12.4849 29.9881 12.5275 30.3671 12.4559C30.7462 12.3843 31.0955 12.2018 31.3708 11.9316C31.6461 11.6613 31.835 11.3154 31.9137 10.9377C31.9923 10.56 31.9571 10.1675 31.8126 9.80975C31.668 9.45205 31.4206 9.14529 31.1016 8.92831C30.7827 8.71133 30.4065 8.5939 30.0208 8.59087C28.9664 8.57328 28.074 9.44819 28.0564 10.5191ZM10.5245 17.4499C9.05581 16.882 7.65507 17.6113 7.02417 18.724C6.32774 19.9521 6.497 21.6971 7.35054 22.3566C7.77094 20.3252 8.93084 18.7695 10.5245 17.4499ZM30.6153 17.4347C32.1622 18.6961 33.3106 20.2178 33.7825 22.2031C34.6039 21.259 34.6185 19.5431 33.8432 18.5105C33.0115 17.4062 31.6514 16.942 30.6147 17.4347H30.6153Z" fill="#4C32FF"/>
<path d="M20.2047 29.578C18.5309 29.5234 16.9077 28.9908 15.5269 28.0429C15.0944 27.7475 14.9809 27.2785 15.2363 26.8968C15.4917 26.5152 15.9758 26.4618 16.4066 26.7488C18.8841 28.3821 21.415 28.4228 23.9896 26.9915C24.1831 26.8841 24.3699 26.7633 24.5659 26.6614C24.9596 26.4569 25.4085 26.574 25.6251 26.9296C25.7277 27.1061 25.7586 27.3152 25.7114 27.5139C25.6643 27.7125 25.5426 27.8854 25.3715 27.9968C23.8683 28.9864 22.2303 29.5677 20.2047 29.578Z" fill="#4C32FF"/>
<path d="M17.9669 22.0534C17.9609 22.6041 17.7384 23.1303 17.3475 23.5183C16.9567 23.9062 16.4289 24.1248 15.8783 24.1266C14.7432 24.1194 13.7957 23.1686 13.7969 22.0382C13.7989 21.4852 14.0205 20.9555 14.4129 20.5659C14.8054 20.1762 15.3365 19.9585 15.8895 19.9605C16.4425 19.9625 16.972 20.1841 17.3616 20.5766C17.7512 20.9691 17.9689 21.5003 17.9669 22.0534Z" fill="#4C32FF"/>
<path d="M22.7891 22.0258C22.7903 21.4732 23.0109 20.9437 23.4025 20.5538C23.794 20.1639 24.3243 19.9456 24.8768 19.9468C25.4293 19.948 25.9587 20.1687 26.3486 20.5603C26.7384 20.9518 26.9567 21.4823 26.9555 22.0349C26.9603 23.1755 25.9849 24.1439 24.8486 24.1257C24.298 24.1174 23.773 23.8922 23.3874 23.4991C23.0018 23.1059 22.7868 22.5765 22.7891 22.0258Z" fill="#4C32FF"/>
</svg>
