<svg width="201" height="201" viewBox="0 0 201 201" fill="none" xmlns="http://www.w3.org/2000/svg">
<path fill-rule="evenodd" clip-rule="evenodd" d="M139.163 130.767C143.002 129.143 147.129 128.309 151.298 128.316C157.478 128.316 163.52 130.148 168.659 133.582C173.798 137.016 177.804 141.896 180.169 147.607C182.534 153.317 183.153 159.6 181.947 165.662C180.741 171.724 177.765 177.292 173.395 181.663C169.024 186.033 163.456 189.009 157.394 190.215C151.332 191.421 145.049 190.802 139.339 188.437C133.629 186.072 128.748 182.066 125.314 176.927C121.88 171.788 120.048 165.746 120.048 159.566C120.06 155.693 120.775 151.855 122.157 148.237L86.1413 125.112C81.8053 129.567 76.2391 132.627 70.1545 133.902C64.07 135.176 57.7436 134.607 51.9843 132.267C46.225 129.927 41.2945 125.922 37.8233 120.765C34.3522 115.607 32.498 109.532 32.498 103.316C32.498 97.0989 34.3522 91.0236 37.8233 85.8664C41.2945 80.7091 46.225 76.7044 51.9843 74.3642C57.7436 72.0241 64.07 71.4548 70.1545 72.7292C76.2391 74.0037 81.8053 77.0639 86.1413 81.5186L122.157 58.3936C120.775 54.7761 120.06 50.938 120.048 47.0655C120.036 39.8184 122.543 32.7925 127.141 27.1904C131.738 21.5882 138.14 17.7581 145.25 16.3555C152.36 14.953 159.736 16.0652 166.117 19.5018C172.497 22.9385 177.485 28.4859 180.226 35.1945C182.967 41.9032 183.291 49.356 181.143 56.2775C178.995 63.1989 174.508 69.1585 168.45 73.1364C162.393 77.1142 155.141 78.863 147.936 78.0833C140.731 77.3036 134.02 74.044 128.954 68.8624L92.9382 91.9874C95.7496 99.2778 95.7496 107.353 92.9382 114.644L128.954 137.769C131.852 134.772 135.324 132.391 139.163 130.767ZM63.75 124.315C75.348 124.315 84.75 114.913 84.75 103.315C84.75 91.7175 75.348 82.3154 63.75 82.3154C52.152 82.3154 42.75 91.7175 42.75 103.315C42.75 114.913 52.152 124.315 63.75 124.315ZM172.625 46.7501C172.625 58.3481 163.223 67.7501 151.625 67.7501C140.027 67.7501 130.625 58.3481 130.625 46.7501C130.625 35.1521 140.027 25.7501 151.625 25.7501C163.223 25.7501 172.625 35.1521 172.625 46.7501ZM151.75 180.625C163.348 180.625 172.75 171.223 172.75 159.625C172.75 148.027 163.348 138.625 151.75 138.625C140.152 138.625 130.75 148.027 130.75 159.625C130.75 171.223 140.152 180.625 151.75 180.625Z" fill="#202021"/>
<path d="M57.3858 108.025L56.6468 108.492L52.9156 110.803L52.1736 111.261L47.5975 114.093C47.5003 114.156 47.43 114.253 47.4003 114.365C47.3707 114.478 47.3837 114.597 47.4369 114.7L49.1753 117.893C49.2016 117.943 49.238 117.986 49.282 118.021C49.3261 118.056 49.3769 118.082 49.4313 118.096C49.4857 118.11 49.5424 118.113 49.598 118.104C49.6535 118.095 49.7065 118.075 49.7538 118.044L55.3536 114.527C55.4657 114.463 55.5926 114.429 55.7216 114.429C55.8507 114.429 55.9775 114.463 56.0896 114.527L58.2459 115.74C58.3588 115.801 58.4536 115.891 58.5211 116.001C58.5885 116.111 58.6263 116.236 58.6306 116.364L58.4761 122.936C58.4745 123.052 58.5183 123.164 58.5981 123.247C58.6779 123.331 58.7875 123.381 58.9031 123.385L62.28 123.463C62.3955 123.465 62.5069 123.421 62.5902 123.341C62.6735 123.261 62.722 123.151 62.7252 123.036L62.8585 117.326L62.8766 116.452L62.9584 112.977V112.525V112.077L63.125 104.799C63.125 104.559 62.9705 104.468 62.7676 104.599L57.3858 108.025Z" fill="url(#paint0_linear_976_17133)"/>
<path d="M56.1816 99.6499L55.7871 99.4405L55.3925 99.231L51.9384 97.4016L51.1735 96.9943L46.4538 94.4929C46.4029 94.4646 46.347 94.4469 46.2892 94.4407C46.2314 94.4345 46.173 94.44 46.1173 94.4569C46.0617 94.4738 46.01 94.5017 45.9653 94.539C45.9206 94.5763 45.8837 94.6223 45.8569 94.6741L44.2927 97.6471C44.2638 97.698 44.2455 97.7544 44.2389 97.8127C44.2323 97.871 44.2376 97.93 44.2545 97.9862C44.2714 98.0424 44.2994 98.0945 44.337 98.1394C44.3746 98.1843 44.4209 98.2211 44.4731 98.2474L49.8667 101.11C49.9754 101.174 50.0644 101.267 50.1239 101.379C50.1834 101.49 50.211 101.616 50.2038 101.743C50.2038 101.743 50.1051 102.651 50.1073 103.351C50.1199 103.973 50.1927 104.751 50.1927 104.751C50.1998 104.878 50.1727 105.004 50.1142 105.117C50.0557 105.23 49.968 105.325 49.8604 105.392L44.3285 108.454C44.2789 108.481 44.2352 108.518 44.1999 108.562C44.1646 108.607 44.1385 108.658 44.1231 108.712C44.1077 108.767 44.1033 108.824 44.1102 108.88C44.1171 108.937 44.1351 108.991 44.1633 109.04L45.9748 112.199C46.0037 112.249 46.0423 112.294 46.0884 112.329C46.1344 112.365 46.187 112.391 46.2431 112.406C46.2992 112.421 46.3577 112.425 46.4153 112.417C46.4728 112.41 46.5283 112.391 46.5786 112.361L51.2422 109.721L51.9962 109.295L56.2057 106.912C56.4135 106.796 56.7518 106.599 56.9629 106.495L62.5615 103.471C62.7694 103.358 62.7715 103.164 62.5533 103.063L56.1816 99.6499Z" fill="url(#paint1_linear_976_17133)"/>
<path d="M78.2677 88.6657C78.2412 88.6161 78.2046 88.5727 78.1605 88.538C78.1163 88.5034 78.0654 88.4783 78.011 88.4643C77.9567 88.4504 77.9 88.4478 77.8446 88.4569C77.7892 88.466 77.7363 88.4865 77.6893 88.5171L72.0864 92.0468C71.9743 92.1109 71.8475 92.1446 71.7184 92.1446C71.5893 92.1446 71.4625 92.1109 71.3504 92.0468L69.2062 90.849C69.0934 90.7874 68.9985 90.6973 68.9311 90.5878C68.8636 90.4782 68.8259 90.3529 68.8216 90.2243L68.976 83.6439C68.9772 83.5854 68.9668 83.5273 68.9452 83.4729C68.9237 83.4185 68.8916 83.3689 68.8507 83.3271C68.8098 83.2853 68.7609 83.2521 68.7071 83.2295C68.6532 83.2068 68.5953 83.1951 68.5369 83.1952L65.16 83.1163C65.0449 83.1139 64.9334 83.1571 64.85 83.2367C64.7666 83.3162 64.718 83.4256 64.7148 83.5408L64.5997 89.2539L64.5816 90.1273L64.4937 93.5964L64.4937 94.0452L64.4937 94.494L64.2969 101.784C64.2969 102.023 64.4513 102.114 64.6542 101.987L70.0603 98.5332L70.7962 98.0692L74.5123 95.7706L75.2543 95.3097L79.8456 92.4683C79.9428 92.4052 80.0131 92.3082 80.0427 92.1961C80.0724 92.084 80.0593 91.9648 80.0061 91.8618L78.2677 88.6657Z" fill="url(#paint2_linear_976_17133)"/>
<path d="M49.1542 88.6744C49.1807 88.6249 49.2172 88.5815 49.2614 88.5468C49.3056 88.5122 49.3565 88.4871 49.4108 88.4731C49.4652 88.4591 49.5219 88.4566 49.5773 88.4657C49.6326 88.4748 49.6855 88.4953 49.7326 88.5258L55.3355 92.0556C55.4476 92.1197 55.5744 92.1534 55.7035 92.1534C55.8325 92.1534 55.9594 92.1197 56.0714 92.0556L58.2157 90.8578C58.3285 90.7961 58.4233 90.7061 58.4908 90.5966C58.5582 90.487 58.596 90.3617 58.6003 90.2331L58.4458 83.6527C58.4446 83.5942 58.4551 83.5361 58.4766 83.4817C58.4982 83.4273 58.5303 83.3777 58.5712 83.3359C58.6121 83.2941 58.6609 83.2609 58.7148 83.2383C58.7687 83.2156 58.8265 83.2039 58.885 83.2039L62.2619 83.1251C62.377 83.1227 62.4885 83.1659 62.5719 83.2455C62.6553 83.325 62.7039 83.4343 62.7071 83.5496L62.8221 89.2627L62.8403 90.1361L62.9281 93.6052L62.9281 94.054L62.9281 94.5028L63.125 101.793C63.125 102.032 62.9705 102.123 62.7676 101.996L57.3616 98.542L56.6257 98.078L52.9096 95.7794L52.1676 95.3185L47.5763 92.4771C47.4791 92.414 47.4088 92.317 47.3791 92.2049C47.3495 92.0928 47.3625 91.9736 47.4158 91.8706L49.1542 88.6744Z" fill="url(#paint3_linear_976_17133)"/>
<path d="M75.2631 111.211L74.5211 110.75L70.8081 108.455C70.6052 108.328 70.272 108.121 70.0721 107.991L64.6661 104.54C64.4632 104.41 64.3027 104.501 64.3088 104.74L64.4753 112.018L64.4753 112.467L64.4753 112.919L64.5571 116.391L64.5753 117.264L64.7085 122.977C64.7117 123.093 64.7602 123.202 64.8435 123.282C64.9268 123.362 65.0383 123.406 65.1537 123.405L68.5306 123.326C68.6463 123.322 68.7558 123.273 68.8356 123.189C68.9155 123.105 68.9593 122.993 68.9576 122.877L68.8032 116.297C68.8075 116.168 68.8452 116.043 68.9127 115.933C68.9801 115.824 69.075 115.734 69.1878 115.672L71.332 114.459C71.4443 114.396 71.5711 114.362 71.7 114.362C71.829 114.362 71.9557 114.396 72.068 114.459L77.6708 117.992C77.7181 118.022 77.7712 118.043 77.8267 118.052C77.8822 118.06 77.939 118.058 77.9934 118.043C78.0477 118.029 78.0986 118.004 78.1426 117.969C78.1867 117.934 78.223 117.89 78.2493 117.84L79.9968 114.644C80.05 114.541 80.0631 114.422 80.0334 114.31C80.0037 114.198 79.9335 114.101 79.8363 114.038L75.2631 111.211Z" fill="url(#paint4_linear_976_17133)"/>
<path d="M62.9645 94.5088V94.06V93.6112L62.8827 90.133L62.8645 89.2597L62.7313 83.5496C62.7281 83.4343 62.6795 83.325 62.5961 83.2455C62.5127 83.1659 62.4012 83.1227 62.2861 83.1251L58.9092 83.2039C58.7938 83.2071 58.6843 83.2557 58.6043 83.3391C58.5244 83.4225 58.4805 83.5341 58.4822 83.6497L58.6366 90.2179C58.6309 90.3466 58.5919 90.4715 58.5234 90.5805C58.4549 90.6895 58.3593 90.7788 58.2459 90.8396L56.0866 92.0374C55.9745 92.1015 55.8477 92.1352 55.7186 92.1352C55.5895 92.1352 55.4627 92.1015 55.3506 92.0374L49.7629 88.5168C49.7158 88.4862 49.6629 88.4657 49.6075 88.4566C49.5521 88.4475 49.4955 88.45 49.4411 88.464C49.3868 88.478 49.3359 88.5031 49.2917 88.5377C49.2475 88.5724 49.211 88.6158 49.1844 88.6653L47.4369 91.8615C47.3837 91.9645 47.3707 92.0837 47.4003 92.1958C47.43 92.3079 47.5003 92.4049 47.5975 92.468L52.1706 95.3003L52.9126 95.7582L56.6469 98.0689L57.3858 98.5329L62.7888 101.996C62.9917 102.123 63.1522 102.032 63.1462 101.793L62.9645 94.5088Z" fill="url(#paint5_linear_976_17133)"/>
<path d="M83.1105 108.441C83.1602 108.469 83.204 108.506 83.2393 108.55C83.2746 108.595 83.3007 108.646 83.3162 108.7C83.3317 108.755 83.3362 108.812 83.3295 108.869C83.3228 108.925 83.305 108.98 83.2771 109.029L81.46 112.207C81.4015 112.31 81.305 112.385 81.1915 112.416C81.078 112.447 80.9567 112.432 80.8543 112.374L76.16 109.742L75.3998 109.317L71.1325 106.934L70.3663 106.519L64.7059 103.501C64.4939 103.389 64.4939 103.198 64.7059 103.092L71.1265 99.6531L71.5232 99.4408L71.9199 99.2286L75.4089 97.3727L76.1781 96.9603L80.936 94.4373C80.9875 94.4083 81.0442 94.3901 81.1029 94.3835C81.1616 94.377 81.221 94.3824 81.2775 94.3994C81.334 94.4164 81.3866 94.4446 81.432 94.4824C81.4774 94.5202 81.5147 94.5667 81.5417 94.6193L83.1317 97.6001C83.1588 97.6507 83.1757 97.7061 83.1813 97.7632C83.187 97.8203 83.1814 97.878 83.1648 97.9329C83.1482 97.9878 83.121 98.0389 83.0846 98.0833C83.0483 98.1276 83.0036 98.1644 82.9531 98.1915L77.5319 101.078C77.4226 101.144 77.3334 101.238 77.2741 101.351C77.2148 101.464 77.1877 101.591 77.1957 101.718C77.1957 101.718 77.3017 102.628 77.3017 103.337C77.3017 103.965 77.22 104.751 77.22 104.751C77.2137 104.878 77.2415 105.005 77.3006 105.118C77.3597 105.231 77.4479 105.326 77.5561 105.393L83.1105 108.441Z" fill="url(#paint6_linear_976_17133)"/>
<g opacity="0.15">
<path opacity="0.15" d="M78.2755 88.6657C78.249 88.6161 78.2124 88.5727 78.1683 88.538C78.1241 88.5034 78.0732 88.4783 78.0188 88.4643C77.9645 88.4504 77.9078 88.4478 77.8524 88.4569C77.797 88.466 77.7441 88.4865 77.6971 88.5171L72.0942 92.0468C71.9821 92.1109 71.8553 92.1446 71.7262 92.1446C71.5972 92.1446 71.4703 92.1109 71.3582 92.0468L69.214 90.849C69.1012 90.7874 69.0064 90.6973 68.9389 90.5878C68.8715 90.4782 68.8337 90.3529 68.8294 90.2243L68.9838 83.6439C68.9851 83.5854 68.9746 83.5273 68.9531 83.4729C68.9315 83.4185 68.8994 83.3689 68.8585 83.3271C68.8176 83.2853 68.7688 83.2521 68.7149 83.2295C68.661 83.2068 68.6031 83.1951 68.5447 83.1952L65.1678 83.1163C65.0527 83.1139 64.9412 83.1571 64.8578 83.2367C64.7744 83.3162 64.7258 83.4256 64.7226 83.5408L64.6075 89.2539L64.5894 90.1273L64.5015 93.5964L64.5015 94.0452L64.5015 94.494L64.3047 101.784C64.3047 102.023 64.4591 102.114 64.6621 101.987L70.0681 98.5332L70.804 98.0692L74.5201 95.7706L75.2621 95.3097L79.8534 92.4683C79.9506 92.4052 80.0209 92.3082 80.0505 92.1961C80.0802 92.084 80.0672 91.9648 80.0139 91.8618L78.2755 88.6657Z" fill="#4C4C4C"/>
</g>
<g opacity="0.15">
<path opacity="0.15" d="M75.2651 111.213L74.5231 110.752L70.81 108.457C70.6071 108.33 70.274 108.123 70.0741 107.993L64.6681 104.542C64.4652 104.412 64.3047 104.503 64.3107 104.742L64.4773 112.02L64.4773 112.469L64.4773 112.921L64.5591 116.393L64.5772 117.266L64.7105 122.979C64.7137 123.095 64.7622 123.204 64.8455 123.284C64.9288 123.364 65.0402 123.408 65.1557 123.407L68.5326 123.328C68.6482 123.324 68.7578 123.275 68.8376 123.191C68.9174 123.107 68.9612 122.995 68.9596 122.879L68.8051 116.299C68.8094 116.17 68.8472 116.045 68.9146 115.935C68.9821 115.826 69.0769 115.736 69.1898 115.674L71.334 114.461C71.4463 114.398 71.573 114.364 71.702 114.364C71.8309 114.364 71.9577 114.398 72.0699 114.461L77.6728 117.994C77.7201 118.024 77.7731 118.045 77.8287 118.054C77.8842 118.062 77.9409 118.06 77.9953 118.045C78.0497 118.031 78.1005 118.006 78.1446 117.971C78.1886 117.936 78.225 117.892 78.2513 117.842L79.9988 114.646C80.052 114.543 80.065 114.424 80.0354 114.312C80.0057 114.2 79.9354 114.103 79.8382 114.04L75.2651 111.213Z" fill="#4C4C4C"/>
</g>
<path d="M83.1105 108.441C83.1602 108.469 83.204 108.506 83.2393 108.55C83.2746 108.595 83.3007 108.646 83.3162 108.7C83.3317 108.755 83.3362 108.812 83.3295 108.869C83.3228 108.925 83.305 108.98 83.2771 109.029L81.46 112.207C81.4015 112.31 81.305 112.385 81.1915 112.416C81.078 112.447 80.9567 112.432 80.8543 112.374L76.16 109.742L75.3998 109.317L71.1325 106.934L70.3663 106.519L64.7059 103.501C64.4939 103.389 64.4939 103.198 64.7059 103.092L71.1265 99.6531L71.5232 99.4408L71.9199 99.2286L75.4089 97.3727L76.1781 96.9603L80.936 94.4373C80.9875 94.4083 81.0442 94.3901 81.1029 94.3835C81.1616 94.377 81.221 94.3824 81.2775 94.3994C81.334 94.4164 81.3866 94.4446 81.432 94.4824C81.4774 94.5202 81.5147 94.5667 81.5417 94.6193L83.1317 97.6001C83.1588 97.6507 83.1757 97.7061 83.1813 97.7632C83.187 97.8203 83.1814 97.878 83.1648 97.9329C83.1482 97.9878 83.1209 98.0389 83.0846 98.0833C83.0483 98.1276 83.0036 98.1644 82.9531 98.1915L77.5319 101.078C77.4226 101.144 77.3334 101.238 77.2741 101.351C77.2148 101.464 77.1877 101.591 77.1957 101.718C77.1957 101.718 77.3017 102.628 77.3017 103.337C77.3017 103.965 77.22 104.751 77.22 104.751C77.2137 104.878 77.2415 105.005 77.3006 105.118C77.3597 105.231 77.4479 105.326 77.5561 105.393L83.1105 108.441Z" fill="url(#paint7_linear_976_17133)"/>
<g opacity="0.15">
<path opacity="0.15" d="M78.2755 88.6657C78.249 88.6161 78.2124 88.5727 78.1683 88.538C78.1241 88.5034 78.0732 88.4783 78.0188 88.4643C77.9645 88.4504 77.9078 88.4478 77.8524 88.4569C77.797 88.466 77.7441 88.4865 77.6971 88.5171L72.0942 92.0468C71.9821 92.1109 71.8553 92.1446 71.7262 92.1446C71.5972 92.1446 71.4703 92.1109 71.3582 92.0468L69.214 90.849C69.1012 90.7874 69.0064 90.6973 68.9389 90.5878C68.8715 90.4782 68.8337 90.3529 68.8294 90.2243L68.9838 83.6439C68.9851 83.5854 68.9746 83.5273 68.9531 83.4729C68.9315 83.4185 68.8994 83.3689 68.8585 83.3271C68.8176 83.2853 68.7688 83.2521 68.7149 83.2295C68.661 83.2068 68.6031 83.1951 68.5447 83.1952L65.1678 83.1163C65.0527 83.1139 64.9412 83.1571 64.8578 83.2367C64.7744 83.3162 64.7258 83.4256 64.7226 83.5408L64.6075 89.2539L64.5894 90.1273L64.5015 93.5964L64.5015 94.0452L64.5015 94.494L64.3047 101.784C64.3047 102.023 64.4591 102.114 64.6621 101.987L70.0681 98.5332L70.804 98.0692L74.5201 95.7706L75.2621 95.3097L79.8534 92.4683C79.9506 92.4052 80.0209 92.3082 80.0505 92.1961C80.0802 92.084 80.0672 91.9648 80.0139 91.8618L78.2755 88.6657Z" fill="#4C4C4C"/>
</g>
<g opacity="0.15">
<path opacity="0.15" d="M75.2651 111.213L74.5231 110.752L70.81 108.457C70.6071 108.33 70.274 108.123 70.0741 107.993L64.6681 104.542C64.4652 104.412 64.3047 104.503 64.3107 104.742L64.4773 112.02L64.4773 112.469L64.4773 112.921L64.5591 116.393L64.5772 117.266L64.7105 122.979C64.7137 123.095 64.7622 123.204 64.8455 123.284C64.9288 123.364 65.0402 123.408 65.1557 123.407L68.5326 123.328C68.6482 123.324 68.7578 123.275 68.8376 123.191C68.9174 123.107 68.9612 122.995 68.9596 122.879L68.8051 116.299C68.8094 116.17 68.8472 116.045 68.9146 115.935C68.9821 115.826 69.0769 115.736 69.1898 115.674L71.334 114.461C71.4463 114.398 71.573 114.364 71.702 114.364C71.8309 114.364 71.9577 114.398 72.0699 114.461L77.6728 117.994C77.7201 118.024 77.7731 118.045 77.8287 118.054C77.8842 118.062 77.9409 118.06 77.9953 118.045C78.0497 118.031 78.1005 118.006 78.1446 117.971C78.1886 117.936 78.225 117.892 78.2513 117.842L79.9988 114.646C80.052 114.543 80.065 114.424 80.0354 114.312C80.0057 114.2 79.9354 114.103 79.8382 114.04L75.2651 111.213Z" fill="#4C4C4C"/>
</g>
<path d="M145.396 51.4003L144.657 51.8673L140.925 54.178L140.183 54.6359L135.607 57.4682C135.51 57.5313 135.44 57.6283 135.41 57.7404C135.38 57.8525 135.393 57.9717 135.447 58.0747L137.185 61.2678C137.211 61.3176 137.248 61.3613 137.292 61.3963C137.336 61.4313 137.387 61.4567 137.441 61.4709C137.495 61.4852 137.552 61.488 137.608 61.4791C137.663 61.4702 137.716 61.4499 137.764 61.4195L143.363 57.9018C143.475 57.8378 143.602 57.804 143.731 57.804C143.86 57.804 143.987 57.8378 144.099 57.9018L146.256 59.1148C146.369 59.1764 146.463 59.2665 146.531 59.376C146.598 59.4856 146.636 59.6109 146.64 59.7395L146.486 66.3108C146.484 66.4266 146.528 66.5386 146.608 66.6225C146.688 66.7064 146.797 66.7556 146.913 66.7596L150.29 66.8384C150.405 66.84 150.517 66.7961 150.6 66.7161C150.683 66.636 150.732 66.5264 150.735 66.4108L150.868 60.7008L150.886 59.8274L150.968 56.3523V55.9004V55.4516L151.135 48.1738C151.135 47.9343 150.98 47.8433 150.777 47.9737L145.396 51.4003Z" fill="url(#paint8_linear_976_17133)"/>
<path d="M144.191 43.0249L143.797 42.8155L143.402 42.606L139.948 40.7766L139.183 40.3693L134.464 37.8679C134.413 37.8396 134.357 37.8219 134.299 37.8157C134.241 37.8095 134.183 37.815 134.127 37.8319C134.071 37.8488 134.02 37.8767 133.975 37.914C133.93 37.9513 133.893 37.9973 133.867 38.0491L132.303 41.0221C132.274 41.073 132.255 41.1294 132.249 41.1877C132.242 41.246 132.247 41.305 132.264 41.3612C132.281 41.4174 132.309 41.4695 132.347 41.5144C132.384 41.5593 132.431 41.5961 132.483 41.6224L137.876 44.4846C137.985 44.5487 138.074 44.6418 138.134 44.7535C138.193 44.8653 138.221 44.9914 138.214 45.1179C138.214 45.1179 138.115 46.0259 138.117 46.7264C138.13 47.3482 138.202 48.1259 138.202 48.1259C138.21 48.2529 138.182 48.3795 138.124 48.4923C138.065 48.6051 137.978 48.6999 137.87 48.7667L132.338 51.8291C132.289 51.8562 132.245 51.893 132.21 51.9373C132.174 51.9816 132.148 52.0326 132.133 52.0872C132.117 52.1418 132.113 52.199 132.12 52.2553C132.127 52.3117 132.145 52.3661 132.173 52.4153L133.985 55.5735C134.013 55.6242 134.052 55.6686 134.098 55.7042C134.144 55.7398 134.197 55.7659 134.253 55.7811C134.309 55.7962 134.367 55.8 134.425 55.7924C134.483 55.7847 134.538 55.7657 134.588 55.7365L139.252 53.0963L140.006 52.6703L144.215 50.287C144.423 50.171 144.762 49.9739 144.973 49.87L150.571 46.8455C150.779 46.7326 150.781 46.5393 150.563 46.438L144.191 43.0249Z" fill="url(#paint9_linear_976_17133)"/>
<path d="M166.277 32.0407C166.251 31.9911 166.214 31.9477 166.17 31.913C166.126 31.8784 166.075 31.8533 166.021 31.8393C165.966 31.8254 165.91 31.8228 165.854 31.8319C165.799 31.841 165.746 31.8615 165.699 31.8921L160.096 35.4218C159.984 35.4859 159.857 35.5196 159.728 35.5196C159.599 35.5196 159.472 35.4859 159.36 35.4218L157.216 34.224C157.103 34.1624 157.008 34.0723 156.941 33.9628C156.873 33.8532 156.836 33.7279 156.831 33.5993L156.986 27.0189C156.987 26.9604 156.977 26.9023 156.955 26.8479C156.933 26.7935 156.901 26.7439 156.86 26.7021C156.82 26.6603 156.771 26.6271 156.717 26.6045C156.663 26.5818 156.605 26.5701 156.547 26.5702L153.17 26.4913C153.055 26.4889 152.943 26.5321 152.86 26.6117C152.776 26.6912 152.728 26.8006 152.725 26.9158L152.609 32.6289L152.591 33.5023L152.503 36.9714L152.503 37.4202L152.503 37.869L152.307 45.1589C152.307 45.3985 152.461 45.4895 152.664 45.3621L158.07 41.9082L158.806 41.4442L162.522 39.1456L163.264 38.6847L167.855 35.8433C167.953 35.7802 168.023 35.6832 168.052 35.5711C168.082 35.459 168.069 35.3398 168.016 35.2368L166.277 32.0407Z" fill="url(#paint10_linear_976_17133)"/>
<path d="M137.164 32.0494C137.19 31.9999 137.227 31.9565 137.271 31.9218C137.315 31.8872 137.366 31.8621 137.421 31.8481C137.475 31.8341 137.532 31.8316 137.587 31.8407C137.642 31.8498 137.695 31.8703 137.742 31.9008L143.345 35.4306C143.457 35.4947 143.584 35.5284 143.713 35.5284C143.842 35.5284 143.969 35.4947 144.081 35.4306L146.225 34.2328C146.338 34.1711 146.433 34.0811 146.501 33.9716C146.568 33.862 146.606 33.7367 146.61 33.6081L146.456 27.0277C146.454 26.9692 146.465 26.9111 146.486 26.8567C146.508 26.8023 146.54 26.7527 146.581 26.7109C146.622 26.6691 146.671 26.6359 146.725 26.6133C146.778 26.5906 146.836 26.5789 146.895 26.5789L150.272 26.5001C150.387 26.4977 150.498 26.5409 150.582 26.6205C150.665 26.7 150.714 26.8093 150.717 26.9246L150.832 32.6377L150.85 33.5111L150.938 36.9802L150.938 37.429L150.938 37.8778L151.135 45.1677C151.135 45.4073 150.98 45.4982 150.777 45.3709L145.371 41.917L144.635 41.453L140.919 39.1544L140.177 38.6935L135.586 35.8521C135.489 35.789 135.419 35.692 135.389 35.5799C135.359 35.4678 135.372 35.3486 135.426 35.2456L137.164 32.0494Z" fill="url(#paint11_linear_976_17133)"/>
<path d="M163.273 54.5864L162.531 54.1255L158.818 51.8299C158.615 51.7026 158.282 51.4964 158.082 51.366L152.676 47.9151C152.473 47.7847 152.312 47.8757 152.319 48.1152L152.485 55.393L152.485 55.8418L152.485 56.2937L152.567 59.7658L152.585 60.6391L152.718 66.3522C152.721 66.4678 152.77 66.5775 152.853 66.6575C152.937 66.7375 153.048 66.7814 153.164 66.7798L156.54 66.701C156.656 66.697 156.766 66.6478 156.845 66.5639C156.925 66.48 156.969 66.3681 156.967 66.2522L156.813 59.6718C156.817 59.5432 156.855 59.4179 156.922 59.3084C156.99 59.1988 157.085 59.1088 157.198 59.0471L159.342 57.8342C159.454 57.7706 159.581 57.7373 159.71 57.7373C159.839 57.7373 159.965 57.7706 160.078 57.8342L165.681 61.3669C165.728 61.3974 165.781 61.4177 165.836 61.4266C165.892 61.4354 165.949 61.4327 166.003 61.4184C166.058 61.4041 166.108 61.3787 166.152 61.3438C166.196 61.3088 166.233 61.2651 166.259 61.2153L168.007 58.0191C168.06 57.9161 168.073 57.797 168.043 57.6849C168.014 57.5728 167.943 57.4757 167.846 57.4126L163.273 54.5864Z" fill="url(#paint12_linear_976_17133)"/>
<path d="M150.974 37.8838V37.435V36.9862L150.892 33.508L150.874 32.6347L150.741 26.9246C150.738 26.8093 150.689 26.7 150.606 26.6205C150.522 26.5409 150.411 26.4977 150.296 26.5001L146.919 26.5789C146.804 26.5821 146.694 26.6307 146.614 26.7141C146.534 26.7975 146.49 26.9091 146.492 27.0247L146.646 33.5929C146.641 33.7216 146.602 33.8465 146.533 33.9555C146.465 34.0645 146.369 34.1538 146.256 34.2146L144.096 35.4124C143.984 35.4765 143.857 35.5102 143.728 35.5102C143.599 35.5102 143.472 35.4765 143.36 35.4124L137.773 31.8918C137.726 31.8612 137.673 31.8407 137.617 31.8316C137.562 31.8225 137.505 31.825 137.451 31.839C137.397 31.853 137.346 31.8781 137.301 31.9127C137.257 31.9474 137.221 31.9908 137.194 32.0403L135.447 35.2365C135.393 35.3395 135.38 35.4587 135.41 35.5708C135.44 35.6829 135.51 35.7799 135.607 35.843L140.18 38.6753L140.922 39.1332L144.657 41.4439L145.396 41.9079L150.799 45.3709C151.001 45.4983 151.162 45.4073 151.156 45.1677L150.974 37.8838Z" fill="url(#paint13_linear_976_17133)"/>
<path d="M171.12 51.8161C171.17 51.8436 171.214 51.8807 171.249 51.9252C171.284 51.9697 171.311 52.0208 171.326 52.0755C171.341 52.1302 171.346 52.1874 171.339 52.2438C171.333 52.3003 171.315 52.3548 171.287 52.4044L169.47 55.5823C169.411 55.6847 169.315 55.7597 169.201 55.7909C169.088 55.8222 168.966 55.8072 168.864 55.7491L164.17 53.117L163.41 52.6924L159.142 50.309L158.376 49.8935L152.716 46.8762C152.504 46.764 152.504 46.573 152.716 46.4669L159.136 43.0281L159.533 42.8158L159.93 42.6036L163.419 40.7477L164.188 40.3353L168.946 37.8123C168.997 37.7833 169.054 37.7651 169.113 37.7585C169.171 37.752 169.231 37.7574 169.287 37.7744C169.344 37.7914 169.396 37.8196 169.442 37.8574C169.487 37.8952 169.524 37.9417 169.552 37.9943L171.142 40.9751C171.169 41.0257 171.185 41.0811 171.191 41.1382C171.197 41.1953 171.191 41.253 171.175 41.3079C171.158 41.3628 171.131 41.4139 171.094 41.4583C171.058 41.5026 171.013 41.5394 170.963 41.5665L165.542 44.4533C165.432 44.5188 165.343 44.6131 165.284 44.726C165.225 44.8389 165.197 44.9659 165.205 45.0932C165.205 45.0932 165.311 46.0029 165.311 46.7125C165.311 47.3402 165.23 48.1256 165.23 48.1256C165.223 48.253 165.251 48.3798 165.31 48.4929C165.37 48.6059 165.458 48.7011 165.566 48.7685L171.12 51.8161Z" fill="url(#paint14_linear_976_17133)"/>
<g opacity="0.15">
<path opacity="0.15" d="M166.285 32.0407C166.259 31.9911 166.222 31.9477 166.178 31.913C166.134 31.8784 166.083 31.8533 166.029 31.8393C165.974 31.8254 165.918 31.8228 165.862 31.8319C165.807 31.841 165.754 31.8615 165.707 31.8921L160.104 35.4218C159.992 35.4859 159.865 35.5196 159.736 35.5196C159.607 35.5196 159.48 35.4859 159.368 35.4218L157.224 34.224C157.111 34.1624 157.016 34.0723 156.949 33.9628C156.881 33.8532 156.843 33.7279 156.839 33.5993L156.994 27.0189C156.995 26.9604 156.984 26.9023 156.963 26.8479C156.941 26.7935 156.909 26.7439 156.868 26.7021C156.827 26.6603 156.779 26.6271 156.725 26.6045C156.671 26.5818 156.613 26.5701 156.554 26.5702L153.178 26.4913C153.062 26.4889 152.951 26.5321 152.868 26.6117C152.784 26.6912 152.736 26.8006 152.732 26.9158L152.617 32.6289L152.599 33.5023L152.511 36.9714L152.511 37.4202L152.511 37.869L152.314 45.1589C152.314 45.3985 152.469 45.4895 152.672 45.3621L158.078 41.9082L158.814 41.4442L162.53 39.1456L163.272 38.6847L167.863 35.8433C167.96 35.7802 168.031 35.6832 168.06 35.5711C168.09 35.459 168.077 35.3398 168.024 35.2368L166.285 32.0407Z" fill="#4C4C4C"/>
</g>
<g opacity="0.15">
<path opacity="0.15" d="M163.275 54.5884L162.533 54.1274L158.82 51.8319C158.617 51.7045 158.284 51.4983 158.084 51.3679L152.678 47.917C152.475 47.7866 152.314 47.8776 152.32 48.1172L152.487 55.395L152.487 55.8438L152.487 56.2956L152.569 59.7678L152.587 60.6411L152.72 66.3542C152.723 66.4698 152.772 66.5794 152.855 66.6594C152.939 66.7395 153.05 66.7834 153.165 66.7818L156.542 66.7029C156.658 66.699 156.768 66.6497 156.847 66.5658C156.927 66.4819 156.971 66.37 156.969 66.2541L156.815 59.6738C156.819 59.5451 156.857 59.4199 156.924 59.3103C156.992 59.2008 157.087 59.1107 157.2 59.0491L159.344 57.8361C159.456 57.7726 159.583 57.7392 159.712 57.7392C159.841 57.7392 159.967 57.7726 160.08 57.8361L165.683 61.3689C165.73 61.3994 165.783 61.4197 165.838 61.4285C165.894 61.4374 165.951 61.4346 166.005 61.4203C166.059 61.4061 166.11 61.3807 166.154 61.3457C166.198 61.3108 166.235 61.267 166.261 61.2173L168.009 58.0211C168.062 57.9181 168.075 57.7989 168.045 57.6868C168.015 57.5747 167.945 57.4777 167.848 57.4146L163.275 54.5884Z" fill="#4C4C4C"/>
</g>
<path d="M171.12 51.8161C171.17 51.8436 171.214 51.8807 171.249 51.9252C171.284 51.9697 171.311 52.0208 171.326 52.0755C171.341 52.1302 171.346 52.1874 171.339 52.2438C171.333 52.3003 171.315 52.3548 171.287 52.4044L169.47 55.5823C169.411 55.6847 169.315 55.7597 169.201 55.7909C169.088 55.8222 168.966 55.8072 168.864 55.7491L164.17 53.117L163.41 52.6924L159.142 50.309L158.376 49.8935L152.716 46.8762C152.504 46.764 152.504 46.573 152.716 46.4669L159.136 43.0281L159.533 42.8158L159.93 42.6036L163.419 40.7477L164.188 40.3353L168.946 37.8123C168.997 37.7833 169.054 37.7651 169.113 37.7585C169.171 37.752 169.231 37.7574 169.287 37.7744C169.344 37.7914 169.396 37.8196 169.442 37.8574C169.487 37.8952 169.524 37.9417 169.552 37.9943L171.142 40.9751C171.169 41.0257 171.185 41.0811 171.191 41.1382C171.197 41.1953 171.191 41.253 171.175 41.3079C171.158 41.3628 171.131 41.4139 171.094 41.4583C171.058 41.5026 171.013 41.5394 170.963 41.5665L165.542 44.4533C165.432 44.5188 165.343 44.6131 165.284 44.726C165.225 44.8389 165.197 44.9659 165.205 45.0932C165.205 45.0932 165.311 46.0029 165.311 46.7125C165.311 47.3402 165.23 48.1256 165.23 48.1256C165.223 48.253 165.251 48.3798 165.31 48.4929C165.37 48.6059 165.458 48.7011 165.566 48.7685L171.12 51.8161Z" fill="url(#paint15_linear_976_17133)"/>
<g opacity="0.15">
<path opacity="0.15" d="M166.285 32.0407C166.259 31.9911 166.222 31.9477 166.178 31.913C166.134 31.8784 166.083 31.8533 166.029 31.8393C165.974 31.8254 165.918 31.8228 165.862 31.8319C165.807 31.841 165.754 31.8615 165.707 31.8921L160.104 35.4218C159.992 35.4859 159.865 35.5196 159.736 35.5196C159.607 35.5196 159.48 35.4859 159.368 35.4218L157.224 34.224C157.111 34.1624 157.016 34.0723 156.949 33.9628C156.881 33.8532 156.843 33.7279 156.839 33.5993L156.994 27.0189C156.995 26.9604 156.984 26.9023 156.963 26.8479C156.941 26.7935 156.909 26.7439 156.868 26.7021C156.827 26.6603 156.779 26.6271 156.725 26.6045C156.671 26.5818 156.613 26.5701 156.554 26.5702L153.178 26.4913C153.062 26.4889 152.951 26.5321 152.868 26.6117C152.784 26.6912 152.736 26.8006 152.732 26.9158L152.617 32.6289L152.599 33.5023L152.511 36.9714L152.511 37.4202L152.511 37.869L152.314 45.1589C152.314 45.3985 152.469 45.4895 152.672 45.3621L158.078 41.9082L158.814 41.4442L162.53 39.1456L163.272 38.6847L167.863 35.8433C167.96 35.7802 168.031 35.6832 168.06 35.5711C168.09 35.459 168.077 35.3398 168.024 35.2368L166.285 32.0407Z" fill="#4C4C4C"/>
</g>
<g opacity="0.15">
<path opacity="0.15" d="M163.275 54.5884L162.533 54.1274L158.82 51.8319C158.617 51.7045 158.284 51.4983 158.084 51.3679L152.678 47.917C152.475 47.7866 152.314 47.8776 152.32 48.1172L152.487 55.395L152.487 55.8438L152.487 56.2956L152.569 59.7678L152.587 60.6411L152.72 66.3542C152.723 66.4698 152.772 66.5794 152.855 66.6594C152.939 66.7395 153.05 66.7834 153.165 66.7818L156.542 66.7029C156.658 66.699 156.768 66.6497 156.847 66.5658C156.927 66.4819 156.971 66.37 156.969 66.2541L156.815 59.6738C156.819 59.5451 156.857 59.4199 156.924 59.3103C156.992 59.2008 157.087 59.1107 157.2 59.0491L159.344 57.8361C159.456 57.7726 159.583 57.7392 159.712 57.7392C159.841 57.7392 159.967 57.7726 160.08 57.8361L165.683 61.3689C165.73 61.3994 165.783 61.4197 165.838 61.4285C165.894 61.4374 165.951 61.4346 166.005 61.4203C166.059 61.4061 166.11 61.3807 166.154 61.3457C166.198 61.3108 166.235 61.267 166.261 61.2173L168.009 58.0211C168.062 57.9181 168.075 57.7989 168.045 57.6868C168.015 57.5747 167.945 57.4777 167.848 57.4146L163.275 54.5884Z" fill="#4C4C4C"/>
</g>
<path d="M145.503 164.373L144.764 164.84L141.033 167.151L140.291 167.609L135.715 170.441C135.617 170.504 135.547 170.601 135.518 170.713C135.488 170.825 135.501 170.944 135.554 171.047L137.293 174.24C137.319 174.29 137.355 174.334 137.399 174.369C137.443 174.404 137.494 174.429 137.548 174.444C137.603 174.458 137.66 174.461 137.715 174.452C137.771 174.443 137.824 174.423 137.871 174.392L143.471 170.874C143.583 170.81 143.71 170.777 143.839 170.777C143.968 170.777 144.095 170.81 144.207 170.874L146.363 172.087C146.476 172.149 146.571 172.239 146.638 172.349C146.706 172.458 146.743 172.584 146.748 172.712L146.593 179.283C146.592 179.399 146.635 179.511 146.715 179.595C146.795 179.679 146.905 179.728 147.02 179.732L150.397 179.811C150.513 179.813 150.624 179.769 150.707 179.689C150.791 179.609 150.839 179.499 150.842 179.383L150.976 173.673L150.994 172.8L151.076 169.325V168.873V168.424L151.242 161.146C151.242 160.907 151.088 160.816 150.885 160.946L145.503 164.373Z" fill="url(#paint16_linear_976_17133)"/>
<path d="M144.299 155.998L143.904 155.788L143.51 155.579L140.056 153.749L139.291 153.342L134.571 150.841C134.52 150.812 134.464 150.795 134.406 150.788C134.349 150.782 134.29 150.788 134.235 150.805C134.179 150.821 134.127 150.849 134.082 150.887C134.038 150.924 134.001 150.97 133.974 151.022L132.41 153.995C132.381 154.046 132.363 154.102 132.356 154.16C132.349 154.219 132.355 154.278 132.372 154.334C132.389 154.39 132.417 154.442 132.454 154.487C132.492 154.532 132.538 154.569 132.59 154.595L137.984 157.457C138.093 157.521 138.182 157.614 138.241 157.726C138.301 157.838 138.328 157.964 138.321 158.091C138.321 158.091 138.222 158.999 138.224 159.699C138.237 160.321 138.31 161.099 138.31 161.099C138.317 161.226 138.29 161.352 138.231 161.465C138.173 161.578 138.085 161.673 137.978 161.739L132.446 164.802C132.396 164.829 132.352 164.866 132.317 164.91C132.282 164.954 132.256 165.005 132.24 165.06C132.225 165.114 132.221 165.172 132.227 165.228C132.234 165.284 132.252 165.339 132.28 165.388L134.092 168.546C134.121 168.597 134.16 168.641 134.206 168.677C134.252 168.712 134.304 168.739 134.36 168.754C134.416 168.769 134.475 168.773 134.532 168.765C134.59 168.757 134.646 168.738 134.696 168.709L139.359 166.069L140.113 165.643L144.323 163.26C144.531 163.144 144.869 162.947 145.08 162.843L150.679 159.818C150.887 159.705 150.889 159.512 150.67 159.411L144.299 155.998Z" fill="url(#paint17_linear_976_17133)"/>
<path d="M166.385 145.013C166.358 144.964 166.322 144.92 166.278 144.886C166.233 144.851 166.183 144.826 166.128 144.812C166.074 144.798 166.017 144.795 165.962 144.805C165.906 144.814 165.854 144.834 165.806 144.865L160.204 148.394C160.091 148.459 159.965 148.492 159.836 148.492C159.707 148.492 159.58 148.459 159.468 148.394L157.323 147.197C157.211 147.135 157.116 147.045 157.048 146.935C156.981 146.826 156.943 146.701 156.939 146.572L157.093 139.992C157.094 139.933 157.084 139.875 157.062 139.821C157.041 139.766 157.009 139.717 156.968 139.675C156.927 139.633 156.878 139.6 156.824 139.577C156.77 139.554 156.713 139.543 156.654 139.543L153.277 139.464C153.162 139.462 153.051 139.505 152.967 139.584C152.884 139.664 152.835 139.773 152.832 139.889L152.717 145.602L152.699 146.475L152.611 149.944L152.611 150.393L152.611 150.842L152.414 158.132C152.414 158.371 152.569 158.462 152.771 158.335L158.177 154.881L158.913 154.417L162.629 152.118L163.371 151.657L167.963 148.816C168.06 148.753 168.13 148.656 168.16 148.544C168.19 148.432 168.177 148.312 168.123 148.209L166.385 145.013Z" fill="url(#paint18_linear_976_17133)"/>
<path d="M137.271 145.022C137.298 144.973 137.334 144.929 137.379 144.894C137.423 144.86 137.474 144.835 137.528 144.821C137.582 144.807 137.639 144.804 137.694 144.813C137.75 144.822 137.803 144.843 137.85 144.874L143.453 148.403C143.565 148.467 143.692 148.501 143.821 148.501C143.95 148.501 144.077 148.467 144.189 148.403L146.333 147.205C146.446 147.144 146.541 147.054 146.608 146.944C146.675 146.835 146.713 146.709 146.717 146.581L146.563 140C146.562 139.942 146.572 139.884 146.594 139.829C146.615 139.775 146.647 139.725 146.688 139.684C146.729 139.642 146.778 139.609 146.832 139.586C146.886 139.563 146.944 139.552 147.002 139.552L150.379 139.473C150.494 139.47 150.606 139.514 150.689 139.593C150.772 139.673 150.821 139.782 150.824 139.897L150.939 145.61L150.958 146.484L151.045 149.953L151.045 150.402L151.045 150.85L151.242 158.14C151.242 158.38 151.088 158.471 150.885 158.344L145.479 154.89L144.743 154.426L141.027 152.127L140.285 151.666L135.693 148.825C135.596 148.762 135.526 148.665 135.496 148.553C135.467 148.44 135.48 148.321 135.533 148.218L137.271 145.022Z" fill="url(#paint19_linear_976_17133)"/>
<path d="M163.38 167.559L162.638 167.098L158.925 164.803C158.722 164.675 158.389 164.469 158.189 164.339L152.783 160.888C152.58 160.757 152.42 160.848 152.426 161.088L152.593 168.366L152.593 168.815L152.593 169.266L152.674 172.738L152.692 173.612L152.826 179.325C152.829 179.44 152.877 179.55 152.961 179.63C153.044 179.71 153.155 179.754 153.271 179.752L156.648 179.674C156.763 179.67 156.873 179.62 156.953 179.537C157.033 179.453 157.076 179.341 157.075 179.225L156.92 172.644C156.925 172.516 156.962 172.391 157.03 172.281C157.097 172.171 157.192 172.081 157.305 172.02L159.449 170.807C159.561 170.743 159.688 170.71 159.817 170.71C159.946 170.71 160.073 170.743 160.185 170.807L165.788 174.34C165.835 174.37 165.888 174.39 165.944 174.399C165.999 174.408 166.056 174.405 166.111 174.391C166.165 174.377 166.216 174.351 166.26 174.316C166.304 174.281 166.34 174.238 166.366 174.188L168.114 170.992C168.167 170.889 168.18 170.77 168.151 170.658C168.121 170.545 168.051 170.448 167.953 170.385L163.38 167.559Z" fill="url(#paint20_linear_976_17133)"/>
<path d="M151.082 150.856V150.408V149.959L151 146.481L150.982 145.607L150.848 139.897C150.845 139.782 150.797 139.673 150.713 139.593C150.63 139.514 150.518 139.47 150.403 139.473L147.026 139.552C146.911 139.555 146.801 139.603 146.722 139.687C146.642 139.77 146.598 139.882 146.599 139.997L146.754 146.566C146.748 146.694 146.709 146.819 146.641 146.928C146.572 147.037 146.476 147.126 146.363 147.187L144.204 148.385C144.092 148.449 143.965 148.483 143.836 148.483C143.707 148.483 143.58 148.449 143.468 148.385L137.88 144.864C137.833 144.834 137.78 144.813 137.725 144.804C137.669 144.795 137.613 144.798 137.558 144.812C137.504 144.826 137.453 144.851 137.409 144.885C137.365 144.92 137.328 144.963 137.302 145.013L135.554 148.209C135.501 148.312 135.488 148.431 135.518 148.543C135.547 148.656 135.617 148.753 135.715 148.816L140.288 151.648L141.03 152.106L144.764 154.417L145.503 154.881L150.906 158.344C151.109 158.471 151.269 158.38 151.263 158.14L151.082 150.856Z" fill="url(#paint21_linear_976_17133)"/>
<path d="M171.228 164.789C171.277 164.816 171.321 164.853 171.356 164.898C171.392 164.942 171.418 164.993 171.433 165.048C171.449 165.103 171.453 165.16 171.447 165.216C171.44 165.273 171.422 165.327 171.394 165.377L169.577 168.555C169.519 168.657 169.422 168.732 169.309 168.764C169.195 168.795 169.074 168.78 168.971 168.722L164.277 166.09L163.517 165.665L159.25 163.282L158.483 162.866L152.823 159.849C152.611 159.737 152.611 159.546 152.823 159.44L159.244 156.001L159.64 155.788L160.037 155.576L163.526 153.72L164.295 153.308L169.053 150.785C169.105 150.756 169.161 150.738 169.22 150.731C169.279 150.725 169.338 150.73 169.395 150.747C169.451 150.764 169.504 150.792 169.549 150.83C169.595 150.868 169.632 150.914 169.659 150.967L171.249 153.948C171.276 153.998 171.293 154.054 171.299 154.111C171.304 154.168 171.299 154.226 171.282 154.281C171.265 154.335 171.238 154.387 171.202 154.431C171.165 154.475 171.121 154.512 171.07 154.539L165.649 157.426C165.54 157.491 165.451 157.586 165.391 157.699C165.332 157.812 165.305 157.939 165.313 158.066C165.313 158.066 165.419 158.976 165.419 159.685C165.419 160.313 165.337 161.098 165.337 161.098C165.331 161.226 165.359 161.352 165.418 161.466C165.477 161.579 165.565 161.674 165.673 161.741L171.228 164.789Z" fill="url(#paint22_linear_976_17133)"/>
<g opacity="0.15">
<path opacity="0.15" d="M166.393 145.013C166.366 144.964 166.33 144.92 166.285 144.886C166.241 144.851 166.19 144.826 166.136 144.812C166.082 144.798 166.025 144.795 165.97 144.805C165.914 144.814 165.861 144.834 165.814 144.865L160.211 148.394C160.099 148.459 159.972 148.492 159.843 148.492C159.714 148.492 159.588 148.459 159.475 148.394L157.331 147.197C157.218 147.135 157.124 147.045 157.056 146.935C156.989 146.826 156.951 146.701 156.947 146.572L157.101 139.992C157.102 139.933 157.092 139.875 157.07 139.821C157.049 139.766 157.017 139.717 156.976 139.675C156.935 139.633 156.886 139.6 156.832 139.577C156.778 139.554 156.72 139.543 156.662 139.543L153.285 139.464C153.17 139.462 153.058 139.505 152.975 139.584C152.892 139.664 152.843 139.773 152.84 139.889L152.725 145.602L152.707 146.475L152.619 149.944L152.619 150.393L152.619 150.842L152.422 158.132C152.422 158.371 152.576 158.462 152.779 158.335L158.185 154.881L158.921 154.417L162.637 152.118L163.379 151.657L167.971 148.816C168.068 148.753 168.138 148.656 168.168 148.544C168.197 148.432 168.184 148.312 168.131 148.209L166.393 145.013Z" fill="#4C4C4C"/>
</g>
<g opacity="0.15">
<path opacity="0.15" d="M163.382 167.561L162.64 167.1L158.927 164.805C158.724 164.677 158.391 164.471 158.191 164.341L152.785 160.89C152.582 160.759 152.422 160.85 152.428 161.09L152.594 168.368L152.594 168.816L152.594 169.268L152.676 172.74L152.694 173.614L152.828 179.327C152.831 179.442 152.879 179.552 152.963 179.632C153.046 179.712 153.157 179.756 153.273 179.754L156.65 179.676C156.765 179.672 156.875 179.622 156.955 179.538C157.035 179.455 157.078 179.343 157.077 179.227L156.922 172.646C156.927 172.518 156.964 172.393 157.032 172.283C157.099 172.173 157.194 172.083 157.307 172.022L159.451 170.809C159.563 170.745 159.69 170.712 159.819 170.712C159.948 170.712 160.075 170.745 160.187 170.809L165.79 174.342C165.837 174.372 165.89 174.392 165.946 174.401C166.001 174.41 166.058 174.407 166.112 174.393C166.167 174.379 166.218 174.353 166.262 174.318C166.306 174.283 166.342 174.24 166.368 174.19L168.116 170.994C168.169 170.891 168.182 170.772 168.153 170.659C168.123 170.547 168.053 170.45 167.955 170.387L163.382 167.561Z" fill="#4C4C4C"/>
</g>
<path d="M171.228 164.789C171.277 164.816 171.321 164.853 171.356 164.898C171.392 164.942 171.418 164.993 171.433 165.048C171.449 165.103 171.453 165.16 171.447 165.216C171.44 165.273 171.422 165.327 171.394 165.377L169.577 168.555C169.519 168.657 169.422 168.732 169.309 168.764C169.195 168.795 169.074 168.78 168.971 168.722L164.277 166.09L163.517 165.665L159.25 163.282L158.483 162.866L152.823 159.849C152.611 159.737 152.611 159.546 152.823 159.44L159.244 156.001L159.64 155.788L160.037 155.576L163.526 153.72L164.295 153.308L169.053 150.785C169.105 150.756 169.161 150.738 169.22 150.731C169.279 150.725 169.338 150.73 169.395 150.747C169.451 150.764 169.504 150.792 169.549 150.83C169.595 150.868 169.632 150.914 169.659 150.967L171.249 153.948C171.276 153.998 171.293 154.054 171.299 154.111C171.304 154.168 171.299 154.226 171.282 154.281C171.265 154.335 171.238 154.387 171.202 154.431C171.165 154.475 171.121 154.512 171.07 154.539L165.649 157.426C165.54 157.491 165.451 157.586 165.391 157.699C165.332 157.812 165.305 157.939 165.313 158.066C165.313 158.066 165.419 158.976 165.419 159.685C165.419 160.313 165.337 161.098 165.337 161.098C165.331 161.226 165.359 161.352 165.418 161.466C165.477 161.579 165.565 161.674 165.673 161.741L171.228 164.789Z" fill="url(#paint23_linear_976_17133)"/>
<g opacity="0.15">
<path opacity="0.15" d="M166.393 145.013C166.366 144.964 166.33 144.92 166.285 144.886C166.241 144.851 166.19 144.826 166.136 144.812C166.082 144.798 166.025 144.795 165.97 144.805C165.914 144.814 165.861 144.834 165.814 144.865L160.211 148.394C160.099 148.459 159.972 148.492 159.843 148.492C159.714 148.492 159.588 148.459 159.475 148.394L157.331 147.197C157.218 147.135 157.124 147.045 157.056 146.935C156.989 146.826 156.951 146.701 156.947 146.572L157.101 139.992C157.102 139.933 157.092 139.875 157.07 139.821C157.049 139.766 157.017 139.717 156.976 139.675C156.935 139.633 156.886 139.6 156.832 139.577C156.778 139.554 156.72 139.543 156.662 139.543L153.285 139.464C153.17 139.462 153.058 139.505 152.975 139.584C152.892 139.664 152.843 139.773 152.84 139.889L152.725 145.602L152.707 146.475L152.619 149.944L152.619 150.393L152.619 150.842L152.422 158.132C152.422 158.371 152.576 158.462 152.779 158.335L158.185 154.881L158.921 154.417L162.637 152.118L163.379 151.657L167.971 148.816C168.068 148.753 168.138 148.656 168.168 148.544C168.197 148.432 168.184 148.312 168.131 148.209L166.393 145.013Z" fill="#4C4C4C"/>
</g>
<g opacity="0.15">
<path opacity="0.15" d="M163.382 167.561L162.64 167.1L158.927 164.805C158.724 164.677 158.391 164.471 158.191 164.341L152.785 160.89C152.582 160.759 152.422 160.85 152.428 161.09L152.594 168.368L152.594 168.816L152.594 169.268L152.676 172.74L152.694 173.614L152.828 179.327C152.831 179.442 152.879 179.552 152.963 179.632C153.046 179.712 153.157 179.756 153.273 179.754L156.65 179.676C156.765 179.672 156.875 179.622 156.955 179.538C157.035 179.455 157.078 179.343 157.077 179.227L156.922 172.646C156.927 172.518 156.964 172.393 157.032 172.283C157.099 172.173 157.194 172.083 157.307 172.022L159.451 170.809C159.563 170.745 159.69 170.712 159.819 170.712C159.948 170.712 160.075 170.745 160.187 170.809L165.79 174.342C165.837 174.372 165.89 174.392 165.946 174.401C166.001 174.41 166.058 174.407 166.112 174.393C166.167 174.379 166.218 174.353 166.262 174.318C166.306 174.283 166.342 174.24 166.368 174.19L168.116 170.994C168.169 170.891 168.182 170.772 168.153 170.659C168.123 170.547 168.053 170.45 167.955 170.387L163.382 167.561Z" fill="#4C4C4C"/>
</g>
<defs>
<linearGradient id="paint0_linear_976_17133" x1="61.5865" y1="107.304" x2="53.3845" y2="121.632" gradientUnits="userSpaceOnUse">
<stop offset="0.09" stop-color="#009444"/>
<stop offset="0.11" stop-color="#08994A"/>
<stop offset="0.18" stop-color="#20A75A"/>
<stop offset="0.25" stop-color="#32B268"/>
<stop offset="0.34" stop-color="#3FB971"/>
<stop offset="0.46" stop-color="#47BE76"/>
<stop offset="0.7" stop-color="#49BF78"/>
</linearGradient>
<linearGradient id="paint1_linear_976_17133" x1="45.2024" y1="103.488" x2="60.8938" y2="102.596" gradientUnits="userSpaceOnUse">
<stop offset="0.61" stop-color="#EFC739"/>
<stop offset="0.68" stop-color="#EFB43B"/>
<stop offset="0.79" stop-color="#EEA13D"/>
<stop offset="0.89" stop-color="#EE963E"/>
<stop offset="1" stop-color="#EE923E"/>
</linearGradient>
<linearGradient id="paint2_linear_976_17133" x1="73.4008" y1="85.7909" x2="66.0627" y2="100.609" gradientUnits="userSpaceOnUse">
<stop offset="0.58" stop-color="#CC4040"/>
<stop offset="0.71" stop-color="#B83A3A"/>
<stop offset="0.88" stop-color="#A53434"/>
<stop offset="1" stop-color="#9E3232"/>
</linearGradient>
<linearGradient id="paint3_linear_976_17133" x1="54.0211" y1="85.7997" x2="61.3591" y2="100.618" gradientUnits="userSpaceOnUse">
<stop offset="0.58" stop-color="#CC4040"/>
<stop offset="0.71" stop-color="#B83A3A"/>
<stop offset="0.88" stop-color="#A53434"/>
<stop offset="1" stop-color="#9E3232"/>
</linearGradient>
<linearGradient id="paint4_linear_976_17133" x1="66.4045" y1="107.488" x2="74.2094" y2="122.053" gradientUnits="userSpaceOnUse">
<stop stop-color="#2B77AA"/>
<stop offset="0.31" stop-color="#0495B7"/>
</linearGradient>
<linearGradient id="paint5_linear_976_17133" x1="54.0211" y1="85.824" x2="61.5319" y2="100.551" gradientUnits="userSpaceOnUse">
<stop offset="0.63" stop-color="#EE923E"/>
<stop offset="1" stop-color="#CC4040"/>
</linearGradient>
<linearGradient id="paint6_linear_976_17133" x1="68.0737" y1="103.153" x2="83.8768" y2="103.461" gradientUnits="userSpaceOnUse">
<stop stop-color="#662D91"/>
<stop offset="0.17" stop-color="#6B25B8"/>
<stop offset="0.31" stop-color="#6F21CF"/>
<stop offset="0.39" stop-color="#701FD8"/>
</linearGradient>
<linearGradient id="paint7_linear_976_17133" x1="68.0737" y1="103.153" x2="83.8768" y2="103.461" gradientUnits="userSpaceOnUse">
<stop stop-color="#662D91"/>
<stop offset="0.17" stop-color="#6B25B8"/>
<stop offset="0.31" stop-color="#6F21CF"/>
<stop offset="0.39" stop-color="#701FD8"/>
</linearGradient>
<linearGradient id="paint8_linear_976_17133" x1="149.596" y1="50.6786" x2="141.394" y2="65.0069" gradientUnits="userSpaceOnUse">
<stop offset="0.09" stop-color="#009444"/>
<stop offset="0.11" stop-color="#08994A"/>
<stop offset="0.18" stop-color="#20A75A"/>
<stop offset="0.25" stop-color="#32B268"/>
<stop offset="0.34" stop-color="#3FB971"/>
<stop offset="0.46" stop-color="#47BE76"/>
<stop offset="0.7" stop-color="#49BF78"/>
</linearGradient>
<linearGradient id="paint9_linear_976_17133" x1="133.212" y1="46.863" x2="148.904" y2="45.9712" gradientUnits="userSpaceOnUse">
<stop offset="0.61" stop-color="#EFC739"/>
<stop offset="0.68" stop-color="#EFB43B"/>
<stop offset="0.79" stop-color="#EEA13D"/>
<stop offset="0.89" stop-color="#EE963E"/>
<stop offset="1" stop-color="#EE923E"/>
</linearGradient>
<linearGradient id="paint10_linear_976_17133" x1="161.411" y1="29.1659" x2="154.072" y2="43.984" gradientUnits="userSpaceOnUse">
<stop offset="0.58" stop-color="#CC4040"/>
<stop offset="0.71" stop-color="#B83A3A"/>
<stop offset="0.88" stop-color="#A53434"/>
<stop offset="1" stop-color="#9E3232"/>
</linearGradient>
<linearGradient id="paint11_linear_976_17133" x1="142.031" y1="29.1747" x2="149.369" y2="43.9928" gradientUnits="userSpaceOnUse">
<stop offset="0.58" stop-color="#CC4040"/>
<stop offset="0.71" stop-color="#B83A3A"/>
<stop offset="0.88" stop-color="#A53434"/>
<stop offset="1" stop-color="#9E3232"/>
</linearGradient>
<linearGradient id="paint12_linear_976_17133" x1="154.414" y1="50.8626" x2="162.219" y2="65.4282" gradientUnits="userSpaceOnUse">
<stop stop-color="#2B77AA"/>
<stop offset="0.31" stop-color="#0495B7"/>
</linearGradient>
<linearGradient id="paint13_linear_976_17133" x1="142.031" y1="29.199" x2="149.542" y2="43.9258" gradientUnits="userSpaceOnUse">
<stop offset="0.63" stop-color="#EE923E"/>
<stop offset="1" stop-color="#CC4040"/>
</linearGradient>
<linearGradient id="paint14_linear_976_17133" x1="156.083" y1="46.5275" x2="171.887" y2="46.836" gradientUnits="userSpaceOnUse">
<stop stop-color="#662D91"/>
<stop offset="0.17" stop-color="#6B25B8"/>
<stop offset="0.31" stop-color="#6F21CF"/>
<stop offset="0.39" stop-color="#701FD8"/>
</linearGradient>
<linearGradient id="paint15_linear_976_17133" x1="156.083" y1="46.5275" x2="171.887" y2="46.836" gradientUnits="userSpaceOnUse">
<stop stop-color="#662D91"/>
<stop offset="0.17" stop-color="#6B25B8"/>
<stop offset="0.31" stop-color="#6F21CF"/>
<stop offset="0.39" stop-color="#701FD8"/>
</linearGradient>
<linearGradient id="paint16_linear_976_17133" x1="149.704" y1="163.651" x2="141.502" y2="177.98" gradientUnits="userSpaceOnUse">
<stop offset="0.09" stop-color="#009444"/>
<stop offset="0.11" stop-color="#08994A"/>
<stop offset="0.18" stop-color="#20A75A"/>
<stop offset="0.25" stop-color="#32B268"/>
<stop offset="0.34" stop-color="#3FB971"/>
<stop offset="0.46" stop-color="#47BE76"/>
<stop offset="0.7" stop-color="#49BF78"/>
</linearGradient>
<linearGradient id="paint17_linear_976_17133" x1="133.32" y1="159.836" x2="149.011" y2="158.944" gradientUnits="userSpaceOnUse">
<stop offset="0.61" stop-color="#EFC739"/>
<stop offset="0.68" stop-color="#EFB43B"/>
<stop offset="0.79" stop-color="#EEA13D"/>
<stop offset="0.89" stop-color="#EE963E"/>
<stop offset="1" stop-color="#EE923E"/>
</linearGradient>
<linearGradient id="paint18_linear_976_17133" x1="161.518" y1="142.139" x2="154.18" y2="156.957" gradientUnits="userSpaceOnUse">
<stop offset="0.58" stop-color="#CC4040"/>
<stop offset="0.71" stop-color="#B83A3A"/>
<stop offset="0.88" stop-color="#A53434"/>
<stop offset="1" stop-color="#9E3232"/>
</linearGradient>
<linearGradient id="paint19_linear_976_17133" x1="142.138" y1="142.147" x2="149.476" y2="156.965" gradientUnits="userSpaceOnUse">
<stop offset="0.58" stop-color="#CC4040"/>
<stop offset="0.71" stop-color="#B83A3A"/>
<stop offset="0.88" stop-color="#A53434"/>
<stop offset="1" stop-color="#9E3232"/>
</linearGradient>
<linearGradient id="paint20_linear_976_17133" x1="154.522" y1="163.835" x2="162.327" y2="178.401" gradientUnits="userSpaceOnUse">
<stop stop-color="#2B77AA"/>
<stop offset="0.31" stop-color="#0495B7"/>
</linearGradient>
<linearGradient id="paint21_linear_976_17133" x1="142.138" y1="142.172" x2="149.649" y2="156.898" gradientUnits="userSpaceOnUse">
<stop offset="0.63" stop-color="#EE923E"/>
<stop offset="1" stop-color="#CC4040"/>
</linearGradient>
<linearGradient id="paint22_linear_976_17133" x1="156.191" y1="159.5" x2="171.994" y2="159.809" gradientUnits="userSpaceOnUse">
<stop stop-color="#662D91"/>
<stop offset="0.17" stop-color="#6B25B8"/>
<stop offset="0.31" stop-color="#6F21CF"/>
<stop offset="0.39" stop-color="#701FD8"/>
</linearGradient>
<linearGradient id="paint23_linear_976_17133" x1="156.191" y1="159.5" x2="171.994" y2="159.809" gradientUnits="userSpaceOnUse">
<stop stop-color="#662D91"/>
<stop offset="0.17" stop-color="#6B25B8"/>
<stop offset="0.31" stop-color="#6F21CF"/>
<stop offset="0.39" stop-color="#701FD8"/>
</linearGradient>
</defs>
</svg>
