<svg width="201" height="201" viewBox="0 0 201 201" fill="none" xmlns="http://www.w3.org/2000/svg">
<path fill-rule="evenodd" clip-rule="evenodd" d="M139.966 130.535C143.805 128.911 147.932 128.077 152.1 128.084C158.281 128.084 164.323 129.917 169.462 133.351C174.601 136.784 178.606 141.665 180.972 147.375C183.337 153.085 183.956 159.369 182.75 165.431C181.544 171.493 178.568 177.061 174.197 181.431C169.827 185.802 164.259 188.778 158.197 189.984C152.135 191.189 145.852 190.571 140.141 188.205C134.431 185.84 129.551 181.835 126.117 176.696C122.683 171.557 120.85 165.515 120.85 159.334C120.863 155.462 121.578 151.623 122.96 148.006L86.9441 124.881C82.608 129.336 77.0418 132.396 70.9573 133.67C64.8727 134.945 58.5463 134.376 52.787 132.035C47.0277 129.695 42.0972 125.69 38.6261 120.533C35.1549 115.376 33.3008 109.301 33.3008 103.084C33.3008 96.8675 35.1549 90.7921 38.6261 85.6349C42.0972 80.4777 47.0277 76.473 52.787 74.1328C58.5463 71.7926 64.8727 71.2234 70.9573 72.4978C77.0418 73.7722 82.608 76.8325 86.9441 81.2872L122.96 58.1622C121.578 54.5447 120.863 50.7066 120.85 46.8341C120.839 39.587 123.346 32.5611 127.943 26.9589C132.541 21.3568 138.942 17.5266 146.052 16.1241C153.162 14.7215 160.539 15.8337 166.919 19.2704C173.3 22.707 178.287 28.2544 181.029 34.9631C183.77 41.6718 184.094 49.1246 181.946 56.046C179.798 62.9674 175.311 68.9271 169.253 72.9049C163.195 76.8828 155.943 78.6315 148.738 77.8519C141.533 77.0722 134.823 73.8126 129.757 68.6309L93.7409 91.7559C96.5523 99.0464 96.5523 107.122 93.7409 114.412L129.757 137.537C132.655 134.541 136.127 132.159 139.966 130.535ZM64.5527 124.084C76.1507 124.084 85.5527 114.682 85.5527 103.084C85.5527 91.486 76.1507 82.084 64.5527 82.084C52.9548 82.084 43.5527 91.486 43.5527 103.084C43.5527 114.682 52.9548 124.084 64.5527 124.084ZM173.428 46.5186C173.428 58.1165 164.026 67.5186 152.428 67.5186C140.83 67.5186 131.428 58.1165 131.428 46.5186C131.428 34.9206 140.83 25.5186 152.428 25.5186C164.026 25.5186 173.428 34.9206 173.428 46.5186ZM152.553 180.394C164.151 180.394 173.553 170.992 173.553 159.394C173.553 147.796 164.151 138.394 152.553 138.394C140.955 138.394 131.553 147.796 131.553 159.394C131.553 170.992 140.955 180.394 152.553 180.394Z" fill="#4B32FF"/>
<path d="M58.1886 107.794L57.4496 108.261L53.7184 110.572L52.9764 111.029L48.4002 113.862C48.303 113.925 48.2327 114.022 48.2031 114.134C48.1734 114.246 48.1864 114.365 48.2397 114.468L49.9781 117.661C50.0044 117.711 50.0407 117.755 50.0848 117.79C50.1288 117.825 50.1796 117.85 50.234 117.864C50.2884 117.879 50.3452 117.882 50.4007 117.873C50.4562 117.864 50.5093 117.843 50.5565 117.813L56.1564 114.295C56.2685 114.231 56.3953 114.198 56.5244 114.198C56.6534 114.198 56.7803 114.231 56.8923 114.295L59.0487 115.508C59.1615 115.57 59.2563 115.66 59.3238 115.77C59.3912 115.879 59.429 116.004 59.4333 116.133L59.2788 122.704C59.2772 122.82 59.321 122.932 59.4008 123.016C59.4807 123.1 59.5902 123.149 59.7059 123.153L63.0827 123.232C63.1982 123.234 63.3096 123.19 63.393 123.11C63.4763 123.03 63.5248 122.92 63.5279 122.804L63.6612 117.094L63.6794 116.221L63.7611 112.746V112.294V111.845L63.9277 104.567C63.9277 104.328 63.7733 104.237 63.5703 104.367L58.1886 107.794Z" fill="#49BF78"/>
<path d="M56.9844 99.4185L56.5898 99.209L56.1952 98.9996L52.7412 97.1701L51.9763 96.7629L47.2565 94.2615C47.2057 94.2332 47.1497 94.2154 47.0919 94.2092C47.0341 94.2031 46.9757 94.2086 46.9201 94.2255C46.8644 94.2423 46.8127 94.2703 46.768 94.3076C46.7233 94.3449 46.6864 94.3908 46.6597 94.4427L45.0955 97.4156C45.0665 97.4666 45.0482 97.5229 45.0416 97.5812C45.035 97.6395 45.0403 97.6986 45.0572 97.7548C45.0741 97.8109 45.1022 97.8631 45.1398 97.908C45.1773 97.9529 45.2236 97.9896 45.2758 98.0159L50.6694 100.878C50.7781 100.942 50.8671 101.035 50.9266 101.147C50.9861 101.259 51.0138 101.385 51.0065 101.511C51.0065 101.511 50.9078 102.419 50.91 103.12C50.9226 103.742 50.9954 104.519 50.9954 104.519C51.0025 104.646 50.9754 104.773 50.9169 104.886C50.8584 104.999 50.7707 105.093 50.6631 105.16L45.1313 108.223C45.0816 108.25 45.0379 108.287 45.0026 108.331C44.9673 108.375 44.9412 108.426 44.9258 108.481C44.9104 108.535 44.9061 108.593 44.9129 108.649C44.9198 108.705 44.9379 108.76 44.966 108.809L46.7775 111.967C46.8065 112.018 46.8451 112.062 46.8911 112.098C46.9371 112.133 46.9897 112.159 47.0458 112.175C47.1019 112.19 47.1604 112.194 47.218 112.186C47.2756 112.178 47.3311 112.159 47.3813 112.13L52.0449 109.49L52.799 109.064L57.0084 106.681C57.2162 106.565 57.5545 106.367 57.7656 106.264L63.3643 103.239C63.5722 103.126 63.5742 102.933 63.356 102.832L56.9844 99.4185Z" fill="#49BF78"/>
<path d="M79.0704 88.4342C79.0439 88.3847 79.0074 88.3412 78.9632 88.3066C78.919 88.2719 78.8681 88.2468 78.8138 88.2329C78.7594 88.2189 78.7027 88.2164 78.6474 88.2255C78.592 88.2345 78.5391 88.255 78.492 88.2856L72.8891 91.8154C72.777 91.8794 72.6502 91.9132 72.5211 91.9132C72.3921 91.9132 72.2652 91.8794 72.1532 91.8154L70.0089 90.6176C69.8961 90.5559 69.8013 90.4659 69.7338 90.3563C69.6664 90.2468 69.6286 90.1215 69.6243 89.9929L69.7788 83.4125C69.78 83.354 69.7695 83.2958 69.748 83.2414C69.7265 83.187 69.6943 83.1375 69.6534 83.0957C69.6125 83.0539 69.5637 83.0207 69.5098 82.998C69.4559 82.9754 69.3981 82.9637 69.3396 82.9637L65.9628 82.8849C65.8476 82.8824 65.7361 82.9257 65.6527 83.0052C65.5693 83.0848 65.5207 83.1941 65.5176 83.3094L65.4025 89.0225L65.3843 89.8958L65.2965 93.3649L65.2965 93.8137L65.2965 94.2625L65.0996 101.552C65.0996 101.792 65.2541 101.883 65.457 101.756L70.863 98.3017L71.5989 97.8378L75.315 95.5392L76.057 95.0782L80.6483 92.2369C80.7455 92.1738 80.8158 92.0767 80.8455 91.9646C80.8751 91.8525 80.8621 91.7334 80.8088 91.6304L79.0704 88.4342Z" fill="#49BF78"/>
<path d="M49.9569 88.443C49.9835 88.3935 50.02 88.35 50.0642 88.3154C50.1083 88.2807 50.1592 88.2556 50.2136 88.2417C50.2679 88.2277 50.3246 88.2252 50.38 88.2343C50.4354 88.2433 50.4883 88.2638 50.5354 88.2944L56.1382 91.8241C56.2503 91.8882 56.3771 91.9219 56.5062 91.9219C56.6353 91.9219 56.7621 91.8882 56.8742 91.8241L59.0184 90.6263C59.1312 90.5647 59.2261 90.4747 59.2935 90.3651C59.361 90.2556 59.3987 90.1303 59.403 90.0017L59.2486 83.4213C59.2474 83.3628 59.2578 83.3046 59.2794 83.2502C59.3009 83.1958 59.333 83.1463 59.3739 83.1045C59.4148 83.0627 59.4637 83.0295 59.5175 83.0068C59.5714 82.9842 59.6293 82.9725 59.6877 82.9725L63.0646 82.8937C63.1797 82.8912 63.2912 82.9345 63.3746 83.014C63.458 83.0936 63.5066 83.2029 63.5098 83.3182L63.6249 89.0313L63.643 89.9046L63.7309 93.3737L63.7309 93.8225L63.7309 94.2713L63.9277 101.561C63.9277 101.801 63.7733 101.892 63.5704 101.764L58.1643 98.3105L57.4284 97.8465L53.7123 95.548L52.9703 95.087L48.379 92.2457C48.2818 92.1826 48.2115 92.0855 48.1819 91.9734C48.1522 91.8613 48.1653 91.7422 48.2185 91.6392L49.9569 88.443Z" fill="#49BF78"/>
<path d="M76.0659 110.98L75.3239 110.519L71.6108 108.224C71.4079 108.096 71.0748 107.89 70.8749 107.76L65.4689 104.309C65.266 104.178 65.1054 104.269 65.1115 104.509L65.2781 111.787L65.2781 112.235L65.2781 112.687L65.3598 116.159L65.378 117.033L65.5113 122.746C65.5144 122.861 65.5629 122.971 65.6463 123.051C65.7296 123.131 65.841 123.175 65.9565 123.173L69.3333 123.095C69.449 123.091 69.5585 123.041 69.6384 122.957C69.7182 122.874 69.762 122.762 69.7604 122.646L69.6059 116.065C69.6102 115.937 69.648 115.811 69.7154 115.702C69.7829 115.592 69.8777 115.502 69.9905 115.441L72.1348 114.228C72.247 114.164 72.3738 114.131 72.5027 114.131C72.6317 114.131 72.7584 114.164 72.8707 114.228L78.4736 117.76C78.5208 117.791 78.5739 117.811 78.6294 117.82C78.685 117.829 78.7417 117.826 78.7961 117.812C78.8505 117.798 78.9013 117.772 78.9454 117.737C78.9894 117.702 79.0258 117.659 79.052 117.609L80.7995 114.413C80.8528 114.31 80.8658 114.191 80.8361 114.078C80.8065 113.966 80.7362 113.869 80.639 113.806L76.0659 110.98Z" fill="#49BF78"/>
<path d="M63.7672 94.2774V93.8286V93.3798L63.6854 89.9016L63.6673 89.0283L63.534 83.3182C63.5308 83.2029 63.4822 83.0936 63.3988 83.014C63.3154 82.9345 63.204 82.8912 63.0888 82.8937L59.7119 82.9725C59.5965 82.9757 59.487 83.0242 59.4071 83.1077C59.3272 83.1911 59.2833 83.3027 59.2849 83.4183L59.4394 89.9865C59.4336 90.1151 59.3946 90.2401 59.3261 90.349C59.2576 90.458 59.162 90.5473 59.0487 90.6081L56.8893 91.806C56.7772 91.87 56.6504 91.9037 56.5213 91.9037C56.3923 91.9037 56.2654 91.87 56.1534 91.806L50.5656 88.2853C50.5185 88.2547 50.4656 88.2342 50.4103 88.2252C50.3549 88.2161 50.2982 88.2186 50.2438 88.2326C50.1895 88.2465 50.1386 88.2716 50.0944 88.3063C50.0502 88.3409 50.0137 88.3844 49.9872 88.4339L48.2397 91.6301C48.1864 91.7331 48.1734 91.8522 48.2031 91.9643C48.2327 92.0764 48.303 92.1735 48.4002 92.2366L52.9733 95.0688L53.7154 95.5267L57.4496 97.8375L58.1886 98.3014L63.5915 101.764C63.7945 101.892 63.955 101.801 63.9489 101.561L63.7672 94.2774Z" fill="#49BF78"/>
<path d="M83.9133 108.21C83.963 108.237 84.0067 108.274 84.042 108.319C84.0773 108.363 84.1035 108.414 84.119 108.469C84.1344 108.524 84.139 108.581 84.1322 108.637C84.1255 108.694 84.1077 108.748 84.0798 108.798L82.2627 111.976C82.2043 112.078 82.1078 112.153 81.9942 112.185C81.8807 112.216 81.7595 112.201 81.657 112.143L76.9627 109.511L76.2025 109.086L71.9353 106.703L71.169 106.287L65.5086 103.27C65.2966 103.158 65.2966 102.967 65.5086 102.86L71.9292 99.4217L72.3259 99.2094L72.7227 98.9971L76.2116 97.1413L76.9809 96.7289L81.7388 94.2059C81.7902 94.1769 81.847 94.1586 81.9056 94.1521C81.9643 94.1456 82.0237 94.151 82.0802 94.168C82.1368 94.1849 82.1893 94.2132 82.2347 94.2509C82.2801 94.2887 82.3175 94.3353 82.3445 94.3878L83.9345 97.3687C83.9615 97.4193 83.9784 97.4747 83.9841 97.5318C83.9897 97.5889 83.9841 97.6465 83.9675 97.7014C83.9509 97.7564 83.9237 97.8075 83.8874 97.8518C83.851 97.8962 83.8063 97.933 83.7558 97.96L78.3346 100.847C78.2253 100.912 78.1361 101.007 78.0768 101.12C78.0175 101.232 77.9904 101.359 77.9985 101.487C77.9985 101.487 78.1045 102.396 78.1045 103.106C78.1045 103.734 78.0227 104.519 78.0227 104.519C78.0164 104.647 78.0443 104.773 78.1034 104.886C78.1625 104.999 78.2507 105.095 78.3589 105.162L83.9133 108.21Z" fill="#49BF78"/>
<g opacity="0.15">
<path opacity="0.15" d="M79.0783 88.4342C79.0517 88.3847 79.0152 88.3412 78.971 88.3066C78.9268 88.2719 78.8759 88.2468 78.8216 88.2329C78.7672 88.2189 78.7106 88.2164 78.6552 88.2255C78.5998 88.2345 78.5469 88.255 78.4998 88.2856L72.8969 91.8154C72.7849 91.8794 72.658 91.9132 72.529 91.9132C72.3999 91.9132 72.2731 91.8794 72.161 91.8154L70.0168 90.6176C69.9039 90.5559 69.8091 90.4659 69.7416 90.3563C69.6742 90.2468 69.6364 90.1215 69.6321 89.9929L69.7866 83.4125C69.7878 83.354 69.7773 83.2958 69.7558 83.2414C69.7343 83.187 69.7021 83.1375 69.6612 83.0957C69.6203 83.0539 69.5715 83.0207 69.5176 82.998C69.4637 82.9754 69.4059 82.9637 69.3474 82.9637L65.9706 82.8849C65.8554 82.8824 65.744 82.9257 65.6605 83.0052C65.5771 83.0848 65.5285 83.1941 65.5254 83.3094L65.4103 89.0225L65.3921 89.8958L65.3043 93.3649L65.3043 93.8137L65.3043 94.2625L65.1074 101.552C65.1074 101.792 65.2619 101.883 65.4648 101.756L70.8708 98.3017L71.6068 97.8378L75.3228 95.5392L76.0648 95.0782L80.6561 92.2369C80.7533 92.1738 80.8236 92.0767 80.8533 91.9646C80.883 91.8525 80.8699 91.7334 80.8167 91.6304L79.0783 88.4342Z" fill="#49BF78"/>
</g>
<g opacity="0.15">
<path opacity="0.15" d="M76.0678 110.982L75.3258 110.521L71.6128 108.225C71.4099 108.098 71.0767 107.892 70.8768 107.761L65.4708 104.311C65.2679 104.18 65.1074 104.271 65.1134 104.511L65.28 111.789L65.28 112.237L65.28 112.689L65.3618 116.161L65.38 117.035L65.5132 122.748C65.5164 122.863 65.5649 122.973 65.6482 123.053C65.7315 123.133 65.843 123.177 65.9584 123.175L69.3353 123.096C69.451 123.093 69.5605 123.043 69.6403 122.959C69.7202 122.875 69.764 122.764 69.7623 122.648L69.6079 116.067C69.6122 115.939 69.6499 115.813 69.7174 115.704C69.7848 115.594 69.8797 115.504 69.9925 115.443L72.1367 114.23C72.249 114.166 72.3757 114.133 72.5047 114.133C72.6336 114.133 72.7604 114.166 72.8727 114.23L78.4755 117.762C78.5228 117.793 78.5759 117.813 78.6314 117.822C78.6869 117.831 78.7437 117.828 78.798 117.814C78.8524 117.8 78.9033 117.774 78.9473 117.739C78.9914 117.704 79.0277 117.661 79.054 117.611L80.8015 114.415C80.8547 114.312 80.8678 114.192 80.8381 114.08C80.8084 113.968 80.7382 113.871 80.641 113.808L76.0678 110.982Z" fill="#49BF78"/>
</g>
<path d="M83.9133 108.21C83.963 108.237 84.0067 108.274 84.042 108.319C84.0773 108.363 84.1035 108.414 84.119 108.469C84.1344 108.524 84.139 108.581 84.1322 108.637C84.1255 108.694 84.1077 108.748 84.0798 108.798L82.2627 111.976C82.2043 112.078 82.1078 112.153 81.9942 112.185C81.8807 112.216 81.7595 112.201 81.657 112.143L76.9627 109.511L76.2025 109.086L71.9353 106.703L71.169 106.287L65.5086 103.27C65.2966 103.158 65.2966 102.967 65.5086 102.86L71.9292 99.4217L72.3259 99.2094L72.7227 98.9971L76.2116 97.1413L76.9809 96.7289L81.7388 94.2059C81.7902 94.1769 81.847 94.1586 81.9056 94.1521C81.9643 94.1456 82.0237 94.151 82.0802 94.168C82.1368 94.1849 82.1893 94.2132 82.2347 94.2509C82.2801 94.2887 82.3174 94.3353 82.3445 94.3878L83.9345 97.3687C83.9615 97.4193 83.9784 97.4747 83.9841 97.5318C83.9897 97.5889 83.9841 97.6465 83.9675 97.7014C83.9509 97.7564 83.9237 97.8075 83.8874 97.8518C83.851 97.8962 83.8063 97.933 83.7558 97.96L78.3346 100.847C78.2253 100.912 78.1361 101.007 78.0768 101.12C78.0175 101.232 77.9904 101.359 77.9985 101.487C77.9985 101.487 78.1045 102.396 78.1045 103.106C78.1045 103.734 78.0227 104.519 78.0227 104.519C78.0164 104.647 78.0443 104.773 78.1034 104.886C78.1625 104.999 78.2507 105.095 78.3589 105.162L83.9133 108.21Z" fill="#49BF78"/>
<g opacity="0.15">
<path opacity="0.15" d="M79.0783 88.4342C79.0517 88.3847 79.0152 88.3412 78.971 88.3066C78.9268 88.2719 78.8759 88.2468 78.8216 88.2329C78.7672 88.2189 78.7106 88.2164 78.6552 88.2255C78.5998 88.2345 78.5469 88.255 78.4998 88.2856L72.8969 91.8154C72.7849 91.8794 72.658 91.9132 72.529 91.9132C72.3999 91.9132 72.2731 91.8794 72.161 91.8154L70.0168 90.6176C69.9039 90.5559 69.8091 90.4659 69.7416 90.3563C69.6742 90.2468 69.6364 90.1215 69.6321 89.9929L69.7866 83.4125C69.7878 83.354 69.7773 83.2958 69.7558 83.2414C69.7343 83.187 69.7021 83.1375 69.6612 83.0957C69.6203 83.0539 69.5715 83.0207 69.5176 82.998C69.4637 82.9754 69.4059 82.9637 69.3474 82.9637L65.9706 82.8849C65.8554 82.8824 65.744 82.9257 65.6605 83.0052C65.5771 83.0848 65.5285 83.1941 65.5254 83.3094L65.4103 89.0225L65.3921 89.8958L65.3043 93.3649L65.3043 93.8137L65.3043 94.2625L65.1074 101.552C65.1074 101.792 65.2619 101.883 65.4648 101.756L70.8708 98.3017L71.6068 97.8378L75.3228 95.5392L76.0648 95.0782L80.6561 92.2369C80.7533 92.1738 80.8236 92.0767 80.8533 91.9646C80.883 91.8525 80.8699 91.7334 80.8167 91.6304L79.0783 88.4342Z" fill="#49BF78"/>
</g>
<g opacity="0.15">
<path opacity="0.15" d="M76.0678 110.982L75.3258 110.521L71.6128 108.225C71.4099 108.098 71.0767 107.892 70.8768 107.761L65.4708 104.311C65.2679 104.18 65.1074 104.271 65.1134 104.511L65.28 111.789L65.28 112.237L65.28 112.689L65.3618 116.161L65.38 117.035L65.5132 122.748C65.5164 122.863 65.5649 122.973 65.6482 123.053C65.7315 123.133 65.843 123.177 65.9584 123.175L69.3353 123.096C69.451 123.093 69.5605 123.043 69.6403 122.959C69.7202 122.875 69.764 122.764 69.7623 122.648L69.6079 116.067C69.6122 115.939 69.6499 115.813 69.7174 115.704C69.7848 115.594 69.8797 115.504 69.9925 115.443L72.1367 114.23C72.249 114.166 72.3757 114.133 72.5047 114.133C72.6336 114.133 72.7604 114.166 72.8727 114.23L78.4755 117.762C78.5228 117.793 78.5759 117.813 78.6314 117.822C78.6869 117.831 78.7437 117.828 78.798 117.814C78.8524 117.8 78.9033 117.774 78.9473 117.739C78.9914 117.704 79.0277 117.661 79.054 117.611L80.8015 114.415C80.8547 114.312 80.8678 114.192 80.8381 114.08C80.8084 113.968 80.7382 113.871 80.641 113.808L76.0678 110.982Z" fill="#49BF78"/>
</g>
<path d="M146.198 51.1689L145.459 51.6359L141.728 53.9466L140.986 54.4045L136.41 57.2368C136.313 57.2998 136.242 57.3969 136.213 57.509C136.183 57.6211 136.196 57.7402 136.249 57.8432L137.988 61.0364C138.014 61.0861 138.05 61.1299 138.095 61.1649C138.139 61.1998 138.189 61.2252 138.244 61.2395C138.298 61.2537 138.355 61.2565 138.41 61.2477C138.466 61.2388 138.519 61.2185 138.566 61.188L144.166 57.6704C144.278 57.6063 144.405 57.5726 144.534 57.5726C144.663 57.5726 144.79 57.6063 144.902 57.6704L147.058 58.8834C147.171 58.945 147.266 59.035 147.334 59.1446C147.401 59.2541 147.439 59.3794 147.443 59.508L147.289 66.0793C147.287 66.1952 147.331 66.3071 147.411 66.391C147.49 66.4749 147.6 66.5242 147.716 66.5281L151.093 66.607C151.208 66.6086 151.319 66.5646 151.403 66.4846C151.486 66.4046 151.535 66.2949 151.538 66.1794L151.671 60.4693L151.689 59.596L151.771 56.1208V55.669V55.2202L151.937 47.9424C151.937 47.7028 151.783 47.6118 151.58 47.7422L146.198 51.1689Z" fill="#49BF78"/>
<path d="M144.994 42.7935L144.6 42.584L144.205 42.3746L140.751 40.5451L139.986 40.1379L135.266 37.6365C135.215 37.6082 135.159 37.5904 135.102 37.5842C135.044 37.5781 134.985 37.5836 134.93 37.6005C134.874 37.6173 134.823 37.6453 134.778 37.6826C134.733 37.7199 134.696 37.7658 134.669 37.8177L133.105 40.7906C133.076 40.8416 133.058 40.8979 133.051 40.9562C133.045 41.0145 133.05 41.0736 133.067 41.1298C133.084 41.1859 133.112 41.2381 133.15 41.283C133.187 41.3279 133.233 41.3646 133.286 41.3909L138.679 44.2531C138.788 44.3173 138.877 44.4103 138.936 44.5221C138.996 44.6338 139.024 44.7599 139.016 44.8865C139.016 44.8865 138.918 45.7944 138.92 46.495C138.932 47.1168 139.005 47.8944 139.005 47.8944C139.012 48.0214 138.985 48.1481 138.927 48.2609C138.868 48.3737 138.781 48.4685 138.673 48.5353L133.141 51.5977C133.091 51.6248 133.048 51.6615 133.012 51.7058C132.977 51.7501 132.951 51.8011 132.936 51.8557C132.92 51.9104 132.916 51.9675 132.923 52.0239C132.93 52.0802 132.948 52.1346 132.976 52.1839L134.787 55.3421C134.816 55.3927 134.855 55.4371 134.901 55.4727C134.947 55.5084 134.999 55.5345 135.056 55.5496C135.112 55.5648 135.17 55.5686 135.228 55.5609C135.285 55.5533 135.341 55.5343 135.391 55.505L140.055 52.8648L140.809 52.4389L145.018 50.0555C145.226 49.9396 145.564 49.7425 145.775 49.6386L151.374 46.6141C151.582 46.5011 151.584 46.3078 151.366 46.2066L144.994 42.7935Z" fill="#49BF78"/>
<path d="M167.08 31.8092C167.054 31.7597 167.017 31.7162 166.973 31.6816C166.929 31.6469 166.878 31.6218 166.824 31.6079C166.769 31.5939 166.713 31.5914 166.657 31.6005C166.602 31.6095 166.549 31.63 166.502 31.6606L160.899 35.1904C160.787 35.2544 160.66 35.2882 160.531 35.2882C160.402 35.2882 160.275 35.2544 160.163 35.1904L158.019 33.9926C157.906 33.9309 157.811 33.8409 157.744 33.7313C157.676 33.6218 157.638 33.4965 157.634 33.3679L157.789 26.7875C157.79 26.729 157.779 26.6708 157.758 26.6164C157.736 26.562 157.704 26.5125 157.663 26.4707C157.622 26.4289 157.573 26.3957 157.52 26.373C157.466 26.3504 157.408 26.3387 157.349 26.3387L153.973 26.2599C153.857 26.2574 153.746 26.3007 153.663 26.3802C153.579 26.4598 153.53 26.5691 153.527 26.6844L153.412 32.3975L153.394 33.2708L153.306 36.7399L153.306 37.1887L153.306 37.6375L153.109 44.9275C153.109 45.167 153.264 45.258 153.467 45.1307L158.873 41.6767L159.609 41.2128L163.325 38.9142L164.067 38.4532L168.658 35.6119C168.755 35.5488 168.826 35.4517 168.855 35.3396C168.885 35.2275 168.872 35.1084 168.819 35.0054L167.08 31.8092Z" fill="#49BF78"/>
<path d="M137.967 31.818C137.993 31.7685 138.03 31.725 138.074 31.6904C138.118 31.6557 138.169 31.6306 138.223 31.6167C138.278 31.6027 138.334 31.6002 138.39 31.6093C138.445 31.6183 138.498 31.6388 138.545 31.6694L144.148 35.1991C144.26 35.2632 144.387 35.2969 144.516 35.2969C144.645 35.2969 144.772 35.2632 144.884 35.1991L147.028 34.0013C147.141 33.9397 147.236 33.8497 147.303 33.7401C147.371 33.6306 147.408 33.5053 147.413 33.3767L147.258 26.7963C147.257 26.7378 147.268 26.6796 147.289 26.6252C147.311 26.5708 147.343 26.5213 147.384 26.4795C147.425 26.4377 147.473 26.4045 147.527 26.3818C147.581 26.3592 147.639 26.3475 147.697 26.3475L151.074 26.2687C151.19 26.2662 151.301 26.3095 151.384 26.389C151.468 26.4686 151.516 26.5779 151.52 26.6932L151.635 32.4063L151.653 33.2796L151.741 36.7487L151.741 37.1975L151.741 37.6463L151.938 44.9363C151.938 45.1758 151.783 45.2668 151.58 45.1394L146.174 41.6855L145.438 41.2215L141.722 38.923L140.98 38.462L136.389 35.6207C136.292 35.5576 136.221 35.4605 136.192 35.3484C136.162 35.2363 136.175 35.1172 136.228 35.0142L137.967 31.818Z" fill="#49BF78"/>
<path d="M164.076 54.355L163.334 53.8941L159.621 51.5985C159.418 51.4711 159.085 51.2649 158.885 51.1345L153.479 47.6836C153.276 47.5532 153.115 47.6442 153.121 47.8838L153.288 55.1616L153.288 55.6104L153.288 56.0622L153.37 59.5344L153.388 60.4077L153.521 66.1208C153.524 66.2364 153.573 66.346 153.656 66.426C153.739 66.5061 153.851 66.55 153.966 66.5484L157.343 66.4695C157.459 66.4656 157.568 66.4163 157.648 66.3324C157.728 66.2485 157.772 66.1366 157.77 66.0207L157.616 59.4404C157.62 59.3117 157.658 59.1865 157.725 59.0769C157.793 58.9674 157.887 58.8773 158 58.8157L160.145 57.6027C160.257 57.5392 160.384 57.5058 160.513 57.5058C160.641 57.5058 160.768 57.5392 160.88 57.6027L166.483 61.1355C166.531 61.166 166.584 61.1863 166.639 61.1951C166.695 61.204 166.751 61.2012 166.806 61.187C166.86 61.1727 166.911 61.1473 166.955 61.1123C166.999 61.0774 167.036 61.0336 167.062 60.9839L168.809 57.7877C168.863 57.6847 168.876 57.5655 168.846 57.4534C168.816 57.3413 168.746 57.2443 168.649 57.1812L164.076 54.355Z" fill="#49BF78"/>
<path d="M151.777 37.6524V37.2036V36.7548L151.695 33.2766L151.677 32.4033L151.544 26.6932C151.541 26.5779 151.492 26.4686 151.409 26.389C151.325 26.3095 151.214 26.2662 151.099 26.2687L147.722 26.3475C147.606 26.3507 147.497 26.3992 147.417 26.4827C147.337 26.5661 147.293 26.6777 147.295 26.7933L147.449 33.3615C147.443 33.4901 147.404 33.6151 147.336 33.724C147.267 33.833 147.172 33.9223 147.058 33.9831L144.899 35.181C144.787 35.245 144.66 35.2787 144.531 35.2787C144.402 35.2787 144.275 35.245 144.163 35.181L138.575 31.6603C138.528 31.6297 138.475 31.6092 138.42 31.6002C138.365 31.5911 138.308 31.5936 138.254 31.6076C138.199 31.6215 138.148 31.6466 138.104 31.6813C138.06 31.7159 138.023 31.7594 137.997 31.8089L136.249 35.0051C136.196 35.1081 136.183 35.2272 136.213 35.3393C136.242 35.4514 136.313 35.5485 136.41 35.6116L140.983 38.4438L141.725 38.9017L145.459 41.2125L146.198 41.6764L151.601 45.1394C151.804 45.2668 151.965 45.1758 151.959 44.9363L151.777 37.6524Z" fill="#49BF78"/>
<path d="M171.923 51.5846C171.973 51.6121 172.016 51.6492 172.052 51.6937C172.087 51.7383 172.113 51.7893 172.129 51.844C172.144 51.8987 172.149 51.9559 172.142 52.0124C172.135 52.0688 172.117 52.1234 172.09 52.1729L170.272 55.3509C170.214 55.4532 170.118 55.5282 170.004 55.5595C169.89 55.5908 169.769 55.5757 169.667 55.5177L164.972 52.8855L164.212 52.461L159.945 50.0775L159.179 49.6621L153.518 46.6448C153.306 46.5326 153.306 46.3416 153.518 46.2354L159.939 42.7967L160.336 42.5844L160.732 42.3721L164.221 40.5163L164.991 40.1039L169.749 37.5809C169.8 37.5519 169.857 37.5336 169.915 37.5271C169.974 37.5206 170.033 37.526 170.09 37.543C170.147 37.5599 170.199 37.5882 170.244 37.6259C170.29 37.6637 170.327 37.7103 170.354 37.7628L171.944 40.7437C171.971 40.7943 171.988 40.8497 171.994 40.9068C171.999 40.9639 171.994 41.0215 171.977 41.0764C171.961 41.1314 171.933 41.1825 171.897 41.2268C171.861 41.2712 171.816 41.308 171.766 41.335L166.344 44.2219C166.235 44.2874 166.146 44.3817 166.087 44.4946C166.027 44.6074 166 44.7345 166.008 44.8617C166.008 44.8617 166.114 45.7715 166.114 46.4811C166.114 47.1088 166.032 47.8942 166.032 47.8942C166.026 48.0216 166.054 48.1484 166.113 48.2614C166.172 48.3745 166.26 48.4696 166.369 48.537L171.923 51.5846Z" fill="#49BF78"/>
<g opacity="0.15">
<path opacity="0.15" d="M167.088 31.8092C167.061 31.7597 167.025 31.7162 166.981 31.6816C166.937 31.6469 166.886 31.6218 166.831 31.6079C166.777 31.5939 166.72 31.5914 166.665 31.6005C166.61 31.6095 166.557 31.63 166.51 31.6606L160.907 35.1904C160.795 35.2544 160.668 35.2882 160.539 35.2882C160.41 35.2882 160.283 35.2544 160.171 35.1904L158.027 33.9926C157.914 33.9309 157.819 33.8409 157.751 33.7313C157.684 33.6218 157.646 33.4965 157.642 33.3679L157.796 26.7875C157.798 26.729 157.787 26.6708 157.766 26.6164C157.744 26.562 157.712 26.5125 157.671 26.4707C157.63 26.4289 157.581 26.3957 157.527 26.373C157.473 26.3504 157.416 26.3387 157.357 26.3387L153.98 26.2599C153.865 26.2574 153.754 26.3007 153.67 26.3802C153.587 26.4598 153.538 26.5691 153.535 26.6844L153.42 32.3975L153.402 33.2708L153.314 36.7399L153.314 37.1887L153.314 37.6375L153.117 44.9275C153.117 45.167 153.272 45.258 153.475 45.1307L158.881 41.6767L159.617 41.2128L163.333 38.9142L164.075 38.4532L168.666 35.6119C168.763 35.5488 168.833 35.4517 168.863 35.3396C168.893 35.2275 168.88 35.1084 168.826 35.0054L167.088 31.8092Z" fill="#49BF78"/>
</g>
<g opacity="0.15">
<path opacity="0.15" d="M164.078 54.3569L163.336 53.896L159.623 51.6005C159.42 51.4731 159.086 51.2669 158.887 51.1365L153.481 47.6856C153.278 47.5552 153.117 47.6462 153.123 47.8857L153.29 55.1636L153.29 55.6124L153.29 56.0642L153.372 59.5363L153.39 60.4097L153.523 66.1228C153.526 66.2383 153.575 66.348 153.658 66.428C153.741 66.508 153.853 66.552 153.968 66.5503L157.345 66.4715C157.461 66.4675 157.57 66.4183 157.65 66.3344C157.73 66.2505 157.774 66.1386 157.772 66.0227L157.618 59.4423C157.622 59.3137 157.66 59.1884 157.727 59.0789C157.795 58.9693 157.889 58.8793 158.002 58.8176L160.146 57.6047C160.259 57.5412 160.386 57.5078 160.514 57.5078C160.643 57.5078 160.77 57.5412 160.882 57.6047L166.485 61.1374C166.533 61.1679 166.586 61.1882 166.641 61.1971C166.697 61.2059 166.753 61.2032 166.808 61.1889C166.862 61.1746 166.913 61.1492 166.957 61.1143C167.001 61.0793 167.037 61.0356 167.064 60.9858L168.811 57.7896C168.864 57.6866 168.878 57.5675 168.848 57.4554C168.818 57.3433 168.748 57.2462 168.651 57.1832L164.078 54.3569Z" fill="#49BF78"/>
</g>
<path d="M171.923 51.5846C171.973 51.6121 172.016 51.6492 172.052 51.6937C172.087 51.7383 172.113 51.7893 172.129 51.844C172.144 51.8987 172.149 51.9559 172.142 52.0124C172.135 52.0688 172.117 52.1234 172.09 52.1729L170.272 55.3509C170.214 55.4532 170.118 55.5282 170.004 55.5595C169.89 55.5908 169.769 55.5757 169.667 55.5177L164.972 52.8855L164.212 52.461L159.945 50.0775L159.179 49.6621L153.518 46.6448C153.306 46.5326 153.306 46.3416 153.518 46.2354L159.939 42.7967L160.336 42.5844L160.732 42.3721L164.221 40.5163L164.991 40.1039L169.749 37.5809C169.8 37.5519 169.857 37.5336 169.915 37.5271C169.974 37.5206 170.033 37.526 170.09 37.543C170.147 37.5599 170.199 37.5882 170.244 37.6259C170.29 37.6637 170.327 37.7103 170.354 37.7628L171.944 40.7437C171.971 40.7943 171.988 40.8497 171.994 40.9068C171.999 40.9639 171.994 41.0215 171.977 41.0764C171.961 41.1314 171.933 41.1825 171.897 41.2268C171.861 41.2712 171.816 41.308 171.766 41.335L166.344 44.2219C166.235 44.2874 166.146 44.3817 166.087 44.4946C166.027 44.6074 166 44.7345 166.008 44.8617C166.008 44.8617 166.114 45.7715 166.114 46.4811C166.114 47.1088 166.032 47.8942 166.032 47.8942C166.026 48.0216 166.054 48.1484 166.113 48.2614C166.172 48.3745 166.26 48.4696 166.369 48.537L171.923 51.5846Z" fill="#49BF78"/>
<g opacity="0.15">
<path opacity="0.15" d="M167.088 31.8092C167.061 31.7597 167.025 31.7162 166.981 31.6816C166.937 31.6469 166.886 31.6218 166.831 31.6079C166.777 31.5939 166.72 31.5914 166.665 31.6005C166.61 31.6095 166.557 31.63 166.51 31.6606L160.907 35.1904C160.795 35.2544 160.668 35.2882 160.539 35.2882C160.41 35.2882 160.283 35.2544 160.171 35.1904L158.027 33.9926C157.914 33.9309 157.819 33.8409 157.751 33.7313C157.684 33.6218 157.646 33.4965 157.642 33.3679L157.796 26.7875C157.798 26.729 157.787 26.6708 157.766 26.6164C157.744 26.562 157.712 26.5125 157.671 26.4707C157.63 26.4289 157.581 26.3957 157.527 26.373C157.473 26.3504 157.416 26.3387 157.357 26.3387L153.98 26.2599C153.865 26.2574 153.754 26.3007 153.67 26.3802C153.587 26.4598 153.538 26.5691 153.535 26.6844L153.42 32.3975L153.402 33.2708L153.314 36.7399L153.314 37.1887L153.314 37.6375L153.117 44.9275C153.117 45.167 153.272 45.258 153.475 45.1307L158.881 41.6767L159.617 41.2128L163.333 38.9142L164.075 38.4532L168.666 35.6119C168.763 35.5488 168.833 35.4517 168.863 35.3396C168.893 35.2275 168.88 35.1084 168.826 35.0054L167.088 31.8092Z" fill="#49BF78"/>
</g>
<g opacity="0.15">
<path opacity="0.15" d="M164.078 54.3569L163.336 53.896L159.623 51.6005C159.42 51.4731 159.086 51.2669 158.887 51.1365L153.481 47.6856C153.278 47.5552 153.117 47.6462 153.123 47.8857L153.29 55.1636L153.29 55.6124L153.29 56.0642L153.372 59.5363L153.39 60.4097L153.523 66.1228C153.526 66.2383 153.575 66.348 153.658 66.428C153.741 66.508 153.853 66.552 153.968 66.5503L157.345 66.4715C157.461 66.4675 157.57 66.4183 157.65 66.3344C157.73 66.2505 157.774 66.1386 157.772 66.0227L157.618 59.4423C157.622 59.3137 157.66 59.1884 157.727 59.0789C157.795 58.9693 157.889 58.8793 158.002 58.8176L160.146 57.6047C160.259 57.5412 160.386 57.5078 160.514 57.5078C160.643 57.5078 160.77 57.5412 160.882 57.6047L166.485 61.1374C166.533 61.1679 166.586 61.1882 166.641 61.1971C166.697 61.2059 166.753 61.2032 166.808 61.1889C166.862 61.1746 166.913 61.1492 166.957 61.1143C167.001 61.0793 167.037 61.0356 167.064 60.9858L168.811 57.7896C168.864 57.6866 168.878 57.5675 168.848 57.4554C168.818 57.3433 168.748 57.2462 168.651 57.1832L164.078 54.3569Z" fill="#49BF78"/>
</g>
<path d="M146.306 164.142L145.567 164.609L141.836 166.919L141.094 167.377L136.517 170.209C136.42 170.273 136.35 170.37 136.32 170.482C136.291 170.594 136.304 170.713 136.357 170.816L138.095 174.009C138.122 174.059 138.158 174.103 138.202 174.138C138.246 174.172 138.297 174.198 138.351 174.212C138.406 174.226 138.462 174.229 138.518 174.22C138.573 174.211 138.626 174.191 138.674 174.161L144.274 170.643C144.386 170.579 144.512 170.545 144.642 170.545C144.771 170.545 144.897 170.579 145.01 170.643L147.166 171.856C147.279 171.918 147.374 172.008 147.441 172.117C147.508 172.227 147.546 172.352 147.55 172.481L147.396 179.052C147.394 179.168 147.438 179.28 147.518 179.364C147.598 179.448 147.707 179.497 147.823 179.501L151.2 179.58C151.315 179.581 151.427 179.537 151.51 179.457C151.593 179.377 151.642 179.268 151.645 179.152L151.778 173.442L151.797 172.569L151.878 169.093V168.642V168.193L152.045 160.915C152.045 160.675 151.89 160.584 151.688 160.715L146.306 164.142Z" fill="#49BF78"/>
<path d="M145.102 155.766L144.707 155.557L144.312 155.347L140.858 153.518L140.093 153.111L135.374 150.609C135.323 150.581 135.267 150.563 135.209 150.557C135.151 150.551 135.093 150.556 135.037 150.573C134.982 150.59 134.93 150.618 134.885 150.655C134.84 150.693 134.804 150.738 134.777 150.79L133.213 153.763C133.184 153.814 133.165 153.871 133.159 153.929C133.152 153.987 133.158 154.046 133.174 154.102C133.191 154.159 133.219 154.211 133.257 154.256C133.295 154.301 133.341 154.337 133.393 154.364L138.787 157.226C138.895 157.29 138.984 157.383 139.044 157.495C139.103 157.607 139.131 157.733 139.124 157.859C139.124 157.859 139.025 158.767 139.027 159.468C139.04 160.089 139.113 160.867 139.113 160.867C139.12 160.994 139.093 161.121 139.034 161.234C138.976 161.346 138.888 161.441 138.78 161.508L133.248 164.57C133.199 164.597 133.155 164.634 133.12 164.678C133.085 164.723 133.058 164.774 133.043 164.828C133.028 164.883 133.023 164.94 133.03 164.997C133.037 165.053 133.055 165.107 133.083 165.157L134.895 168.315C134.924 168.365 134.962 168.41 135.008 168.445C135.054 168.481 135.107 168.507 135.163 168.522C135.219 168.537 135.278 168.541 135.335 168.534C135.393 168.526 135.448 168.507 135.499 168.478L140.162 165.838L140.916 165.412L145.126 163.028C145.333 162.912 145.672 162.715 145.883 162.611L151.481 159.587C151.689 159.474 151.691 159.28 151.473 159.179L145.102 155.766Z" fill="#49BF78"/>
<path d="M167.188 144.782C167.161 144.732 167.125 144.689 167.08 144.654C167.036 144.62 166.985 144.594 166.931 144.581C166.877 144.567 166.82 144.564 166.765 144.573C166.709 144.582 166.656 144.603 166.609 144.633L161.006 148.163C160.894 148.227 160.767 148.261 160.638 148.261C160.509 148.261 160.382 148.227 160.27 148.163L158.126 146.965C158.013 146.904 157.918 146.814 157.851 146.704C157.784 146.594 157.746 146.469 157.741 146.341L157.896 139.76C157.897 139.702 157.887 139.644 157.865 139.589C157.844 139.535 157.811 139.485 157.771 139.443C157.73 139.402 157.681 139.368 157.627 139.346C157.573 139.323 157.515 139.311 157.457 139.311L154.08 139.233C153.965 139.23 153.853 139.273 153.77 139.353C153.687 139.432 153.638 139.542 153.635 139.657L153.52 145.37L153.501 146.243L153.414 149.713L153.414 150.161L153.414 150.61L153.217 157.9C153.217 158.14 153.371 158.231 153.574 158.103L158.98 154.649L159.716 154.185L163.432 151.887L164.174 151.426L168.766 148.585C168.863 148.521 168.933 148.424 168.963 148.312C168.992 148.2 168.979 148.081 168.926 147.978L167.188 144.782Z" fill="#49BF78"/>
<path d="M138.074 144.791C138.101 144.741 138.137 144.698 138.181 144.663C138.226 144.628 138.276 144.603 138.331 144.589C138.385 144.575 138.442 144.573 138.497 144.582C138.553 144.591 138.605 144.611 138.653 144.642L144.255 148.172C144.367 148.236 144.494 148.27 144.623 148.27C144.752 148.27 144.879 148.236 144.991 148.172L147.136 146.974C147.248 146.912 147.343 146.822 147.411 146.713C147.478 146.603 147.516 146.478 147.52 146.349L147.366 139.769C147.365 139.71 147.375 139.652 147.397 139.598C147.418 139.543 147.45 139.494 147.491 139.452C147.532 139.41 147.581 139.377 147.635 139.354C147.689 139.332 147.746 139.32 147.805 139.32L151.182 139.241C151.297 139.239 151.408 139.282 151.492 139.362C151.575 139.441 151.624 139.551 151.627 139.666L151.742 145.379L151.76 146.252L151.848 149.721L151.848 150.17L151.848 150.619L152.045 157.909C152.045 158.148 151.89 158.239 151.688 158.112L146.282 154.658L145.546 154.194L141.83 151.896L141.088 151.435L136.496 148.593C136.399 148.53 136.329 148.433 136.299 148.321C136.269 148.209 136.282 148.09 136.336 147.987L138.074 144.791Z" fill="#49BF78"/>
<path d="M164.183 167.328L163.441 166.867L159.728 164.571C159.525 164.444 159.192 164.238 158.992 164.107L153.586 160.656C153.383 160.526 153.223 160.617 153.229 160.856L153.395 168.134L153.395 168.583L153.395 169.035L153.477 172.507L153.495 173.38L153.628 179.093C153.632 179.209 153.68 179.319 153.763 179.399C153.847 179.479 153.958 179.523 154.074 179.521L157.451 179.442C157.566 179.438 157.676 179.389 157.756 179.305C157.835 179.221 157.879 179.109 157.878 178.993L157.723 172.413C157.727 172.284 157.765 172.159 157.833 172.05C157.9 171.94 157.995 171.85 158.108 171.788L160.252 170.575C160.364 170.512 160.491 170.478 160.62 170.478C160.749 170.478 160.876 170.512 160.988 170.575L166.591 174.108C166.638 174.139 166.691 174.159 166.747 174.168C166.802 174.177 166.859 174.174 166.913 174.16C166.968 174.145 167.018 174.12 167.063 174.085C167.107 174.05 167.143 174.006 167.169 173.957L168.917 170.76C168.97 170.657 168.983 170.538 168.953 170.426C168.924 170.314 168.853 170.217 168.756 170.154L164.183 167.328Z" fill="#49BF78"/>
<path d="M151.884 150.625V150.176V149.727L151.803 146.249L151.784 145.376L151.651 139.666C151.648 139.551 151.599 139.441 151.516 139.362C151.433 139.282 151.321 139.239 151.206 139.241L147.829 139.32C147.714 139.323 147.604 139.372 147.524 139.455C147.444 139.539 147.4 139.65 147.402 139.766L147.557 146.334C147.551 146.463 147.512 146.588 147.443 146.697C147.375 146.806 147.279 146.895 147.166 146.956L145.006 148.154C144.894 148.218 144.768 148.251 144.639 148.251C144.509 148.251 144.383 148.218 144.271 148.154L138.683 144.633C138.636 144.602 138.583 144.582 138.527 144.573C138.472 144.564 138.415 144.566 138.361 144.58C138.307 144.594 138.256 144.619 138.212 144.654C138.167 144.689 138.131 144.732 138.104 144.782L136.357 147.978C136.304 148.081 136.291 148.2 136.32 148.312C136.35 148.424 136.42 148.521 136.517 148.584L141.091 151.417L141.833 151.874L145.567 154.185L146.306 154.649L151.709 158.112C151.912 158.239 152.072 158.148 152.066 157.909L151.884 150.625Z" fill="#49BF78"/>
<path d="M172.03 164.557C172.08 164.585 172.124 164.622 172.159 164.666C172.195 164.711 172.221 164.762 172.236 164.817C172.252 164.871 172.256 164.929 172.249 164.985C172.243 165.041 172.225 165.096 172.197 165.146L170.38 168.324C170.321 168.426 170.225 168.501 170.111 168.532C169.998 168.563 169.877 168.548 169.774 168.49L165.08 165.858L164.32 165.434L160.052 163.05L159.286 162.635L153.626 159.617C153.414 159.505 153.414 159.314 153.626 159.208L160.046 155.769L160.443 155.557L160.84 155.345L164.329 153.489L165.098 153.077L169.856 150.554C169.907 150.525 169.964 150.506 170.023 150.5C170.082 150.493 170.141 150.499 170.197 150.516C170.254 150.533 170.307 150.561 170.352 150.599C170.397 150.636 170.435 150.683 170.462 150.735L172.052 153.716C172.079 153.767 172.096 153.822 172.101 153.879C172.107 153.937 172.101 153.994 172.085 154.049C172.068 154.104 172.041 154.155 172.005 154.199C171.968 154.244 171.924 154.281 171.873 154.308L166.452 157.195C166.343 157.26 166.253 157.354 166.194 157.467C166.135 157.58 166.108 157.707 166.116 157.834C166.116 157.834 166.222 158.744 166.222 159.454C166.222 160.081 166.14 160.867 166.14 160.867C166.134 160.994 166.161 161.121 166.221 161.234C166.28 161.347 166.368 161.442 166.476 161.51L172.03 164.557Z" fill="#49BF78"/>
<g opacity="0.15">
<path opacity="0.15" d="M167.195 144.782C167.169 144.732 167.132 144.689 167.088 144.654C167.044 144.62 166.993 144.594 166.939 144.581C166.884 144.567 166.828 144.564 166.772 144.573C166.717 144.582 166.664 144.603 166.617 144.633L161.014 148.163C160.902 148.227 160.775 148.261 160.646 148.261C160.517 148.261 160.39 148.227 160.278 148.163L158.134 146.965C158.021 146.904 157.926 146.814 157.859 146.704C157.791 146.594 157.754 146.469 157.749 146.341L157.904 139.76C157.905 139.702 157.895 139.644 157.873 139.589C157.851 139.535 157.819 139.485 157.778 139.443C157.737 139.402 157.689 139.368 157.635 139.346C157.581 139.323 157.523 139.311 157.465 139.311L154.088 139.233C153.973 139.23 153.861 139.273 153.778 139.353C153.694 139.432 153.646 139.542 153.643 139.657L153.527 145.37L153.509 146.243L153.421 149.713L153.421 150.161L153.421 150.61L153.225 157.9C153.225 158.14 153.379 158.231 153.582 158.103L158.988 154.649L159.724 154.185L163.44 151.887L164.182 151.426L168.773 148.585C168.871 148.521 168.941 148.424 168.97 148.312C169 148.2 168.987 148.081 168.934 147.978L167.195 144.782Z" fill="#49BF78"/>
</g>
<g opacity="0.15">
<path opacity="0.15" d="M164.185 167.33L163.443 166.869L159.73 164.573C159.527 164.446 159.194 164.24 158.994 164.109L153.588 160.658C153.385 160.528 153.225 160.619 153.231 160.858L153.397 168.136L153.397 168.585L153.397 169.037L153.479 172.509L153.497 173.382L153.63 179.095C153.634 179.211 153.682 179.321 153.765 179.401C153.849 179.481 153.96 179.525 154.076 179.523L157.452 179.444C157.568 179.44 157.678 179.391 157.758 179.307C157.837 179.223 157.881 179.111 157.88 178.995L157.725 172.415C157.729 172.286 157.767 172.161 157.835 172.052C157.902 171.942 157.997 171.852 158.11 171.79L160.254 170.577C160.366 170.514 160.493 170.48 160.622 170.48C160.751 170.48 160.878 170.514 160.99 170.577L166.593 174.11C166.64 174.141 166.693 174.161 166.749 174.17C166.804 174.179 166.861 174.176 166.915 174.162C166.97 174.147 167.02 174.122 167.065 174.087C167.109 174.052 167.145 174.008 167.171 173.958L168.919 170.762C168.972 170.659 168.985 170.54 168.955 170.428C168.926 170.316 168.855 170.219 168.758 170.156L164.185 167.33Z" fill="#49BF78"/>
</g>
<path d="M172.03 164.557C172.08 164.585 172.124 164.622 172.159 164.666C172.195 164.711 172.221 164.762 172.236 164.817C172.252 164.871 172.256 164.929 172.249 164.985C172.243 165.041 172.225 165.096 172.197 165.146L170.38 168.324C170.321 168.426 170.225 168.501 170.111 168.532C169.998 168.563 169.877 168.548 169.774 168.49L165.08 165.858L164.32 165.434L160.052 163.05L159.286 162.635L153.626 159.617C153.414 159.505 153.414 159.314 153.626 159.208L160.046 155.769L160.443 155.557L160.84 155.345L164.329 153.489L165.098 153.077L169.856 150.554C169.907 150.525 169.964 150.506 170.023 150.5C170.082 150.493 170.141 150.499 170.197 150.516C170.254 150.533 170.307 150.561 170.352 150.599C170.397 150.636 170.435 150.683 170.462 150.735L172.052 153.716C172.079 153.767 172.096 153.822 172.101 153.879C172.107 153.937 172.101 153.994 172.085 154.049C172.068 154.104 172.041 154.155 172.005 154.199C171.968 154.244 171.924 154.281 171.873 154.308L166.452 157.195C166.343 157.26 166.253 157.354 166.194 157.467C166.135 157.58 166.108 157.707 166.116 157.834C166.116 157.834 166.222 158.744 166.222 159.454C166.222 160.081 166.14 160.867 166.14 160.867C166.134 160.994 166.161 161.121 166.221 161.234C166.28 161.347 166.368 161.442 166.476 161.51L172.03 164.557Z" fill="#49BF78"/>
<g opacity="0.15">
<path opacity="0.15" d="M167.195 144.782C167.169 144.732 167.132 144.689 167.088 144.654C167.044 144.62 166.993 144.594 166.939 144.581C166.884 144.567 166.828 144.564 166.772 144.573C166.717 144.582 166.664 144.603 166.617 144.633L161.014 148.163C160.902 148.227 160.775 148.261 160.646 148.261C160.517 148.261 160.39 148.227 160.278 148.163L158.134 146.965C158.021 146.904 157.926 146.814 157.859 146.704C157.791 146.594 157.754 146.469 157.749 146.341L157.904 139.76C157.905 139.702 157.895 139.644 157.873 139.589C157.851 139.535 157.819 139.485 157.778 139.443C157.737 139.402 157.689 139.368 157.635 139.346C157.581 139.323 157.523 139.311 157.465 139.311L154.088 139.233C153.973 139.23 153.861 139.273 153.778 139.353C153.694 139.432 153.646 139.542 153.643 139.657L153.527 145.37L153.509 146.243L153.421 149.713L153.421 150.161L153.421 150.61L153.225 157.9C153.225 158.14 153.379 158.231 153.582 158.103L158.988 154.649L159.724 154.185L163.44 151.887L164.182 151.426L168.773 148.585C168.871 148.521 168.941 148.424 168.97 148.312C169 148.2 168.987 148.081 168.934 147.978L167.195 144.782Z" fill="#49BF78"/>
</g>
<g opacity="0.15">
<path opacity="0.15" d="M164.185 167.33L163.443 166.869L159.73 164.573C159.527 164.446 159.194 164.24 158.994 164.109L153.588 160.658C153.385 160.528 153.225 160.619 153.231 160.858L153.397 168.136L153.397 168.585L153.397 169.037L153.479 172.509L153.497 173.382L153.63 179.095C153.634 179.211 153.682 179.321 153.765 179.401C153.849 179.481 153.96 179.525 154.076 179.523L157.452 179.444C157.568 179.44 157.678 179.391 157.758 179.307C157.837 179.223 157.881 179.111 157.88 178.995L157.725 172.415C157.729 172.286 157.767 172.161 157.835 172.052C157.902 171.942 157.997 171.852 158.11 171.79L160.254 170.577C160.366 170.514 160.493 170.48 160.622 170.48C160.751 170.48 160.878 170.514 160.99 170.577L166.593 174.11C166.64 174.141 166.693 174.161 166.749 174.17C166.804 174.179 166.861 174.176 166.915 174.162C166.97 174.147 167.02 174.122 167.065 174.087C167.109 174.052 167.145 174.008 167.171 173.958L168.919 170.762C168.972 170.659 168.985 170.54 168.955 170.428C168.926 170.316 168.855 170.219 168.758 170.156L164.185 167.33Z" fill="#49BF78"/>
</g>
</svg>
