<svg width="201" height="201" viewBox="0 0 201 201" fill="none" xmlns="http://www.w3.org/2000/svg">
<path fill-rule="evenodd" clip-rule="evenodd" d="M139.368 130.832C143.207 129.208 147.334 128.374 151.503 128.381C157.683 128.381 163.725 130.214 168.864 133.648C174.003 137.081 178.009 141.962 180.374 147.672C182.739 153.382 183.358 159.666 182.152 165.728C180.946 171.789 177.97 177.358 173.6 181.728C169.229 186.098 163.661 189.075 157.599 190.28C151.537 191.486 145.254 190.867 139.544 188.502C133.834 186.137 128.953 182.132 125.519 176.993C122.085 171.853 120.253 165.812 120.253 159.631C120.265 155.758 120.98 151.92 122.362 148.303L86.3464 125.178C82.0103 129.633 76.4441 132.693 70.3596 133.967C64.275 135.242 57.9487 134.672 52.1894 132.332C46.4301 129.992 41.4996 125.987 38.0284 120.83C34.5573 115.673 32.7031 109.598 32.7031 103.381C32.7031 97.1643 34.5573 91.089 38.0284 85.9318C41.4996 80.7746 46.4301 76.7698 52.1894 74.4297C57.9487 72.0895 64.275 71.5202 70.3596 72.7947C76.4441 74.0691 82.0103 77.1293 86.3464 81.5841L122.362 58.4591C120.98 54.8416 120.265 51.0034 120.253 47.1309C120.241 39.8839 122.748 32.858 127.346 27.2558C131.943 21.6536 138.345 17.8235 145.455 16.421C152.565 15.0184 159.941 16.1306 166.322 19.5673C172.702 23.0039 177.69 28.5513 180.431 35.26C183.172 41.9686 183.496 49.4215 181.348 56.3429C179.2 63.2643 174.713 69.2239 168.655 73.2018C162.598 77.1797 155.346 78.9284 148.141 78.1488C140.936 77.3691 134.226 74.1095 129.159 68.9278L93.1433 92.0528C95.9547 99.3432 95.9547 107.419 93.1433 114.709L129.159 137.834C132.057 134.838 135.529 132.456 139.368 130.832ZM63.9551 124.381C75.5531 124.381 84.9551 114.979 84.9551 103.381C84.9551 91.7829 75.5531 82.3809 63.9551 82.3809C52.3571 82.3809 42.9551 91.7829 42.9551 103.381C42.9551 114.979 52.3571 124.381 63.9551 124.381ZM172.83 46.8154C172.83 58.4134 163.428 67.8154 151.83 67.8154C140.232 67.8154 130.83 58.4134 130.83 46.8154C130.83 35.2174 140.232 25.8154 151.83 25.8154C163.428 25.8154 172.83 35.2174 172.83 46.8154ZM151.955 180.69C163.553 180.69 172.955 171.288 172.955 159.69C172.955 148.092 163.553 138.69 151.955 138.69C140.357 138.69 130.955 148.092 130.955 159.69C130.955 171.288 140.357 180.69 151.955 180.69Z" fill="#4B32FF"/>
<g opacity="0.75">
<path d="M57.5909 108.091L56.8519 108.558L53.1207 110.868L52.3787 111.326L47.8025 114.159C47.7053 114.222 47.6351 114.319 47.6054 114.431C47.5757 114.543 47.5888 114.662 47.642 114.765L49.3804 117.958C49.4067 118.008 49.443 118.052 49.4871 118.087C49.5312 118.122 49.582 118.147 49.6364 118.161C49.6908 118.176 49.7475 118.178 49.803 118.17C49.8585 118.161 49.9116 118.14 49.9589 118.11L55.5587 114.592C55.6708 114.528 55.7976 114.494 55.9267 114.494C56.0558 114.494 56.1826 114.528 56.2947 114.592L58.451 115.805C58.5639 115.867 58.6587 115.957 58.7261 116.066C58.7936 116.176 58.8313 116.301 58.8356 116.43L58.6812 123.001C58.6795 123.117 58.7233 123.229 58.8032 123.313C58.883 123.397 58.9925 123.446 59.1082 123.45L62.4851 123.529C62.6005 123.53 62.712 123.487 62.7953 123.406C62.8786 123.326 62.9271 123.217 62.9303 123.101L63.0635 117.391L63.0817 116.518L63.1635 113.043V112.591V112.142L63.3301 104.864C63.3301 104.625 63.1756 104.534 62.9727 104.664L57.5909 108.091Z" fill="#202021"/>
<path d="M56.3867 99.7153L55.9921 99.5059L55.5975 99.2965L52.1435 97.467L51.3786 97.0597L46.6589 94.5583C46.608 94.5301 46.552 94.5123 46.4942 94.5061C46.4365 94.4999 46.378 94.5054 46.3224 94.5223C46.2668 94.5392 46.2151 94.5671 46.1704 94.6044C46.1256 94.6418 46.0888 94.6877 46.062 94.7395L44.4978 97.7125C44.4689 97.7634 44.4505 97.8198 44.4439 97.8781C44.4374 97.9364 44.4427 97.9955 44.4596 98.0516C44.4764 98.1078 44.5045 98.16 44.5421 98.2049C44.5797 98.2498 44.626 98.2865 44.6781 98.3128L50.0718 101.175C50.1805 101.239 50.2695 101.332 50.329 101.444C50.3885 101.556 50.4161 101.682 50.4089 101.808C50.4089 101.808 50.3102 102.716 50.3124 103.417C50.325 104.039 50.3978 104.816 50.3978 104.816C50.4049 104.943 50.3778 105.07 50.3193 105.183C50.2608 105.296 50.1731 105.39 50.0654 105.457L44.5336 108.52C44.484 108.547 44.4403 108.583 44.405 108.628C44.3697 108.672 44.3436 108.723 44.3282 108.778C44.3128 108.832 44.3084 108.889 44.3153 108.946C44.3222 109.002 44.3402 109.056 44.3683 109.106L46.1798 112.264C46.2088 112.315 46.2474 112.359 46.2934 112.395C46.3395 112.43 46.3921 112.456 46.4482 112.471C46.5043 112.487 46.5628 112.49 46.6203 112.483C46.6779 112.475 46.7334 112.456 46.7837 112.427L51.4473 109.787L52.2013 109.361L56.4107 106.977C56.6186 106.861 56.9569 106.664 57.168 106.56L62.7666 103.536C62.9745 103.423 62.9766 103.23 62.7583 103.128L56.3867 99.7153Z" fill="#202021"/>
<path d="M78.4728 88.7311C78.4462 88.6816 78.4097 88.6381 78.3655 88.6035C78.3214 88.5688 78.2705 88.5437 78.2161 88.5297C78.1617 88.5158 78.1051 88.5133 78.0497 88.5223C77.9943 88.5314 77.9414 88.5519 77.8943 88.5825L72.2915 92.1122C72.1794 92.1763 72.0526 92.21 71.9235 92.21C71.7944 92.21 71.6676 92.1763 71.5555 92.1122L69.4113 90.9144C69.2984 90.8528 69.2036 90.7627 69.1362 90.6532C69.0687 90.5436 69.031 90.4184 69.0267 90.2897L69.1811 83.7094C69.1823 83.6509 69.1719 83.5927 69.1503 83.5383C69.1288 83.4839 69.0966 83.4344 69.0557 83.3926C69.0148 83.3508 68.966 83.3176 68.9121 83.2949C68.8583 83.2722 68.8004 83.2606 68.742 83.2606L65.3651 83.1817C65.2499 83.1793 65.1385 83.2226 65.0551 83.3021C64.9717 83.3816 64.9231 83.491 64.9199 83.6063L64.8048 89.3194L64.7866 90.1927L64.6988 93.6618L64.6988 94.1106L64.6988 94.5594L64.502 101.849C64.502 102.089 64.6564 102.18 64.8593 102.053L70.2653 98.5986L71.0013 98.1346L74.7174 95.8361L75.4594 95.3751L80.0507 92.5337C80.1479 92.4707 80.2181 92.3736 80.2478 92.2615C80.2775 92.1494 80.2644 92.0303 80.2112 91.9273L78.4728 88.7311Z" fill="#202021"/>
<path d="M49.3592 88.7399C49.3858 88.6904 49.4223 88.6469 49.4665 88.6123C49.5107 88.5776 49.5616 88.5525 49.6159 88.5385C49.6703 88.5246 49.7269 88.522 49.7823 88.5311C49.8377 88.5402 49.8906 88.5607 49.9377 88.5913L55.5406 92.121C55.6526 92.1851 55.7795 92.2188 55.9085 92.2188C56.0376 92.2188 56.1644 92.1851 56.2765 92.121L58.4207 90.9232C58.5336 90.8616 58.6284 90.7715 58.6959 90.662C58.7633 90.5524 58.8011 90.4272 58.8054 90.2985L58.6509 83.7182C58.6497 83.6597 58.6602 83.6015 58.6817 83.5471C58.7032 83.4927 58.7354 83.4432 58.7763 83.4014C58.8172 83.3596 58.866 83.3264 58.9199 83.3037C58.9738 83.281 59.0316 83.2694 59.0901 83.2694L62.4669 83.1905C62.5821 83.1881 62.6935 83.2313 62.777 83.3109C62.8604 83.3904 62.909 83.4998 62.9121 83.6151L63.0272 89.3282L63.0454 90.2015L63.1332 93.6706L63.1332 94.1194L63.1332 94.5682L63.3301 101.858C63.3301 102.098 63.1756 102.189 62.9727 102.061L57.5667 98.6074L56.8307 98.1434L53.1147 95.8448L52.3727 95.3839L47.7814 92.5425C47.6842 92.4794 47.6139 92.3824 47.5842 92.2703C47.5545 92.1582 47.5676 92.039 47.6208 91.936L49.3592 88.7399Z" fill="#202021"/>
<path d="M75.4682 111.277L74.7262 110.816L71.0132 108.52C70.8103 108.393 70.4771 108.187 70.2772 108.056L64.8712 104.606C64.6683 104.475 64.5078 104.566 64.5138 104.806L64.6804 112.083L64.6804 112.532L64.6804 112.984L64.7622 116.456L64.7804 117.33L64.9136 123.043C64.9168 123.158 64.9653 123.268 65.0486 123.348C65.1319 123.428 65.2434 123.472 65.3588 123.47L68.7357 123.391C68.8514 123.387 68.9609 123.338 69.0407 123.254C69.1206 123.17 69.1644 123.058 69.1627 122.943L69.0082 116.362C69.0126 116.234 69.0503 116.108 69.1178 115.999C69.1852 115.889 69.28 115.799 69.3929 115.738L71.5371 114.525C71.6494 114.461 71.7761 114.428 71.9051 114.428C72.034 114.428 72.1608 114.461 72.2731 114.525L77.8759 118.057C77.9232 118.088 77.9763 118.108 78.0318 118.117C78.0873 118.126 78.144 118.123 78.1984 118.109C78.2528 118.095 78.3037 118.069 78.3477 118.034C78.3918 117.999 78.4281 117.955 78.4544 117.906L80.2019 114.71C80.2551 114.607 80.2682 114.487 80.2385 114.375C80.2088 114.263 80.1386 114.166 80.0414 114.103L75.4682 111.277Z" fill="#202021"/>
<path d="M63.1695 94.5743V94.1255V93.6767L63.0878 90.1985L63.0696 89.3251L62.9363 83.6151C62.9332 83.4998 62.8846 83.3904 62.8012 83.3109C62.7178 83.2313 62.6063 83.1881 62.4911 83.1905L59.1143 83.2694C58.9989 83.2725 58.8893 83.3211 58.8094 83.4045C58.7295 83.488 58.6856 83.5995 58.6873 83.7151L58.8417 90.2834C58.836 90.412 58.7969 90.5369 58.7285 90.6459C58.66 90.7549 58.5644 90.8442 58.451 90.905L56.2916 92.1028C56.1796 92.1669 56.0527 92.2006 55.9237 92.2006C55.7946 92.2006 55.6678 92.1669 55.5557 92.1028L49.968 88.5822C49.9209 88.5516 49.868 88.5311 49.8126 88.522C49.7572 88.513 49.7006 88.5155 49.6462 88.5294C49.5918 88.5434 49.541 88.5685 49.4968 88.6032C49.4526 88.6378 49.4161 88.6813 49.3895 88.7308L47.642 91.9269C47.5888 92.0299 47.5757 92.1491 47.6054 92.2612C47.6351 92.3733 47.7053 92.4703 47.8025 92.5334L52.3757 95.3657L53.1177 95.8236L56.8519 98.1343L57.5909 98.5983L62.9939 102.061C63.1968 102.189 63.3573 102.098 63.3513 101.858L63.1695 94.5743Z" fill="#202021"/>
<path d="M83.3156 108.507C83.3653 108.534 83.4091 108.571 83.4444 108.616C83.4797 108.66 83.5058 108.711 83.5213 108.766C83.5368 108.821 83.5413 108.878 83.5346 108.934C83.5279 108.991 83.5101 109.045 83.4822 109.095L81.665 112.273C81.6066 112.375 81.5101 112.45 81.3966 112.481C81.2831 112.513 81.1618 112.498 81.0593 112.44L76.365 109.807L75.6049 109.383L71.3376 106.999L70.5714 106.584L64.911 103.567C64.699 103.454 64.699 103.263 64.911 103.157L71.3315 99.7185L71.7283 99.5063L72.125 99.294L75.6139 97.4381L76.3832 97.0257L81.1411 94.5028C81.1926 94.4738 81.2493 94.4555 81.308 94.449C81.3667 94.4425 81.426 94.4479 81.4826 94.4648C81.5391 94.4818 81.5917 94.51 81.6371 94.5478C81.6825 94.5856 81.7198 94.6322 81.7468 94.6847L83.3368 97.6656C83.3639 97.7161 83.3807 97.7716 83.3864 97.8287C83.3921 97.8857 83.3865 97.9434 83.3699 97.9983C83.3533 98.0532 83.326 98.1043 83.2897 98.1487C83.2534 98.1931 83.2087 98.2298 83.1581 98.2569L77.737 101.144C77.6277 101.209 77.5385 101.304 77.4792 101.416C77.4199 101.529 77.3928 101.656 77.4008 101.784C77.4008 101.784 77.5068 102.693 77.5068 103.403C77.5068 104.031 77.425 104.816 77.425 104.816C77.4187 104.943 77.4466 105.07 77.5057 105.183C77.5648 105.296 77.653 105.391 77.7612 105.459L83.3156 108.507Z" fill="#202021"/>
<g opacity="0.15">
<path opacity="0.15" d="M78.4806 88.7311C78.454 88.6816 78.4175 88.6381 78.3733 88.6035C78.3292 88.5688 78.2783 88.5437 78.2239 88.5297C78.1696 88.5158 78.1129 88.5133 78.0575 88.5223C78.0021 88.5314 77.9492 88.5519 77.9021 88.5825L72.2993 92.1122C72.1872 92.1763 72.0604 92.21 71.9313 92.21C71.8022 92.21 71.6754 92.1763 71.5633 92.1122L69.4191 90.9144C69.3063 90.8528 69.2114 90.7627 69.144 90.6532C69.0765 90.5436 69.0388 90.4184 69.0345 90.2897L69.1889 83.7094C69.1901 83.6509 69.1797 83.5927 69.1581 83.5383C69.1366 83.4839 69.1045 83.4344 69.0636 83.3926C69.0227 83.3508 68.9738 83.3176 68.92 83.2949C68.8661 83.2722 68.8082 83.2606 68.7498 83.2606L65.3729 83.1817C65.2578 83.1793 65.1463 83.2226 65.0629 83.3021C64.9795 83.3816 64.9309 83.491 64.9277 83.6063L64.8126 89.3194L64.7945 90.1927L64.7066 93.6618L64.7066 94.1106L64.7066 94.5594L64.5098 101.849C64.5098 102.089 64.6642 102.18 64.8671 102.053L70.2732 98.5986L71.0091 98.1346L74.7252 95.8361L75.4672 95.3751L80.0585 92.5337C80.1557 92.4707 80.226 92.3736 80.2556 92.2615C80.2853 92.1494 80.2722 92.0303 80.219 91.9273L78.4806 88.7311Z" fill="#202021"/>
</g>
<g opacity="0.15">
<path opacity="0.15" d="M75.4702 111.279L74.7282 110.818L71.0151 108.522C70.8122 108.395 70.4791 108.189 70.2792 108.058L64.8732 104.607C64.6703 104.477 64.5097 104.568 64.5158 104.808L64.6824 112.085L64.6824 112.534L64.6824 112.986L64.7641 116.458L64.7823 117.332L64.9156 123.045C64.9187 123.16 64.9672 123.27 65.0506 123.35C65.1339 123.43 65.2453 123.474 65.3608 123.472L68.7376 123.393C68.8533 123.389 68.9628 123.34 69.0427 123.256C69.1225 123.172 69.1663 123.06 69.1647 122.945L69.0102 116.364C69.0145 116.236 69.0523 116.11 69.1197 116.001C69.1872 115.891 69.282 115.801 69.3948 115.74L71.5391 114.527C71.6513 114.463 71.7781 114.43 71.907 114.43C72.036 114.43 72.1627 114.463 72.275 114.527L77.8779 118.059C77.9251 118.09 77.9782 118.11 78.0337 118.119C78.0893 118.128 78.146 118.125 78.2004 118.111C78.2548 118.097 78.3056 118.071 78.3497 118.036C78.3937 118.001 78.4301 117.957 78.4563 117.908L80.2038 114.712C80.2571 114.609 80.2701 114.489 80.2404 114.377C80.2108 114.265 80.1405 114.168 80.0433 114.105L75.4702 111.279Z" fill="#202021"/>
</g>
<path d="M83.3156 108.507C83.3653 108.534 83.4091 108.571 83.4444 108.616C83.4797 108.66 83.5058 108.711 83.5213 108.766C83.5368 108.821 83.5413 108.878 83.5346 108.934C83.5279 108.991 83.5101 109.045 83.4822 109.095L81.665 112.273C81.6066 112.375 81.5101 112.45 81.3966 112.481C81.2831 112.513 81.1618 112.498 81.0593 112.44L76.365 109.807L75.6049 109.383L71.3376 106.999L70.5714 106.584L64.911 103.567C64.699 103.454 64.699 103.263 64.911 103.157L71.3315 99.7185L71.7283 99.5063L72.125 99.294L75.6139 97.4381L76.3832 97.0257L81.1411 94.5028C81.1926 94.4738 81.2493 94.4555 81.308 94.449C81.3667 94.4425 81.426 94.4479 81.4826 94.4648C81.5391 94.4818 81.5917 94.51 81.6371 94.5478C81.6825 94.5856 81.7198 94.6322 81.7468 94.6847L83.3368 97.6656C83.3639 97.7161 83.3807 97.7716 83.3864 97.8287C83.3921 97.8857 83.3865 97.9434 83.3699 97.9983C83.3533 98.0532 83.326 98.1043 83.2897 98.1487C83.2534 98.1931 83.2087 98.2298 83.1581 98.2569L77.737 101.144C77.6277 101.209 77.5385 101.304 77.4792 101.416C77.4199 101.529 77.3928 101.656 77.4008 101.784C77.4008 101.784 77.5068 102.693 77.5068 103.403C77.5068 104.031 77.425 104.816 77.425 104.816C77.4187 104.943 77.4466 105.07 77.5057 105.183C77.5648 105.296 77.653 105.391 77.7612 105.459L83.3156 108.507Z" fill="#202021"/>
<g opacity="0.15">
<path opacity="0.15" d="M78.4806 88.7311C78.454 88.6816 78.4175 88.6381 78.3733 88.6035C78.3292 88.5688 78.2783 88.5437 78.2239 88.5297C78.1696 88.5158 78.1129 88.5133 78.0575 88.5223C78.0021 88.5314 77.9492 88.5519 77.9021 88.5825L72.2993 92.1122C72.1872 92.1763 72.0604 92.21 71.9313 92.21C71.8022 92.21 71.6754 92.1763 71.5633 92.1122L69.4191 90.9144C69.3063 90.8528 69.2114 90.7627 69.144 90.6532C69.0765 90.5436 69.0388 90.4184 69.0345 90.2897L69.1889 83.7094C69.1901 83.6509 69.1797 83.5927 69.1581 83.5383C69.1366 83.4839 69.1045 83.4344 69.0636 83.3926C69.0227 83.3508 68.9738 83.3176 68.92 83.2949C68.8661 83.2722 68.8082 83.2606 68.7498 83.2606L65.3729 83.1817C65.2578 83.1793 65.1463 83.2226 65.0629 83.3021C64.9795 83.3816 64.9309 83.491 64.9277 83.6063L64.8126 89.3194L64.7945 90.1927L64.7066 93.6618L64.7066 94.1106L64.7066 94.5594L64.5098 101.849C64.5098 102.089 64.6642 102.18 64.8671 102.053L70.2732 98.5986L71.0091 98.1346L74.7252 95.8361L75.4672 95.3751L80.0585 92.5337C80.1557 92.4707 80.226 92.3736 80.2556 92.2615C80.2853 92.1494 80.2722 92.0303 80.219 91.9273L78.4806 88.7311Z" fill="#202021"/>
</g>
<g opacity="0.15">
<path opacity="0.15" d="M75.4702 111.279L74.7282 110.818L71.0151 108.522C70.8122 108.395 70.4791 108.189 70.2792 108.058L64.8732 104.607C64.6703 104.477 64.5097 104.568 64.5158 104.808L64.6824 112.085L64.6824 112.534L64.6824 112.986L64.7641 116.458L64.7823 117.332L64.9156 123.045C64.9187 123.16 64.9672 123.27 65.0506 123.35C65.1339 123.43 65.2453 123.474 65.3608 123.472L68.7376 123.393C68.8533 123.389 68.9628 123.34 69.0427 123.256C69.1225 123.172 69.1663 123.06 69.1647 122.945L69.0102 116.364C69.0145 116.236 69.0523 116.11 69.1197 116.001C69.1872 115.891 69.282 115.801 69.3948 115.74L71.5391 114.527C71.6513 114.463 71.7781 114.43 71.907 114.43C72.036 114.43 72.1627 114.463 72.275 114.527L77.8779 118.059C77.9251 118.09 77.9782 118.11 78.0337 118.119C78.0893 118.128 78.146 118.125 78.2004 118.111C78.2548 118.097 78.3056 118.071 78.3497 118.036C78.3937 118.001 78.4301 117.957 78.4563 117.908L80.2038 114.712C80.2571 114.609 80.2701 114.489 80.2404 114.377C80.2108 114.265 80.1405 114.168 80.0433 114.105L75.4702 111.279Z" fill="#202021"/>
</g>
</g>
<g opacity="0.75">
<path d="M145.601 51.4658L144.862 51.9327L141.13 54.2434L140.388 54.7013L135.812 57.5336C135.715 57.5967 135.645 57.6938 135.615 57.8059C135.586 57.918 135.599 58.0371 135.652 58.1401L137.39 61.3333C137.416 61.383 137.453 61.4268 137.497 61.4617C137.541 61.4967 137.592 61.5221 137.646 61.5364C137.701 61.5506 137.757 61.5534 137.813 61.5445C137.868 61.5357 137.921 61.5154 137.969 61.4849L143.568 57.9673C143.681 57.9032 143.807 57.8695 143.936 57.8695C144.066 57.8695 144.192 57.9032 144.304 57.9673L146.461 59.1802C146.574 59.2419 146.668 59.3319 146.736 59.4415C146.803 59.551 146.841 59.6763 146.845 59.8049L146.691 66.3762C146.689 66.4921 146.733 66.604 146.813 66.6879C146.893 66.7718 147.002 66.821 147.118 66.825L150.495 66.9038C150.61 66.9055 150.722 66.8615 150.805 66.7815C150.888 66.7015 150.937 66.5918 150.94 66.4763L151.073 60.7662L151.091 59.8929L151.173 56.4177V55.9659V55.5171L151.34 48.2392C151.34 47.9997 151.185 47.9087 150.982 48.0391L145.601 51.4658Z" fill="#202021"/>
<path d="M144.396 43.0903L144.002 42.8809L143.607 42.6715L140.153 40.842L139.388 40.4347L134.669 37.9333C134.618 37.9051 134.562 37.8873 134.504 37.8811C134.446 37.8749 134.388 37.8804 134.332 37.8973C134.277 37.9142 134.225 37.9421 134.18 37.9794C134.135 38.0168 134.099 38.0627 134.072 38.1145L132.508 41.0875C132.479 41.1384 132.46 41.1948 132.454 41.2531C132.447 41.3114 132.452 41.3705 132.469 41.4266C132.486 41.4828 132.514 41.535 132.552 41.5799C132.589 41.6248 132.636 41.6615 132.688 41.6878L138.082 44.55C138.19 44.6141 138.279 44.7072 138.339 44.819C138.398 44.9307 138.426 45.0568 138.419 45.1834C138.419 45.1834 138.32 46.0913 138.322 46.7918C138.335 47.4137 138.408 48.1913 138.408 48.1913C138.415 48.3183 138.388 48.4449 138.329 48.5577C138.271 48.6705 138.183 48.7654 138.075 48.8322L132.543 51.8946C132.494 51.9216 132.45 51.9584 132.415 52.0027C132.379 52.047 132.353 52.098 132.338 52.1526C132.323 52.2072 132.318 52.2644 132.325 52.3207C132.332 52.3771 132.35 52.4315 132.378 52.4807L134.19 55.639C134.219 55.6896 134.257 55.734 134.303 55.7696C134.349 55.8052 134.402 55.8314 134.458 55.8465C134.514 55.8616 134.573 55.8655 134.63 55.8578C134.688 55.8502 134.743 55.8312 134.793 55.8019L139.457 53.1617L140.211 52.7358L144.421 50.3524C144.628 50.2365 144.967 50.0394 145.178 49.9354L150.776 46.9109C150.984 46.798 150.986 46.6047 150.768 46.5034L144.396 43.0903Z" fill="#202021"/>
<path d="M166.483 32.1061C166.456 32.0566 166.419 32.0131 166.375 31.9785C166.331 31.9438 166.28 31.9187 166.226 31.9047C166.172 31.8908 166.115 31.8883 166.059 31.8973C166.004 31.9064 165.951 31.9269 165.904 31.9575L160.301 35.4872C160.189 35.5513 160.062 35.585 159.933 35.585C159.804 35.585 159.677 35.5513 159.565 35.4872L157.421 34.2894C157.308 34.2278 157.213 34.1377 157.146 34.0282C157.078 33.9186 157.041 33.7934 157.036 33.6647L157.191 27.0844C157.192 27.0259 157.182 26.9677 157.16 26.9133C157.139 26.8589 157.106 26.8094 157.066 26.7676C157.025 26.7258 156.976 26.6926 156.922 26.6699C156.868 26.6472 156.81 26.6356 156.752 26.6356L153.375 26.5567C153.26 26.5543 153.148 26.5976 153.065 26.6771C152.981 26.7566 152.933 26.866 152.93 26.9813L152.815 32.6944L152.796 33.5677L152.709 37.0368L152.709 37.4856L152.709 37.9344L152.512 45.2244C152.512 45.4639 152.666 45.5549 152.869 45.4275L158.275 41.9736L159.011 41.5096L162.727 39.2111L163.469 38.7501L168.06 35.9087C168.158 35.8457 168.228 35.7486 168.258 35.6365C168.287 35.5244 168.274 35.4053 168.221 35.3023L166.483 32.1061Z" fill="#202021"/>
<path d="M137.369 32.1149C137.396 32.0654 137.432 32.0219 137.476 31.9873C137.52 31.9526 137.571 31.9275 137.626 31.9135C137.68 31.8996 137.737 31.897 137.792 31.9061C137.847 31.9152 137.9 31.9357 137.947 31.9663L143.55 35.496C143.662 35.5601 143.789 35.5938 143.918 35.5938C144.047 35.5938 144.174 35.5601 144.286 35.496L146.431 34.2982C146.543 34.2366 146.638 34.1465 146.706 34.037C146.773 33.9274 146.811 33.8022 146.815 33.6735L146.661 27.0932C146.659 27.0347 146.67 26.9765 146.691 26.9221C146.713 26.8677 146.745 26.8182 146.786 26.7764C146.827 26.7346 146.876 26.7014 146.93 26.6787C146.984 26.656 147.041 26.6444 147.1 26.6444L150.477 26.5655C150.592 26.5631 150.703 26.6063 150.787 26.6859C150.87 26.7654 150.919 26.8748 150.922 26.9901L151.037 32.7032L151.055 33.5765L151.143 37.0456L151.143 37.4944L151.143 37.9432L151.34 45.2331C151.34 45.4727 151.185 45.5637 150.982 45.4363L145.576 41.9824L144.841 41.5184L141.124 39.2198L140.382 38.7589L135.791 35.9175C135.694 35.8544 135.624 35.7574 135.594 35.6453C135.564 35.5332 135.577 35.414 135.631 35.311L137.369 32.1149Z" fill="#202021"/>
<path d="M163.478 54.6519L162.736 54.1909L159.023 51.8954C158.82 51.768 158.487 51.5618 158.287 51.4314L152.881 47.9805C152.678 47.8501 152.518 47.9411 152.524 48.1807L152.69 55.4585L152.69 55.9073L152.69 56.3591L152.772 59.8312L152.79 60.7046L152.923 66.4177C152.927 66.5332 152.975 66.6429 153.058 66.7229C153.142 66.8029 153.253 66.8469 153.369 66.8452L156.745 66.7664C156.861 66.7624 156.971 66.7132 157.05 66.6293C157.13 66.5454 157.174 66.4335 157.172 66.3176L157.018 59.7372C157.022 59.6086 157.06 59.4833 157.128 59.3738C157.195 59.2642 157.29 59.1742 157.403 59.1126L159.547 57.8996C159.659 57.8361 159.786 57.8027 159.915 57.8027C160.044 57.8027 160.171 57.8361 160.283 57.8996L165.886 61.4324C165.933 61.4628 165.986 61.4831 166.042 61.492C166.097 61.5009 166.154 61.4981 166.208 61.4838C166.263 61.4696 166.313 61.4442 166.357 61.4092C166.402 61.3742 166.438 61.3305 166.464 61.2807L168.212 58.0846C168.265 57.9816 168.278 57.8624 168.248 57.7503C168.219 57.6382 168.148 57.5412 168.051 57.4781L163.478 54.6519Z" fill="#202021"/>
<path d="M151.179 37.9493V37.5005V37.0517L151.098 33.5735L151.079 32.7001L150.946 26.9901C150.943 26.8748 150.894 26.7654 150.811 26.6859C150.728 26.6063 150.616 26.5631 150.501 26.5655L147.124 26.6444C147.009 26.6475 146.899 26.6961 146.819 26.7795C146.739 26.863 146.695 26.9745 146.697 27.0901L146.851 33.6584C146.846 33.787 146.807 33.9119 146.738 34.0209C146.67 34.1299 146.574 34.2192 146.461 34.28L144.301 35.4778C144.189 35.5419 144.063 35.5756 143.933 35.5756C143.804 35.5756 143.678 35.5419 143.565 35.4778L137.978 31.9572C137.931 31.9266 137.878 31.9061 137.822 31.897C137.767 31.888 137.71 31.8905 137.656 31.9044C137.602 31.9184 137.551 31.9435 137.507 31.9782C137.462 32.0128 137.426 32.0563 137.399 32.1058L135.652 35.3019C135.599 35.4049 135.586 35.5241 135.615 35.6362C135.645 35.7483 135.715 35.8453 135.812 35.9084L140.385 38.7407L141.127 39.1986L144.862 41.5093L145.601 41.9733L151.004 45.4363C151.207 45.5637 151.367 45.4727 151.361 45.2331L151.179 37.9493Z" fill="#202021"/>
<path d="M171.325 51.8815C171.375 51.909 171.419 51.9461 171.454 51.9906C171.489 52.0351 171.516 52.0862 171.531 52.1409C171.547 52.1956 171.551 52.2528 171.544 52.3093C171.538 52.3657 171.52 52.4203 171.492 52.4698L169.675 55.6478C169.616 55.7501 169.52 55.8251 169.406 55.8564C169.293 55.8876 169.172 55.8726 169.069 55.8146L164.375 53.1824L163.615 52.7579L159.347 50.3744L158.581 49.9589L152.921 46.9417C152.709 46.8295 152.709 46.6384 152.921 46.5323L159.341 43.0935L159.738 42.8813L160.135 42.669L163.624 40.8131L164.393 40.4007L169.151 37.8778C169.202 37.8488 169.259 37.8305 169.318 37.824C169.376 37.8175 169.436 37.8229 169.492 37.8398C169.549 37.8568 169.601 37.885 169.647 37.9228C169.692 37.9606 169.73 38.0072 169.757 38.0597L171.347 41.0406C171.374 41.0911 171.391 41.1466 171.396 41.2037C171.402 41.2607 171.396 41.3184 171.38 41.3733C171.363 41.4282 171.336 41.4793 171.299 41.5237C171.263 41.5681 171.218 41.6048 171.168 41.6319L165.747 44.5188C165.637 44.5842 165.548 44.6786 165.489 44.7914C165.43 44.9043 165.403 45.0313 165.411 45.1586C165.411 45.1586 165.517 46.0683 165.517 46.7779C165.517 47.4056 165.435 48.191 165.435 48.191C165.429 48.3185 165.456 48.4453 165.515 48.5583C165.575 48.6713 165.663 48.7665 165.771 48.8339L171.325 51.8815Z" fill="#202021"/>
<g opacity="0.15">
<path opacity="0.15" d="M166.49 32.1061C166.464 32.0566 166.427 32.0131 166.383 31.9785C166.339 31.9438 166.288 31.9187 166.234 31.9047C166.179 31.8908 166.123 31.8883 166.067 31.8973C166.012 31.9064 165.959 31.9269 165.912 31.9575L160.309 35.4872C160.197 35.5513 160.07 35.585 159.941 35.585C159.812 35.585 159.685 35.5513 159.573 35.4872L157.429 34.2894C157.316 34.2278 157.221 34.1377 157.154 34.0282C157.086 33.9186 157.049 33.7934 157.044 33.6647L157.199 27.0844C157.2 27.0259 157.189 26.9677 157.168 26.9133C157.146 26.8589 157.114 26.8094 157.073 26.7676C157.032 26.7258 156.984 26.6926 156.93 26.6699C156.876 26.6472 156.818 26.6356 156.76 26.6356L153.383 26.5567C153.268 26.5543 153.156 26.5976 153.073 26.6771C152.989 26.7566 152.941 26.866 152.937 26.9813L152.822 32.6944L152.804 33.5677L152.716 37.0368L152.716 37.4856L152.716 37.9344L152.52 45.2244C152.52 45.4639 152.674 45.5549 152.877 45.4275L158.283 41.9736L159.019 41.5096L162.735 39.2111L163.477 38.7501L168.068 35.9087C168.165 35.8457 168.236 35.7486 168.265 35.6365C168.295 35.5244 168.282 35.4053 168.229 35.3023L166.49 32.1061Z" fill="#202021"/>
</g>
<g opacity="0.15">
<path opacity="0.15" d="M163.48 54.6538L162.738 54.1929L159.025 51.8973C158.822 51.77 158.489 51.5638 158.289 51.4334L152.883 47.9825C152.68 47.8521 152.519 47.943 152.526 48.1826L152.692 55.4604L152.692 55.9092L152.692 56.3611L152.774 59.8332L152.792 60.7065L152.925 66.4196C152.929 66.5352 152.977 66.6448 153.06 66.7249C153.144 66.8049 153.255 66.8488 153.371 66.8472L156.747 66.7684C156.863 66.7644 156.973 66.7152 157.052 66.6313C157.132 66.5473 157.176 66.4354 157.174 66.3196L157.02 59.7392C157.024 59.6106 157.062 59.4853 157.129 59.3757C157.197 59.2662 157.292 59.1761 157.405 59.1145L159.549 57.9015C159.661 57.838 159.788 57.8046 159.917 57.8046C160.046 57.8046 160.173 57.838 160.285 57.9015L165.888 61.4343C165.935 61.4648 165.988 61.4851 166.044 61.494C166.099 61.5028 166.156 61.5 166.21 61.4858C166.265 61.4715 166.315 61.4461 166.359 61.4112C166.403 61.3762 166.44 61.3324 166.466 61.2827L168.214 58.0865C168.267 57.9835 168.28 57.8644 168.25 57.7523C168.221 57.6402 168.15 57.5431 168.053 57.48L163.48 54.6538Z" fill="#202021"/>
</g>
<path d="M171.325 51.8815C171.375 51.909 171.419 51.9461 171.454 51.9906C171.489 52.0351 171.516 52.0862 171.531 52.1409C171.547 52.1956 171.551 52.2528 171.544 52.3093C171.538 52.3657 171.52 52.4203 171.492 52.4698L169.675 55.6478C169.616 55.7501 169.52 55.8251 169.406 55.8564C169.293 55.8876 169.172 55.8726 169.069 55.8146L164.375 53.1824L163.615 52.7579L159.347 50.3744L158.581 49.9589L152.921 46.9417C152.709 46.8295 152.709 46.6384 152.921 46.5323L159.341 43.0935L159.738 42.8813L160.135 42.669L163.624 40.8131L164.393 40.4007L169.151 37.8778C169.202 37.8488 169.259 37.8305 169.318 37.824C169.376 37.8175 169.436 37.8229 169.492 37.8398C169.549 37.8568 169.601 37.885 169.647 37.9228C169.692 37.9606 169.73 38.0072 169.757 38.0597L171.347 41.0406C171.374 41.0911 171.391 41.1466 171.396 41.2037C171.402 41.2607 171.396 41.3184 171.38 41.3733C171.363 41.4282 171.336 41.4793 171.299 41.5237C171.263 41.5681 171.218 41.6048 171.168 41.6319L165.747 44.5188C165.637 44.5842 165.548 44.6786 165.489 44.7914C165.43 44.9043 165.403 45.0313 165.411 45.1586C165.411 45.1586 165.517 46.0683 165.517 46.7779C165.517 47.4056 165.435 48.191 165.435 48.191C165.429 48.3185 165.456 48.4453 165.515 48.5583C165.575 48.6713 165.663 48.7665 165.771 48.8339L171.325 51.8815Z" fill="#202021"/>
<g opacity="0.15">
<path opacity="0.15" d="M166.49 32.1061C166.464 32.0566 166.427 32.0131 166.383 31.9785C166.339 31.9438 166.288 31.9187 166.234 31.9047C166.179 31.8908 166.123 31.8883 166.067 31.8973C166.012 31.9064 165.959 31.9269 165.912 31.9575L160.309 35.4872C160.197 35.5513 160.07 35.585 159.941 35.585C159.812 35.585 159.685 35.5513 159.573 35.4872L157.429 34.2894C157.316 34.2278 157.221 34.1377 157.154 34.0282C157.086 33.9186 157.049 33.7934 157.044 33.6647L157.199 27.0844C157.2 27.0259 157.189 26.9677 157.168 26.9133C157.146 26.8589 157.114 26.8094 157.073 26.7676C157.032 26.7258 156.984 26.6926 156.93 26.6699C156.876 26.6472 156.818 26.6356 156.76 26.6356L153.383 26.5567C153.268 26.5543 153.156 26.5976 153.073 26.6771C152.989 26.7566 152.941 26.866 152.937 26.9813L152.822 32.6944L152.804 33.5677L152.716 37.0368L152.716 37.4856L152.716 37.9344L152.52 45.2244C152.52 45.4639 152.674 45.5549 152.877 45.4275L158.283 41.9736L159.019 41.5096L162.735 39.2111L163.477 38.7501L168.068 35.9087C168.165 35.8457 168.236 35.7486 168.265 35.6365C168.295 35.5244 168.282 35.4053 168.229 35.3023L166.49 32.1061Z" fill="#202021"/>
</g>
<g opacity="0.15">
<path opacity="0.15" d="M163.48 54.6538L162.738 54.1929L159.025 51.8973C158.822 51.77 158.489 51.5638 158.289 51.4334L152.883 47.9825C152.68 47.8521 152.519 47.943 152.526 48.1826L152.692 55.4604L152.692 55.9092L152.692 56.3611L152.774 59.8332L152.792 60.7065L152.925 66.4196C152.929 66.5352 152.977 66.6448 153.06 66.7249C153.144 66.8049 153.255 66.8488 153.371 66.8472L156.747 66.7684C156.863 66.7644 156.973 66.7152 157.052 66.6313C157.132 66.5473 157.176 66.4354 157.174 66.3196L157.02 59.7392C157.024 59.6106 157.062 59.4853 157.129 59.3757C157.197 59.2662 157.292 59.1761 157.405 59.1145L159.549 57.9015C159.661 57.838 159.788 57.8046 159.917 57.8046C160.046 57.8046 160.173 57.838 160.285 57.9015L165.888 61.4343C165.935 61.4648 165.988 61.4851 166.044 61.494C166.099 61.5028 166.156 61.5 166.21 61.4858C166.265 61.4715 166.315 61.4461 166.359 61.4112C166.403 61.3762 166.44 61.3324 166.466 61.2827L168.214 58.0865C168.267 57.9835 168.28 57.8644 168.25 57.7523C168.221 57.6402 168.15 57.5431 168.053 57.48L163.48 54.6538Z" fill="#202021"/>
</g>
</g>
<g opacity="0.75">
<path d="M145.708 164.438L144.969 164.905L141.238 167.216L140.496 167.674L135.92 170.506C135.823 170.569 135.752 170.666 135.723 170.779C135.693 170.891 135.706 171.01 135.759 171.113L137.498 174.306C137.524 174.356 137.56 174.399 137.604 174.434C137.648 174.469 137.699 174.495 137.754 174.509C137.808 174.523 137.865 174.526 137.92 174.517C137.976 174.508 138.029 174.488 138.076 174.458L143.676 170.94C143.788 170.876 143.915 170.842 144.044 170.842C144.173 170.842 144.3 170.876 144.412 170.94L146.568 172.153C146.681 172.215 146.776 172.305 146.843 172.414C146.911 172.524 146.949 172.649 146.953 172.778L146.798 179.349C146.797 179.465 146.841 179.577 146.92 179.661C147 179.744 147.11 179.794 147.225 179.798L150.602 179.876C150.718 179.878 150.829 179.834 150.912 179.754C150.996 179.674 151.044 179.564 151.047 179.449L151.181 173.739L151.199 172.866L151.281 169.39V168.939V168.49L151.447 161.212C151.447 160.972 151.293 160.881 151.09 161.012L145.708 164.438Z" fill="#202021"/>
<path d="M144.504 156.063L144.109 155.854L143.715 155.644L140.261 153.815L139.496 153.407L134.776 150.906C134.725 150.878 134.669 150.86 134.611 150.854C134.554 150.848 134.495 150.853 134.44 150.87C134.384 150.887 134.332 150.915 134.288 150.952C134.243 150.989 134.206 151.035 134.179 151.087L132.615 154.06C132.586 154.111 132.568 154.167 132.561 154.226C132.555 154.284 132.56 154.343 132.577 154.399C132.594 154.455 132.622 154.508 132.659 154.553C132.697 154.597 132.743 154.634 132.795 154.66L138.189 157.523C138.298 157.587 138.387 157.68 138.446 157.792C138.506 157.903 138.533 158.029 138.526 158.156C138.526 158.156 138.427 159.064 138.43 159.764C138.442 160.386 138.515 161.164 138.515 161.164C138.522 161.291 138.495 161.418 138.436 161.53C138.378 161.643 138.29 161.738 138.183 161.805L132.651 164.867C132.601 164.894 132.557 164.931 132.522 164.975C132.487 165.02 132.461 165.071 132.445 165.125C132.43 165.18 132.426 165.237 132.432 165.293C132.439 165.35 132.457 165.404 132.486 165.453L134.297 168.612C134.326 168.662 134.365 168.707 134.411 168.742C134.457 168.778 134.509 168.804 134.565 168.819C134.621 168.834 134.68 168.838 134.738 168.83C134.795 168.823 134.851 168.804 134.901 168.775L139.564 166.134L140.319 165.708L144.528 163.325C144.736 163.209 145.074 163.012 145.285 162.908L150.884 159.884C151.092 159.771 151.094 159.577 150.876 159.476L144.504 156.063Z" fill="#202021"/>
<path d="M166.59 145.079C166.563 145.029 166.527 144.986 166.483 144.951C166.439 144.916 166.388 144.891 166.333 144.877C166.279 144.863 166.222 144.861 166.167 144.87C166.111 144.879 166.059 144.9 166.012 144.93L160.409 148.46C160.297 148.524 160.17 148.558 160.041 148.558C159.912 148.558 159.785 148.524 159.673 148.46L157.528 147.262C157.416 147.2 157.321 147.11 157.253 147.001C157.186 146.891 157.148 146.766 157.144 146.637L157.298 140.057C157.3 139.999 157.289 139.94 157.268 139.886C157.246 139.832 157.214 139.782 157.173 139.74C157.132 139.698 157.083 139.665 157.029 139.643C156.975 139.62 156.918 139.608 156.859 139.608L153.482 139.529C153.367 139.527 153.256 139.57 153.172 139.65C153.089 139.729 153.04 139.839 153.037 139.954L152.922 145.667L152.904 146.54L152.816 150.009L152.816 150.458L152.816 150.907L152.619 158.197C152.619 158.437 152.774 158.528 152.977 158.4L158.383 154.946L159.118 154.482L162.835 152.184L163.577 151.723L168.168 148.881C168.265 148.818 168.335 148.721 168.365 148.609C168.395 148.497 168.382 148.378 168.328 148.275L166.59 145.079Z" fill="#202021"/>
<path d="M137.476 145.088C137.503 145.038 137.54 144.995 137.584 144.96C137.628 144.925 137.679 144.9 137.733 144.886C137.787 144.872 137.844 144.87 137.9 144.879C137.955 144.888 138.008 144.908 138.055 144.939L143.658 148.469C143.77 148.533 143.897 148.566 144.026 148.566C144.155 148.566 144.282 148.533 144.394 148.469L146.538 147.271C146.651 147.209 146.746 147.119 146.813 147.01C146.881 146.9 146.918 146.775 146.923 146.646L146.768 140.066C146.767 140.007 146.777 139.949 146.799 139.895C146.82 139.84 146.853 139.791 146.893 139.749C146.934 139.707 146.983 139.674 147.037 139.651C147.091 139.629 147.149 139.617 147.207 139.617L150.584 139.538C150.699 139.536 150.811 139.579 150.894 139.659C150.978 139.738 151.026 139.847 151.029 139.963L151.144 145.676L151.163 146.549L151.25 150.018L151.25 150.467L151.25 150.916L151.447 158.206C151.447 158.445 151.293 158.536 151.09 158.409L145.684 154.955L144.948 154.491L141.232 152.192L140.49 151.732L135.899 148.89C135.801 148.827 135.731 148.73 135.701 148.618C135.672 148.506 135.685 148.387 135.738 148.284L137.476 145.088Z" fill="#202021"/>
<path d="M163.585 167.625L162.843 167.164L159.13 164.868C158.927 164.741 158.594 164.534 158.394 164.404L152.988 160.953C152.785 160.823 152.625 160.914 152.631 161.153L152.798 168.431L152.798 168.88L152.798 169.332L152.879 172.804L152.898 173.677L153.031 179.39C153.034 179.506 153.082 179.616 153.166 179.696C153.249 179.776 153.361 179.82 153.476 179.818L156.853 179.739C156.969 179.735 157.078 179.686 157.158 179.602C157.238 179.518 157.282 179.406 157.28 179.29L157.125 172.71C157.13 172.581 157.168 172.456 157.235 172.346C157.302 172.237 157.397 172.147 157.51 172.085L159.654 170.872C159.767 170.809 159.893 170.775 160.022 170.775C160.151 170.775 160.278 170.809 160.39 170.872L165.993 174.405C166.04 174.435 166.093 174.456 166.149 174.465C166.204 174.474 166.261 174.471 166.316 174.456C166.37 174.442 166.421 174.417 166.465 174.382C166.509 174.347 166.545 174.303 166.572 174.253L168.319 171.057C168.372 170.954 168.385 170.835 168.356 170.723C168.326 170.611 168.256 170.514 168.159 170.451L163.585 167.625Z" fill="#202021"/>
<path d="M151.287 150.922V150.473V150.024L151.205 146.546L151.187 145.673L151.054 139.963C151.05 139.847 151.002 139.738 150.918 139.659C150.835 139.579 150.723 139.536 150.608 139.538L147.231 139.617C147.116 139.62 147.007 139.669 146.927 139.752C146.847 139.836 146.803 139.947 146.804 140.063L146.959 146.631C146.953 146.76 146.914 146.885 146.846 146.994C146.777 147.103 146.682 147.192 146.568 147.253L144.409 148.45C144.297 148.515 144.17 148.548 144.041 148.548C143.912 148.548 143.785 148.515 143.673 148.45L138.085 144.93C138.038 144.899 137.985 144.879 137.93 144.87C137.874 144.861 137.818 144.863 137.763 144.877C137.709 144.891 137.658 144.916 137.614 144.951C137.57 144.985 137.533 145.029 137.507 145.078L135.759 148.275C135.706 148.378 135.693 148.497 135.723 148.609C135.752 148.721 135.823 148.818 135.92 148.881L140.493 151.713L141.235 152.171L144.969 154.482L145.708 154.946L151.111 158.409C151.314 158.536 151.475 158.445 151.468 158.206L151.287 150.922Z" fill="#202021"/>
<path d="M171.433 164.854C171.482 164.882 171.526 164.919 171.562 164.963C171.597 165.008 171.623 165.059 171.638 165.114C171.654 165.168 171.658 165.225 171.652 165.282C171.645 165.338 171.627 165.393 171.599 165.442L169.782 168.62C169.724 168.723 169.627 168.798 169.514 168.829C169.4 168.86 169.279 168.845 169.177 168.787L164.482 166.155L163.722 165.731L159.455 163.347L158.689 162.932L153.028 159.914C152.816 159.802 152.816 159.611 153.028 159.505L159.449 156.066L159.845 155.854L160.242 155.642L163.731 153.786L164.5 153.373L169.258 150.85C169.31 150.821 169.367 150.803 169.425 150.797C169.484 150.79 169.543 150.796 169.6 150.812C169.656 150.829 169.709 150.858 169.754 150.895C169.8 150.933 169.837 150.98 169.864 151.032L171.454 154.013C171.481 154.064 171.498 154.119 171.504 154.176C171.509 154.233 171.504 154.291 171.487 154.346C171.47 154.401 171.443 154.452 171.407 154.496C171.371 154.541 171.326 154.577 171.275 154.605L165.854 157.491C165.745 157.557 165.656 157.651 165.596 157.764C165.537 157.877 165.51 158.004 165.518 158.131C165.518 158.131 165.624 159.041 165.624 159.751C165.624 160.378 165.542 161.164 165.542 161.164C165.536 161.291 165.564 161.418 165.623 161.531C165.682 161.644 165.77 161.739 165.878 161.807L171.433 164.854Z" fill="#202021"/>
<g opacity="0.15">
<path opacity="0.15" d="M166.598 145.079C166.571 145.029 166.535 144.986 166.491 144.951C166.446 144.916 166.395 144.891 166.341 144.877C166.287 144.863 166.23 144.861 166.175 144.87C166.119 144.879 166.066 144.9 166.019 144.93L160.416 148.46C160.304 148.524 160.178 148.558 160.048 148.558C159.919 148.558 159.793 148.524 159.681 148.46L157.536 147.262C157.423 147.2 157.329 147.11 157.261 147.001C157.194 146.891 157.156 146.766 157.152 146.637L157.306 140.057C157.307 139.999 157.297 139.94 157.275 139.886C157.254 139.832 157.222 139.782 157.181 139.74C157.14 139.698 157.091 139.665 157.037 139.643C156.983 139.62 156.925 139.608 156.867 139.608L153.49 139.529C153.375 139.527 153.263 139.57 153.18 139.65C153.097 139.729 153.048 139.839 153.045 139.954L152.93 145.667L152.912 146.54L152.824 150.009L152.824 150.458L152.824 150.907L152.627 158.197C152.627 158.437 152.781 158.528 152.984 158.4L158.39 154.946L159.126 154.482L162.842 152.184L163.584 151.723L168.176 148.881C168.273 148.818 168.343 148.721 168.373 148.609C168.402 148.497 168.389 148.378 168.336 148.275L166.598 145.079Z" fill="#202021"/>
</g>
<g opacity="0.15">
<path opacity="0.15" d="M163.587 167.626L162.845 167.166L159.132 164.87C158.929 164.743 158.596 164.536 158.396 164.406L152.99 160.955C152.787 160.825 152.627 160.916 152.633 161.155L152.8 168.433L152.8 168.882L152.8 169.334L152.881 172.806L152.899 173.679L153.033 179.392C153.036 179.508 153.084 179.617 153.168 179.698C153.251 179.778 153.363 179.821 153.478 179.82L156.855 179.741C156.971 179.737 157.08 179.688 157.16 179.604C157.24 179.52 157.284 179.408 157.282 179.292L157.127 172.712C157.132 172.583 157.169 172.458 157.237 172.348C157.304 172.239 157.399 172.149 157.512 172.087L159.656 170.874C159.769 170.811 159.895 170.777 160.024 170.777C160.153 170.777 160.28 170.811 160.392 170.874L165.995 174.407C166.042 174.437 166.095 174.458 166.151 174.467C166.206 174.475 166.263 174.473 166.318 174.458C166.372 174.444 166.423 174.419 166.467 174.384C166.511 174.349 166.547 174.305 166.574 174.255L168.321 171.059C168.374 170.956 168.387 170.837 168.358 170.725C168.328 170.613 168.258 170.516 168.161 170.453L163.587 167.626Z" fill="#202021"/>
</g>
<path d="M171.433 164.854C171.482 164.882 171.526 164.919 171.562 164.963C171.597 165.008 171.623 165.059 171.638 165.114C171.654 165.168 171.658 165.225 171.652 165.282C171.645 165.338 171.627 165.393 171.599 165.442L169.782 168.62C169.724 168.723 169.627 168.798 169.514 168.829C169.4 168.86 169.279 168.845 169.177 168.787L164.482 166.155L163.722 165.731L159.455 163.347L158.689 162.932L153.028 159.914C152.816 159.802 152.816 159.611 153.028 159.505L159.449 156.066L159.845 155.854L160.242 155.642L163.731 153.786L164.5 153.373L169.258 150.85C169.31 150.821 169.366 150.803 169.425 150.797C169.484 150.79 169.543 150.796 169.6 150.812C169.656 150.829 169.709 150.858 169.754 150.895C169.8 150.933 169.837 150.98 169.864 151.032L171.454 154.013C171.481 154.064 171.498 154.119 171.504 154.176C171.509 154.233 171.504 154.291 171.487 154.346C171.47 154.401 171.443 154.452 171.407 154.496C171.371 154.541 171.326 154.577 171.275 154.605L165.854 157.491C165.745 157.557 165.656 157.651 165.596 157.764C165.537 157.877 165.51 158.004 165.518 158.131C165.518 158.131 165.624 159.041 165.624 159.751C165.624 160.378 165.542 161.164 165.542 161.164C165.536 161.291 165.564 161.418 165.623 161.531C165.682 161.644 165.77 161.739 165.878 161.807L171.433 164.854Z" fill="#202021"/>
<g opacity="0.15">
<path opacity="0.15" d="M166.598 145.079C166.571 145.029 166.535 144.986 166.491 144.951C166.446 144.916 166.395 144.891 166.341 144.877C166.287 144.863 166.23 144.861 166.175 144.87C166.119 144.879 166.066 144.9 166.019 144.93L160.416 148.46C160.304 148.524 160.178 148.558 160.048 148.558C159.919 148.558 159.793 148.524 159.681 148.46L157.536 147.262C157.423 147.2 157.329 147.11 157.261 147.001C157.194 146.891 157.156 146.766 157.152 146.637L157.306 140.057C157.307 139.999 157.297 139.94 157.275 139.886C157.254 139.832 157.222 139.782 157.181 139.74C157.14 139.698 157.091 139.665 157.037 139.643C156.983 139.62 156.925 139.608 156.867 139.608L153.49 139.529C153.375 139.527 153.263 139.57 153.18 139.65C153.097 139.729 153.048 139.839 153.045 139.954L152.93 145.667L152.912 146.54L152.824 150.009L152.824 150.458L152.824 150.907L152.627 158.197C152.627 158.437 152.781 158.528 152.984 158.4L158.39 154.946L159.126 154.482L162.842 152.184L163.584 151.723L168.176 148.881C168.273 148.818 168.343 148.721 168.373 148.609C168.402 148.497 168.389 148.378 168.336 148.275L166.598 145.079Z" fill="#202021"/>
</g>
<g opacity="0.15">
<path opacity="0.15" d="M163.587 167.626L162.845 167.166L159.132 164.87C158.929 164.743 158.596 164.536 158.396 164.406L152.99 160.955C152.787 160.825 152.627 160.916 152.633 161.155L152.8 168.433L152.8 168.882L152.8 169.334L152.881 172.806L152.899 173.679L153.033 179.392C153.036 179.508 153.084 179.617 153.168 179.698C153.251 179.778 153.363 179.821 153.478 179.82L156.855 179.741C156.971 179.737 157.08 179.688 157.16 179.604C157.24 179.52 157.284 179.408 157.282 179.292L157.127 172.712C157.132 172.583 157.169 172.458 157.237 172.348C157.304 172.239 157.399 172.149 157.512 172.087L159.656 170.874C159.769 170.811 159.895 170.777 160.024 170.777C160.153 170.777 160.28 170.811 160.392 170.874L165.995 174.407C166.042 174.437 166.095 174.458 166.151 174.467C166.206 174.475 166.263 174.473 166.318 174.458C166.372 174.444 166.423 174.419 166.467 174.384C166.511 174.349 166.547 174.305 166.574 174.255L168.321 171.059C168.374 170.956 168.387 170.837 168.358 170.725C168.328 170.613 168.258 170.516 168.161 170.453L163.587 167.626Z" fill="#202021"/>
</g>
</g>
</svg>
