<svg width="34" height="34" viewBox="0 0 34 34" fill="none" xmlns="http://www.w3.org/2000/svg">
<path d="M11.5893 20.908L10.9765 21.2937L7.8828 23.2023L7.26757 23.5805L3.47323 25.92C3.39264 25.9721 3.33438 26.0523 3.30978 26.1449C3.28518 26.2375 3.296 26.3359 3.34014 26.4209L4.78154 29.0585C4.80333 29.0996 4.83345 29.1357 4.86999 29.1646C4.90652 29.1935 4.94867 29.2144 4.99376 29.2262C5.03885 29.238 5.08591 29.2403 5.13194 29.233C5.17797 29.2257 5.22198 29.2089 5.26117 29.1837L9.90427 26.2782C9.9972 26.2252 10.1024 26.1974 10.2094 26.1974C10.3164 26.1974 10.4216 26.2252 10.5145 26.2782L12.3024 27.2801C12.396 27.331 12.4746 27.4054 12.5305 27.4959C12.5865 27.5863 12.6178 27.6898 12.6213 27.7961L12.4933 33.2239C12.4919 33.3196 12.5282 33.4121 12.5944 33.4814C12.6606 33.5507 12.7514 33.5913 12.8473 33.5946L15.6473 33.6597C15.743 33.6611 15.8354 33.6248 15.9045 33.5587C15.9736 33.4926 16.0138 33.402 16.0164 33.3066L16.1269 28.5901L16.142 27.8687L16.2098 24.9982V24.625V24.2543L16.3479 18.2429C16.3479 18.045 16.2198 17.9699 16.0516 18.0776L11.5893 20.908Z" fill="white"/>
<path d="M10.5886 13.9918L10.2614 13.8188L9.93423 13.6458L7.07031 12.1347L6.43609 11.7983L2.52272 9.73217C2.48055 9.70881 2.43414 9.69414 2.38623 9.68903C2.33831 9.68392 2.28987 9.68848 2.24375 9.70243C2.19762 9.71638 2.15476 9.73944 2.11768 9.77025C2.08059 9.80107 2.05005 9.83901 2.02784 9.88184L0.730896 12.3375C0.706881 12.3796 0.69168 12.4261 0.686224 12.4743C0.680768 12.5224 0.685171 12.5712 0.699163 12.6176C0.713155 12.664 0.736442 12.7071 0.767603 12.7442C0.798764 12.7813 0.837144 12.8116 0.880398 12.8333L5.35253 15.1975C5.44267 15.2505 5.51647 15.3274 5.56579 15.4197C5.61511 15.512 5.63804 15.6161 5.63204 15.7206C5.63204 15.7206 5.5502 16.4706 5.55201 17.0492C5.56246 17.5629 5.62282 18.2052 5.62282 18.2052C5.62874 18.3101 5.60626 18.4147 5.55776 18.5079C5.50926 18.601 5.43654 18.6794 5.34728 18.7345L0.760573 21.2641C0.719426 21.2864 0.683157 21.3168 0.653904 21.3534C0.62465 21.39 0.603002 21.4321 0.590232 21.4772C0.577463 21.5223 0.573829 21.5695 0.579548 21.6161C0.585267 21.6626 0.600222 21.7076 0.623531 21.7482L2.12554 24.3569C2.14955 24.3988 2.18155 24.4354 2.21973 24.4648C2.25791 24.4943 2.3015 24.5158 2.34801 24.5283C2.39453 24.5408 2.44304 24.544 2.49078 24.5377C2.53852 24.5314 2.58454 24.5157 2.6262 24.4915L6.49304 22.3107L7.11825 21.9589L10.6085 19.9903C10.7808 19.8945 11.0613 19.7317 11.2363 19.6458L15.8785 17.1476C16.0508 17.0544 16.0526 16.8947 15.8716 16.811L10.5886 13.9918Z" fill="white"/>
<path d="M28.9042 4.91682C28.8822 4.87593 28.8519 4.84003 28.8153 4.81141C28.7787 4.78278 28.7365 4.76205 28.6914 4.75052C28.6463 4.73898 28.5993 4.7369 28.5534 4.7444C28.5075 4.7519 28.4636 4.76882 28.4246 4.79408L23.779 7.70964C23.6861 7.76257 23.5809 7.79041 23.4739 7.79041C23.3669 7.79041 23.2617 7.76257 23.1688 7.70964L21.3909 6.72025C21.2973 6.66934 21.2187 6.59496 21.1628 6.50448C21.1068 6.41399 21.0755 6.31051 21.072 6.20427L21.2 0.768917C21.201 0.720593 21.1924 0.672557 21.1745 0.627622C21.1567 0.582687 21.13 0.541759 21.0961 0.507234C21.0622 0.472708 21.0217 0.445279 20.977 0.426559C20.9323 0.407839 20.8844 0.398201 20.8359 0.398212L18.036 0.333089C17.9405 0.331068 17.8481 0.366807 17.7789 0.432506C17.7098 0.498206 17.6695 0.588528 17.6669 0.683755L17.5714 5.40274L17.5564 6.12412L17.4835 8.98957L17.4835 9.36028L17.4835 9.73099L17.3203 15.7525C17.3203 15.9503 17.4484 16.0255 17.6166 15.9203L22.099 13.0673L22.7092 12.6841L25.7904 10.7855L26.4056 10.4048L30.2125 8.0578C30.2931 8.00569 30.3514 7.92554 30.376 7.83294C30.4006 7.74034 30.3898 7.64192 30.3456 7.55685L28.9042 4.91682Z" fill="white"/>
<path d="M4.75983 4.92414C4.78185 4.88325 4.81213 4.84736 4.84876 4.81873C4.88539 4.79011 4.92758 4.76938 4.97266 4.75784C5.01773 4.74631 5.06471 4.74422 5.11064 4.75172C5.15656 4.75922 5.20042 4.77614 5.23946 4.80141L9.88508 7.71696C9.97801 7.7699 10.0832 7.79774 10.1902 7.79774C10.2972 7.79774 10.4024 7.7699 10.4953 7.71696L12.2732 6.72758C12.3667 6.67666 12.4454 6.60229 12.5013 6.5118C12.5572 6.42131 12.5885 6.31784 12.5921 6.21159L12.464 0.776241C12.463 0.727917 12.4717 0.679882 12.4896 0.634946C12.5074 0.590011 12.5341 0.549083 12.568 0.514558C12.6019 0.480032 12.6424 0.452604 12.687 0.433884C12.7317 0.415163 12.7797 0.405526 12.8281 0.405536L15.6281 0.340413C15.7236 0.338392 15.816 0.374131 15.8851 0.439831C15.9543 0.50553 15.9946 0.595852 15.9972 0.69108L16.0926 5.41007L16.1077 6.13144L16.1805 8.9969L16.1805 9.3676L16.1805 9.73831L16.3438 15.7598C16.3438 15.9577 16.2157 16.0328 16.0474 15.9276L11.565 13.0747L10.9548 12.6914L7.87365 10.7928L7.25842 10.4121L3.45152 8.06512C3.37094 8.01301 3.31267 7.93286 3.28807 7.84026C3.26347 7.74766 3.27429 7.64925 3.31843 7.56417L4.75983 4.92414Z" fill="white"/>
<path d="M26.4033 23.5397L25.788 23.159L22.7094 21.2629C22.5411 21.1577 22.2649 20.9874 22.0992 20.8797L17.6168 18.0292C17.4485 17.9215 17.3154 17.9967 17.3205 18.1945L17.4586 24.206L17.4586 24.5767L17.4586 24.9499L17.5264 27.8179L17.5414 28.5392L17.6519 33.2582C17.6546 33.3537 17.6948 33.4442 17.7639 33.5103C17.8329 33.5764 17.9253 33.6127 18.0211 33.6114L20.821 33.5463C20.9169 33.543 21.0077 33.5023 21.0739 33.433C21.1401 33.3637 21.1764 33.2713 21.1751 33.1756L21.047 27.7402C21.0506 27.634 21.0819 27.5305 21.1378 27.44C21.1937 27.3495 21.2724 27.2751 21.3659 27.2242L23.1438 26.2223C23.2369 26.1699 23.342 26.1423 23.4489 26.1423C23.5558 26.1423 23.6609 26.1699 23.754 26.2223L28.3996 29.1404C28.4388 29.1656 28.4828 29.1823 28.5289 29.1896C28.5749 29.197 28.6219 29.1947 28.667 29.1829C28.7121 29.1711 28.7543 29.1501 28.7908 29.1212C28.8273 29.0924 28.8575 29.0562 28.8793 29.0151L30.3282 26.3751C30.3723 26.29 30.3831 26.1916 30.3585 26.099C30.3339 26.0064 30.2757 25.9263 30.1951 25.8742L26.4033 23.5397Z" fill="white"/>
<path d="M16.2148 9.74332V9.37261V9.00191L16.147 6.12894L16.1319 5.40756L16.0214 0.69108C16.0188 0.595852 15.9785 0.50553 15.9093 0.439831C15.8402 0.374131 15.7478 0.338392 15.6523 0.340413L12.8524 0.405536C12.7567 0.40816 12.6659 0.448269 12.5996 0.51718C12.5333 0.586091 12.4969 0.67826 12.4983 0.773738L12.6264 6.19907C12.6216 6.30532 12.5892 6.40851 12.5325 6.49853C12.4757 6.58855 12.3964 6.6623 12.3024 6.71255L10.512 7.70193C10.419 7.75487 10.3139 7.78271 10.2069 7.78271C10.0999 7.78271 9.99469 7.75487 9.90177 7.70193L5.2687 4.79389C5.22967 4.76863 5.1858 4.75171 5.13988 4.74421C5.09395 4.73671 5.04697 4.73879 5.0019 4.75033C4.95682 4.76186 4.91464 4.7826 4.878 4.81122C4.84137 4.83984 4.81109 4.87573 4.78907 4.91663L3.34014 7.55666C3.296 7.64173 3.28518 7.74015 3.30978 7.83275C3.33438 7.92535 3.39264 8.0055 3.47323 8.05761L7.26506 10.3971L7.88029 10.7753L10.9765 12.6839L11.5893 13.0672L16.0691 15.9276C16.2374 16.0328 16.3705 15.9577 16.3655 15.7598L16.2148 9.74332Z" fill="white"/>
<path d="M32.9155 21.2509C32.9567 21.2736 32.993 21.3042 33.0223 21.341C33.0515 21.3778 33.0732 21.42 33.086 21.4651C33.0989 21.5103 33.1026 21.5576 33.0971 21.6042C33.0915 21.6508 33.0767 21.6959 33.0536 21.7368L31.5469 24.3618C31.4985 24.4463 31.4185 24.5083 31.3243 24.5341C31.2302 24.5599 31.1297 24.5475 31.0447 24.4996L27.1524 22.3254L26.5221 21.9748L22.9839 20.006L22.3486 19.6628L17.6553 17.1706C17.4795 17.0779 17.4795 16.9201 17.6553 16.8325L22.9789 13.9921L23.3079 13.8167L23.6368 13.6414L26.5297 12.1085L27.1675 11.7678L31.1125 9.68385C31.1552 9.65991 31.2022 9.6448 31.2509 9.63942C31.2995 9.63404 31.3488 9.6385 31.3956 9.65253C31.4425 9.66655 31.4861 9.68987 31.5237 9.72107C31.5614 9.75227 31.5923 9.79073 31.6147 9.83413L32.9331 12.2963C32.9555 12.3381 32.9695 12.3839 32.9742 12.431C32.9789 12.4782 32.9742 12.5258 32.9605 12.5712C32.9467 12.6165 32.9241 12.6587 32.894 12.6954C32.8639 12.732 32.8268 12.7624 32.7849 12.7848L28.29 15.1693C28.1993 15.2234 28.1254 15.3013 28.0762 15.3945C28.027 15.4877 28.0046 15.5927 28.0112 15.6978C28.0112 15.6978 28.0991 16.4492 28.0991 17.0353C28.0991 17.5538 28.0313 18.2026 28.0313 18.2026C28.0261 18.3078 28.0492 18.4126 28.0982 18.5059C28.1472 18.5993 28.2204 18.6779 28.3101 18.7336L32.9155 21.2509Z" fill="white"/>
<path d="M32.9155 21.2509C32.9567 21.2736 32.993 21.3042 33.0223 21.341C33.0515 21.3778 33.0732 21.42 33.086 21.4651C33.0989 21.5103 33.1026 21.5576 33.0971 21.6042C33.0915 21.6508 33.0767 21.6959 33.0536 21.7368L31.5469 24.3618C31.4985 24.4463 31.4185 24.5083 31.3243 24.5341C31.2302 24.5599 31.1297 24.5475 31.0447 24.4996L27.1524 22.3254L26.5221 21.9748L22.9839 20.006L22.3486 19.6628L17.6553 17.1706C17.4795 17.0779 17.4795 16.9201 17.6553 16.8325L22.9789 13.9921L23.3079 13.8167L23.6368 13.6414L26.5297 12.1085L27.1675 11.7678L31.1125 9.68385C31.1552 9.65991 31.2022 9.6448 31.2509 9.63942C31.2995 9.63404 31.3488 9.6385 31.3956 9.65253C31.4425 9.66655 31.4861 9.68987 31.5237 9.72107C31.5614 9.75227 31.5923 9.79073 31.6147 9.83413L32.9331 12.2963C32.9555 12.3381 32.9695 12.3839 32.9742 12.431C32.9789 12.4782 32.9742 12.5258 32.9605 12.5712C32.9467 12.6165 32.9241 12.6587 32.894 12.6954C32.8639 12.732 32.8268 12.7624 32.7849 12.7848L28.29 15.1693C28.1993 15.2234 28.1254 15.3013 28.0762 15.3945C28.027 15.4877 28.0046 15.5927 28.0112 15.6978C28.0112 15.6978 28.0991 16.4492 28.0991 17.0353C28.0991 17.5538 28.0313 18.2026 28.0313 18.2026C28.0261 18.3078 28.0492 18.4126 28.0982 18.5059C28.1472 18.5993 28.2204 18.6779 28.3101 18.7336L32.9155 21.2509Z" fill="white"/>
</svg>
