<svg width="40" height="40" viewBox="0 0 40 40" fill="none" xmlns="http://www.w3.org/2000/svg">
<path d="M22.1578 19.2158L30.601 10.04H28.6002L21.269 18.0072L15.4137 10.04H8.66016L17.5147 22.0878L8.66016 31.71H10.661L18.4029 23.2964L24.5867 31.71H31.3402L22.1573 19.2158H22.1578ZM19.4174 22.194L18.5202 20.9943L11.382 11.4482H14.4552L20.2158 19.1522L21.113 20.3519L28.6012 30.3659H25.528L19.4174 22.1944V22.194Z" fill="#4C32FF"/>
<mask id="mask0_996_16927" style="mask-type:alpha" maskUnits="userSpaceOnUse" x="8" y="10" width="24" height="22">
<path d="M22.1578 19.2158L30.601 10.04H28.6002L21.269 18.0072L15.4137 10.04H8.66016L17.5147 22.0878L8.66016 31.71H10.661L18.4029 23.2964L24.5867 31.71H31.3402L22.1573 19.2158H22.1578ZM19.4174 22.194L18.5202 20.9943L11.382 11.4482H14.4552L20.2158 19.1522L21.113 20.3519L28.6012 30.3659H25.528L19.4174 22.1944V22.194Z" fill="#4C32FF"/>
</mask>
<g mask="url(#mask0_996_16927)">
<path d="M48.6602 10.04H8.66016V50.04H48.6602V10.04Z" fill="#4C32FF"/>
</g>
</svg>
