<svg width="40" height="40" viewBox="0 0 40 40" fill="none" xmlns="http://www.w3.org/2000/svg">
<path fill-rule="evenodd" clip-rule="evenodd" d="M30.8486 10.8213L30.7866 10.78C29.505 9.5604 27.996 8.98162 26.2597 9.0643L26.1977 8.94028L26.239 8.91961C27.81 8.56821 28.7402 8.19613 29.0296 7.78272C29.1123 7.45199 29.0089 7.26595 28.6575 7.22461C27.872 7.32797 27.1279 7.49333 26.4871 7.76205C27.3139 7.22461 27.624 6.85254 27.4379 6.6665C26.6318 6.68717 25.7429 7.10059 24.8334 7.92741C25.1642 7.34864 25.3089 7.01791 25.2262 6.97656C24.7714 7.26595 24.3994 7.59668 24.0686 7.94809C23.3658 8.73357 22.8077 9.45704 22.3736 10.1185L22.353 10.1598C21.2574 11.9582 20.4719 13.7565 20.0172 15.5962L19.8518 15.7409L19.8105 15.7616C19.149 14.9348 18.3428 14.232 17.392 13.6739C16.2758 12.9297 14.9529 12.2476 13.4232 11.5655C11.7696 10.6973 10.0746 9.99448 8.37958 9.43637C8.35891 11.3587 9.30976 12.8677 11.1495 13.9839V14.0046C10.5087 14.0046 9.86787 14.1079 9.24775 14.294C9.37177 16.0717 10.6327 17.2912 13.0098 17.9527L12.9891 17.994C12.059 17.932 11.2941 18.2628 10.6947 18.9449C11.4802 20.4745 12.8651 21.198 14.8702 21.1566C14.4774 21.3634 14.1674 21.5701 13.9607 21.8181C13.5886 22.2108 13.4646 22.6656 13.5886 23.1824C14.0227 23.9679 14.7875 24.3193 15.9244 24.2572L15.9864 24.3399L15.9657 24.3813C14.002 26.407 11.6249 27.3165 8.85501 27.1305L8.81366 27.1511C7.11867 27.1305 5.29965 26.3243 3.33594 24.712C5.29965 27.5439 7.92483 29.5903 11.1701 30.8925C14.8702 32.1121 18.5909 32.2155 22.2909 31.1612H22.353C25.9497 30.1277 28.9882 27.978 31.5101 24.7533C32.6676 23.079 33.3911 21.4667 33.6805 19.9164C35.5615 19.9784 36.9051 19.441 37.7526 18.2834L37.7319 18.2421C37.0911 18.4695 35.8716 18.4074 34.0732 18.0354V17.8287C36.0576 17.6013 37.2358 16.9605 37.6079 15.9063C36.223 16.4437 34.8587 16.4644 33.5151 15.9476C33.2671 14.0873 32.3782 12.3716 30.8486 10.8213Z" fill="#C2D1D9"/>
<mask id="mask0_5170_49157" style="mask-type:alpha" maskUnits="userSpaceOnUse" x="3" y="6" width="35" height="26">
<path fill-rule="evenodd" clip-rule="evenodd" d="M30.8486 10.8213L30.7866 10.78C29.505 9.5604 27.996 8.98162 26.2597 9.0643L26.1977 8.94028L26.239 8.91961C27.81 8.56821 28.7402 8.19613 29.0296 7.78272C29.1123 7.45199 29.0089 7.26595 28.6575 7.22461C27.872 7.32797 27.1279 7.49333 26.4871 7.76205C27.3139 7.22461 27.624 6.85254 27.4379 6.6665C26.6318 6.68717 25.7429 7.10059 24.8334 7.92741C25.1642 7.34864 25.3089 7.01791 25.2262 6.97656C24.7714 7.26595 24.3994 7.59668 24.0686 7.94809C23.3658 8.73357 22.8077 9.45704 22.3736 10.1185L22.353 10.1598C21.2574 11.9582 20.4719 13.7565 20.0172 15.5962L19.8518 15.7409L19.8105 15.7616C19.149 14.9348 18.3428 14.232 17.392 13.6739C16.2758 12.9297 14.9529 12.2476 13.4232 11.5655C11.7696 10.6973 10.0746 9.99448 8.37958 9.43637C8.35891 11.3587 9.30976 12.8677 11.1495 13.9839V14.0046C10.5087 14.0046 9.86787 14.1079 9.24775 14.294C9.37177 16.0717 10.6327 17.2912 13.0098 17.9527L12.9891 17.994C12.059 17.932 11.2941 18.2628 10.6947 18.9449C11.4802 20.4745 12.8651 21.198 14.8702 21.1566C14.4774 21.3634 14.1674 21.5701 13.9607 21.8181C13.5886 22.2108 13.4646 22.6656 13.5886 23.1824C14.0227 23.9679 14.7875 24.3193 15.9244 24.2572L15.9864 24.3399L15.9657 24.3813C14.002 26.407 11.6249 27.3165 8.85501 27.1305L8.81366 27.1511C7.11867 27.1305 5.29965 26.3243 3.33594 24.712C5.29965 27.5439 7.92483 29.5903 11.1701 30.8925C14.8702 32.1121 18.5909 32.2155 22.2909 31.1612H22.353C25.9497 30.1277 28.9882 27.978 31.5101 24.7533C32.6676 23.079 33.3911 21.4667 33.6805 19.9164C35.5615 19.9784 36.9051 19.441 37.7526 18.2834L37.7319 18.2421C37.0911 18.4695 35.8716 18.4074 34.0732 18.0354V17.8287C36.0576 17.6013 37.2358 16.9605 37.6079 15.9063C36.223 16.4437 34.8587 16.4644 33.5151 15.9476C33.2671 14.0873 32.3782 12.3716 30.8486 10.8213Z" fill="white"/>
</mask>
<g mask="url(#mask0_5170_49157)">
<rect width="40" height="40" fill="#4C32FF"/>
</g>
</svg>
