<svg width="16" height="16" viewBox="0 0 16 16" fill="none" xmlns="http://www.w3.org/2000/svg">
    <path fill-rule="evenodd" clip-rule="evenodd" d="m11.15 5.423-.646-.364-3.223-1.86-.64-.37L2.689.546a.378.378 0 0 0-.28-.034.395.395 0 0 0-.23.172l-1.62 2.7a.371.371 0 0 0 .019.414.34.34 0 0 0 .108.094l4.874 2.77c.093.059.17.14.222.24.054.098.081.21.08.323v2.17a.674.674 0 0 1-.078.322.635.635 0 0 1-.221.24L.694 12.664a.386.386 0 0 0-.178.227.405.405 0 0 0 .025.292l1.33 2.616a.37.37 0 0 0 .218.184c.092.03.193.02.278-.027l4.23-2.352.647-.362 2.575-1.43.33-.195.328-.193 5.39-3c.176-.103.179-.26 0-.359l-4.718-2.642z" fill="#0495B7"/>
</svg>
