<svg width="40" height="40" viewBox="0 0 40 40" fill="none" xmlns="http://www.w3.org/2000/svg">
<path d="M28.6007 13.5303L22.153 19.9781L28.6007 26.4255L26.4257 28.6009L19.978 22.1532L13.5305 28.6009L11.3551 26.4255L17.8028 19.9781L11.3551 13.5303L13.5305 11.3554L19.978 17.8031L26.4257 11.3554L28.6007 13.5303ZM39.6641 19.9795C39.6641 25.2381 37.6162 30.1823 33.8977 33.9006C30.1794 37.6192 25.2351 39.667 19.9766 39.667C14.718 39.667 9.77377 37.6192 6.05544 33.9006C2.33688 30.1823 0.289062 25.2381 0.289062 19.9795C0.289062 14.7209 2.33688 9.7767 6.05544 6.05837C9.77377 2.33981 14.718 0.291992 19.9766 0.291992C25.2351 0.291992 30.1794 2.33981 33.8977 6.05837C37.6162 9.7767 39.6641 14.7209 39.6641 19.9795ZM36.5879 19.9795C36.5879 10.8202 29.1359 3.36816 19.9766 3.36816C10.8173 3.36816 3.36523 10.8202 3.36523 19.9795C3.36523 29.1388 10.8173 36.5908 19.9766 36.5908C29.1359 36.5908 36.5879 29.1388 36.5879 19.9795Z" fill="#4330D5"/>
</svg>
