<svg width="151" height="109" viewBox="0 0 151 109" fill="none" xmlns="http://www.w3.org/2000/svg">
<g clip-path="url(#clip0_29_15)">
<path d="M131.82 47.8503C131.59 48.5403 131.27 49.2003 130.95 49.8503C130.63 50.5103 130.32 51.1703 129.98 51.8103L128.85 53.6903C128.66 54.0003 128.47 54.3103 128.27 54.6203L127.62 55.5003L126.3 57.2403L124.84 58.8603L124.1 59.6703C123.84 59.9303 123.57 60.1603 123.3 60.4103L121.68 61.8703C119.4 63.6703 116.99 65.3503 114.32 66.5403C113.03 67.2203 111.63 67.6703 110.26 68.1703C109.92 68.3003 109.57 68.4003 109.22 68.4903L108.16 68.7703L107.12 69.0303L103.98 52.6403H104L104.55 52.5003C104.74 52.4603 104.92 52.4203 105.09 52.3403C105.79 52.0603 106.53 51.8603 107.19 51.4803C108.59 50.8903 109.82 49.9703 111.03 49.0603C111.31 48.8003 111.59 48.5403 111.87 48.2903C112.01 48.1603 112.16 48.0403 112.29 47.9103L112.67 47.4803L113.45 46.6403C113.67 46.3303 113.89 46.0203 114.12 45.7203L114.47 45.2703L114.76 44.7803C114.95 44.4503 115.15 44.1303 115.36 43.8103C115.53 43.4703 115.68 43.1203 115.85 42.7903C116.02 42.4503 116.19 42.1103 116.3 41.7503C116.43 41.3903 116.56 41.0403 116.69 40.6903C116.82 40.3303 116.88 39.9603 116.98 39.5903C117.21 38.8703 117.28 38.1103 117.41 37.3603C117.5 36.9903 117.48 36.6003 117.5 36.2203L117.56 35.0803C117.54 34.7003 117.52 34.3203 117.5 33.9403L117.48 33.3703C117.48 33.1803 117.42 33.0003 117.4 32.8103C117.04 30.1803 116.16 27.6003 114.7 25.3703L128.14 15.5303C131.26 20.0103 133.21 25.2903 133.92 30.7003C134.72 36.4603 133.9 42.4203 131.8 47.8603L131.82 47.8503Z" fill="#0495B7"/>
<path d="M126.85 13.7199L113.41 23.5699C113.41 23.5699 113.4 23.5499 113.39 23.5499C113.13 23.2699 112.87 22.9899 112.62 22.7099C112.49 22.5699 112.38 22.4199 112.24 22.2899L111.81 21.9099L110.97 21.1399C110.66 20.9199 110.35 20.6999 110.05 20.4599L109.6 20.1099L109.11 19.8199C108.79 19.6299 108.47 19.4299 108.14 19.2299L107.11 18.7399C104.38 17.3899 101.31 16.9499 98.2501 17.0599C95.2101 17.2599 92.2601 18.2399 89.7001 19.8799C88.4201 20.6999 87.2401 21.6799 86.2101 22.7999L85.4501 23.6599C85.2201 23.9699 84.9901 24.2399 84.7501 24.5699L83.6801 26.1299L69.8101 16.9099L71.2501 14.8199C71.6601 14.2499 72.1301 13.6699 72.5701 13.0999C73.0401 12.5399 73.5301 11.9999 74.0101 11.4599C75.9901 9.32988 78.2401 7.44988 80.7001 5.86988C85.6001 2.71988 91.3401 0.819883 97.1501 0.449883L99.3301 0.379883C100.06 0.379883 100.78 0.439883 101.51 0.469883C102.96 0.499883 104.41 0.759883 105.85 0.979883C106.58 1.06988 107.28 1.28988 107.98 1.45988C108.69 1.64988 109.4 1.79988 110.1 2.03988L112.15 2.78988C112.49 2.91988 112.84 3.02988 113.17 3.18988L114.16 3.65988C114.82 3.97988 115.48 4.28988 116.13 4.62988L118 5.75988L118.93 6.33988L119.81 6.97988L121.55 8.29988C122.1 8.77988 122.64 9.26988 123.18 9.74988L123.98 10.4899C124.24 10.7399 124.48 11.0199 124.73 11.2799L126.19 12.8999C126.42 13.1799 126.63 13.4599 126.85 13.7399V13.7199Z" fill="#49BF78"/>
<path d="M82.4402 27.96L67.9102 49.02L64.1202 54.51C63.9902 54.71 63.7402 55.05 63.5402 55.33L62.9102 56.2C62.4702 56.77 61.9902 57.33 61.5302 57.89C61.0502 58.43 60.5502 58.96 60.0502 59.49C59.5302 60 59.0102 60.51 58.4702 60.99C54.4202 64.64 49.4802 67.31 44.1902 68.71L40.4302 52.46C42.9702 51.7 45.3502 50.38 47.3402 48.59L48.1702 47.8L48.9402 46.96C49.1702 46.66 49.4302 46.38 49.6602 46.07L50.3802 45.06L54.1402 39.61L68.5502 18.71L82.4302 27.93L82.4402 27.96Z" fill="#EFC739"/>
<path d="M42.0301 69.2201C36.6701 70.2901 31.1101 70.0301 25.8301 68.5801C25.4801 68.4801 25.1201 68.4001 24.7801 68.2901L23.7501 67.9201L21.7001 67.1601L19.7201 66.2201L18.7401 65.7401C18.4201 65.5701 18.1101 65.3701 17.8001 65.1801L15.9301 64.0401C15.3301 63.6301 14.7501 63.1801 14.1601 62.7501C12.9701 61.9101 11.9401 60.8701 10.8601 59.9001C8.83009 57.8201 6.94009 55.5701 5.48009 53.0501C4.69009 51.8201 4.08009 50.5001 3.45009 49.1701L3.22009 48.6801L3.03009 48.1701L2.65009 47.1401C2.41009 46.4501 2.12009 45.7701 1.94009 45.0701C0.410088 39.8001 0.0800878 34.2401 1.05009 28.8701L17.3501 32.3801C16.9601 35.0101 17.1701 37.7701 17.8901 40.3001C17.9701 40.6701 18.1501 41.0101 18.2701 41.3701L18.4601 41.9001L18.5501 42.1701L18.6801 42.4201C19.0201 43.1001 19.3001 43.8001 19.7401 44.4301C20.4801 45.7601 21.5001 46.9101 22.5401 48.0201C22.8301 48.2701 23.1101 48.5301 23.3901 48.7801C23.6601 49.0601 23.9701 49.2701 24.2701 49.5001C24.5801 49.7201 24.8801 49.9701 25.1901 50.1801C25.5201 50.3701 25.8401 50.5701 26.1701 50.7701C26.3301 50.8601 26.4901 50.9801 26.6501 51.0601L27.1701 51.3001C27.5101 51.4601 27.8501 51.6301 28.1901 51.8001L29.2601 52.1801L29.7901 52.3801C29.9701 52.4501 30.1601 52.4701 30.3401 52.5201C32.8901 53.2201 35.6401 53.4001 38.2701 52.9601L42.0301 69.2001V69.2201Z" fill="#EE923E"/>
<path d="M56.42 7.54008L46.27 20.7501C43.85 18.9001 40.99 17.6701 37.99 17.2201C37.24 17.1001 36.48 17.0401 35.71 17.0201C35.33 17.0001 34.95 17.0201 34.57 17.0501C34.19 17.0701 33.81 17.0901 33.43 17.1001C31.93 17.3201 30.43 17.5601 29.02 18.1401C27.58 18.6101 26.26 19.3901 24.99 20.2101C24.4 20.6901 23.74 21.0801 23.21 21.6301C22.93 21.9001 22.63 22.1301 22.37 22.4001C22.12 22.6901 21.86 22.9701 21.61 23.2501C21.48 23.3901 21.34 23.5201 21.23 23.6701L20.9 24.1301L20.21 25.0401C20.02 25.3701 19.83 25.7001 19.63 26.0201L19.32 26.5001L19.08 27.0201C18.92 27.3601 18.75 27.7001 18.58 28.0401L18.2 29.1101L18 29.6401C17.93 29.8101 17.91 30.0101 17.85 30.1801C17.85 30.1901 17.85 30.2001 17.85 30.2101L1.54004 26.7101L1.81004 25.6601C1.91004 25.3101 1.99004 24.9501 2.11004 24.6101L2.48004 23.5801C2.74004 22.9001 2.98004 22.2101 3.25004 21.5301L4.19004 19.5501L4.67004 18.5701L5.23004 17.6301L6.37004 15.7601C6.79004 15.1701 7.23004 14.5801 7.66004 14.0001L8.32004 13.1301C8.54004 12.8501 8.80004 12.5901 9.04004 12.3101L10.51 10.6901C11.02 10.1701 11.57 9.70008 12.1 9.20008C13.15 8.19008 14.35 7.36008 15.52 6.49008C17.94 4.88008 20.51 3.45008 23.28 2.49008C26.01 1.43008 28.89 0.870078 31.78 0.510078L33.96 0.390078C34.69 0.350078 35.41 0.320078 36.14 0.350078C37.59 0.390078 39.04 0.510078 40.48 0.730078C46.25 1.59008 51.8 3.97008 56.42 7.52008V7.54008Z" fill="#CC4040"/>
<path d="M104.94 69.4303C103.87 69.6003 102.79 69.7703 101.71 69.7903L99.5301 69.8903C98.8001 69.8703 98.0801 69.8303 97.3501 69.8003C95.9001 69.7703 94.4501 69.4903 93.0101 69.2803L92.4701 69.1903L91.9401 69.0603L90.8801 68.7903C90.1801 68.6003 89.4601 68.4503 88.7701 68.2003C87.4001 67.6903 86.0001 67.2603 84.7101 66.5803C84.0501 66.2603 83.3901 65.9603 82.7501 65.6103L80.8801 64.4803C80.5701 64.2903 80.2601 64.1003 79.9601 63.9003L79.0801 63.2503C78.5001 62.8203 77.9101 62.3803 77.3401 61.9303L75.7201 60.4703L74.9201 59.7303L74.1801 58.9203L72.7101 57.3003C72.2601 56.7303 71.8301 56.1503 71.3901 55.5603L70.7501 54.6803C70.5401 54.3803 70.3601 54.0603 70.1601 53.7603L69.0301 51.8903C68.9701 51.7803 68.9101 51.6703 68.8601 51.5603L81.4801 33.2803C81.4201 33.8903 81.3801 34.5003 81.3801 35.1203C81.4601 36.6503 81.5501 38.1703 81.9701 39.6303C82.2901 41.1103 82.9401 42.5003 83.6201 43.8503C83.8201 44.1703 84.0201 44.4903 84.2101 44.8203C84.3101 44.9803 84.3901 45.1503 84.5001 45.3003L84.8501 45.7603L85.5301 46.6703C85.8001 46.9503 86.0501 47.2303 86.3101 47.5103L86.6901 47.9403L87.1201 48.3203C87.4001 48.5703 87.6801 48.8303 87.9601 49.0903L88.8801 49.7703L89.3401 50.1203C89.5001 50.2303 89.6701 50.3103 89.8301 50.4103C90.1501 50.6003 90.4801 50.8003 90.8001 51.0003C91.1401 51.1803 91.4901 51.3203 91.8301 51.4903C92.4901 51.8703 93.2301 52.0503 93.9301 52.3403C96.4501 53.1603 99.1901 53.3703 101.84 53.0503L104.97 69.4203L104.94 69.4303Z" fill="#701FD8"/>
<path d="M150.49 69.8999L135.49 43.4399C135.09 45.1799 134.56 46.9099 133.9 48.6099C133.63 49.4099 133.27 50.1499 132.93 50.8399L132.75 51.1999C132.48 51.7499 132.22 52.3099 131.93 52.8499L131.9 52.9099L130.71 54.8899C130.62 55.0299 130.24 55.6499 130.13 55.8199L130.09 55.8899L129.39 56.8299L128 58.6699L126.48 60.3599L125.69 61.2199L125.65 61.2599C125.49 61.4199 125.33 61.5599 125.17 61.7099L130.82 69.8999H150.48H150.49Z" fill="#0495B7"/>
<path d="M11.27 100.52C11.27 96.0602 14.39 92.9902 18.85 92.9902C20.92 92.9902 22.7 93.7202 24.25 95.2102L22.56 97.0202C21.6 96.0302 20.28 95.5002 18.88 95.5002C16.05 95.5002 13.98 97.5102 13.98 100.52C13.98 103.53 16.02 105.54 18.88 105.54C20.37 105.54 21.74 104.96 22.7 103.94L24.39 105.81C22.81 107.36 21.06 108.06 18.88 108.06C14.36 108.06 11.27 105.06 11.27 100.53" fill="white"/>
<path d="M25.97 100.52C25.97 96.2302 28.97 92.9902 33.58 92.9902C38.19 92.9902 41.16 96.2302 41.16 100.52C41.16 104.81 38.16 108.05 33.58 108.05C29 108.05 25.97 104.81 25.97 100.52ZM38.46 100.52C38.46 97.7802 36.53 95.5002 33.59 95.5002C30.65 95.5002 28.69 97.7802 28.69 100.52C28.69 103.26 30.62 105.54 33.59 105.54C36.56 105.54 38.46 103.26 38.46 100.52Z" fill="white"/>
<path d="M58.59 87.3V107.72H56.17L56.14 105.59C55.03 107.11 53.02 108.04 50.63 108.04C46.49 108.04 43.48 105.06 43.48 100.51C43.48 95.96 46.48 92.98 50.63 92.98C52.85 92.98 54.74 93.77 55.88 95.11V87.29H58.59V87.3ZM55.88 100.52C55.88 97.57 53.87 95.5 51.04 95.5C48.21 95.5 46.2 97.57 46.2 100.52C46.2 103.47 48.21 105.54 51.04 105.54C53.87 105.54 55.88 103.47 55.88 100.52" fill="white"/>
<path d="M76.5601 101.6H64.6301C64.8901 104.08 66.7901 105.6 69.5601 105.6C71.3101 105.6 73.0901 104.93 73.9401 103.91L75.6901 105.57C74.3201 107.14 71.9801 108.11 69.5101 108.11C64.8701 108.11 61.8401 105.11 61.8401 100.53C61.8401 95.9503 64.8201 93.0303 69.2201 93.0303C74.1801 93.0303 76.9801 96.3003 76.5701 101.61M64.6701 99.3103H74.0101C73.7801 96.9803 72.0001 95.4603 69.3101 95.4603C66.7701 95.4603 65.1101 96.8903 64.6701 99.3103Z" fill="white"/>
<path d="M139.68 101.6H127.75C128.01 104.08 129.91 105.6 132.68 105.6C134.43 105.6 136.21 104.93 137.06 103.91L138.81 105.57C137.44 107.14 135.1 108.11 132.63 108.11C127.99 108.11 124.96 105.11 124.96 100.53C124.96 95.9503 127.94 93.0303 132.34 93.0303C137.3 93.0303 140.1 96.3003 139.69 101.61M127.79 99.3103H137.13C136.9 96.9803 135.12 95.4603 132.43 95.4603C129.89 95.4603 128.23 96.8903 127.79 99.3103" fill="white"/>
<path d="M100.79 87.3003H98.0801V107.72H100.79V87.3003Z" fill="white"/>
<path d="M104.53 89.0502C104.53 88.0002 105.32 87.2402 106.37 87.2402C107.42 87.2402 108.21 88.0002 108.21 89.0502C108.21 90.1002 107.45 90.8302 106.37 90.8302C105.29 90.8302 104.53 90.0702 104.53 89.0502ZM105 93.3102H107.71V107.72H105V93.3102Z" fill="white"/>
<path d="M120.96 107.72L114.63 101.16V107.72H111.91V87.3003H114.63V99.5203L120.28 93.3103H123.7L117.28 100.25L124.6 107.72H120.96Z" fill="white"/>
<path d="M91.46 107.72L91.43 105.59C90.29 107.11 88.31 108.04 85.94 108.04C81.71 108.04 78.74 104.95 78.74 100.51C78.74 96.0705 81.71 92.9805 85.94 92.9805C86.06 92.9805 86.17 92.9905 86.29 93.0005V95.4905C83.46 95.4905 81.45 97.5605 81.45 100.51C81.45 103.46 83.46 105.53 86.29 105.53C89.12 105.53 91.3 103.45 91.34 100.54H93.85V107.72H91.46Z" fill="white"/>
<path d="M91.85 99.4702C91.59 99.5102 91.35 99.3102 91.35 99.0502V95.5002H87.8C87.54 95.5002 87.33 95.2602 87.38 95.0002L87.66 93.3502C87.69 93.1402 87.87 92.9902 88.08 92.9902H93.43C93.67 92.9902 93.86 93.1802 93.86 93.4202V95.5002V98.7702C93.86 98.9802 93.71 99.1602 93.5 99.1902L91.85 99.4702Z" fill="white"/>
</g>
<defs>
<clipPath id="clip0_29_15">
<rect width="150.99" height="108.46" fill="white"/>
</clipPath>
</defs>
</svg>
