<svg width="283" height="227" viewBox="0 0 283 227" fill="none" xmlns="http://www.w3.org/2000/svg">
<g opacity="0.5">
<mask id="mask0_951_18439" style="mask-type:alpha" maskUnits="userSpaceOnUse" x="140" y="45" width="121" height="111">
<path d="M140.824 45.6201V149.87L145.824 154.62L171.324 133.87H259.824V45.6201H140.824Z" fill="black" stroke="black"/>
</mask>
<g mask="url(#mask0_951_18439)">
<path d="M156.504 74.4047L155.65 74.9443L151.339 77.6146L150.481 78.1437L145.193 81.4167C145.081 81.4896 145 81.6017 144.965 81.7313C144.931 81.8608 144.946 81.9985 145.008 82.1175L147.016 85.8075C147.047 85.865 147.089 85.9156 147.14 85.956C147.191 85.9964 147.249 86.0257 147.312 86.0422C147.375 86.0587 147.441 86.0619 147.505 86.0517C147.569 86.0414 147.63 86.0179 147.685 85.9827L154.156 81.9178C154.286 81.8437 154.432 81.8048 154.581 81.8048C154.73 81.8048 154.877 81.8437 155.007 81.9178L157.498 83.3195C157.629 83.3907 157.738 83.4948 157.816 83.6214C157.894 83.748 157.938 83.8927 157.943 84.0414L157.764 91.6351C157.762 91.769 157.813 91.8983 157.905 91.9953C157.998 92.0923 158.124 92.1491 158.258 92.1537L162.16 92.2448C162.294 92.2467 162.422 92.1959 162.519 92.1035C162.615 92.011 162.671 91.8843 162.675 91.7507L162.829 85.1522L162.85 84.143L162.944 80.1271V79.605V79.0864L163.137 70.6761C163.137 70.3993 162.958 70.2942 162.724 70.4449L156.504 74.4047Z" fill="black"/>
<path d="M155.113 64.7276L154.657 64.4856L154.201 64.2435L150.21 62.1294L149.326 61.6588L143.872 58.7682C143.813 58.7355 143.749 58.715 143.682 58.7078C143.615 58.7007 143.547 58.7071 143.483 58.7266C143.419 58.7461 143.359 58.7784 143.307 58.8215C143.256 58.8646 143.213 58.9177 143.182 58.9776L141.375 62.4131C141.341 62.472 141.32 62.5371 141.312 62.6045C141.305 62.6719 141.311 62.7401 141.33 62.805C141.35 62.87 141.382 62.9302 141.426 62.9821C141.469 63.034 141.523 63.0764 141.583 63.1068L147.816 66.4144C147.942 66.4885 148.044 66.596 148.113 66.7252C148.182 66.8543 148.214 67 148.205 67.1463C148.205 67.1463 148.091 68.1955 148.094 69.005C148.108 69.7236 148.193 70.6222 148.193 70.6222C148.201 70.769 148.17 70.9153 148.102 71.0457C148.034 71.176 147.933 71.2856 147.809 71.3628L141.416 74.9017C141.359 74.933 141.308 74.9755 141.267 75.0267C141.227 75.0779 141.196 75.1368 141.179 75.1999C141.161 75.263 141.156 75.3291 141.164 75.3942C141.172 75.4593 141.193 75.5222 141.225 75.5791L143.318 79.2287C143.352 79.2872 143.396 79.3385 143.45 79.3797C143.503 79.4208 143.564 79.451 143.628 79.4685C143.693 79.486 143.761 79.4905 143.827 79.4816C143.894 79.4728 143.958 79.4508 144.016 79.417L149.405 76.366L150.277 75.8738L155.141 73.1196C155.381 72.9856 155.772 72.7579 156.016 72.6378L162.486 69.1427C162.726 69.0122 162.729 68.7888 162.476 68.6718L155.113 64.7276Z" fill="black"/>
<path d="M180.635 52.033C180.604 51.9758 180.562 51.9256 180.511 51.8855C180.46 51.8455 180.401 51.8165 180.338 51.8004C180.275 51.7842 180.21 51.7813 180.146 51.7918C180.082 51.8023 180.021 51.826 179.966 51.8613L173.492 55.9403C173.362 56.0143 173.216 56.0533 173.067 56.0533C172.917 56.0533 172.771 56.0143 172.641 55.9403L170.163 54.5561C170.033 54.4848 169.923 54.3808 169.846 54.2542C169.768 54.1276 169.724 53.9828 169.719 53.8342L169.897 46.23C169.899 46.1624 169.887 46.0952 169.862 46.0323C169.837 45.9694 169.8 45.9122 169.753 45.8639C169.705 45.8156 169.649 45.7772 169.587 45.751C169.524 45.7248 169.458 45.7113 169.39 45.7113L165.488 45.6202C165.355 45.6174 165.226 45.6674 165.129 45.7593C165.033 45.8512 164.977 45.9776 164.973 46.1108L164.84 52.7128L164.819 53.7221L164.718 57.7309L164.718 58.2496L164.718 58.7682L164.49 67.1924C164.49 67.4693 164.669 67.5744 164.903 67.4272L171.15 63.4359L172.001 62.8997L176.295 60.2435L177.153 59.7108L182.458 56.4273C182.571 56.3544 182.652 56.2423 182.686 56.1128C182.72 55.9832 182.705 55.8455 182.644 55.7265L180.635 52.033Z" fill="black"/>
<path d="M146.992 52.0428C147.023 51.9856 147.065 51.9354 147.116 51.8953C147.167 51.8553 147.226 51.8263 147.289 51.8101C147.352 51.794 147.417 51.7911 147.481 51.8016C147.545 51.8121 147.606 51.8357 147.661 51.8711L154.135 55.95C154.265 56.0241 154.411 56.063 154.56 56.063C154.71 56.063 154.856 56.0241 154.986 55.95L157.464 54.5658C157.594 54.4946 157.703 54.3906 157.781 54.264C157.859 54.1374 157.903 53.9926 157.908 53.844L157.73 46.2397C157.728 46.1721 157.74 46.1049 157.765 46.0421C157.79 45.9792 157.827 45.9219 157.874 45.8736C157.922 45.8253 157.978 45.787 158.04 45.7608C158.103 45.7346 158.169 45.7211 158.237 45.7211L162.139 45.63C162.272 45.6272 162.401 45.6772 162.498 45.7691C162.594 45.861 162.65 45.9874 162.654 46.1206L162.787 52.7226L162.808 53.7318L162.909 57.7407L162.909 58.2593L162.909 58.778L163.137 67.2022C163.137 67.479 162.958 67.5841 162.724 67.437L156.477 63.4456L155.626 62.9095L151.332 60.2532L150.474 59.7206L145.169 56.4371C145.056 56.3642 144.975 56.2521 144.941 56.1225C144.907 55.993 144.922 55.8553 144.983 55.7363L146.992 52.0428Z" fill="black"/>
<path d="M177.163 78.0868L176.305 77.5542L172.015 74.9015C171.78 74.7543 171.395 74.516 171.164 74.3653L164.917 70.3775C164.683 70.2268 164.497 70.3319 164.504 70.6088L164.697 79.019L164.697 79.5376L164.697 80.0597L164.791 84.0721L164.812 85.0813L164.966 91.6834C164.97 91.8169 165.026 91.9436 165.122 92.0361C165.218 92.1286 165.347 92.1793 165.481 92.1774L169.383 92.0863C169.517 92.0818 169.643 92.0249 169.735 91.9279C169.828 91.831 169.878 91.7016 169.876 91.5677L169.698 83.9635C169.703 83.8148 169.746 83.6701 169.824 83.5435C169.902 83.4169 170.012 83.3128 170.142 83.2416L172.62 81.8399C172.75 81.7665 172.896 81.7279 173.045 81.7279C173.194 81.7279 173.341 81.7665 173.471 81.8399L179.945 85.9224C180 85.9576 180.061 85.981 180.125 85.9913C180.19 86.0015 180.255 85.9983 180.318 85.9818C180.381 85.9654 180.44 85.936 180.49 85.8956C180.541 85.8552 180.583 85.8046 180.614 85.7471L182.633 82.0537C182.695 81.9346 182.71 81.7969 182.675 81.6674C182.641 81.5379 182.56 81.4257 182.448 81.3528L177.163 78.0868Z" fill="black"/>
<path d="M162.951 58.785V58.2663V57.7477L162.857 53.7283L162.836 52.7191L162.682 46.1206C162.678 45.9874 162.622 45.861 162.525 45.7691C162.429 45.6772 162.3 45.6272 162.167 45.63L158.265 45.7211C158.131 45.7248 158.005 45.7809 157.913 45.8773C157.82 45.9737 157.769 46.1027 157.771 46.2362L157.95 53.8264C157.943 53.9751 157.898 54.1195 157.819 54.2454C157.74 54.3713 157.629 54.4745 157.498 54.5448L155.003 55.929C154.874 56.0031 154.727 56.042 154.578 56.042C154.429 56.042 154.282 56.0031 154.153 55.929L147.695 51.8606C147.641 51.8252 147.58 51.8015 147.516 51.791C147.452 51.7806 147.386 51.7835 147.324 51.7996C147.261 51.8157 147.202 51.8448 147.151 51.8848C147.1 51.9248 147.058 51.9751 147.027 52.0323L145.008 55.7258C144.946 55.8448 144.931 55.9825 144.965 56.112C145 56.2416 145.081 56.3537 145.193 56.4266L150.478 59.6996L151.335 60.2287L155.65 62.899L156.504 63.4351L162.748 67.437C162.983 67.5842 163.168 67.479 163.161 67.2022L162.951 58.785Z" fill="black"/>
<path d="M186.229 74.8856C186.287 74.9174 186.337 74.9602 186.378 75.0117C186.419 75.0631 186.449 75.1222 186.467 75.1854C186.485 75.2486 186.49 75.3147 186.482 75.3799C186.475 75.4451 186.454 75.5082 186.422 75.5654L184.322 79.2379C184.255 79.3561 184.143 79.4428 184.012 79.4789C183.881 79.5151 183.74 79.4977 183.622 79.4306L178.197 76.3889L177.319 75.8983L172.388 73.144L171.502 72.6639L164.961 69.1772C164.716 69.0475 164.716 68.8267 164.961 68.7041L172.381 64.7303L172.839 64.485L173.298 64.2397L177.329 62.0951L178.218 61.6185L183.717 58.7029C183.776 58.6695 183.842 58.6483 183.909 58.6408C183.977 58.6333 184.046 58.6395 184.111 58.6591C184.177 58.6788 184.237 58.7114 184.29 58.755C184.342 58.7987 184.385 58.8525 184.417 58.9132L186.254 62.3579C186.285 62.4163 186.305 62.4804 186.311 62.5463C186.318 62.6123 186.311 62.6789 186.292 62.7424C186.273 62.8059 186.241 62.8649 186.199 62.9162C186.157 62.9675 186.106 63.0099 186.047 63.0412L179.783 66.3773C179.656 66.4529 179.553 66.5619 179.485 66.6923C179.416 66.8228 179.385 66.9696 179.394 67.1167C179.394 67.1167 179.517 68.1679 179.517 68.9879C179.517 69.7133 179.422 70.6209 179.422 70.6209C179.415 70.7682 179.447 70.9147 179.516 71.0453C179.584 71.1759 179.686 71.2859 179.811 71.3638L186.229 74.8856Z" fill="black"/>
<g opacity="0.15">
<path opacity="0.15" d="M180.637 52.033C180.606 51.9758 180.564 51.9256 180.513 51.8855C180.462 51.8455 180.403 51.8165 180.34 51.8004C180.277 51.7842 180.212 51.7813 180.148 51.7918C180.084 51.8023 180.023 51.826 179.968 51.8613L173.494 55.9403C173.364 56.0143 173.218 56.0533 173.068 56.0533C172.919 56.0533 172.773 56.0143 172.643 55.9403L170.165 54.5561C170.035 54.4848 169.925 54.3808 169.847 54.2542C169.77 54.1276 169.726 53.9828 169.721 53.8342L169.899 46.23C169.901 46.1624 169.889 46.0952 169.864 46.0323C169.839 45.9694 169.802 45.9122 169.755 45.8639C169.707 45.8156 169.651 45.7772 169.589 45.751C169.526 45.7248 169.459 45.7113 169.392 45.7113L165.49 45.6202C165.357 45.6174 165.228 45.6674 165.131 45.7593C165.035 45.8512 164.979 45.9776 164.975 46.1108L164.842 52.7128L164.821 53.7221L164.72 57.7309L164.72 58.2496L164.72 58.7682L164.492 67.1924C164.492 67.4693 164.671 67.5744 164.905 67.4272L171.152 63.4359L172.003 62.8997L176.297 60.2435L177.154 59.7108L182.46 56.4273C182.573 56.3544 182.654 56.2423 182.688 56.1128C182.722 55.9832 182.707 55.8455 182.646 55.7265L180.637 52.033Z" fill="black"/>
</g>
<g opacity="0.15">
<path opacity="0.15" d="M177.165 78.0878L176.307 77.5552L172.017 74.9025C171.782 74.7553 171.397 74.517 171.166 74.3663L164.919 70.3785C164.685 70.2278 164.499 70.3329 164.506 70.6097L164.699 79.02L164.699 79.5386L164.699 80.0607L164.793 84.0731L164.814 85.0823L164.968 91.6843C164.972 91.8179 165.028 91.9446 165.124 92.0371C165.22 92.1295 165.349 92.1803 165.483 92.1784L169.385 92.0873C169.518 92.0827 169.645 92.0259 169.737 91.9289C169.83 91.8319 169.88 91.7026 169.878 91.5687L169.7 83.9645C169.705 83.8158 169.748 83.6711 169.826 83.5445C169.904 83.4179 170.014 83.3138 170.144 83.2426L172.622 81.8409C172.752 81.7675 172.898 81.7289 173.047 81.7289C173.196 81.7289 173.343 81.7675 173.473 81.8409L179.947 85.9233C180.002 85.9586 180.063 85.982 180.127 85.9923C180.191 86.0025 180.257 85.9993 180.32 85.9828C180.383 85.9663 180.441 85.937 180.492 85.8966C180.543 85.8562 180.585 85.8056 180.616 85.7481L182.635 82.0546C182.697 81.9356 182.712 81.7979 182.677 81.6684C182.643 81.5388 182.562 81.4267 182.45 81.3538L177.165 78.0878Z" fill="black"/>
</g>
<path d="M186.229 74.8856C186.287 74.9174 186.337 74.9602 186.378 75.0117C186.419 75.0631 186.449 75.1222 186.467 75.1854C186.485 75.2486 186.49 75.3147 186.482 75.3799C186.475 75.4451 186.454 75.5082 186.422 75.5654L184.322 79.2379C184.255 79.3561 184.143 79.4428 184.012 79.4789C183.881 79.5151 183.74 79.4977 183.622 79.4306L178.197 76.3889L177.319 75.8983L172.388 73.144L171.502 72.6639L164.961 69.1772C164.716 69.0475 164.716 68.8267 164.961 68.7041L172.381 64.7303L172.839 64.485L173.298 64.2397L177.329 62.0951L178.218 61.6185L183.717 58.7029C183.776 58.6695 183.842 58.6483 183.909 58.6408C183.977 58.6333 184.046 58.6395 184.111 58.6591C184.176 58.6788 184.237 58.7114 184.29 58.755C184.342 58.7987 184.385 58.8525 184.417 58.9132L186.254 62.3579C186.285 62.4163 186.305 62.4804 186.311 62.5463C186.318 62.6123 186.311 62.6789 186.292 62.7424C186.273 62.8059 186.241 62.8649 186.199 62.9162C186.157 62.9675 186.106 63.0099 186.047 63.0412L179.783 66.3773C179.656 66.4529 179.553 66.5619 179.485 66.6923C179.416 66.8228 179.385 66.9696 179.394 67.1167C179.394 67.1167 179.517 68.1679 179.517 68.9879C179.517 69.7133 179.422 70.6209 179.422 70.6209C179.415 70.7682 179.447 70.9147 179.516 71.0453C179.584 71.1759 179.686 71.2859 179.811 71.3638L186.229 74.8856Z" fill="black"/>
<g opacity="0.15">
<path opacity="0.15" d="M180.637 52.033C180.606 51.9758 180.564 51.9256 180.513 51.8855C180.462 51.8455 180.403 51.8165 180.34 51.8004C180.277 51.7842 180.212 51.7813 180.148 51.7918C180.084 51.8023 180.023 51.826 179.968 51.8613L173.494 55.9403C173.364 56.0143 173.218 56.0533 173.068 56.0533C172.919 56.0533 172.773 56.0143 172.643 55.9403L170.165 54.5561C170.035 54.4848 169.925 54.3808 169.847 54.2542C169.77 54.1276 169.726 53.9828 169.721 53.8342L169.899 46.23C169.901 46.1624 169.889 46.0952 169.864 46.0323C169.839 45.9694 169.802 45.9122 169.755 45.8639C169.707 45.8156 169.651 45.7772 169.589 45.751C169.526 45.7248 169.459 45.7113 169.392 45.7113L165.49 45.6202C165.357 45.6174 165.228 45.6674 165.131 45.7593C165.035 45.8512 164.979 45.9776 164.975 46.1108L164.842 52.7128L164.821 53.7221L164.72 57.7309L164.72 58.2496L164.72 58.7682L164.492 67.1924C164.492 67.4693 164.671 67.5744 164.905 67.4272L171.152 63.4359L172.003 62.8997L176.297 60.2435L177.154 59.7108L182.46 56.4273C182.573 56.3544 182.654 56.2423 182.688 56.1128C182.722 55.9832 182.707 55.8455 182.646 55.7265L180.637 52.033Z" fill="black"/>
</g>
<g opacity="0.15">
<path opacity="0.15" d="M177.165 78.0878L176.307 77.5552L172.017 74.9025C171.782 74.7553 171.397 74.517 171.166 74.3663L164.919 70.3785C164.685 70.2278 164.499 70.3329 164.506 70.6097L164.699 79.02L164.699 79.5386L164.699 80.0607L164.793 84.0731L164.814 85.0823L164.968 91.6843C164.972 91.8179 165.028 91.9446 165.124 92.0371C165.22 92.1295 165.349 92.1803 165.483 92.1784L169.385 92.0873C169.518 92.0827 169.645 92.0259 169.737 91.9289C169.83 91.8319 169.88 91.7026 169.878 91.5687L169.7 83.9645C169.705 83.8158 169.748 83.6711 169.826 83.5445C169.904 83.4179 170.014 83.3138 170.144 83.2426L172.622 81.8409C172.752 81.7675 172.898 81.7289 173.047 81.7289C173.196 81.7289 173.343 81.7675 173.473 81.8409L179.947 85.9233C180.002 85.9586 180.063 85.982 180.127 85.9923C180.191 86.0025 180.257 85.9993 180.32 85.9828C180.383 85.9663 180.441 85.937 180.492 85.8966C180.543 85.8562 180.585 85.8056 180.616 85.7481L182.635 82.0546C182.697 81.9356 182.712 81.7979 182.677 81.6684C182.643 81.5388 182.562 81.4267 182.45 81.3538L177.165 78.0878Z" fill="black"/>
</g>
<path d="M202.167 74.3373L201.313 74.8769L197.001 77.5472L196.143 78.0763L190.855 81.3493C190.743 81.4222 190.662 81.5343 190.627 81.6639C190.593 81.7934 190.608 81.9311 190.67 82.0502L192.679 85.7401C192.709 85.7976 192.751 85.8482 192.802 85.8886C192.853 85.929 192.911 85.9584 192.974 85.9748C193.037 85.9913 193.103 85.9945 193.167 85.9843C193.231 85.974 193.292 85.9506 193.347 85.9153L199.818 81.8504C199.948 81.7764 200.094 81.7374 200.243 81.7374C200.393 81.7374 200.539 81.7764 200.669 81.8504L203.16 83.2521C203.291 83.3233 203.4 83.4274 203.478 83.554C203.556 83.6806 203.6 83.8254 203.605 83.974L203.426 91.5677C203.425 91.7016 203.475 91.831 203.567 91.9279C203.66 92.0249 203.786 92.0818 203.92 92.0863L207.822 92.1774C207.956 92.1793 208.084 92.1286 208.181 92.0361C208.277 91.9436 208.333 91.8169 208.337 91.6833L208.491 85.0848L208.512 84.0756L208.606 80.0597V79.5376V79.019L208.799 70.6088C208.799 70.3319 208.62 70.2268 208.386 70.3775L202.167 74.3373Z" fill="black"/>
<path d="M200.776 64.6602L200.32 64.4182L199.864 64.1762L195.872 62.062L194.988 61.5914L189.534 58.7008C189.475 58.6681 189.411 58.6476 189.344 58.6405C189.277 58.6333 189.21 58.6397 189.145 58.6592C189.081 58.6787 189.021 58.711 188.97 58.7541C188.918 58.7972 188.875 58.8503 188.844 58.9102L187.037 62.3457C187.003 62.4046 186.982 62.4697 186.975 62.5371C186.967 62.6045 186.973 62.6727 186.993 62.7376C187.012 62.8026 187.045 62.8628 187.088 62.9147C187.131 62.9666 187.185 63.009 187.245 63.0394L193.478 66.347C193.604 66.4211 193.706 66.5287 193.775 66.6578C193.844 66.7869 193.876 66.9327 193.868 67.0789C193.868 67.0789 193.753 68.1281 193.756 68.9376C193.771 69.6562 193.855 70.5548 193.855 70.5548C193.863 70.7016 193.832 70.8479 193.764 70.9783C193.696 71.1087 193.595 71.2182 193.471 71.2954L187.078 74.8343C187.021 74.8656 186.97 74.9081 186.929 74.9593C186.889 75.0105 186.859 75.0694 186.841 75.1325C186.823 75.1956 186.818 75.2617 186.826 75.3268C186.834 75.3919 186.855 75.4548 186.887 75.5117L188.981 79.1613C189.014 79.2199 189.059 79.2712 189.112 79.3123C189.165 79.3535 189.226 79.3837 189.291 79.4011C189.355 79.4186 189.423 79.4231 189.49 79.4142C189.556 79.4054 189.62 79.3834 189.678 79.3496L195.068 76.2986L195.939 75.8064L200.803 73.0522C201.043 72.9182 201.434 72.6905 201.678 72.5704L208.148 69.0753C208.388 68.9448 208.391 68.7214 208.139 68.6044L200.776 64.6602Z" fill="black"/>
<path d="M226.297 51.9656C226.266 51.9084 226.224 51.8582 226.173 51.8182C226.122 51.7781 226.063 51.7491 226 51.733C225.938 51.7168 225.872 51.7139 225.808 51.7244C225.744 51.7349 225.683 51.7586 225.628 51.7939L219.154 55.8729C219.024 55.9469 218.878 55.9859 218.729 55.9859C218.579 55.9859 218.433 55.9469 218.303 55.8729L215.826 54.4887C215.695 54.4175 215.586 54.3134 215.508 54.1868C215.43 54.0602 215.386 53.9155 215.381 53.7668L215.56 46.1626C215.561 46.095 215.549 46.0278 215.524 45.9649C215.499 45.902 215.462 45.8448 215.415 45.7965C215.367 45.7482 215.311 45.7098 215.249 45.6836C215.186 45.6574 215.12 45.6439 215.052 45.644L211.15 45.5528C211.017 45.55 210.888 45.6 210.792 45.6919C210.695 45.7839 210.639 45.9102 210.635 46.0434L210.502 52.6455L210.481 53.6547L210.38 57.6635L210.38 58.1822L210.38 58.7008L210.152 67.125C210.152 67.4019 210.331 67.507 210.565 67.3598L216.812 63.3685L217.663 62.8323L221.957 60.1761L222.815 59.6435L228.12 56.36C228.233 56.2871 228.314 56.1749 228.348 56.0454C228.382 55.9158 228.367 55.7781 228.306 55.6591L226.297 51.9656Z" fill="black"/>
<path d="M192.654 51.9754C192.685 51.9182 192.727 51.868 192.778 51.8279C192.829 51.7879 192.888 51.7589 192.951 51.7427C193.014 51.7266 193.079 51.7237 193.143 51.7342C193.207 51.7447 193.268 51.7683 193.323 51.8037L199.797 55.8826C199.927 55.9567 200.073 55.9957 200.223 55.9957C200.372 55.9957 200.518 55.9567 200.648 55.8826L203.126 54.4985C203.256 54.4272 203.366 54.3232 203.444 54.1966C203.522 54.07 203.565 53.9252 203.57 53.7766L203.392 46.1724C203.39 46.1047 203.402 46.0375 203.427 45.9747C203.452 45.9118 203.489 45.8545 203.536 45.8062C203.584 45.7579 203.64 45.7196 203.702 45.6934C203.765 45.6672 203.832 45.6537 203.899 45.6537L207.801 45.5626C207.934 45.5598 208.063 45.6098 208.16 45.7017C208.256 45.7936 208.312 45.92 208.316 46.0532L208.449 52.6552L208.47 53.6644L208.571 57.6733L208.571 58.1919L208.571 58.7106L208.799 67.1348C208.799 67.4116 208.62 67.5168 208.386 67.3696L202.139 63.3782L201.288 62.8421L196.994 60.1859L196.137 59.6532L190.831 56.3697C190.718 56.2968 190.637 56.1847 190.603 56.0551C190.569 55.9256 190.584 55.7879 190.645 55.6689L192.654 51.9754Z" fill="black"/>
<path d="M222.825 78.0195L221.968 77.4868L217.677 74.8341C217.442 74.6869 217.057 74.4486 216.826 74.2979L210.579 70.3101C210.345 70.1594 210.159 70.2645 210.166 70.5414L210.359 78.9516L210.359 79.4702L210.359 79.9924L210.453 84.0047L210.474 85.014L210.628 91.616C210.632 91.7495 210.688 91.8762 210.784 91.9687C210.88 92.0612 211.009 92.112 211.143 92.1101L215.045 92.019C215.179 92.0144 215.305 91.9575 215.397 91.8605C215.49 91.7636 215.54 91.6342 215.538 91.5003L215.36 83.8961C215.365 83.7475 215.409 83.6027 215.486 83.4761C215.564 83.3495 215.674 83.2455 215.804 83.1742L218.282 81.7725C218.412 81.6991 218.558 81.6606 218.707 81.6606C218.856 81.6606 219.003 81.6991 219.133 81.7725L225.607 85.855C225.662 85.8902 225.723 85.9137 225.787 85.9239C225.852 85.9341 225.917 85.9309 225.98 85.9144C226.043 85.898 226.102 85.8686 226.153 85.8282C226.203 85.7878 226.245 85.7373 226.276 85.6798L228.295 81.9863C228.357 81.8673 228.372 81.7296 228.338 81.6C228.303 81.4705 228.222 81.3583 228.11 81.2854L222.825 78.0195Z" fill="black"/>
<path d="M208.613 58.7176V58.199V57.6803L208.519 53.6609L208.498 52.6517L208.344 46.0532C208.34 45.92 208.284 45.7936 208.187 45.7017C208.091 45.6098 207.962 45.5598 207.829 45.5626L203.927 45.6537C203.794 45.6574 203.667 45.7135 203.575 45.8099C203.482 45.9063 203.432 46.0353 203.433 46.1688L203.612 53.7591C203.605 53.9077 203.56 54.0521 203.481 54.178C203.402 54.304 203.291 54.4071 203.16 54.4774L200.665 55.8616C200.536 55.9357 200.389 55.9746 200.24 55.9746C200.091 55.9746 199.944 55.9357 199.815 55.8616L193.358 51.7932C193.303 51.7578 193.242 51.7342 193.178 51.7237C193.114 51.7132 193.048 51.7161 192.986 51.7322C192.923 51.7484 192.864 51.7774 192.813 51.8174C192.762 51.8575 192.72 51.9077 192.689 51.9649L190.67 55.6584C190.608 55.7774 190.593 55.9151 190.627 56.0446C190.662 56.1742 190.743 56.2863 190.855 56.3592L196.14 59.6322L196.997 60.1613L201.313 62.8316L202.167 63.3677L208.41 67.3696C208.645 67.5168 208.83 67.4116 208.823 67.1348L208.613 58.7176Z" fill="black"/>
<path d="M231.892 74.8182C231.949 74.85 232 74.8929 232.04 74.9443C232.081 74.9957 232.111 75.0548 232.129 75.118C232.147 75.1812 232.152 75.2473 232.145 75.3125C232.137 75.3778 232.116 75.4408 232.084 75.498L229.984 79.1705C229.917 79.2888 229.805 79.3754 229.674 79.4116C229.543 79.4477 229.403 79.4303 229.284 79.3632L223.859 76.3215L222.981 75.8309L218.05 73.0766L217.164 72.5965L210.623 69.1098C210.378 68.9801 210.378 68.7594 210.623 68.6367L218.043 64.6629L218.501 64.4176L218.96 64.1723L222.992 62.0277L223.88 61.5511L229.379 58.6356C229.438 58.6021 229.504 58.5809 229.572 58.5734C229.639 58.5659 229.708 58.5721 229.773 58.5917C229.839 58.6114 229.899 58.644 229.952 58.6876C230.004 58.7313 230.047 58.7851 230.079 58.8458L231.916 62.2905C231.947 62.3489 231.967 62.413 231.973 62.479C231.98 62.5449 231.973 62.6116 231.954 62.675C231.935 62.7385 231.904 62.7975 231.862 62.8488C231.82 62.9001 231.768 62.9426 231.71 62.9738L225.445 66.3099C225.319 66.3855 225.215 66.4945 225.147 66.625C225.078 66.7554 225.047 66.9022 225.056 67.0493C225.056 67.0493 225.179 68.1006 225.179 68.9206C225.179 69.6459 225.084 70.5535 225.084 70.5535C225.077 70.7008 225.109 70.8473 225.178 70.9779C225.246 71.1086 225.348 71.2185 225.473 71.2964L231.892 74.8182Z" fill="black"/>
<g opacity="0.15">
<path opacity="0.15" d="M226.299 51.9656C226.268 51.9084 226.226 51.8582 226.175 51.8182C226.124 51.7781 226.065 51.7491 226.002 51.733C225.939 51.7168 225.874 51.7139 225.81 51.7244C225.746 51.7349 225.685 51.7586 225.63 51.7939L219.156 55.8729C219.026 55.9469 218.88 55.9859 218.731 55.9859C218.581 55.9859 218.435 55.9469 218.305 55.8729L215.827 54.4887C215.697 54.4175 215.588 54.3134 215.51 54.1868C215.432 54.0602 215.388 53.9155 215.383 53.7668L215.562 46.1626C215.563 46.095 215.551 46.0278 215.526 45.9649C215.501 45.902 215.464 45.8448 215.417 45.7965C215.369 45.7482 215.313 45.7098 215.251 45.6836C215.188 45.6574 215.122 45.6439 215.054 45.644L211.152 45.5528C211.019 45.55 210.89 45.6 210.793 45.6919C210.697 45.7839 210.641 45.9102 210.637 46.0434L210.504 52.6455L210.483 53.6547L210.382 57.6635L210.382 58.1822L210.382 58.7008L210.154 67.125C210.154 67.4019 210.333 67.507 210.567 67.3598L216.814 63.3685L217.665 62.8323L221.959 60.1761L222.817 59.6435L228.122 56.36C228.235 56.2871 228.316 56.1749 228.35 56.0454C228.384 55.9158 228.369 55.7781 228.308 55.6591L226.299 51.9656Z" fill="black"/>
</g>
<g opacity="0.15">
<path opacity="0.15" d="M222.827 78.0204L221.97 77.4878L217.679 74.8351C217.444 74.6879 217.059 74.4496 216.828 74.2989L210.581 70.3111C210.347 70.1604 210.161 70.2655 210.168 70.5424L210.361 78.9526L210.361 79.4712L210.361 79.9933L210.455 84.0057L210.476 85.0149L210.63 91.617C210.634 91.7505 210.69 91.8772 210.786 91.9697C210.882 92.0621 211.011 92.1129 211.145 92.111L215.047 92.0199C215.181 92.0154 215.307 91.9585 215.399 91.8615C215.492 91.7645 215.542 91.6352 215.54 91.5013L215.362 83.8971C215.367 83.7484 215.41 83.6037 215.488 83.4771C215.566 83.3505 215.676 83.2464 215.806 83.1752L218.284 81.7735C218.414 81.7001 218.56 81.6615 218.709 81.6615C218.858 81.6615 219.005 81.7001 219.135 81.7735L225.609 85.856C225.664 85.8912 225.725 85.9146 225.789 85.9249C225.854 85.9351 225.919 85.9319 225.982 85.9154C226.045 85.899 226.104 85.8696 226.155 85.8292C226.205 85.7888 226.247 85.7382 226.278 85.6807L228.297 81.9873C228.359 81.8682 228.374 81.7305 228.339 81.601C228.305 81.4714 228.224 81.3593 228.112 81.2864L222.827 78.0204Z" fill="black"/>
</g>
<path d="M231.892 74.8182C231.949 74.85 232 74.8929 232.04 74.9443C232.081 74.9957 232.111 75.0548 232.129 75.118C232.147 75.1812 232.152 75.2473 232.145 75.3125C232.137 75.3778 232.116 75.4408 232.084 75.498L229.984 79.1705C229.917 79.2888 229.805 79.3754 229.674 79.4116C229.543 79.4477 229.403 79.4303 229.284 79.3632L223.859 76.3215L222.981 75.8309L218.05 73.0766L217.164 72.5965L210.623 69.1098C210.378 68.9801 210.378 68.7594 210.623 68.6367L218.043 64.6629L218.501 64.4176L218.96 64.1723L222.992 62.0277L223.88 61.5511L229.379 58.6356C229.438 58.6021 229.504 58.5809 229.572 58.5734C229.639 58.5659 229.708 58.5721 229.773 58.5917C229.839 58.6114 229.899 58.644 229.952 58.6876C230.004 58.7313 230.047 58.7851 230.079 58.8458L231.916 62.2905C231.947 62.3489 231.967 62.413 231.973 62.479C231.98 62.5449 231.973 62.6116 231.954 62.675C231.935 62.7385 231.904 62.7975 231.862 62.8488C231.82 62.9001 231.768 62.9426 231.71 62.9738L225.445 66.3099C225.319 66.3855 225.215 66.4945 225.147 66.625C225.078 66.7554 225.047 66.9022 225.056 67.0493C225.056 67.0493 225.179 68.1006 225.179 68.9206C225.179 69.6459 225.084 70.5535 225.084 70.5535C225.077 70.7008 225.109 70.8473 225.178 70.9779C225.246 71.1086 225.348 71.2185 225.473 71.2964L231.892 74.8182Z" fill="black"/>
<g opacity="0.15">
<path opacity="0.15" d="M226.299 51.9656C226.268 51.9084 226.226 51.8582 226.175 51.8182C226.124 51.7781 226.065 51.7491 226.002 51.733C225.939 51.7168 225.874 51.7139 225.81 51.7244C225.746 51.7349 225.685 51.7586 225.63 51.7939L219.156 55.8729C219.026 55.9469 218.88 55.9859 218.731 55.9859C218.581 55.9859 218.435 55.9469 218.305 55.8729L215.827 54.4887C215.697 54.4175 215.588 54.3134 215.51 54.1868C215.432 54.0602 215.388 53.9155 215.383 53.7668L215.562 46.1626C215.563 46.095 215.551 46.0278 215.526 45.9649C215.501 45.902 215.464 45.8448 215.417 45.7965C215.369 45.7482 215.313 45.7098 215.251 45.6836C215.188 45.6574 215.122 45.6439 215.054 45.644L211.152 45.5528C211.019 45.55 210.89 45.6 210.793 45.6919C210.697 45.7839 210.641 45.9102 210.637 46.0434L210.504 52.6455L210.483 53.6547L210.382 57.6635L210.382 58.1822L210.382 58.7008L210.154 67.125C210.154 67.4019 210.333 67.507 210.567 67.3598L216.814 63.3685L217.665 62.8323L221.959 60.1761L222.817 59.6435L228.122 56.36C228.235 56.2871 228.316 56.1749 228.35 56.0454C228.384 55.9158 228.369 55.7781 228.308 55.6591L226.299 51.9656Z" fill="black"/>
</g>
<g opacity="0.15">
<path opacity="0.15" d="M222.827 78.0204L221.97 77.4878L217.679 74.8351C217.444 74.6879 217.059 74.4496 216.828 74.2989L210.581 70.3111C210.347 70.1604 210.161 70.2655 210.168 70.5424L210.361 78.9526L210.361 79.4712L210.361 79.9933L210.455 84.0057L210.476 85.0149L210.63 91.617C210.634 91.7505 210.69 91.8772 210.786 91.9697C210.882 92.0621 211.011 92.1129 211.145 92.111L215.047 92.0199C215.181 92.0154 215.307 91.9585 215.399 91.8615C215.492 91.7645 215.542 91.6352 215.54 91.5013L215.362 83.8971C215.367 83.7484 215.41 83.6037 215.488 83.4771C215.566 83.3505 215.676 83.2464 215.806 83.1752L218.284 81.7735C218.414 81.7001 218.56 81.6615 218.709 81.6615C218.858 81.6615 219.005 81.7001 219.135 81.7735L225.609 85.856C225.664 85.8912 225.725 85.9146 225.789 85.9249C225.854 85.9351 225.919 85.9319 225.982 85.9154C226.045 85.899 226.104 85.8696 226.155 85.8292C226.205 85.7888 226.247 85.7382 226.278 85.6807L228.297 81.9873C228.359 81.8682 228.374 81.7305 228.339 81.601C228.305 81.4714 228.224 81.3593 228.112 81.2864L222.827 78.0204Z" fill="black"/>
</g>
<path d="M247.829 74.3373L246.975 74.8769L242.663 77.5472L241.805 78.0763L236.517 81.3493C236.405 81.4222 236.324 81.5343 236.289 81.6639C236.255 81.7934 236.27 81.9311 236.332 82.0502L238.341 85.7401C238.371 85.7976 238.413 85.8482 238.464 85.8886C238.515 85.929 238.574 85.9584 238.636 85.9748C238.699 85.9913 238.765 85.9945 238.829 85.9843C238.893 85.974 238.955 85.9506 239.009 85.9153L245.48 81.8504C245.61 81.7764 245.756 81.7374 245.906 81.7374C246.055 81.7374 246.201 81.7764 246.331 81.8504L248.823 83.2521C248.953 83.3233 249.063 83.4274 249.141 83.554C249.218 83.6806 249.262 83.8254 249.267 83.974L249.089 91.5677C249.087 91.7016 249.137 91.831 249.23 91.9279C249.322 92.0249 249.448 92.0818 249.582 92.0863L253.484 92.1774C253.618 92.1793 253.747 92.1286 253.843 92.0361C253.939 91.9436 253.995 91.8169 253.999 91.6833L254.153 85.0848L254.174 84.0756L254.268 80.0597V79.5376V79.019L254.461 70.6088C254.461 70.3319 254.282 70.2268 254.048 70.3775L247.829 74.3373Z" fill="black"/>
<path d="M246.438 64.6602L245.982 64.4182L245.526 64.1762L241.534 62.062L240.65 61.5914L235.196 58.7008C235.137 58.6681 235.073 58.6476 235.006 58.6405C234.939 58.6333 234.872 58.6397 234.807 58.6592C234.743 58.6787 234.683 58.711 234.632 58.7541C234.58 58.7972 234.537 58.8503 234.506 58.9102L232.699 62.3457C232.665 62.4046 232.644 62.4697 232.637 62.5371C232.629 62.6045 232.635 62.6727 232.655 62.7376C232.674 62.8026 232.707 62.8628 232.75 62.9147C232.793 62.9666 232.847 63.009 232.907 63.0394L239.14 66.347C239.266 66.4211 239.369 66.5287 239.437 66.6578C239.506 66.7869 239.538 66.9327 239.53 67.0789C239.53 67.0789 239.416 68.1281 239.418 68.9376C239.433 69.6562 239.517 70.5548 239.517 70.5548C239.525 70.7016 239.494 70.8479 239.426 70.9783C239.359 71.1087 239.257 71.2182 239.133 71.2954L232.74 74.8343C232.683 74.8656 232.632 74.9081 232.592 74.9593C232.551 75.0105 232.521 75.0694 232.503 75.1325C232.485 75.1956 232.48 75.2617 232.488 75.3268C232.496 75.3919 232.517 75.4548 232.549 75.5117L234.643 79.1613C234.676 79.2199 234.721 79.2712 234.774 79.3123C234.827 79.3535 234.888 79.3837 234.953 79.4011C235.018 79.4186 235.085 79.4231 235.152 79.4142C235.218 79.4054 235.282 79.3834 235.34 79.3496L240.73 76.2986L241.601 75.8064L246.465 73.0522C246.706 72.9182 247.096 72.6905 247.34 72.5704L253.81 69.0753C254.05 68.9448 254.053 68.7214 253.801 68.6044L246.438 64.6602Z" fill="black"/>
<path d="M271.959 51.9656C271.928 51.9084 271.886 51.8582 271.835 51.8182C271.784 51.7781 271.725 51.7491 271.662 51.733C271.6 51.7168 271.534 51.7139 271.47 51.7244C271.406 51.7349 271.345 51.7586 271.291 51.7939L264.816 55.8729C264.686 55.9469 264.54 55.9859 264.391 55.9859C264.242 55.9859 264.095 55.9469 263.966 55.8729L261.488 54.4887C261.357 54.4175 261.248 54.3134 261.17 54.1868C261.092 54.0602 261.048 53.9155 261.043 53.7668L261.222 46.1626C261.223 46.095 261.211 46.0278 261.186 45.9649C261.161 45.902 261.124 45.8448 261.077 45.7965C261.03 45.7482 260.973 45.7098 260.911 45.6836C260.849 45.6574 260.782 45.6439 260.714 45.644L256.812 45.5528C256.679 45.55 256.55 45.6 256.454 45.6919C256.357 45.7839 256.301 45.9102 256.297 46.0434L256.164 52.6455L256.143 53.6547L256.042 57.6635L256.042 58.1822L256.042 58.7008L255.814 67.125C255.814 67.4019 255.993 67.507 256.227 67.3598L262.475 63.3685L263.325 62.8323L267.619 60.1761L268.477 59.6435L273.782 56.36C273.895 56.2871 273.976 56.1749 274.01 56.0454C274.045 55.9158 274.029 55.7781 273.968 55.6591L271.959 51.9656Z" fill="black"/>
<path d="M238.316 51.9754C238.347 51.9182 238.389 51.868 238.44 51.8279C238.491 51.7879 238.55 51.7589 238.613 51.7427C238.676 51.7266 238.741 51.7237 238.805 51.7342C238.869 51.7447 238.93 51.7683 238.985 51.8037L245.459 55.8826C245.589 55.9567 245.736 55.9957 245.885 55.9957C246.034 55.9957 246.18 55.9567 246.31 55.8826L248.788 54.4985C248.918 54.4272 249.028 54.3232 249.106 54.1966C249.184 54.07 249.227 53.9252 249.232 53.7766L249.054 46.1724C249.052 46.1047 249.064 46.0375 249.089 45.9747C249.114 45.9118 249.151 45.8545 249.199 45.8062C249.246 45.7579 249.302 45.7196 249.365 45.6934C249.427 45.6672 249.494 45.6537 249.561 45.6537L253.463 45.5626C253.597 45.5598 253.725 45.6098 253.822 45.7017C253.918 45.7936 253.974 45.92 253.978 46.0532L254.111 52.6552L254.132 53.6644L254.233 57.6733L254.233 58.1919L254.233 58.7106L254.461 67.1348C254.461 67.4116 254.282 67.5168 254.048 67.3696L247.801 63.3782L246.95 62.8421L242.656 60.1859L241.799 59.6532L236.493 56.3697C236.381 56.2968 236.299 56.1847 236.265 56.0551C236.231 55.9256 236.246 55.7879 236.307 55.6689L238.316 51.9754Z" fill="black"/>
<path d="M268.487 78.0195L267.63 77.4868L263.339 74.8341C263.104 74.6869 262.719 74.4486 262.488 74.2979L256.241 70.3101C256.007 70.1594 255.821 70.2645 255.828 70.5414L256.021 78.9516L256.021 79.4702L256.021 79.9924L256.115 84.0047L256.136 85.014L256.29 91.616C256.294 91.7495 256.35 91.8762 256.446 91.9687C256.543 92.0612 256.671 92.112 256.805 92.1101L260.707 92.019C260.841 92.0144 260.967 91.9575 261.06 91.8605C261.152 91.7636 261.202 91.6342 261.201 91.5003L261.022 83.8961C261.027 83.7475 261.071 83.6027 261.149 83.4761C261.227 83.3495 261.336 83.2455 261.467 83.1742L263.944 81.7725C264.074 81.6991 264.221 81.6606 264.37 81.6606C264.519 81.6606 264.665 81.6991 264.795 81.7725L271.269 85.855C271.324 85.8902 271.385 85.9137 271.45 85.9239C271.514 85.9341 271.579 85.9309 271.642 85.9144C271.705 85.898 271.764 85.8686 271.815 85.8282C271.866 85.7878 271.908 85.7373 271.938 85.6798L273.957 81.9863C274.019 81.8673 274.034 81.7296 274 81.6C273.965 81.4705 273.884 81.3583 273.772 81.2854L268.487 78.0195Z" fill="black"/>
<path d="M254.275 58.7176V58.199V57.6803L254.181 53.6609L254.16 52.6517L254.006 46.0532C254.002 45.92 253.946 45.7936 253.85 45.7017C253.753 45.6098 253.624 45.5598 253.491 45.5626L249.589 45.6537C249.456 45.6574 249.329 45.7135 249.237 45.8099C249.144 45.9063 249.094 46.0353 249.096 46.1688L249.274 53.7591C249.267 53.9077 249.222 54.0521 249.143 54.178C249.064 54.304 248.954 54.4071 248.823 54.4774L246.327 55.8616C246.198 55.9357 246.051 55.9746 245.902 55.9746C245.753 55.9746 245.606 55.9357 245.477 55.8616L239.02 51.7932C238.965 51.7578 238.904 51.7342 238.84 51.7237C238.776 51.7132 238.711 51.7161 238.648 51.7322C238.585 51.7484 238.526 51.7774 238.475 51.8174C238.424 51.8575 238.382 51.9077 238.351 51.9649L236.332 55.6584C236.27 55.7774 236.255 55.9151 236.289 56.0446C236.324 56.1742 236.405 56.2863 236.517 56.3592L241.802 59.6322L242.659 60.1613L246.975 62.8316L247.829 63.3677L254.072 67.3696C254.307 67.5168 254.492 67.4116 254.485 67.1348L254.275 58.7176Z" fill="black"/>
<path d="M277.554 74.8182C277.611 74.85 277.662 74.8929 277.702 74.9443C277.743 74.9957 277.773 75.0548 277.791 75.118C277.809 75.1812 277.814 75.2473 277.807 75.3125C277.799 75.3778 277.778 75.4408 277.746 75.498L275.646 79.1705C275.579 79.2888 275.467 79.3754 275.336 79.4116C275.205 79.4477 275.065 79.4303 274.946 79.3632L269.522 76.3215L268.643 75.8309L263.712 73.0766L262.826 72.5965L256.285 69.1098C256.04 68.9801 256.04 68.7594 256.285 68.6367L263.705 64.6629L264.163 64.4176L264.622 64.1723L268.654 62.0277L269.543 61.5511L275.041 58.6356C275.1 58.6021 275.166 58.5809 275.234 58.5734C275.301 58.5659 275.37 58.5721 275.435 58.5917C275.501 58.6114 275.561 58.644 275.614 58.6876C275.666 58.7313 275.71 58.7851 275.741 58.8458L277.578 62.2905C277.609 62.3489 277.629 62.413 277.635 62.479C277.642 62.5449 277.635 62.6116 277.616 62.675C277.597 62.7385 277.566 62.7975 277.524 62.8488C277.482 62.9001 277.43 62.9426 277.372 62.9738L271.107 66.3099C270.981 66.3855 270.878 66.4945 270.809 66.625C270.741 66.7554 270.709 66.9022 270.719 67.0493C270.719 67.0493 270.841 68.1006 270.841 68.9206C270.841 69.6459 270.747 70.5535 270.747 70.5535C270.739 70.7008 270.771 70.8473 270.84 70.9779C270.908 71.1086 271.01 71.2185 271.135 71.2964L277.554 74.8182Z" fill="black"/>
<g opacity="0.15">
<path opacity="0.15" d="M271.961 51.9656C271.93 51.9084 271.888 51.8582 271.837 51.8182C271.786 51.7781 271.727 51.7491 271.664 51.733C271.602 51.7168 271.536 51.7139 271.472 51.7244C271.408 51.7349 271.347 51.7586 271.293 51.7939L264.818 55.8729C264.688 55.9469 264.542 55.9859 264.393 55.9859C264.244 55.9859 264.097 55.9469 263.967 55.8729L261.49 54.4887C261.359 54.4175 261.25 54.3134 261.172 54.1868C261.094 54.0602 261.05 53.9155 261.045 53.7668L261.224 46.1626C261.225 46.095 261.213 46.0278 261.188 45.9649C261.163 45.902 261.126 45.8448 261.079 45.7965C261.031 45.7482 260.975 45.7098 260.913 45.6836C260.851 45.6574 260.784 45.6439 260.716 45.644L256.814 45.5528C256.681 45.55 256.552 45.6 256.456 45.6919C256.359 45.7839 256.303 45.9102 256.299 46.0434L256.166 52.6455L256.145 53.6547L256.044 57.6635L256.044 58.1822L256.044 58.7008L255.816 67.125C255.816 67.4019 255.995 67.507 256.229 67.3598L262.477 63.3685L263.327 62.8323L267.621 60.1761L268.479 59.6435L273.784 56.36C273.897 56.2871 273.978 56.1749 274.012 56.0454C274.047 55.9158 274.031 55.7781 273.97 55.6591L271.961 51.9656Z" fill="black"/>
</g>
<g opacity="0.15">
<path opacity="0.15" d="M268.489 78.0204L267.632 77.4878L263.341 74.8351C263.106 74.6879 262.721 74.4496 262.49 74.2989L256.243 70.3111C256.009 70.1604 255.823 70.2655 255.83 70.5424L256.023 78.9526L256.023 79.4712L256.023 79.9933L256.117 84.0057L256.138 85.0149L256.292 91.617C256.296 91.7505 256.352 91.8772 256.448 91.9697C256.545 92.0621 256.673 92.1129 256.807 92.111L260.709 92.0199C260.843 92.0154 260.969 91.9585 261.062 91.8615C261.154 91.7645 261.204 91.6352 261.202 91.5013L261.024 83.8971C261.029 83.7484 261.073 83.6037 261.151 83.4771C261.228 83.3505 261.338 83.2464 261.468 83.1752L263.946 81.7735C264.076 81.7001 264.223 81.6615 264.372 81.6615C264.521 81.6615 264.667 81.7001 264.797 81.7735L271.271 85.856C271.326 85.8912 271.387 85.9146 271.452 85.9249C271.516 85.9351 271.581 85.9319 271.644 85.9154C271.707 85.899 271.766 85.8696 271.817 85.8292C271.868 85.7888 271.91 85.7382 271.94 85.6807L273.959 81.9873C274.021 81.8682 274.036 81.7305 274.002 81.601C273.967 81.4714 273.886 81.3593 273.774 81.2864L268.489 78.0204Z" fill="black"/>
</g>
<path d="M277.554 74.8182C277.611 74.85 277.662 74.8929 277.702 74.9443C277.743 74.9957 277.773 75.0548 277.791 75.118C277.809 75.1812 277.814 75.2473 277.807 75.3125C277.799 75.3778 277.778 75.4408 277.746 75.498L275.646 79.1705C275.579 79.2888 275.467 79.3754 275.336 79.4116C275.205 79.4477 275.065 79.4303 274.946 79.3632L269.522 76.3215L268.643 75.8309L263.712 73.0766L262.826 72.5965L256.285 69.1098C256.04 68.9801 256.04 68.7594 256.285 68.6367L263.705 64.6629L264.163 64.4176L264.622 64.1723L268.654 62.0277L269.543 61.5511L275.041 58.6356C275.1 58.6021 275.166 58.5809 275.234 58.5734C275.301 58.5659 275.37 58.5721 275.435 58.5917C275.501 58.6114 275.561 58.644 275.614 58.6876C275.666 58.7313 275.71 58.7851 275.741 58.8458L277.578 62.2905C277.609 62.3489 277.629 62.413 277.635 62.479C277.642 62.5449 277.635 62.6116 277.616 62.675C277.597 62.7385 277.566 62.7975 277.524 62.8488C277.482 62.9001 277.43 62.9426 277.372 62.9738L271.107 66.3099C270.981 66.3855 270.878 66.4945 270.809 66.625C270.741 66.7554 270.709 66.9022 270.719 67.0493C270.719 67.0493 270.841 68.1006 270.841 68.9206C270.841 69.6459 270.747 70.5535 270.747 70.5535C270.739 70.7008 270.771 70.8473 270.84 70.9779C270.908 71.1086 271.01 71.2185 271.135 71.2964L277.554 74.8182Z" fill="black"/>
<g opacity="0.15">
<path opacity="0.15" d="M271.961 51.9656C271.93 51.9084 271.888 51.8582 271.837 51.8182C271.786 51.7781 271.727 51.7491 271.664 51.733C271.602 51.7168 271.536 51.7139 271.472 51.7244C271.408 51.7349 271.347 51.7586 271.293 51.7939L264.818 55.8729C264.688 55.9469 264.542 55.9859 264.393 55.9859C264.244 55.9859 264.097 55.9469 263.967 55.8729L261.49 54.4887C261.359 54.4175 261.25 54.3134 261.172 54.1868C261.094 54.0602 261.05 53.9155 261.045 53.7668L261.224 46.1626C261.225 46.095 261.213 46.0278 261.188 45.9649C261.163 45.902 261.126 45.8448 261.079 45.7965C261.031 45.7482 260.975 45.7098 260.913 45.6836C260.851 45.6574 260.784 45.6439 260.716 45.644L256.814 45.5528C256.681 45.55 256.552 45.6 256.456 45.6919C256.359 45.7839 256.303 45.9102 256.299 46.0434L256.166 52.6455L256.145 53.6547L256.044 57.6635L256.044 58.1822L256.044 58.7008L255.816 67.125C255.816 67.4019 255.995 67.507 256.229 67.3598L262.477 63.3685L263.327 62.8323L267.621 60.1761L268.479 59.6435L273.784 56.36C273.897 56.2871 273.978 56.1749 274.012 56.0454C274.047 55.9158 274.031 55.7781 273.97 55.6591L271.961 51.9656Z" fill="black"/>
</g>
<g opacity="0.15">
<path opacity="0.15" d="M268.489 78.0204L267.632 77.4878L263.341 74.8351C263.106 74.6879 262.721 74.4496 262.49 74.2989L256.243 70.3111C256.009 70.1604 255.823 70.2655 255.83 70.5424L256.023 78.9526L256.023 79.4712L256.023 79.9933L256.117 84.0057L256.138 85.0149L256.292 91.617C256.296 91.7505 256.352 91.8772 256.448 91.9697C256.545 92.0621 256.673 92.1129 256.807 92.111L260.709 92.0199C260.843 92.0154 260.969 91.9585 261.062 91.8615C261.154 91.7645 261.204 91.6352 261.202 91.5013L261.024 83.8971C261.029 83.7484 261.073 83.6037 261.151 83.4771C261.228 83.3505 261.338 83.2464 261.468 83.1752L263.946 81.7735C264.076 81.7001 264.223 81.6615 264.372 81.6615C264.521 81.6615 264.667 81.7001 264.797 81.7735L271.271 85.856C271.326 85.8912 271.387 85.9146 271.452 85.9249C271.516 85.9351 271.581 85.9319 271.644 85.9154C271.707 85.899 271.766 85.8696 271.817 85.8292C271.868 85.7888 271.91 85.7382 271.94 85.6807L273.959 81.9873C274.021 81.8682 274.036 81.7305 274.002 81.601C273.967 81.4714 273.886 81.3593 273.774 81.2864L268.489 78.0204Z" fill="black"/>
</g>
<path d="M155.434 157.91L154.978 157.668L154.522 157.426L150.53 155.312L149.646 154.841L144.192 151.951C144.133 151.918 144.069 151.898 144.002 151.89C143.935 151.883 143.868 151.89 143.803 151.909C143.739 151.929 143.679 151.961 143.628 152.004C143.576 152.047 143.534 152.1 143.503 152.16L141.695 155.596C141.662 155.655 141.64 155.72 141.633 155.787C141.625 155.854 141.631 155.923 141.651 155.988C141.67 156.053 141.703 156.113 141.746 156.165C141.79 156.217 141.843 156.259 141.903 156.289L148.136 159.597C148.262 159.671 148.365 159.779 148.433 159.908C148.502 160.037 148.534 160.183 148.526 160.329C148.526 160.329 148.412 161.378 148.414 162.188C148.429 162.906 148.513 163.805 148.513 163.805C148.521 163.952 148.49 164.098 148.422 164.228C148.355 164.359 148.253 164.468 148.129 164.545L141.736 168.084C141.679 168.116 141.628 168.158 141.588 168.209C141.547 168.261 141.517 168.319 141.499 168.383C141.481 168.446 141.476 168.512 141.484 168.577C141.492 168.642 141.513 168.705 141.545 168.762L143.639 172.411C143.672 172.47 143.717 172.521 143.77 172.562C143.823 172.603 143.884 172.634 143.949 172.651C144.014 172.669 144.081 172.673 144.148 172.664C144.214 172.655 144.278 172.633 144.336 172.6L149.726 169.549L150.597 169.056L155.461 166.302C155.702 166.168 156.093 165.94 156.337 165.82L162.806 162.325C163.047 162.195 163.049 161.971 162.797 161.854L155.434 157.91Z" fill="black"/>
<path d="M180.955 145.216C180.924 145.158 180.882 145.108 180.831 145.068C180.78 145.028 180.721 144.999 180.659 144.983C180.596 144.967 180.53 144.964 180.466 144.974C180.402 144.985 180.341 145.009 180.287 145.044L173.812 149.123C173.683 149.197 173.536 149.236 173.387 149.236C173.238 149.236 173.091 149.197 172.962 149.123L170.484 147.739C170.353 147.667 170.244 147.563 170.166 147.437C170.088 147.31 170.044 147.165 170.039 147.017L170.218 139.413C170.219 139.345 170.207 139.278 170.182 139.215C170.157 139.152 170.12 139.095 170.073 139.046C170.026 138.998 169.969 138.96 169.907 138.934C169.845 138.907 169.778 138.894 169.71 138.894L165.808 138.803C165.675 138.8 165.546 138.85 165.45 138.942C165.353 139.034 165.297 139.16 165.294 139.293L165.161 145.895L165.14 146.905L165.038 150.914L165.038 151.432L165.038 151.951L164.811 160.375C164.811 160.652 164.989 160.757 165.224 160.61L171.471 156.618L172.321 156.082L176.615 153.426L177.473 152.893L182.779 149.61C182.891 149.537 182.972 149.425 183.006 149.295C183.041 149.166 183.026 149.028 182.964 148.909L180.955 145.216Z" fill="black"/>
<path d="M147.312 145.225C147.343 145.168 147.385 145.118 147.436 145.078C147.487 145.038 147.546 145.009 147.609 144.993C147.672 144.977 147.737 144.974 147.801 144.984C147.865 144.995 147.926 145.018 147.981 145.054L154.456 149.133C154.585 149.207 154.732 149.246 154.881 149.246C155.03 149.246 155.176 149.207 155.306 149.133L157.784 147.748C157.914 147.677 158.024 147.573 158.102 147.447C158.18 147.32 158.223 147.175 158.228 147.027L158.05 139.422C158.048 139.355 158.061 139.288 158.085 139.225C158.11 139.162 158.147 139.105 158.195 139.056C158.242 139.008 158.298 138.97 158.361 138.943C158.423 138.917 158.49 138.904 158.557 138.904L162.46 138.813C162.593 138.81 162.721 138.86 162.818 138.952C162.914 139.044 162.97 139.17 162.974 139.303L163.107 145.905L163.128 146.914L163.23 150.923L163.23 151.442L163.23 151.961L163.457 160.385C163.457 160.662 163.279 160.767 163.044 160.62L156.797 156.628L155.946 156.092L151.652 153.436L150.795 152.903L145.489 149.62C145.377 149.547 145.295 149.435 145.261 149.305C145.227 149.176 145.242 149.038 145.304 148.919L147.312 145.225Z" fill="black"/>
<path d="M163.271 151.968V151.449V150.93L163.177 146.911L163.156 145.902L163.002 139.303C162.998 139.17 162.942 139.044 162.846 138.952C162.749 138.86 162.621 138.81 162.487 138.813L158.585 138.904C158.452 138.907 158.325 138.964 158.233 139.06C158.141 139.156 158.09 139.285 158.092 139.419L158.27 147.009C158.264 147.158 158.218 147.302 158.139 147.428C158.06 147.554 157.95 147.657 157.819 147.727L155.323 149.112C155.194 149.186 155.047 149.225 154.898 149.225C154.749 149.225 154.602 149.186 154.473 149.112L148.016 145.043C147.961 145.008 147.9 144.984 147.836 144.974C147.772 144.963 147.707 144.966 147.644 144.982C147.581 144.998 147.522 145.027 147.471 145.067C147.42 145.107 147.378 145.158 147.347 145.215L145.328 148.908C145.266 149.027 145.251 149.165 145.286 149.295C145.32 149.424 145.401 149.536 145.513 149.609L150.798 152.882L151.656 153.411L155.971 156.082L156.825 156.618L163.068 160.62C163.303 160.767 163.488 160.662 163.481 160.385L163.271 151.968Z" fill="black"/>
<path d="M186.55 168.068C186.607 168.1 186.658 168.143 186.699 168.194C186.739 168.246 186.77 168.305 186.787 168.368C186.805 168.431 186.811 168.497 186.803 168.563C186.795 168.628 186.774 168.691 186.742 168.748L184.642 172.42C184.575 172.539 184.463 172.625 184.332 172.662C184.201 172.698 184.061 172.68 183.942 172.613L178.518 169.572L177.639 169.081L172.708 166.327L171.823 165.847L165.281 162.36C165.036 162.23 165.036 162.009 165.281 161.887L172.701 157.913L173.159 157.668L173.618 157.422L177.65 155.278L178.539 154.801L184.037 151.886C184.096 151.852 184.162 151.831 184.23 151.823C184.298 151.816 184.366 151.822 184.431 151.842C184.497 151.861 184.558 151.894 184.61 151.938C184.662 151.981 184.706 152.035 184.737 152.096L186.574 155.541C186.606 155.599 186.625 155.663 186.632 155.729C186.638 155.795 186.632 155.862 186.612 155.925C186.593 155.988 186.562 156.048 186.52 156.099C186.478 156.15 186.426 156.193 186.368 156.224L180.103 159.56C179.977 159.636 179.874 159.745 179.805 159.875C179.737 160.005 179.705 160.152 179.715 160.299C179.715 160.299 179.837 161.351 179.837 162.171C179.837 162.896 179.743 163.804 179.743 163.804C179.735 163.951 179.768 164.097 179.836 164.228C179.904 164.359 180.006 164.469 180.131 164.546L186.55 168.068Z" fill="black"/>
<g opacity="0.15">
<path opacity="0.15" d="M180.957 145.216C180.926 145.158 180.884 145.108 180.833 145.068C180.782 145.028 180.723 144.999 180.66 144.983C180.598 144.967 180.532 144.964 180.468 144.974C180.404 144.985 180.343 145.009 180.289 145.044L173.814 149.123C173.684 149.197 173.538 149.236 173.389 149.236C173.24 149.236 173.093 149.197 172.964 149.123L170.486 147.739C170.355 147.667 170.246 147.563 170.168 147.437C170.09 147.31 170.046 147.165 170.041 147.017L170.22 139.413C170.221 139.345 170.209 139.278 170.184 139.215C170.159 139.152 170.122 139.095 170.075 139.046C170.028 138.998 169.971 138.96 169.909 138.934C169.847 138.907 169.78 138.894 169.712 138.894L165.81 138.803C165.677 138.8 165.548 138.85 165.452 138.942C165.355 139.034 165.299 139.16 165.295 139.293L165.162 145.895L165.141 146.905L165.04 150.914L165.04 151.432L165.04 151.951L164.813 160.375C164.813 160.652 164.991 160.757 165.225 160.61L171.473 156.618L172.323 156.082L176.617 153.426L177.475 152.893L182.781 149.61C182.893 149.537 182.974 149.425 183.008 149.295C183.043 149.166 183.028 149.028 182.966 148.909L180.957 145.216Z" fill="black"/>
</g>
<path d="M186.55 168.068C186.607 168.1 186.658 168.143 186.699 168.194C186.739 168.246 186.77 168.305 186.787 168.368C186.805 168.431 186.811 168.497 186.803 168.563C186.795 168.628 186.774 168.691 186.742 168.748L184.642 172.42C184.575 172.539 184.463 172.625 184.332 172.662C184.201 172.698 184.061 172.68 183.942 172.613L178.518 169.572L177.639 169.081L172.708 166.327L171.823 165.847L165.281 162.36C165.036 162.23 165.036 162.009 165.281 161.887L172.701 157.913L173.159 157.668L173.618 157.422L177.65 155.278L178.539 154.801L184.037 151.886C184.096 151.852 184.162 151.831 184.23 151.823C184.298 151.816 184.366 151.822 184.431 151.842C184.497 151.861 184.558 151.894 184.61 151.938C184.662 151.981 184.706 152.035 184.737 152.096L186.574 155.541C186.606 155.599 186.625 155.663 186.632 155.729C186.638 155.795 186.632 155.862 186.612 155.925C186.593 155.988 186.562 156.048 186.52 156.099C186.478 156.15 186.426 156.193 186.368 156.224L180.103 159.56C179.977 159.636 179.874 159.745 179.805 159.875C179.737 160.005 179.705 160.152 179.715 160.299C179.715 160.299 179.837 161.351 179.837 162.171C179.837 162.896 179.743 163.804 179.743 163.804C179.735 163.951 179.768 164.097 179.836 164.228C179.904 164.359 180.006 164.469 180.131 164.546L186.55 168.068Z" fill="black"/>
<g opacity="0.15">
<path opacity="0.15" d="M180.957 145.216C180.926 145.158 180.884 145.108 180.833 145.068C180.782 145.028 180.723 144.999 180.66 144.983C180.598 144.967 180.532 144.964 180.468 144.974C180.404 144.985 180.343 145.009 180.289 145.044L173.814 149.123C173.684 149.197 173.538 149.236 173.389 149.236C173.24 149.236 173.093 149.197 172.964 149.123L170.486 147.739C170.355 147.667 170.246 147.563 170.168 147.437C170.09 147.31 170.046 147.165 170.041 147.017L170.22 139.413C170.221 139.345 170.209 139.278 170.184 139.215C170.159 139.152 170.122 139.095 170.075 139.046C170.028 138.998 169.971 138.96 169.909 138.934C169.847 138.907 169.78 138.894 169.712 138.894L165.81 138.803C165.677 138.8 165.548 138.85 165.452 138.942C165.355 139.034 165.299 139.16 165.295 139.293L165.162 145.895L165.141 146.905L165.04 150.914L165.04 151.432L165.04 151.951L164.813 160.375C164.813 160.652 164.991 160.757 165.225 160.61L171.473 156.618L172.323 156.082L176.617 153.426L177.475 152.893L182.781 149.61C182.893 149.537 182.974 149.425 183.008 149.295C183.043 149.166 183.028 149.028 182.966 148.909L180.957 145.216Z" fill="black"/>
</g>
<path d="M133.993 120.828L133.139 121.367L128.827 124.037L127.97 124.567L122.681 127.84C122.569 127.912 122.488 128.025 122.454 128.154C122.419 128.284 122.434 128.421 122.496 128.54L124.505 132.23C124.535 132.288 124.577 132.338 124.628 132.379C124.679 132.419 124.738 132.449 124.801 132.465C124.863 132.482 124.929 132.485 124.993 132.475C125.057 132.464 125.119 132.441 125.173 132.406L131.644 128.341C131.774 128.267 131.92 128.228 132.07 128.228C132.219 128.228 132.365 128.267 132.495 128.341L134.987 129.742C135.117 129.814 135.227 129.918 135.305 130.044C135.383 130.171 135.426 130.316 135.431 130.464L135.253 138.058C135.251 138.192 135.301 138.321 135.394 138.418C135.486 138.515 135.612 138.572 135.746 138.577L139.648 138.668C139.782 138.67 139.911 138.619 140.007 138.526C140.103 138.434 140.159 138.307 140.163 138.174L140.317 131.575L140.338 130.566L140.432 126.55V126.028V125.509L140.625 117.099C140.625 116.822 140.446 116.717 140.212 116.868L133.993 120.828Z" fill="black"/>
<path d="M132.602 111.15L132.146 110.908L131.69 110.666L127.698 108.552L126.814 108.082L121.36 105.191C121.301 105.158 121.237 105.138 121.17 105.131C121.103 105.124 121.036 105.13 120.971 105.149C120.907 105.169 120.847 105.201 120.796 105.244C120.744 105.287 120.701 105.341 120.671 105.4L118.863 108.836C118.829 108.895 118.808 108.96 118.801 109.027C118.793 109.095 118.799 109.163 118.819 109.228C118.838 109.293 118.871 109.353 118.914 109.405C118.958 109.457 119.011 109.499 119.071 109.53L125.304 112.837C125.43 112.911 125.533 113.019 125.601 113.148C125.67 113.277 125.702 113.423 125.694 113.569C125.694 113.569 125.58 114.618 125.582 115.428C125.597 116.146 125.681 117.045 125.681 117.045C125.689 117.192 125.658 117.338 125.59 117.469C125.523 117.599 125.421 117.708 125.297 117.786L118.904 121.325C118.847 121.356 118.796 121.398 118.756 121.45C118.715 121.501 118.685 121.56 118.667 121.623C118.649 121.686 118.644 121.752 118.652 121.817C118.66 121.882 118.681 121.945 118.713 122.002L120.807 125.652C120.84 125.71 120.885 125.761 120.938 125.803C120.991 125.844 121.052 125.874 121.117 125.891C121.182 125.909 121.249 125.913 121.316 125.904C121.382 125.896 121.446 125.874 121.504 125.84L126.894 122.789L127.765 122.297L132.629 119.542C132.87 119.408 133.261 119.181 133.504 119.061L139.974 115.566C140.214 115.435 140.217 115.212 139.965 115.095L132.602 111.15Z" fill="black"/>
<path d="M158.123 98.4559C158.092 98.3987 158.05 98.3484 157.999 98.3084C157.948 98.2684 157.889 98.2393 157.827 98.2232C157.764 98.2071 157.698 98.2042 157.634 98.2146C157.57 98.2251 157.509 98.2488 157.455 98.2842L150.98 102.363C150.851 102.437 150.704 102.476 150.555 102.476C150.406 102.476 150.259 102.437 150.13 102.363L147.652 100.979C147.521 100.908 147.412 100.804 147.334 100.677C147.256 100.55 147.212 100.406 147.207 100.257L147.386 92.6528C147.387 92.5852 147.375 92.518 147.35 92.4551C147.325 92.3923 147.288 92.335 147.241 92.2867C147.194 92.2384 147.137 92.2 147.075 92.1739C147.013 92.1477 146.946 92.1342 146.878 92.1342L142.976 92.0431C142.843 92.0403 142.714 92.0903 142.618 92.1822C142.521 92.2741 142.465 92.4004 142.461 92.5337L142.328 99.1357L142.307 100.145L142.206 104.154L142.206 104.672L142.206 105.191L141.979 113.615C141.979 113.892 142.157 113.997 142.391 113.85L148.639 109.859L149.489 109.323L153.783 106.666L154.641 106.134L159.947 102.85C160.059 102.777 160.14 102.665 160.174 102.536C160.209 102.406 160.194 102.268 160.132 102.149L158.123 98.4559Z" fill="black"/>
<path d="M124.48 98.4656C124.511 98.4084 124.553 98.3582 124.604 98.3182C124.655 98.2781 124.714 98.2491 124.777 98.233C124.84 98.2168 124.905 98.2139 124.969 98.2244C125.033 98.2349 125.094 98.2586 125.149 98.2939L131.623 102.373C131.753 102.447 131.9 102.486 132.049 102.486C132.198 102.486 132.344 102.447 132.474 102.373L134.952 100.989C135.082 100.917 135.192 100.813 135.27 100.687C135.348 100.56 135.391 100.415 135.396 100.267L135.218 92.6626C135.216 92.595 135.228 92.5278 135.253 92.4649C135.278 92.402 135.315 92.3448 135.363 92.2965C135.41 92.2482 135.466 92.2098 135.529 92.1836C135.591 92.1574 135.658 92.1439 135.725 92.144L139.628 92.0528C139.761 92.05 139.889 92.1 139.986 92.1919C140.082 92.2839 140.138 92.4102 140.142 92.5434L140.275 99.1455L140.296 100.155L140.398 104.164L140.398 104.682L140.398 105.201L140.625 113.625C140.625 113.902 140.447 114.007 140.212 113.86L133.965 109.868L133.114 109.332L128.82 106.676L127.963 106.143L122.657 102.86C122.545 102.787 122.463 102.675 122.429 102.545C122.395 102.416 122.41 102.278 122.471 102.159L124.48 98.4656Z" fill="black"/>
<path d="M154.651 124.51L153.794 123.977L149.503 121.324C149.268 121.177 148.884 120.939 148.653 120.788L142.405 116.8C142.171 116.65 141.985 116.755 141.992 117.032L142.185 125.442L142.185 125.96L142.185 126.483L142.279 130.495L142.3 131.504L142.454 138.106C142.458 138.24 142.514 138.366 142.61 138.459C142.707 138.551 142.835 138.602 142.969 138.6L146.871 138.509C147.005 138.505 147.131 138.448 147.224 138.351C147.316 138.254 147.366 138.124 147.365 137.991L147.186 130.386C147.191 130.238 147.235 130.093 147.313 129.966C147.391 129.84 147.5 129.736 147.631 129.664L150.108 128.263C150.238 128.189 150.385 128.151 150.534 128.151C150.683 128.151 150.829 128.189 150.959 128.263L157.434 132.345C157.488 132.38 157.549 132.404 157.614 132.414C157.678 132.424 157.743 132.421 157.806 132.405C157.869 132.388 157.928 132.359 157.979 132.318C158.03 132.278 158.072 132.227 158.102 132.17L160.121 128.477C160.183 128.357 160.198 128.22 160.164 128.09C160.129 127.961 160.048 127.849 159.936 127.776L154.651 124.51Z" fill="black"/>
<path d="M140.439 105.208V104.689V104.171L140.345 100.151L140.324 99.142L140.17 92.5434C140.166 92.4102 140.11 92.2839 140.014 92.1919C139.917 92.1 139.788 92.05 139.655 92.0528L135.753 92.144C135.62 92.1476 135.493 92.2037 135.401 92.3001C135.308 92.3966 135.258 92.5255 135.26 92.6591L135.438 100.249C135.432 100.398 135.386 100.542 135.307 100.668C135.228 100.794 135.118 100.897 134.987 100.968L132.491 102.352C132.362 102.426 132.215 102.465 132.066 102.465C131.917 102.465 131.77 102.426 131.641 102.352L125.184 98.2834C125.129 98.2481 125.068 98.2244 125.004 98.2139C124.94 98.2034 124.875 98.2063 124.812 98.2225C124.749 98.2386 124.69 98.2676 124.639 98.3077C124.588 98.3477 124.546 98.3979 124.515 98.4551L122.496 102.149C122.434 102.268 122.419 102.405 122.454 102.535C122.488 102.664 122.569 102.777 122.681 102.849L127.966 106.122L128.823 106.652L133.139 109.322L133.993 109.858L140.236 113.86C140.471 114.007 140.656 113.902 140.649 113.625L140.439 105.208Z" fill="black"/>
<path d="M163.718 121.308C163.775 121.34 163.826 121.383 163.866 121.435C163.907 121.486 163.937 121.545 163.955 121.608C163.973 121.671 163.978 121.738 163.971 121.803C163.963 121.868 163.942 121.931 163.91 121.988L161.81 125.661C161.743 125.779 161.631 125.866 161.5 125.902C161.369 125.938 161.229 125.921 161.11 125.853L155.686 122.812L154.807 122.321L149.876 119.567L148.991 119.087L142.449 115.6C142.204 115.47 142.204 115.25 142.449 115.127L149.869 111.153L150.327 110.908L150.786 110.663L154.818 108.518L155.707 108.041L161.205 105.126C161.264 105.092 161.33 105.071 161.398 105.064C161.465 105.056 161.534 105.062 161.599 105.082C161.665 105.102 161.725 105.134 161.778 105.178C161.83 105.222 161.874 105.275 161.905 105.336L163.742 108.781C163.773 108.839 163.793 108.903 163.799 108.969C163.806 109.035 163.8 109.102 163.78 109.165C163.761 109.229 163.73 109.288 163.688 109.339C163.646 109.39 163.594 109.433 163.536 109.464L157.271 112.8C157.145 112.876 157.042 112.985 156.973 113.115C156.905 113.246 156.873 113.392 156.883 113.54C156.883 113.54 157.005 114.591 157.005 115.411C157.005 116.136 156.911 117.044 156.911 117.044C156.903 117.191 156.935 117.338 157.004 117.468C157.072 117.599 157.174 117.709 157.299 117.787L163.718 121.308Z" fill="black"/>
<g opacity="0.15">
<path opacity="0.15" d="M158.125 98.4559C158.094 98.3987 158.052 98.3484 158.001 98.3084C157.95 98.2684 157.891 98.2393 157.828 98.2232C157.766 98.2071 157.7 98.2042 157.636 98.2146C157.572 98.2251 157.511 98.2488 157.457 98.2842L150.982 102.363C150.852 102.437 150.706 102.476 150.557 102.476C150.408 102.476 150.261 102.437 150.132 102.363L147.654 100.979C147.523 100.908 147.414 100.804 147.336 100.677C147.258 100.55 147.214 100.406 147.209 100.257L147.388 92.6528C147.389 92.5852 147.377 92.518 147.352 92.4551C147.327 92.3923 147.29 92.335 147.243 92.2867C147.196 92.2384 147.139 92.2 147.077 92.1739C147.015 92.1477 146.948 92.1342 146.88 92.1342L142.978 92.0431C142.845 92.0403 142.716 92.0903 142.62 92.1822C142.523 92.2741 142.467 92.4004 142.463 92.5337L142.33 99.1357L142.309 100.145L142.208 104.154L142.208 104.672L142.208 105.191L141.98 113.615C141.98 113.892 142.159 113.997 142.393 113.85L148.641 109.859L149.491 109.323L153.785 106.666L154.643 106.134L159.948 102.85C160.061 102.777 160.142 102.665 160.176 102.536C160.211 102.406 160.195 102.268 160.134 102.149L158.125 98.4559Z" fill="black"/>
</g>
<g opacity="0.15">
<path opacity="0.15" d="M154.653 124.511L153.796 123.978L149.505 121.325C149.27 121.178 148.885 120.94 148.654 120.789L142.407 116.801C142.173 116.651 141.987 116.756 141.994 117.033L142.187 125.443L142.187 125.961L142.187 126.484L142.281 130.496L142.302 131.505L142.456 138.107C142.46 138.241 142.516 138.367 142.612 138.46C142.709 138.552 142.837 138.603 142.971 138.601L146.873 138.51C147.007 138.506 147.133 138.449 147.226 138.352C147.318 138.255 147.368 138.125 147.367 137.992L147.188 130.387C147.193 130.239 147.237 130.094 147.315 129.967C147.393 129.841 147.502 129.737 147.633 129.665L150.11 128.264C150.24 128.19 150.387 128.152 150.536 128.152C150.685 128.152 150.831 128.19 150.961 128.264L157.435 132.346C157.49 132.381 157.551 132.405 157.616 132.415C157.68 132.425 157.745 132.422 157.808 132.406C157.871 132.389 157.93 132.36 157.981 132.319C158.032 132.279 158.074 132.228 158.104 132.171L160.123 128.477C160.185 128.358 160.2 128.221 160.166 128.091C160.131 127.962 160.05 127.85 159.938 127.777L154.653 124.511Z" fill="black"/>
</g>
<path d="M163.718 121.308C163.775 121.34 163.826 121.383 163.866 121.435C163.907 121.486 163.937 121.545 163.955 121.608C163.973 121.671 163.978 121.738 163.971 121.803C163.963 121.868 163.942 121.931 163.91 121.988L161.81 125.661C161.743 125.779 161.631 125.866 161.5 125.902C161.369 125.938 161.229 125.921 161.11 125.853L155.686 122.812L154.807 122.321L149.876 119.567L148.991 119.087L142.449 115.6C142.204 115.47 142.204 115.25 142.449 115.127L149.869 111.153L150.327 110.908L150.786 110.663L154.818 108.518L155.707 108.041L161.205 105.126C161.264 105.092 161.33 105.071 161.398 105.064C161.465 105.056 161.534 105.062 161.599 105.082C161.665 105.102 161.725 105.134 161.778 105.178C161.83 105.222 161.874 105.275 161.905 105.336L163.742 108.781C163.773 108.839 163.793 108.903 163.799 108.969C163.806 109.035 163.8 109.102 163.78 109.165C163.761 109.229 163.73 109.288 163.688 109.339C163.646 109.39 163.594 109.433 163.536 109.464L157.271 112.8C157.145 112.876 157.042 112.985 156.973 113.115C156.905 113.246 156.873 113.392 156.883 113.54C156.883 113.54 157.005 114.591 157.005 115.411C157.005 116.136 156.911 117.044 156.911 117.044C156.903 117.191 156.935 117.338 157.004 117.468C157.072 117.599 157.174 117.709 157.299 117.787L163.718 121.308Z" fill="black"/>
<g opacity="0.15">
<path opacity="0.15" d="M158.125 98.4559C158.094 98.3987 158.052 98.3484 158.001 98.3084C157.95 98.2684 157.891 98.2393 157.828 98.2232C157.766 98.2071 157.7 98.2042 157.636 98.2146C157.572 98.2251 157.511 98.2488 157.457 98.2842L150.982 102.363C150.852 102.437 150.706 102.476 150.557 102.476C150.408 102.476 150.261 102.437 150.132 102.363L147.654 100.979C147.523 100.908 147.414 100.804 147.336 100.677C147.258 100.55 147.214 100.406 147.209 100.257L147.388 92.6528C147.389 92.5852 147.377 92.518 147.352 92.4551C147.327 92.3923 147.29 92.335 147.243 92.2867C147.196 92.2384 147.139 92.2 147.077 92.1739C147.015 92.1477 146.948 92.1342 146.88 92.1342L142.978 92.0431C142.845 92.0403 142.716 92.0903 142.62 92.1822C142.523 92.2741 142.467 92.4004 142.463 92.5337L142.33 99.1357L142.309 100.145L142.208 104.154L142.208 104.672L142.208 105.191L141.98 113.615C141.98 113.892 142.159 113.997 142.393 113.85L148.641 109.859L149.491 109.323L153.785 106.666L154.643 106.134L159.948 102.85C160.061 102.777 160.142 102.665 160.176 102.536C160.211 102.406 160.195 102.268 160.134 102.149L158.125 98.4559Z" fill="black"/>
</g>
<g opacity="0.15">
<path opacity="0.15" d="M154.653 124.511L153.796 123.978L149.505 121.325C149.27 121.178 148.885 120.94 148.654 120.789L142.407 116.801C142.173 116.651 141.987 116.756 141.994 117.033L142.187 125.443L142.187 125.961L142.187 126.484L142.281 130.496L142.302 131.505L142.456 138.107C142.46 138.241 142.516 138.367 142.612 138.46C142.709 138.552 142.837 138.603 142.971 138.601L146.873 138.51C147.007 138.506 147.133 138.449 147.226 138.352C147.318 138.255 147.368 138.125 147.367 137.992L147.188 130.387C147.193 130.239 147.237 130.094 147.315 129.967C147.393 129.841 147.502 129.737 147.633 129.665L150.11 128.264C150.24 128.19 150.387 128.152 150.536 128.152C150.685 128.152 150.831 128.19 150.961 128.264L157.435 132.346C157.49 132.381 157.551 132.405 157.616 132.415C157.68 132.425 157.745 132.422 157.808 132.406C157.871 132.389 157.93 132.36 157.981 132.319C158.032 132.279 158.074 132.228 158.104 132.171L160.123 128.477C160.185 128.358 160.2 128.221 160.166 128.091C160.131 127.962 160.05 127.85 159.938 127.777L154.653 124.511Z" fill="black"/>
</g>
<path d="M179.655 120.962L178.801 121.502L174.489 124.172L173.632 124.701L168.343 127.974C168.231 128.047 168.15 128.159 168.116 128.289C168.081 128.418 168.096 128.556 168.158 128.675L170.167 132.365C170.197 132.423 170.239 132.473 170.29 132.514C170.341 132.554 170.4 132.583 170.463 132.6C170.525 132.616 170.591 132.62 170.655 132.609C170.719 132.599 170.781 132.576 170.835 132.54L177.306 128.475C177.436 128.401 177.583 128.362 177.732 128.362C177.881 128.362 178.027 128.401 178.157 128.475L180.649 129.877C180.779 129.948 180.889 130.052 180.967 130.179C181.045 130.306 181.088 130.45 181.093 130.599L180.915 138.193C180.913 138.327 180.963 138.456 181.056 138.553C181.148 138.65 181.275 138.707 181.408 138.711L185.311 138.802C185.444 138.804 185.573 138.754 185.669 138.661C185.765 138.569 185.821 138.442 185.825 138.308L185.979 131.71L186 130.701L186.094 126.685V126.163V125.644L186.287 117.234C186.287 116.957 186.108 116.852 185.874 117.002L179.655 120.962Z" fill="black"/>
<path d="M178.264 111.285L177.808 111.043L177.352 110.801L173.36 108.687L172.476 108.216L167.022 105.326C166.964 105.293 166.899 105.273 166.832 105.265C166.765 105.258 166.698 105.265 166.634 105.284C166.569 105.304 166.51 105.336 166.458 105.379C166.406 105.422 166.364 105.475 166.333 105.535L164.525 108.971C164.492 109.03 164.47 109.095 164.463 109.162C164.455 109.229 164.461 109.298 164.481 109.363C164.5 109.428 164.533 109.488 164.576 109.54C164.62 109.592 164.673 109.634 164.733 109.664L170.966 112.972C171.092 113.046 171.195 113.154 171.264 113.283C171.332 113.412 171.364 113.558 171.356 113.704C171.356 113.704 171.242 114.753 171.244 115.563C171.259 116.281 171.343 117.18 171.343 117.18C171.351 117.327 171.32 117.473 171.252 117.603C171.185 117.734 171.083 117.843 170.959 117.92L164.566 121.459C164.509 121.491 164.459 121.533 164.418 121.584C164.377 121.636 164.347 121.694 164.329 121.758C164.311 121.821 164.306 121.887 164.314 121.952C164.322 122.017 164.343 122.08 164.375 122.137L166.469 125.786C166.502 125.845 166.547 125.896 166.6 125.937C166.653 125.978 166.714 126.009 166.779 126.026C166.844 126.044 166.911 126.048 166.978 126.039C167.044 126.03 167.109 126.008 167.167 125.975L172.556 122.924L173.427 122.431L178.292 119.677C178.532 119.543 178.923 119.315 179.167 119.195L185.636 115.7C185.877 115.57 185.879 115.346 185.627 115.229L178.264 111.285Z" fill="black"/>
<path d="M203.785 98.5906C203.755 98.5334 203.712 98.4832 203.661 98.4432C203.61 98.4031 203.551 98.3741 203.489 98.358C203.426 98.3418 203.36 98.3389 203.296 98.3494C203.232 98.3599 203.171 98.3836 203.117 98.4189L196.642 102.498C196.513 102.572 196.366 102.611 196.217 102.611C196.068 102.611 195.921 102.572 195.792 102.498L193.314 101.114C193.183 101.042 193.074 100.938 192.996 100.812C192.918 100.685 192.874 100.54 192.869 100.392L193.048 92.7876C193.049 92.72 193.037 92.6528 193.012 92.5899C192.987 92.527 192.95 92.4698 192.903 92.4215C192.856 92.3732 192.799 92.3348 192.737 92.3086C192.675 92.2824 192.608 92.2689 192.54 92.269L188.638 92.1778C188.505 92.175 188.376 92.225 188.28 92.3169C188.183 92.4089 188.127 92.5352 188.124 92.6684L187.991 99.2705L187.97 100.28L187.868 104.289L187.868 104.807L187.868 105.326L187.641 113.75C187.641 114.027 187.819 114.132 188.054 113.985L194.301 109.993L195.151 109.457L199.445 106.801L200.303 106.268L205.609 102.985C205.721 102.912 205.802 102.8 205.836 102.67C205.871 102.541 205.856 102.403 205.794 102.284L203.785 98.5906Z" fill="black"/>
<path d="M170.142 98.6004C170.173 98.5432 170.215 98.493 170.266 98.4529C170.317 98.4129 170.376 98.3839 170.439 98.3677C170.502 98.3516 170.567 98.3487 170.631 98.3592C170.695 98.3697 170.757 98.3933 170.811 98.4287L177.286 102.508C177.415 102.582 177.562 102.621 177.711 102.621C177.86 102.621 178.007 102.582 178.136 102.508L180.614 101.123C180.744 101.052 180.854 100.948 180.932 100.822C181.01 100.695 181.053 100.55 181.058 100.402L180.88 92.7974C180.879 92.7297 180.891 92.6625 180.915 92.5997C180.94 92.5368 180.978 92.4795 181.025 92.4312C181.072 92.3829 181.128 92.3446 181.191 92.3184C181.253 92.2922 181.32 92.2787 181.387 92.2787L185.29 92.1876C185.423 92.1848 185.552 92.2348 185.648 92.3267C185.744 92.4186 185.8 92.545 185.804 92.6782L185.937 99.2802L185.958 100.289L186.06 104.298L186.06 104.817L186.06 105.336L186.287 113.76C186.287 114.037 186.109 114.142 185.874 113.995L179.627 110.003L178.777 109.467L174.482 106.811L173.625 106.278L168.319 102.995C168.207 102.922 168.126 102.81 168.091 102.68C168.057 102.551 168.072 102.413 168.134 102.294L170.142 98.6004Z" fill="black"/>
<path d="M200.313 124.644L199.456 124.112L195.165 121.459C194.931 121.312 194.546 121.074 194.315 120.923L188.067 116.935C187.833 116.784 187.647 116.89 187.654 117.166L187.847 125.577L187.847 126.095L187.847 126.617L187.941 130.63L187.962 131.639L188.116 138.241C188.12 138.375 188.176 138.501 188.272 138.594C188.369 138.686 188.498 138.737 188.631 138.735L192.533 138.644C192.667 138.639 192.793 138.583 192.886 138.486C192.978 138.389 193.029 138.259 193.027 138.125L192.848 130.521C192.853 130.372 192.897 130.228 192.975 130.101C193.053 129.974 193.162 129.87 193.293 129.799L195.771 128.398C195.9 128.324 196.047 128.286 196.196 128.286C196.345 128.286 196.491 128.324 196.621 128.398L203.096 132.48C203.15 132.515 203.212 132.539 203.276 132.549C203.34 132.559 203.405 132.556 203.468 132.539C203.531 132.523 203.59 132.494 203.641 132.453C203.692 132.413 203.734 132.362 203.764 132.305L205.783 128.611C205.845 128.492 205.86 128.355 205.826 128.225C205.792 128.095 205.71 127.983 205.598 127.91L200.313 124.644Z" fill="black"/>
<path d="M186.101 105.343V104.824V104.305L186.007 100.286L185.986 99.2767L185.832 92.6782C185.828 92.545 185.772 92.4186 185.676 92.3267C185.579 92.2348 185.451 92.1848 185.318 92.1876L181.415 92.2787C181.282 92.2824 181.155 92.3385 181.063 92.4349C180.971 92.5313 180.92 92.6603 180.922 92.7938L181.1 100.384C181.094 100.533 181.049 100.677 180.969 100.803C180.89 100.929 180.78 101.032 180.649 101.102L178.153 102.487C178.024 102.561 177.877 102.6 177.728 102.6C177.579 102.6 177.432 102.561 177.303 102.487L170.846 98.4182C170.791 98.3828 170.73 98.3592 170.666 98.3487C170.602 98.3382 170.537 98.3411 170.474 98.3572C170.411 98.3734 170.352 98.4024 170.301 98.4424C170.25 98.4825 170.208 98.5327 170.177 98.5899L168.158 102.283C168.096 102.402 168.081 102.54 168.116 102.67C168.15 102.799 168.231 102.911 168.343 102.984L173.628 106.257L174.486 106.786L178.801 109.457L179.655 109.993L185.898 113.995C186.133 114.142 186.318 114.037 186.311 113.76L186.101 105.343Z" fill="black"/>
<path d="M209.38 121.443C209.437 121.475 209.488 121.518 209.529 121.569C209.569 121.621 209.6 121.68 209.617 121.743C209.635 121.806 209.641 121.872 209.633 121.938C209.625 122.003 209.605 122.066 209.572 122.123L207.472 125.795C207.405 125.914 207.293 126 207.162 126.037C207.031 126.073 206.891 126.055 206.772 125.988L201.348 122.947L200.469 122.456L195.538 119.702L194.653 119.222L188.111 115.735C187.866 115.605 187.866 115.384 188.111 115.262L195.531 111.288L195.99 111.043L196.448 110.797L200.48 108.653L201.369 108.176L206.867 105.261C206.926 105.227 206.992 105.206 207.06 105.198C207.128 105.191 207.196 105.197 207.262 105.217C207.327 105.236 207.388 105.269 207.44 105.313C207.493 105.356 207.536 105.41 207.567 105.471L209.404 108.916C209.436 108.974 209.455 109.038 209.462 109.104C209.468 109.17 209.462 109.237 209.442 109.3C209.423 109.363 209.392 109.423 209.35 109.474C209.308 109.525 209.256 109.568 209.198 109.599L202.933 112.935C202.807 113.011 202.704 113.12 202.635 113.25C202.567 113.38 202.535 113.527 202.545 113.674C202.545 113.674 202.667 114.726 202.667 115.546C202.667 116.271 202.573 117.179 202.573 117.179C202.565 117.326 202.598 117.472 202.666 117.603C202.734 117.734 202.836 117.844 202.961 117.921L209.38 121.443Z" fill="black"/>
<g opacity="0.15">
<path opacity="0.15" d="M203.787 98.5906C203.757 98.5334 203.714 98.4832 203.663 98.4432C203.612 98.4031 203.553 98.3741 203.491 98.358C203.428 98.3418 203.362 98.3389 203.298 98.3494C203.234 98.3599 203.173 98.3836 203.119 98.4189L196.644 102.498C196.515 102.572 196.368 102.611 196.219 102.611C196.07 102.611 195.923 102.572 195.794 102.498L193.316 101.114C193.185 101.042 193.076 100.938 192.998 100.812C192.92 100.685 192.876 100.54 192.871 100.392L193.05 92.7876C193.051 92.72 193.039 92.6528 193.014 92.5899C192.989 92.527 192.952 92.4698 192.905 92.4215C192.858 92.3732 192.801 92.3348 192.739 92.3086C192.677 92.2824 192.61 92.2689 192.542 92.269L188.64 92.1778C188.507 92.175 188.378 92.225 188.282 92.3169C188.185 92.4089 188.129 92.5352 188.126 92.6684L187.993 99.2705L187.972 100.28L187.87 104.289L187.87 104.807L187.87 105.326L187.643 113.75C187.643 114.027 187.821 114.132 188.056 113.985L194.303 109.993L195.153 109.457L199.447 106.801L200.305 106.268L205.611 102.985C205.723 102.912 205.804 102.8 205.838 102.67C205.873 102.541 205.858 102.403 205.796 102.284L203.787 98.5906Z" fill="black"/>
</g>
<g opacity="0.15">
<path opacity="0.15" d="M200.315 124.645L199.458 124.113L195.167 121.46C194.933 121.313 194.548 121.075 194.317 120.924L188.069 116.936C187.835 116.785 187.649 116.891 187.656 117.167L187.849 125.578L187.849 126.096L187.849 126.618L187.943 130.631L187.964 131.64L188.118 138.242C188.122 138.375 188.178 138.502 188.274 138.595C188.371 138.687 188.499 138.738 188.633 138.736L192.535 138.645C192.669 138.64 192.795 138.583 192.888 138.487C192.98 138.39 193.031 138.26 193.029 138.126L192.85 130.522C192.855 130.373 192.899 130.229 192.977 130.102C193.055 129.975 193.164 129.871 193.295 129.8L195.772 128.398C195.902 128.325 196.049 128.287 196.198 128.287C196.347 128.287 196.493 128.325 196.623 128.398L203.098 132.481C203.152 132.516 203.214 132.54 203.278 132.55C203.342 132.56 203.407 132.557 203.47 132.54C203.533 132.524 203.592 132.495 203.643 132.454C203.694 132.414 203.736 132.363 203.766 132.306L205.785 128.612C205.847 128.493 205.862 128.356 205.828 128.226C205.793 128.096 205.712 127.984 205.6 127.911L200.315 124.645Z" fill="black"/>
</g>
<path d="M209.38 121.443C209.437 121.475 209.488 121.518 209.529 121.569C209.569 121.621 209.6 121.68 209.617 121.743C209.635 121.806 209.641 121.872 209.633 121.938C209.625 122.003 209.605 122.066 209.572 122.123L207.472 125.795C207.405 125.914 207.293 126 207.162 126.037C207.031 126.073 206.891 126.055 206.772 125.988L201.348 122.947L200.469 122.456L195.538 119.702L194.653 119.222L188.111 115.735C187.866 115.605 187.866 115.384 188.111 115.262L195.531 111.288L195.99 111.043L196.448 110.797L200.48 108.653L201.369 108.176L206.867 105.261C206.926 105.227 206.992 105.206 207.06 105.198C207.128 105.191 207.196 105.197 207.262 105.217C207.327 105.236 207.388 105.269 207.44 105.313C207.493 105.356 207.536 105.41 207.567 105.471L209.404 108.916C209.436 108.974 209.455 109.038 209.462 109.104C209.468 109.17 209.462 109.237 209.442 109.3C209.423 109.363 209.392 109.423 209.35 109.474C209.308 109.525 209.256 109.568 209.198 109.599L202.933 112.935C202.807 113.011 202.704 113.12 202.635 113.25C202.567 113.38 202.535 113.527 202.545 113.674C202.545 113.674 202.667 114.726 202.667 115.546C202.667 116.271 202.573 117.179 202.573 117.179C202.565 117.326 202.598 117.472 202.666 117.603C202.734 117.734 202.836 117.844 202.961 117.921L209.38 121.443Z" fill="black"/>
<g opacity="0.15">
<path opacity="0.15" d="M203.787 98.5906C203.757 98.5334 203.714 98.4832 203.663 98.4432C203.612 98.4031 203.553 98.3741 203.491 98.358C203.428 98.3418 203.362 98.3389 203.298 98.3494C203.234 98.3599 203.173 98.3836 203.119 98.4189L196.644 102.498C196.515 102.572 196.368 102.611 196.219 102.611C196.07 102.611 195.923 102.572 195.794 102.498L193.316 101.114C193.185 101.042 193.076 100.938 192.998 100.812C192.92 100.685 192.876 100.54 192.871 100.392L193.05 92.7876C193.051 92.72 193.039 92.6528 193.014 92.5899C192.989 92.527 192.952 92.4698 192.905 92.4215C192.858 92.3732 192.801 92.3348 192.739 92.3086C192.677 92.2824 192.61 92.2689 192.542 92.269L188.64 92.1778C188.507 92.175 188.378 92.225 188.282 92.3169C188.185 92.4089 188.129 92.5352 188.126 92.6684L187.993 99.2705L187.972 100.28L187.87 104.289L187.87 104.807L187.87 105.326L187.643 113.75C187.643 114.027 187.821 114.132 188.056 113.985L194.303 109.993L195.153 109.457L199.447 106.801L200.305 106.268L205.611 102.985C205.723 102.912 205.804 102.8 205.838 102.67C205.873 102.541 205.858 102.403 205.796 102.284L203.787 98.5906Z" fill="black"/>
</g>
<g opacity="0.15">
<path opacity="0.15" d="M200.315 124.645L199.458 124.113L195.167 121.46C194.933 121.313 194.548 121.075 194.317 120.924L188.069 116.936C187.835 116.785 187.649 116.891 187.656 117.167L187.849 125.578L187.849 126.096L187.849 126.618L187.943 130.631L187.964 131.64L188.118 138.242C188.122 138.375 188.178 138.502 188.274 138.595C188.371 138.687 188.499 138.738 188.633 138.736L192.535 138.645C192.669 138.64 192.795 138.583 192.888 138.487C192.98 138.39 193.031 138.26 193.029 138.126L192.85 130.522C192.855 130.373 192.899 130.229 192.977 130.102C193.055 129.975 193.164 129.871 193.295 129.8L195.772 128.398C195.902 128.325 196.049 128.287 196.198 128.287C196.347 128.287 196.493 128.325 196.623 128.398L203.098 132.481C203.152 132.516 203.214 132.54 203.278 132.55C203.342 132.56 203.407 132.557 203.47 132.54C203.533 132.524 203.592 132.495 203.643 132.454C203.694 132.414 203.736 132.363 203.766 132.306L205.785 128.612C205.847 128.493 205.862 128.356 205.828 128.226C205.793 128.096 205.712 127.984 205.6 127.911L200.315 124.645Z" fill="black"/>
</g>
<path d="M225.317 120.895L224.463 121.435L220.151 124.105L219.294 124.634L214.006 127.907C213.893 127.98 213.812 128.092 213.778 128.222C213.743 128.351 213.759 128.489 213.82 128.608L215.829 132.298C215.859 132.355 215.901 132.406 215.952 132.446C216.003 132.487 216.062 132.516 216.125 132.532C216.188 132.549 216.253 132.552 216.317 132.542C216.381 132.532 216.443 132.508 216.497 132.473L222.969 128.408C223.098 128.334 223.245 128.295 223.394 128.295C223.543 128.295 223.689 128.334 223.819 128.408L226.311 129.81C226.441 129.881 226.551 129.985 226.629 130.112C226.707 130.238 226.75 130.383 226.755 130.532L226.577 138.125C226.575 138.259 226.626 138.389 226.718 138.486C226.81 138.583 226.937 138.639 227.07 138.644L230.973 138.735C231.106 138.737 231.235 138.686 231.331 138.594C231.427 138.501 231.483 138.375 231.487 138.241L231.641 131.642L231.662 130.633L231.757 126.617V126.095V125.577L231.949 117.166C231.949 116.89 231.771 116.784 231.536 116.935L225.317 120.895Z" fill="black"/>
<path d="M223.926 111.218L223.47 110.976L223.014 110.734L219.022 108.62L218.139 108.149L212.684 105.258C212.626 105.226 212.561 105.205 212.494 105.198C212.427 105.191 212.36 105.197 212.296 105.217C212.231 105.236 212.172 105.269 212.12 105.312C212.068 105.355 212.026 105.408 211.995 105.468L210.187 108.903C210.154 108.962 210.133 109.027 210.125 109.095C210.117 109.162 210.123 109.23 210.143 109.295C210.162 109.36 210.195 109.42 210.238 109.472C210.282 109.524 210.335 109.567 210.396 109.597L216.628 112.905C216.754 112.979 216.857 113.086 216.926 113.215C216.994 113.345 217.026 113.49 217.018 113.637C217.018 113.637 216.904 114.686 216.906 115.495C216.921 116.214 217.005 117.112 217.005 117.112C217.013 117.259 216.982 117.406 216.914 117.536C216.847 117.666 216.745 117.776 216.621 117.853L210.229 121.392C210.171 121.423 210.121 121.466 210.08 121.517C210.039 121.568 210.009 121.627 209.991 121.69C209.973 121.753 209.968 121.819 209.976 121.884C209.984 121.95 210.005 122.012 210.038 122.069L212.131 125.719C212.164 125.777 212.209 125.829 212.262 125.87C212.315 125.911 212.376 125.941 212.441 125.959C212.506 125.976 212.573 125.981 212.64 125.972C212.706 125.963 212.771 125.941 212.829 125.907L218.218 122.856L219.089 122.364L223.954 119.61C224.194 119.476 224.585 119.248 224.829 119.128L231.298 115.633C231.539 115.502 231.541 115.279 231.289 115.162L223.926 111.218Z" fill="black"/>
<path d="M249.447 98.5233C249.417 98.466 249.374 98.4158 249.323 98.3758C249.272 98.3357 249.214 98.3067 249.151 98.2906C249.088 98.2745 249.022 98.2715 248.958 98.282C248.894 98.2925 248.833 98.3162 248.779 98.3515L242.304 102.43C242.175 102.505 242.028 102.544 241.879 102.544C241.73 102.544 241.583 102.505 241.454 102.43L238.976 101.046C238.846 100.975 238.736 100.871 238.658 100.744C238.58 100.618 238.536 100.473 238.531 100.324L238.71 92.7202C238.711 92.6526 238.699 92.5854 238.674 92.5225C238.649 92.4597 238.612 92.4024 238.565 92.3541C238.518 92.3058 238.461 92.2674 238.399 92.2412C238.337 92.215 238.27 92.2016 238.202 92.2016L234.3 92.1105C234.167 92.1076 234.038 92.1576 233.942 92.2496C233.846 92.3415 233.789 92.4678 233.786 92.6011L233.653 99.2031L233.632 100.212L233.53 104.221L233.53 104.74L233.53 105.258L233.303 113.683C233.303 113.959 233.481 114.065 233.716 113.917L239.963 109.926L240.813 109.39L245.108 106.734L245.965 106.201L251.271 102.918C251.383 102.845 251.464 102.733 251.499 102.603C251.533 102.473 251.518 102.336 251.456 102.217L249.447 98.5233Z" fill="black"/>
<path d="M215.805 98.533C215.835 98.4758 215.877 98.4256 215.929 98.3855C215.98 98.3455 216.038 98.3165 216.101 98.3004C216.164 98.2842 216.23 98.2813 216.294 98.2918C216.358 98.3023 216.419 98.326 216.473 98.3613L222.948 102.44C223.077 102.514 223.224 102.553 223.373 102.553C223.522 102.553 223.669 102.514 223.798 102.44L226.276 101.056C226.406 100.985 226.516 100.881 226.594 100.754C226.672 100.628 226.716 100.483 226.721 100.334L226.542 92.73C226.541 92.6624 226.553 92.5952 226.578 92.5323C226.602 92.4694 226.64 92.4122 226.687 92.3639C226.734 92.3156 226.791 92.2772 226.853 92.251C226.915 92.2248 226.982 92.2113 227.049 92.2113L230.952 92.1202C231.085 92.1174 231.214 92.1674 231.31 92.2593C231.406 92.3512 231.463 92.4776 231.466 92.6108L231.599 99.2128L231.62 100.222L231.722 104.231L231.722 104.75L231.722 105.268L231.949 113.692C231.949 113.969 231.771 114.074 231.536 113.927L225.289 109.936L224.439 109.4L220.144 106.743L219.287 106.211L213.981 102.927C213.869 102.854 213.788 102.742 213.753 102.613C213.719 102.483 213.734 102.346 213.796 102.226L215.805 98.533Z" fill="black"/>
<path d="M245.975 124.577L245.118 124.044L240.827 121.392C240.593 121.245 240.208 121.006 239.977 120.856L233.73 116.868C233.495 116.717 233.31 116.822 233.317 117.099L233.509 125.509L233.509 126.028L233.509 126.55L233.604 130.562L233.625 131.572L233.779 138.174C233.782 138.307 233.838 138.434 233.935 138.526C234.031 138.619 234.16 138.67 234.293 138.668L238.195 138.577C238.329 138.572 238.456 138.515 238.548 138.418C238.64 138.321 238.691 138.192 238.689 138.058L238.51 130.454C238.515 130.305 238.559 130.16 238.637 130.034C238.715 129.907 238.824 129.803 238.955 129.732L241.433 128.33C241.562 128.257 241.709 128.218 241.858 128.218C242.007 128.218 242.153 128.257 242.283 128.33L248.758 132.413C248.812 132.448 248.874 132.471 248.938 132.482C249.002 132.492 249.068 132.489 249.13 132.472C249.193 132.456 249.252 132.426 249.303 132.386C249.354 132.345 249.396 132.295 249.426 132.237L251.446 128.544C251.507 128.425 251.522 128.287 251.488 128.158C251.454 128.028 251.372 127.916 251.26 127.843L245.975 124.577Z" fill="black"/>
<path d="M231.764 105.275V104.757V104.238L231.669 100.219L231.648 99.2093L231.494 92.6108C231.49 92.4776 231.434 92.3512 231.338 92.2593C231.241 92.1674 231.113 92.1174 230.98 92.1202L227.077 92.2113C226.944 92.215 226.817 92.2711 226.725 92.3675C226.633 92.4639 226.582 92.5929 226.584 92.7265L226.762 100.317C226.756 100.465 226.711 100.61 226.631 100.736C226.552 100.862 226.442 100.965 226.311 101.035L223.816 102.419C223.686 102.493 223.539 102.532 223.39 102.532C223.241 102.532 223.095 102.493 222.965 102.419L216.508 98.3508C216.454 98.3154 216.392 98.2918 216.328 98.2813C216.264 98.2708 216.199 98.2737 216.136 98.2898C216.073 98.306 216.014 98.335 215.963 98.375C215.912 98.4151 215.87 98.4653 215.839 98.5225L213.82 102.216C213.759 102.335 213.743 102.473 213.778 102.602C213.812 102.732 213.893 102.844 214.006 102.917L219.29 106.19L220.148 106.719L224.463 109.389L225.317 109.925L231.561 113.927C231.795 114.074 231.981 113.969 231.974 113.692L231.764 105.275Z" fill="black"/>
<path d="M255.042 121.376C255.099 121.408 255.15 121.45 255.191 121.502C255.231 121.553 255.262 121.612 255.28 121.676C255.297 121.739 255.303 121.805 255.295 121.87C255.287 121.935 255.267 121.998 255.234 122.056L253.135 125.728C253.067 125.846 252.955 125.933 252.824 125.969C252.693 126.005 252.553 125.988 252.435 125.921L247.01 122.879L246.131 122.389L241.2 119.634L240.315 119.154L233.774 115.667C233.529 115.538 233.529 115.317 233.774 115.194L241.193 111.22L241.652 110.975L242.11 110.73L246.142 108.585L247.031 108.109L252.529 105.193C252.589 105.16 252.654 105.139 252.722 105.131C252.79 105.123 252.858 105.13 252.924 105.149C252.989 105.169 253.05 105.202 253.102 105.245C253.155 105.289 253.198 105.343 253.229 105.403L255.066 108.848C255.098 108.907 255.117 108.971 255.124 109.037C255.13 109.103 255.124 109.169 255.105 109.233C255.085 109.296 255.054 109.355 255.012 109.406C254.97 109.458 254.918 109.5 254.86 109.531L248.595 112.867C248.469 112.943 248.366 113.052 248.297 113.183C248.229 113.313 248.197 113.46 248.207 113.607C248.207 113.607 248.329 114.658 248.329 115.478C248.329 116.204 248.235 117.111 248.235 117.111C248.228 117.258 248.26 117.405 248.328 117.536C248.396 117.666 248.498 117.776 248.623 117.854L255.042 121.376Z" fill="black"/>
<g opacity="0.15">
<path opacity="0.15" d="M249.449 98.5233C249.419 98.466 249.376 98.4158 249.325 98.3758C249.274 98.3357 249.216 98.3067 249.153 98.2906C249.09 98.2745 249.024 98.2715 248.96 98.282C248.896 98.2925 248.835 98.3162 248.781 98.3515L242.306 102.43C242.177 102.505 242.03 102.544 241.881 102.544C241.732 102.544 241.585 102.505 241.456 102.43L238.978 101.046C238.847 100.975 238.738 100.871 238.66 100.744C238.582 100.618 238.538 100.473 238.533 100.324L238.712 92.7202C238.713 92.6526 238.701 92.5854 238.676 92.5225C238.651 92.4597 238.614 92.4024 238.567 92.3541C238.52 92.3058 238.463 92.2674 238.401 92.2412C238.339 92.215 238.272 92.2016 238.204 92.2016L234.302 92.1105C234.169 92.1076 234.04 92.1576 233.944 92.2496C233.847 92.3415 233.791 92.4678 233.788 92.6011L233.655 99.2031L233.634 100.212L233.532 104.221L233.532 104.74L233.532 105.258L233.305 113.683C233.305 113.959 233.483 114.065 233.718 113.917L239.965 109.926L240.815 109.39L245.11 106.734L245.967 106.201L251.273 102.918C251.385 102.845 251.466 102.733 251.501 102.603C251.535 102.473 251.52 102.336 251.458 102.217L249.449 98.5233Z" fill="black"/>
</g>
<g opacity="0.15">
<path opacity="0.15" d="M245.977 124.578L245.12 124.045L240.829 121.393C240.595 121.246 240.21 121.007 239.979 120.857L233.732 116.869C233.497 116.718 233.312 116.823 233.319 117.1L233.511 125.51L233.511 126.029L233.511 126.551L233.606 130.563L233.627 131.573L233.781 138.175C233.784 138.308 233.84 138.435 233.937 138.527C234.033 138.62 234.162 138.671 234.295 138.669L238.197 138.578C238.331 138.573 238.458 138.516 238.55 138.419C238.642 138.322 238.693 138.193 238.691 138.059L238.512 130.455C238.517 130.306 238.561 130.161 238.639 130.035C238.717 129.908 238.826 129.804 238.957 129.733L241.435 128.331C241.564 128.258 241.711 128.219 241.86 128.219C242.009 128.219 242.155 128.258 242.285 128.331L248.76 132.414C248.814 132.449 248.876 132.472 248.94 132.482C249.004 132.493 249.07 132.49 249.132 132.473C249.195 132.457 249.254 132.427 249.305 132.387C249.356 132.346 249.398 132.296 249.428 132.238L251.448 128.545C251.509 128.426 251.524 128.288 251.49 128.159C251.456 128.029 251.374 127.917 251.262 127.844L245.977 124.578Z" fill="black"/>
</g>
<path d="M255.042 121.376C255.099 121.408 255.15 121.45 255.191 121.502C255.231 121.553 255.262 121.612 255.28 121.676C255.297 121.739 255.303 121.805 255.295 121.87C255.287 121.935 255.267 121.998 255.234 122.056L253.135 125.728C253.067 125.846 252.955 125.933 252.824 125.969C252.693 126.005 252.553 125.988 252.435 125.921L247.01 122.879L246.131 122.389L241.2 119.634L240.315 119.154L233.774 115.667C233.529 115.538 233.529 115.317 233.774 115.194L241.193 111.22L241.652 110.975L242.11 110.73L246.142 108.585L247.031 108.109L252.529 105.193C252.589 105.16 252.654 105.139 252.722 105.131C252.79 105.123 252.858 105.13 252.924 105.149C252.989 105.169 253.05 105.202 253.102 105.245C253.155 105.289 253.198 105.343 253.229 105.403L255.066 108.848C255.098 108.907 255.117 108.971 255.124 109.037C255.13 109.103 255.124 109.169 255.105 109.233C255.085 109.296 255.054 109.355 255.012 109.406C254.97 109.458 254.918 109.5 254.86 109.531L248.595 112.867C248.469 112.943 248.366 113.052 248.297 113.183C248.229 113.313 248.197 113.46 248.207 113.607C248.207 113.607 248.329 114.658 248.329 115.478C248.329 116.204 248.235 117.111 248.235 117.111C248.228 117.258 248.26 117.405 248.328 117.536C248.396 117.666 248.498 117.776 248.623 117.854L255.042 121.376Z" fill="black"/>
<g opacity="0.15">
<path opacity="0.15" d="M249.449 98.5233C249.419 98.466 249.376 98.4158 249.325 98.3758C249.274 98.3357 249.216 98.3067 249.153 98.2906C249.09 98.2745 249.024 98.2715 248.96 98.282C248.896 98.2925 248.835 98.3162 248.781 98.3515L242.306 102.43C242.177 102.505 242.03 102.544 241.881 102.544C241.732 102.544 241.585 102.505 241.456 102.43L238.978 101.046C238.847 100.975 238.738 100.871 238.66 100.744C238.582 100.618 238.538 100.473 238.533 100.324L238.712 92.7202C238.713 92.6526 238.701 92.5854 238.676 92.5225C238.651 92.4597 238.614 92.4024 238.567 92.3541C238.52 92.3058 238.463 92.2674 238.401 92.2412C238.339 92.215 238.272 92.2016 238.204 92.2016L234.302 92.1105C234.169 92.1076 234.04 92.1576 233.944 92.2496C233.847 92.3415 233.791 92.4678 233.788 92.6011L233.655 99.2031L233.634 100.212L233.532 104.221L233.532 104.74L233.532 105.258L233.305 113.683C233.305 113.959 233.483 114.065 233.718 113.917L239.965 109.926L240.815 109.39L245.11 106.734L245.967 106.201L251.273 102.918C251.385 102.845 251.466 102.733 251.501 102.603C251.535 102.473 251.52 102.336 251.458 102.217L249.449 98.5233Z" fill="black"/>
</g>
<g opacity="0.15">
<path opacity="0.15" d="M245.977 124.578L245.12 124.045L240.829 121.393C240.595 121.246 240.21 121.007 239.979 120.857L233.732 116.869C233.497 116.718 233.312 116.823 233.319 117.1L233.511 125.51L233.511 126.029L233.511 126.551L233.606 130.563L233.627 131.573L233.781 138.175C233.784 138.308 233.84 138.435 233.937 138.527C234.033 138.62 234.162 138.671 234.295 138.669L238.197 138.578C238.331 138.573 238.458 138.516 238.55 138.419C238.642 138.322 238.693 138.193 238.691 138.059L238.512 130.455C238.517 130.306 238.561 130.161 238.639 130.035C238.717 129.908 238.826 129.804 238.957 129.733L241.435 128.331C241.564 128.258 241.711 128.219 241.86 128.219C242.009 128.219 242.155 128.258 242.285 128.331L248.76 132.414C248.814 132.449 248.876 132.472 248.94 132.482C249.004 132.493 249.07 132.49 249.132 132.473C249.195 132.457 249.254 132.427 249.305 132.387C249.356 132.346 249.398 132.296 249.428 132.238L251.448 128.545C251.509 128.426 251.524 128.288 251.49 128.159C251.456 128.029 251.374 127.917 251.262 127.844L245.977 124.578Z" fill="black"/>
</g>
<path d="M270.979 120.895L270.125 121.435L265.813 124.105L264.956 124.634L259.668 127.907C259.555 127.98 259.474 128.092 259.44 128.222C259.406 128.351 259.421 128.489 259.482 128.608L261.491 132.298C261.521 132.355 261.563 132.406 261.614 132.446C261.665 132.487 261.724 132.516 261.787 132.532C261.85 132.549 261.915 132.552 261.979 132.542C262.044 132.532 262.105 132.508 262.16 132.473L268.631 128.408C268.76 128.334 268.907 128.295 269.056 128.295C269.205 128.295 269.352 128.334 269.481 128.408L271.973 129.81C272.103 129.881 272.213 129.985 272.291 130.112C272.369 130.238 272.412 130.383 272.417 130.532L272.239 138.125C272.237 138.259 272.288 138.389 272.38 138.486C272.472 138.583 272.599 138.639 272.732 138.644L276.635 138.735C276.768 138.737 276.897 138.686 276.993 138.594C277.089 138.501 277.146 138.375 277.149 138.241L277.303 131.642L277.324 130.633L277.419 126.617V126.095V125.577L277.611 117.166C277.611 116.89 277.433 116.784 277.198 116.935L270.979 120.895Z" fill="black"/>
<path d="M269.588 111.218L269.132 110.976L268.676 110.734L264.685 108.62L263.801 108.149L258.347 105.258C258.288 105.226 258.223 105.205 258.156 105.198C258.09 105.191 258.022 105.197 257.958 105.217C257.893 105.236 257.834 105.269 257.782 105.312C257.73 105.355 257.688 105.408 257.657 105.468L255.849 108.903C255.816 108.962 255.795 109.027 255.787 109.095C255.779 109.162 255.786 109.23 255.805 109.295C255.825 109.36 255.857 109.42 255.9 109.472C255.944 109.524 255.997 109.567 256.058 109.597L262.29 112.905C262.416 112.979 262.519 113.086 262.588 113.215C262.656 113.345 262.688 113.49 262.68 113.637C262.68 113.637 262.566 114.686 262.569 115.495C262.583 116.214 262.667 117.112 262.667 117.112C262.675 117.259 262.644 117.406 262.577 117.536C262.509 117.666 262.408 117.776 262.283 117.853L255.891 121.392C255.833 121.423 255.783 121.466 255.742 121.517C255.701 121.568 255.671 121.627 255.653 121.69C255.635 121.753 255.63 121.819 255.638 121.884C255.646 121.95 255.667 122.012 255.7 122.069L257.793 125.719C257.826 125.777 257.871 125.829 257.924 125.87C257.977 125.911 258.038 125.941 258.103 125.959C258.168 125.976 258.236 125.981 258.302 125.972C258.369 125.963 258.433 125.941 258.491 125.907L263.88 122.856L264.751 122.364L269.616 119.61C269.856 119.476 270.247 119.248 270.491 119.128L276.961 115.633C277.201 115.502 277.203 115.279 276.951 115.162L269.588 111.218Z" fill="black"/>
<path d="M261.467 98.533C261.497 98.4758 261.54 98.4256 261.591 98.3855C261.642 98.3455 261.701 98.3165 261.763 98.3004C261.826 98.2842 261.892 98.2813 261.956 98.2918C262.02 98.3023 262.081 98.326 262.135 98.3613L268.61 102.44C268.739 102.514 268.886 102.553 269.035 102.553C269.184 102.553 269.331 102.514 269.46 102.44L271.938 101.056C272.069 100.985 272.178 100.881 272.256 100.754C272.334 100.628 272.378 100.483 272.383 100.334L272.204 92.73C272.203 92.6624 272.215 92.5952 272.24 92.5323C272.265 92.4694 272.302 92.4122 272.349 92.3639C272.396 92.3156 272.453 92.2772 272.515 92.251C272.577 92.2248 272.644 92.2113 272.712 92.2113L276.614 92.1202C276.747 92.1174 276.876 92.1674 276.972 92.2593C277.069 92.3512 277.125 92.4776 277.128 92.6108L277.261 99.2128L277.282 100.222L277.384 104.231L277.384 104.75L277.384 105.268L277.611 113.692C277.611 113.969 277.433 114.074 277.198 113.927L270.951 109.936L270.101 109.4L265.806 106.743L264.949 106.211L259.643 102.927C259.531 102.854 259.45 102.742 259.416 102.613C259.381 102.483 259.396 102.346 259.458 102.226L261.467 98.533Z" fill="black"/>
<path d="M277.426 105.275V104.757V104.238L277.331 100.219L277.31 99.2093L277.156 92.6108C277.153 92.4776 277.096 92.3512 277 92.2593C276.904 92.1674 276.775 92.1174 276.642 92.1202L272.739 92.2113C272.606 92.215 272.48 92.2711 272.387 92.3675C272.295 92.4639 272.244 92.5929 272.246 92.7265L272.424 100.317C272.418 100.465 272.373 100.61 272.294 100.736C272.214 100.862 272.104 100.965 271.973 101.035L269.478 102.419C269.348 102.493 269.202 102.532 269.052 102.532C268.903 102.532 268.757 102.493 268.627 102.419L262.17 98.3508C262.116 98.3154 262.054 98.2918 261.99 98.2813C261.926 98.2708 261.861 98.2737 261.798 98.2898C261.735 98.306 261.677 98.335 261.626 98.375C261.574 98.4151 261.532 98.4653 261.502 98.5225L259.482 102.216C259.421 102.335 259.406 102.473 259.44 102.602C259.474 102.732 259.555 102.844 259.668 102.917L264.952 106.19L265.81 106.719L270.125 109.389L270.979 109.925L277.223 113.927C277.457 114.074 277.643 113.969 277.636 113.692L277.426 105.275Z" fill="black"/>
</g>
</g>
<path fill-rule="evenodd" clip-rule="evenodd" d="M153.475 159.263L173.34 142.598L173.99 142.37H257.074C257.074 142.37 261.216 142.37 264.145 139.441C264.145 139.441 267.074 136.512 267.074 132.37V52.3701C267.074 52.3701 267.074 48.228 264.145 45.2991C264.145 45.2991 261.216 42.3701 257.074 42.3701H147.074C147.074 42.3701 142.932 42.3701 140.003 45.2991C140.003 45.2991 137.074 48.228 137.074 52.3701L137.074 151.66C137.074 151.66 137.097 154.554 138.663 156.989C138.663 156.989 140.229 159.424 142.853 160.646C142.853 160.646 145.477 161.868 148.348 161.499C148.348 161.499 151.219 161.13 153.475 159.263ZM171.479 132.653C172.012 132.466 172.572 132.37 173.137 132.37H257.074V52.3701H147.074L147.074 151.58L167.611 134.352C168.072 133.965 168.599 133.665 169.167 133.465L171.479 132.653Z" fill="#4B32FF"/>
<path d="M182.074 87.3701H222.074C224.836 87.3701 227.074 85.1315 227.074 82.3701C227.074 79.6087 224.836 77.3701 222.074 77.3701H182.074C179.313 77.3701 177.074 79.6087 177.074 82.3701C177.074 85.1315 179.313 87.3701 182.074 87.3701Z" fill="#4B32FF"/>
<path d="M182.074 107.37H222.074C224.836 107.37 227.074 105.132 227.074 102.37C227.074 99.6087 224.836 97.3701 222.074 97.3701H182.074C179.313 97.3701 177.074 99.6087 177.074 102.37C177.074 105.132 179.313 107.37 182.074 107.37Z" fill="#4B32FF"/>
<path d="M113.222 43.5578L129.966 71.6158L129.966 139.046L96.4776 139.046V71.6158L113.222 43.5578ZM123.631 73.426L113.222 56.2292L102.813 73.426L102.813 132.71L123.631 132.71V73.426Z" fill="#4B32FF"/>
<path d="M101.681 69.1266C108.696 73.4258 117.747 73.4258 124.761 69.1266L127.929 74.5572C118.878 79.9877 107.564 79.9877 98.5135 74.5572L101.681 69.1266Z" fill="#4B32FF"/>
<path d="M116.424 135.902L110.025 135.902L110.003 77.0032L116.392 76.9941L116.424 135.902ZM113.222 49.8933L108.244 58.0392C111.412 59.8493 115.033 59.8494 118.2 58.0392L113.222 49.8933ZM96.4781 141.761L129.967 141.761L129.967 155.337L128.609 156.242C119.332 163.257 106.66 163.257 97.3832 156.242L96.0255 155.337L96.4781 141.761ZM123.631 148.096L102.814 148.096L102.814 152.169C109.149 156.242 117.295 156.242 123.631 152.169L123.631 148.096Z" fill="#4B32FF"/>
</svg>
