<?xml version="1.0" standalone="no"?>
<!DOCTYPE svg PUBLIC "-//W3C//DTD SVG 20010904//EN"
 "http://www.w3.org/TR/2001/REC-SVG-20010904/DTD/svg10.dtd">
<svg version="1.0" xmlns="http://www.w3.org/2000/svg"
 width="64.000000pt" height="64.000000pt" viewBox="0 0 64.000000 64.000000"
 preserveAspectRatio="xMidYMid meet">

<g transform="translate(0.000000,64.000000) scale(0.100000,-0.100000)"
stroke="none">
<path d="M16 594 c-14 -13 -16 -54 -16 -290 0 -216 3 -274 13 -274 7 0 42 29
77 65 l64 65 196 0 c154 0 200 3 216 14 17 13 19 29 22 137 3 113 6 126 28
152 33 40 30 56 -20 105 l-44 42 -260 0 c-224 0 -263 -2 -276 -16z m534 -20
c12 -13 2 -26 -65 -94 l-79 -79 -133 -3 c-172 -4 -183 -22 -15 -26 l123 -3 -3
-37 c-2 -25 1 -37 10 -36 6 1 24 2 38 2 15 1 46 22 80 54 l55 52 -3 -105 -3
-104 -205 -3 -205 -2 -57 -57 -58 -57 0 251 c0 192 3 253 13 256 6 3 121 6
253 6 207 1 243 -1 254 -15z m60 -62 c0 -31 -21 -44 -42 -25 -14 12 -15 19 -7
30 17 19 49 16 49 -5z m-102 -119 c-62 -62 -98 -79 -98 -46 0 10 28 46 62 80
59 59 63 62 80 46 18 -16 16 -19 -44 -80z"/>
<path d="M135 470 c-11 -18 17 -21 165 -18 104 2 145 6 148 16 5 15 -303 18
-313 2z"/>
<path d="M135 310 c-10 -16 17 -21 100 -18 52 2 80 7 83 16 5 15 -173 17 -183
2z"/>
</g>
</svg>
