<svg width="224" height="60" viewBox="0 0 224 60" fill="none" xmlns="http://www.w3.org/2000/svg">
<path d="M93.6875 35.8782C93.6875 22.5315 103.026 12.4536 117.354 12.4536C131.594 12.4536 140.932 22.5315 140.932 35.8782C140.932 49.2248 131.594 59.3027 117.354 59.3027C103.026 59.3027 93.6875 49.2248 93.6875 35.8782ZM132.499 35.8782C132.499 27.3426 126.513 20.2618 117.354 20.2618C108.107 20.2618 102.12 27.3426 102.12 35.8782C102.12 44.4137 108.107 51.4945 117.354 51.4945C126.513 51.4945 132.499 44.4137 132.499 35.8782Z" fill="white"/>
<path d="M182.634 15.9852L178.695 23.066C176.36 21.5165 173.619 20.6947 170.818 20.7043C162.867 20.7043 157.628 26.7905 157.628 36.0403V58.2292H149.23V13.2598H156.718L156.81 20.7963C160.46 15.1658 165.125 12.4404 171.312 12.4404C175.71 12.4404 179.92 13.8031 182.634 15.9852Z" fill="white"/>
<path d="M182.324 35.8782C182.324 21.9882 192.026 12.4536 205.898 12.4536C212.34 12.4536 217.867 14.7233 222.677 19.3548L217.425 24.9809C215.937 23.4637 214.157 22.2635 212.194 21.4525C210.23 20.6415 208.123 20.2365 205.999 20.2618C197.203 20.2618 190.766 26.5276 190.766 35.8782C190.766 45.2287 197.111 51.4945 205.999 51.4945C208.216 51.5211 210.415 51.0915 212.46 50.2323C214.504 49.373 216.351 48.1025 217.885 46.4994L223.136 52.3139C218.239 57.1338 212.8 59.3246 205.999 59.3246C191.934 59.3027 182.324 49.9522 182.324 35.8782Z" fill="white"/>
<path d="M78.4169 21.6961H88.6877C88.8602 21.6914 89.0254 21.6253 89.1537 21.5096C89.2821 21.394 89.365 21.2364 89.3878 21.0651L90.1668 13.8879C90.1769 13.8084 90.1697 13.7277 90.1458 13.6512C90.1219 13.5748 90.0818 13.5044 90.0281 13.4449C89.9745 13.3854 89.9088 13.3382 89.8353 13.3065C89.7618 13.2748 89.6823 13.2594 89.6023 13.2613H77.1741V0.786632C77.1761 0.706682 77.1607 0.627251 77.129 0.553834C77.0973 0.480418 77.0501 0.414766 76.9906 0.361426C76.9311 0.308087 76.8607 0.268333 76.7843 0.24491C76.7079 0.221488 76.6274 0.21496 76.5483 0.225775L69.3758 1.00572C69.2055 1.02951 69.0491 1.11302 68.9345 1.2414C68.82 1.36977 68.7546 1.53468 68.75 1.70679V21.087C68.7511 21.254 68.8179 21.4138 68.9358 21.5319C69.0538 21.65 69.2134 21.7169 69.3802 21.718H78.4169V21.6961Z" fill="white"/>
<path d="M90.1712 49.8876C88.2391 50.7556 86.1602 51.2493 84.0446 51.3423C79.0996 51.3423 77.1784 48.4372 77.1784 43.4552V24.5044H68.75V43.4421C68.75 53.52 73.5112 58.9708 83.0337 58.9708C86.3571 58.9895 89.644 58.2759 92.6612 56.8807L90.1712 49.8876Z" fill="white"/>
<path d="M19.6073 35.993L18.5395 36.6678L13.1481 40.0067L12.0759 40.6683L5.46358 44.7608C5.32314 44.852 5.22161 44.9922 5.17874 45.1542C5.13586 45.3161 5.15472 45.4883 5.23165 45.6371L7.74355 50.2511C7.78153 50.323 7.83402 50.3862 7.89769 50.4367C7.96135 50.4872 8.0348 50.5239 8.11338 50.5445C8.19197 50.5651 8.27397 50.5691 8.35419 50.5563C8.43441 50.5435 8.5111 50.5142 8.57939 50.4701L16.6709 45.3874C16.8328 45.2948 17.0161 45.2461 17.2026 45.2461C17.3891 45.2461 17.5723 45.2948 17.7343 45.3874L20.8501 47.1401C21.0131 47.2291 21.1501 47.3592 21.2476 47.5175C21.3451 47.6758 21.3996 47.8568 21.4058 48.0427L21.1827 57.5378C21.1803 57.7053 21.2436 57.867 21.3589 57.9882C21.4743 58.1095 21.6325 58.1806 21.7997 58.1863L26.6791 58.3002C26.8459 58.3026 27.0069 58.2391 27.1273 58.1235C27.2477 58.0078 27.3178 57.8494 27.3224 57.6824L27.5149 49.4317L27.5412 48.1698L27.6593 43.1483V42.4955V41.847L27.9 31.3309C27.9 30.9847 27.6768 30.8533 27.3836 31.0417L19.6073 35.993Z" fill="white"/>
<path d="M17.8671 23.8942L17.297 23.5916L16.7268 23.289L11.7359 20.6455L10.6306 20.057L3.81087 16.4427C3.73738 16.4018 3.6565 16.3761 3.57301 16.3672C3.48951 16.3583 3.40509 16.3662 3.32471 16.3906C3.24433 16.415 3.16963 16.4554 3.10501 16.5093C3.04039 16.5632 2.98715 16.6296 2.94845 16.7045L0.688288 21.0003C0.646437 21.0739 0.619948 21.1553 0.61044 21.2395C0.600932 21.3238 0.608604 21.4091 0.632987 21.4903C0.657371 21.5715 0.697954 21.6468 0.752257 21.7117C0.806561 21.7766 0.873446 21.8297 0.948823 21.8677L8.74234 26.0034C8.89943 26.0961 9.02804 26.2306 9.11399 26.392C9.19994 26.5535 9.23989 26.7357 9.22945 26.9186C9.22945 26.9186 9.08682 28.2305 9.08998 29.2427C9.10818 30.1412 9.21338 31.2649 9.21338 31.2649C9.22368 31.4484 9.18451 31.6314 9.09999 31.7944C9.01547 31.9574 8.88874 32.0944 8.7332 32.1909L0.740006 36.6159C0.668299 36.655 0.605095 36.7081 0.554115 36.7722C0.503135 36.8362 0.465409 36.9098 0.443156 36.9888C0.420903 37.0677 0.414571 37.1503 0.424537 37.2317C0.434503 37.3131 0.460564 37.3917 0.501185 37.4629L3.11872 42.0264C3.16055 42.0995 3.21633 42.1637 3.28286 42.2152C3.34939 42.2666 3.42536 42.3044 3.50641 42.3262C3.58747 42.3481 3.67202 42.3537 3.75521 42.3426C3.8384 42.3315 3.9186 42.3041 3.99121 42.2618L10.7299 38.4469L11.8194 37.8314L17.9018 34.3876C18.2021 34.2201 18.691 33.9352 18.996 33.7851L27.0857 29.4148C27.3861 29.2517 27.3891 28.9723 27.0738 28.826L17.8671 23.8942Z" fill="white"/>
<path d="M49.7809 8.01914C49.7425 7.9476 49.6897 7.88481 49.6259 7.83474C49.5621 7.78467 49.4885 7.7484 49.41 7.72822C49.3314 7.70804 49.2496 7.7044 49.1695 7.71751C49.0895 7.73063 49.0131 7.76023 48.945 7.80443L40.8492 12.9047C40.6872 12.9973 40.504 13.046 40.3175 13.046C40.131 13.046 39.9477 12.9973 39.7858 12.9047L36.6875 11.174C36.5244 11.0849 36.3874 10.9548 36.29 10.7965C36.1925 10.6382 36.1379 10.4572 36.1317 10.2713L36.3549 0.763041C36.3566 0.678507 36.3415 0.594476 36.3104 0.515869C36.2793 0.437262 36.2328 0.365665 36.1737 0.305269C36.1146 0.244872 36.0441 0.19689 35.9662 0.164142C35.8884 0.131394 35.8048 0.114534 35.7203 0.114552L30.841 0.00063043C30.6746 -0.00290469 30.5135 0.0596147 30.393 0.174545C30.2725 0.289475 30.2022 0.44748 30.1977 0.614065L30.0314 8.86918L30.0051 10.1311L29.8782 15.1438L29.8782 15.7923L29.8782 16.4408L29.5938 26.9744C29.5938 27.3205 29.8169 27.452 30.1101 27.2679L37.9215 22.2772L38.9849 21.6068L44.3545 18.2854L45.4266 17.6194L52.0608 13.5138C52.2013 13.4226 52.3028 13.2824 52.3457 13.1204C52.3886 12.9584 52.3697 12.7863 52.2928 12.6374L49.7809 8.01914Z" fill="white"/>
<path d="M7.71131 8.03232C7.74968 7.96079 7.80246 7.898 7.86629 7.84792C7.93013 7.79785 8.00365 7.76158 8.0822 7.7414C8.16075 7.72123 8.24263 7.71758 8.32266 7.7307C8.40269 7.74382 8.47913 7.77341 8.54715 7.81762L16.643 12.9179C16.805 13.0105 16.9882 13.0592 17.1747 13.0592C17.3612 13.0592 17.5445 13.0105 17.7064 12.9179L20.8047 11.1871C20.9678 11.0981 21.1048 10.968 21.2022 10.8097C21.2997 10.6514 21.3542 10.4704 21.3605 10.2845L21.1373 0.776225C21.1356 0.691691 21.1507 0.60766 21.1818 0.529053C21.2129 0.450445 21.2594 0.378849 21.3185 0.318452C21.3775 0.258056 21.4481 0.210073 21.5259 0.177325C21.6038 0.144577 21.6874 0.127718 21.7718 0.127736L26.6512 0.013814C26.8176 0.0102789 26.9787 0.0727983 27.0992 0.187729C27.2197 0.302659 27.2899 0.460663 27.2945 0.627249L27.4608 8.88237L27.4871 10.1443L27.614 15.157L27.614 15.8054L27.614 16.4539L27.8984 26.9875C27.8984 27.3337 27.6753 27.4651 27.3821 27.2811L19.5706 22.2904L18.5072 21.62L13.1377 18.2986L12.0656 17.6326L5.43135 13.527C5.29091 13.4358 5.18937 13.2956 5.1465 13.1336C5.10363 12.9716 5.12249 12.7995 5.19941 12.6506L7.71131 8.03232Z" fill="white"/>
<path d="M45.4342 40.597L44.362 39.931L38.9969 36.614C38.7037 36.43 38.2223 36.132 37.9335 35.9436L30.1221 30.9572C29.8289 30.7688 29.597 30.9003 29.6057 31.2464L29.8464 41.7625L29.8464 42.411L29.8464 43.0639L29.9646 48.0809L29.9908 49.3428L30.1834 57.598C30.1879 57.7649 30.258 57.9234 30.3784 58.039C30.4988 58.1546 30.6598 58.2181 30.8267 58.2158L35.706 58.1018C35.8732 58.0961 36.0314 58.025 36.1468 57.9038C36.2622 57.7825 36.3255 57.6208 36.3231 57.4534L36.0999 47.9451C36.1061 47.7592 36.1607 47.5782 36.2581 47.4199C36.3556 47.2616 36.4926 47.1315 36.6557 47.0424L39.754 45.2898C39.9162 45.198 40.0993 45.1498 40.2857 45.1498C40.472 45.1498 40.6551 45.198 40.8174 45.2898L48.9132 50.3944C48.9815 50.4385 49.0582 50.4678 49.1384 50.4806C49.2186 50.4934 49.3006 50.4894 49.3792 50.4688C49.4578 50.4482 49.5313 50.4115 49.5949 50.361C49.6586 50.3105 49.7111 50.2472 49.7491 50.1754L52.2741 45.557C52.351 45.4082 52.3699 45.2361 52.327 45.0741C52.2841 44.9121 52.1826 44.7719 52.0422 44.6807L45.4342 40.597Z" fill="white"/>
<path d="M27.6681 16.4627V15.8142V15.1657L27.5499 10.1399L27.5237 8.87799L27.3311 0.627249C27.3266 0.460663 27.2563 0.302659 27.1358 0.187729C27.0153 0.0727983 26.8542 0.0102789 26.6878 0.013814L21.8085 0.127736C21.6417 0.132327 21.4834 0.20249 21.368 0.323039C21.2525 0.443588 21.1891 0.604824 21.1914 0.771846L21.4146 10.2626C21.4063 10.4485 21.3499 10.629 21.251 10.7865C21.152 10.9439 21.0139 11.0729 20.8501 11.1608L17.7299 12.8916C17.568 12.9842 17.3847 13.0329 17.1982 13.0329C17.0117 13.0329 16.8284 12.9842 16.6665 12.8916L8.59252 7.80447C8.52449 7.76027 8.44805 7.73067 8.36802 7.71756C8.28799 7.70444 8.20612 7.70808 8.12756 7.72826C8.04901 7.74844 7.9755 7.78471 7.91166 7.83478C7.84782 7.88485 7.79505 7.94764 7.75668 8.01917L5.23165 12.6375C5.15472 12.7863 5.13586 12.9585 5.17874 13.1205C5.22161 13.2824 5.32314 13.4227 5.46358 13.5138L12.0716 17.6063L13.1437 18.268L18.5395 21.6068L19.6073 22.2772L27.4143 27.2811C27.7075 27.4651 27.9394 27.3337 27.9307 26.9875L27.6681 16.4627Z" fill="white"/>
<path d="M56.7727 36.5936C56.8445 36.6334 56.9078 36.6869 56.9588 36.7513C57.0098 36.8156 57.0476 36.8894 57.0699 36.9684C57.0923 37.0475 57.0988 37.1301 57.0891 37.2117C57.0794 37.2933 57.0537 37.3721 57.0134 37.4437L54.3877 42.0357C54.3033 42.1836 54.1639 42.2919 53.9998 42.3371C53.8358 42.3823 53.6606 42.3605 53.5125 42.2767L46.7295 38.4734L45.6311 37.8599L39.4651 34.4159L38.358 33.8156L30.179 29.4558C29.8726 29.2937 29.8726 29.0177 30.179 28.8643L39.4564 23.8955L40.0296 23.5887L40.6029 23.282L45.6442 20.6004L46.7558 20.0045L53.6307 16.3589C53.705 16.3171 53.787 16.2906 53.8718 16.2812C53.9566 16.2718 54.0424 16.2796 54.1241 16.3041C54.2058 16.3287 54.2817 16.3695 54.3473 16.424C54.4129 16.4786 54.4669 16.5459 54.5059 16.6218L56.8034 20.929C56.8425 21.0021 56.8668 21.0822 56.875 21.1647C56.8832 21.2472 56.8751 21.3305 56.8511 21.4098C56.8271 21.4892 56.7878 21.563 56.7353 21.6271C56.6828 21.6912 56.6182 21.7444 56.5452 21.7835L48.7119 25.9548C48.554 26.0494 48.4251 26.1857 48.3394 26.3488C48.2537 26.5119 48.2145 26.6955 48.2261 26.8794C48.2261 26.8794 48.3793 28.1939 48.3793 29.2192C48.3793 30.1262 48.2612 31.2611 48.2612 31.2611C48.2521 31.4452 48.2923 31.6284 48.3777 31.7918C48.4631 31.9551 48.5906 32.0926 48.7469 32.19L56.7727 36.5936Z" fill="white"/>
<path d="M56.7727 36.5936C56.8445 36.6334 56.9078 36.6869 56.9588 36.7513C57.0098 36.8156 57.0476 36.8894 57.0699 36.9684C57.0923 37.0475 57.0988 37.1301 57.0891 37.2117C57.0794 37.2933 57.0537 37.3721 57.0134 37.4437L54.3877 42.0357C54.3033 42.1836 54.1639 42.2919 53.9998 42.3371C53.8358 42.3823 53.6606 42.3605 53.5125 42.2767L46.7295 38.4734L45.6311 37.8599L39.4651 34.4159L38.358 33.8156L30.179 29.4558C29.8726 29.2937 29.8726 29.0177 30.179 28.8643L39.4564 23.8955L40.0296 23.5887L40.6029 23.282L45.6442 20.6004L46.7558 20.0045L53.6307 16.3589C53.705 16.3171 53.787 16.2906 53.8718 16.2812C53.9566 16.2718 54.0424 16.2796 54.1241 16.3041C54.2058 16.3287 54.2817 16.3695 54.3473 16.424C54.4129 16.4786 54.4669 16.5459 54.5059 16.6218L56.8034 20.929C56.8425 21.0021 56.8668 21.0822 56.875 21.1647C56.8832 21.2472 56.8751 21.3305 56.8511 21.4098C56.8271 21.4892 56.7878 21.563 56.7353 21.6271C56.6828 21.6912 56.6182 21.7444 56.5452 21.7835L48.7119 25.9548C48.554 26.0494 48.4251 26.1857 48.3394 26.3488C48.2537 26.5119 48.2145 26.6955 48.2261 26.8794C48.2261 26.8794 48.3793 28.1939 48.3793 29.2192C48.3793 30.1262 48.2612 31.2611 48.2612 31.2611C48.2521 31.4452 48.2923 31.6284 48.3777 31.7918C48.4631 31.9551 48.5906 32.0926 48.7469 32.19L56.7727 36.5936Z" fill="white"/>
</svg>
