<svg width="32" height="32" viewBox="0 0 32 32" fill="none" xmlns="http://www.w3.org/2000/svg">
    <path fill-rule="evenodd" clip-rule="evenodd" d="M20.14 10.067a7.412 7.412 0 0 0-4.47-1.483A7.458 7.458 0 0 0 8.862 13L4 8.17A14.102 14.102 0 0 1 15.67 2c3.296 0 6.505 1.16 9.034 3.266a.823.823 0 0 1 .053 1.213L21.222 9.99a.831.831 0 0 1-1.082.076zm9.61 3.581c.166.832.25 1.688.25 2.543 0 3.859-1.7 7.337-4.41 9.809l-4.71-4.51a7.187 7.187 0 0 0 1.674-2.107h-6.72c-.461 0-.834-.357-.834-.798v-4.787c0-.441.373-.798.833-.798h13.098c.4 0 .744.272.82.648zM15.614 30c3.147 0 6.044-1.053 8.386-2.808l-4.747-4.739a7.408 7.408 0 0 1-3.64.963c-3.023 0-5.62-1.82-6.774-4.416L4 23.83C6.521 27.55 10.786 30 15.614 30zm-6.74-14.5c0 .415.06.816.126 1.213L3.608 22A13.993 13.993 0 0 1 2 15.5c0-2.341.587-4.546 1.608-6.5L9 14.287a7.381 7.381 0 0 0-.125 1.213z" fill="#202021"/>
</svg>
