<svg width="182" height="49" viewBox="0 0 182 49" fill="none" xmlns="http://www.w3.org/2000/svg">
<path d="M76.3984 29.2571C76.3984 18.3736 84.0137 10.1555 95.697 10.1555C107.309 10.1555 114.924 18.3736 114.924 29.2571C114.924 40.1407 107.309 48.3587 95.697 48.3587C84.0137 48.3587 76.3984 40.1407 76.3984 29.2571ZM108.048 29.2571C108.048 22.2968 103.166 16.5227 95.697 16.5227C88.1567 16.5227 83.275 22.2968 83.275 29.2571C83.275 36.2174 88.1567 41.9915 95.697 41.9915C103.166 41.9915 108.048 36.2174 108.048 29.2571Z" fill="#202021"/>
<path d="M148.926 13.0354L145.714 18.8095C143.81 17.5459 141.575 16.8757 139.291 16.8836C132.807 16.8836 128.536 21.8466 128.536 29.3893V47.4833H121.688V10.8129H127.793L127.868 16.9586C130.844 12.3672 134.648 10.1448 139.694 10.1448C143.281 10.1448 146.714 11.256 148.926 13.0354Z" fill="#202021"/>
<path d="M148.676 29.2571C148.676 17.9305 156.587 10.1555 167.899 10.1555C173.152 10.1555 177.659 12.0064 181.581 15.7831L177.299 20.3709C176.085 19.1337 174.634 18.155 173.033 17.4937C171.432 16.8324 169.713 16.5021 167.982 16.5227C160.809 16.5227 155.559 21.6322 155.559 29.2571C155.559 36.882 160.734 41.9915 167.982 41.9915C169.79 42.0132 171.583 41.6629 173.25 40.9622C174.917 40.2615 176.423 39.2255 177.674 37.9182L181.956 42.6597C177.963 46.5901 173.527 48.3766 167.982 48.3766C156.512 48.3587 148.676 40.7338 148.676 29.2571Z" fill="#202021"/>
<path d="M63.9415 17.6911H72.3168C72.4575 17.6872 72.5923 17.6334 72.6969 17.5391C72.8015 17.4448 72.8692 17.3163 72.8878 17.1766L73.523 11.3239C73.5312 11.2591 73.5254 11.1933 73.5059 11.1309C73.4864 11.0686 73.4536 11.0112 73.4099 10.9627C73.3662 10.9141 73.3125 10.8756 73.2526 10.8498C73.1927 10.824 73.1279 10.8114 73.0626 10.813H62.928V0.640443C62.9296 0.575247 62.9171 0.510475 62.8913 0.450608C62.8654 0.39074 62.8269 0.337204 62.7784 0.293708C62.7299 0.250212 62.6725 0.217795 62.6102 0.198695C62.5479 0.179595 62.4822 0.174272 62.4177 0.183091L56.5689 0.819096C56.43 0.838499 56.3025 0.9066 56.2091 1.01128C56.1156 1.11596 56.0623 1.25044 56.0586 1.39079V17.1944C56.0595 17.3306 56.114 17.4609 56.2101 17.5572C56.3063 17.6535 56.4365 17.708 56.5725 17.709H63.9415V17.6911Z" fill="#202021"/>
<path d="M73.5265 40.6802C71.951 41.3881 70.2558 41.7906 68.5306 41.8665C64.4982 41.8665 62.9316 39.4975 62.9316 35.4349V19.9814H56.0586V35.4242C56.0586 43.6423 59.9412 48.0872 67.7063 48.0872C70.4164 48.1024 73.0966 47.5205 75.557 46.3828L73.5265 40.6802Z" fill="#202021"/>
<path d="M15.9872 29.3495L15.1165 29.8998L10.7201 32.6224L9.84579 33.162L4.45374 36.4992C4.33922 36.5735 4.25642 36.6879 4.22146 36.82C4.1865 36.9521 4.20188 37.0925 4.26461 37.2138L6.31294 40.9763C6.34392 41.0349 6.38672 41.0864 6.43863 41.1276C6.49055 41.1688 6.55045 41.1988 6.61453 41.2156C6.67861 41.2323 6.74547 41.2356 6.81089 41.2252C6.8763 41.2148 6.93884 41.1908 6.99453 41.1549L13.5927 37.0102C13.7248 36.9346 13.8742 36.8949 14.0263 36.8949C14.1784 36.8949 14.3278 36.9346 14.4599 37.0102L17.0007 38.4394C17.1336 38.512 17.2454 38.6181 17.3248 38.7472C17.4043 38.8763 17.4488 39.0239 17.4539 39.1754L17.2719 46.9183C17.27 47.0548 17.3216 47.1867 17.4156 47.2855C17.5097 47.3844 17.6388 47.4424 17.7751 47.4471L21.754 47.54C21.89 47.5419 22.0213 47.4901 22.1195 47.3958C22.2177 47.3015 22.2748 47.1723 22.2785 47.0362L22.4356 40.3081L22.457 39.279L22.5533 35.1843V34.6519V34.1231L22.7496 25.5478C22.7496 25.2655 22.5676 25.1583 22.3285 25.3119L15.9872 29.3495Z" fill="url(#paint0_linear_6140_17272)"/>
<path d="M14.5698 19.4836L14.1048 19.2369L13.6399 18.9901L9.57006 16.8345L8.66878 16.3546L3.10758 13.4072C3.04765 13.3739 2.9817 13.353 2.91362 13.3457C2.84553 13.3384 2.77669 13.3449 2.71114 13.3648C2.6456 13.3847 2.58468 13.4176 2.53199 13.4616C2.47929 13.5055 2.43588 13.5596 2.40432 13.6207L0.561266 17.1237C0.527139 17.1838 0.505538 17.2502 0.497784 17.3189C0.490031 17.3876 0.496287 17.4571 0.516171 17.5233C0.536055 17.5895 0.569148 17.651 0.61343 17.7039C0.657712 17.7568 0.712253 17.8001 0.77372 17.8311L7.12896 21.2035C7.25706 21.2791 7.36193 21.3888 7.43202 21.5205C7.50211 21.6522 7.53469 21.8007 7.52617 21.9498C7.52617 21.9498 7.40987 23.0196 7.41244 23.8451C7.42728 24.5778 7.51307 25.494 7.51307 25.494C7.52147 25.6437 7.48953 25.7929 7.4206 25.9258C7.35168 26.0587 7.24835 26.1704 7.12151 26.2492L0.603439 29.8576C0.544966 29.8894 0.493426 29.9328 0.451854 29.985C0.410282 30.0372 0.379519 30.0972 0.361373 30.1616C0.343226 30.226 0.338063 30.2933 0.34619 30.3597C0.354316 30.4261 0.375568 30.4902 0.408693 30.5482L2.54316 34.2695C2.57728 34.3292 2.62276 34.3815 2.67701 34.4235C2.73126 34.4654 2.79321 34.4962 2.85931 34.514C2.92541 34.5319 2.99436 34.5364 3.0622 34.5274C3.13003 34.5184 3.19543 34.496 3.25464 34.4615L8.74971 31.3506L9.63818 30.8487L14.5981 28.0405C14.843 27.9038 15.2416 27.6716 15.4903 27.5491L22.0871 23.9854C22.3321 23.8524 22.3345 23.6246 22.0774 23.5053L14.5698 19.4836Z" fill="url(#paint1_linear_6140_17272)"/>
<path d="M40.5905 6.53882C40.5593 6.48049 40.5162 6.42929 40.4642 6.38846C40.4121 6.34762 40.3522 6.31805 40.2881 6.30159C40.224 6.28514 40.1573 6.28217 40.092 6.29287C40.0268 6.30356 39.9644 6.3277 39.909 6.36374L33.3072 10.5228C33.1751 10.5983 33.0257 10.638 32.8736 10.638C32.7215 10.638 32.5721 10.5983 32.44 10.5228L29.9135 9.11143C29.7805 9.0388 29.6688 8.9327 29.5893 8.80362C29.5099 8.67454 29.4654 8.52694 29.4603 8.37538L29.6423 0.621826C29.6437 0.552892 29.6314 0.484369 29.606 0.420268C29.5807 0.356168 29.5428 0.297784 29.4946 0.248534C29.4464 0.199283 29.3889 0.160156 29.3254 0.133452C29.2619 0.106747 29.1937 0.0929988 29.1248 0.0930136L25.1459 0.000115916C25.0102 -0.00276681 24.8789 0.0482148 24.7806 0.141935C24.6824 0.235655 24.6251 0.3645 24.6214 0.500343L24.4858 7.23199L24.4643 8.26104L24.3609 12.3486L24.3609 12.8774L24.3609 13.4063L24.1289 21.9959C24.1289 22.2782 24.3109 22.3854 24.55 22.2353L30.9198 18.1656L31.787 17.6189L36.1656 14.9105L37.0398 14.3674L42.4497 11.0194C42.5643 10.9451 42.6471 10.8308 42.682 10.6987C42.717 10.5666 42.7016 10.4262 42.6389 10.3048L40.5905 6.53882Z" fill="url(#paint2_linear_6140_17272)"/>
<path d="M6.28836 6.54981C6.31965 6.49148 6.36269 6.44028 6.41475 6.39944C6.4668 6.35861 6.52676 6.32903 6.59081 6.31258C6.65487 6.29613 6.72163 6.29315 6.78689 6.30385C6.85215 6.31455 6.91449 6.33868 6.96996 6.37473L13.5717 10.5338C13.7038 10.6093 13.8532 10.649 14.0053 10.649C14.1574 10.649 14.3068 10.6093 14.4389 10.5338L16.9654 9.12242C17.0984 9.04979 17.2101 8.94369 17.2896 8.81461C17.369 8.68553 17.4135 8.53792 17.4186 8.38637L17.2366 0.632812C17.2352 0.563878 17.2475 0.495355 17.2729 0.431255C17.2983 0.367154 17.3361 0.308771 17.3843 0.25952C17.4325 0.21027 17.4901 0.171142 17.5535 0.144438C17.617 0.117734 17.6852 0.103985 17.7541 0.104L21.733 0.0111023C21.8687 0.00821953 22 0.0592011 22.0983 0.152921C22.1965 0.246642 22.2538 0.375486 22.2575 0.511329L22.3931 7.24298L22.4146 8.27203L22.518 12.3596L22.518 12.8884L22.518 13.4172L22.75 22.0069C22.75 22.2892 22.568 22.3963 22.3289 22.2463L15.9591 18.1766L15.0919 17.6299L10.7133 14.9215L9.83906 14.3784L4.42916 11.0304C4.31464 10.9561 4.23184 10.8418 4.19688 10.7097C4.16192 10.5776 4.17731 10.4372 4.24003 10.3158L6.28836 6.54981Z" fill="url(#paint3_linear_6140_17272)"/>
<path d="M37.0521 33.1046L36.1778 32.5615L31.8028 29.8567C31.5637 29.7066 31.1712 29.4636 30.9356 29.31L24.5658 25.2438C24.3267 25.0902 24.1376 25.1974 24.1447 25.4797L24.341 34.055L24.341 34.5838L24.341 35.1162L24.4373 39.2074L24.4588 40.2364L24.6158 46.9681C24.6195 47.1042 24.6767 47.2334 24.7748 47.3277C24.873 47.422 25.0043 47.4738 25.1403 47.4719L29.1193 47.379C29.2556 47.3743 29.3846 47.3163 29.4787 47.2174C29.5728 47.1186 29.6244 46.9867 29.6224 46.8501L29.4404 39.0966C29.4455 38.945 29.49 38.7974 29.5695 38.6684C29.6489 38.5393 29.7607 38.4332 29.8936 38.3605L32.4201 36.9313C32.5524 36.8565 32.7018 36.8172 32.8537 36.8172C33.0057 36.8172 33.155 36.8565 33.2873 36.9313L39.8891 41.0939C39.9448 41.1299 40.0073 41.1538 40.0727 41.1642C40.1381 41.1747 40.205 41.1714 40.2691 41.1546C40.3332 41.1378 40.3931 41.1078 40.445 41.0667C40.4969 41.0255 40.5397 40.9739 40.5707 40.9153L42.6297 37.1493C42.6924 37.0279 42.7078 36.8875 42.6729 36.7554C42.6379 36.6233 42.5551 36.509 42.4406 36.4347L37.0521 33.1046Z" fill="url(#paint4_linear_6140_17272)"/>
<path d="M22.5605 13.4244V12.8956V12.3668L22.4641 8.26845L22.4427 7.23941L22.2857 0.511329C22.2819 0.375486 22.2247 0.246642 22.1264 0.152921C22.0281 0.0592011 21.8968 0.00821953 21.7611 0.0111023L17.7822 0.104C17.6462 0.107744 17.5172 0.164958 17.423 0.26326C17.3288 0.361562 17.2771 0.493042 17.279 0.629241L17.461 8.3685C17.4543 8.52007 17.4083 8.66727 17.3276 8.79568C17.2469 8.92409 17.1342 9.02929 17.0007 9.10097L14.4563 10.5123C14.3243 10.5879 14.1748 10.6276 14.0228 10.6276C13.8707 10.6276 13.7212 10.5879 13.5892 10.5123L7.00524 6.36401C6.94977 6.32796 6.88743 6.30383 6.82217 6.29313C6.75691 6.28244 6.69014 6.28541 6.62609 6.30186C6.56204 6.31832 6.50209 6.34789 6.45003 6.38872C6.39797 6.42956 6.35494 6.48075 6.32365 6.53909L4.26461 10.3051C4.20188 10.4265 4.1865 10.5669 4.22146 10.6989C4.25642 10.831 4.33922 10.9454 4.45374 11.0197L9.84222 14.357L10.7165 14.8965L15.1165 17.6192L15.9872 18.1658L22.3535 22.2463C22.5926 22.3963 22.7817 22.2892 22.7746 22.0069L22.5605 13.4244Z" fill="url(#paint5_linear_6140_17272)"/>
<path d="M46.2952 29.8404C46.3537 29.8728 46.4053 29.9165 46.4469 29.9689C46.4885 30.0214 46.5193 30.0816 46.5375 30.146C46.5558 30.2105 46.5611 30.2779 46.5532 30.3444C46.5453 30.4109 46.5243 30.4752 46.4914 30.5336L44.3503 34.2781C44.2815 34.3987 44.1678 34.4871 44.034 34.5239C43.9002 34.5608 43.7574 34.543 43.6366 34.4746L38.1054 31.3732L37.2097 30.873L32.1816 28.0646L31.2788 27.5751L24.6092 24.0199C24.3594 23.8877 24.3594 23.6626 24.6092 23.5375L32.1745 19.4856L32.642 19.2355L33.1095 18.9854L37.2204 16.7987L38.1268 16.3128L43.733 13.34C43.7936 13.3058 43.8605 13.2843 43.9296 13.2766C43.9987 13.2689 44.0687 13.2753 44.1353 13.2953C44.202 13.3153 44.2639 13.3486 44.3174 13.3931C44.3709 13.4376 44.4148 13.4924 44.4467 13.5544L46.3202 17.0667C46.3521 17.1263 46.3719 17.1916 46.3786 17.2588C46.3853 17.3261 46.3786 17.394 46.3591 17.4587C46.3395 17.5234 46.3074 17.5837 46.2646 17.6359C46.2218 17.6882 46.1692 17.7315 46.1096 17.7634L39.7219 21.165C39.5931 21.2421 39.488 21.3533 39.4182 21.4863C39.3483 21.6192 39.3164 21.7689 39.3258 21.9189C39.3258 21.9189 39.4507 22.9908 39.4507 23.8269C39.4507 24.5665 39.3544 25.492 39.3544 25.492C39.347 25.6421 39.3798 25.7915 39.4494 25.9247C39.5191 26.0579 39.623 26.17 39.7505 26.2495L46.2952 29.8404Z" fill="url(#paint6_linear_6140_17272)"/>
<g opacity="0.15">
<path opacity="0.15" d="M40.5905 6.53882C40.5593 6.48049 40.5162 6.42929 40.4642 6.38846C40.4121 6.34762 40.3522 6.31805 40.2881 6.30159C40.224 6.28514 40.1573 6.28217 40.092 6.29287C40.0268 6.30356 39.9644 6.3277 39.909 6.36374L33.3072 10.5228C33.1751 10.5983 33.0257 10.638 32.8736 10.638C32.7215 10.638 32.5721 10.5983 32.44 10.5228L29.9135 9.11143C29.7805 9.0388 29.6688 8.9327 29.5893 8.80362C29.5099 8.67454 29.4654 8.52694 29.4603 8.37538L29.6423 0.621826C29.6437 0.552892 29.6314 0.484369 29.606 0.420268C29.5807 0.356168 29.5428 0.297784 29.4946 0.248534C29.4464 0.199283 29.3889 0.160156 29.3254 0.133452C29.2619 0.106747 29.1937 0.0929988 29.1248 0.0930136L25.1459 0.000115916C25.0102 -0.00276681 24.8789 0.0482148 24.7806 0.141935C24.6824 0.235655 24.6251 0.3645 24.6214 0.500343L24.4858 7.23199L24.4643 8.26104L24.3609 12.3486L24.3609 12.8774L24.3609 13.4063L24.1289 21.9959C24.1289 22.2782 24.3109 22.3854 24.55 22.2353L30.9198 18.1656L31.787 17.6189L36.1656 14.9105L37.0398 14.3674L42.4497 11.0194C42.5643 10.9451 42.6471 10.8308 42.682 10.6987C42.717 10.5666 42.7016 10.4262 42.6389 10.3048L40.5905 6.53882Z" fill="#4C4C4C"/>
</g>
<g opacity="0.15">
<path opacity="0.15" d="M37.0482 33.1046L36.1739 32.5615L31.7989 29.8567C31.5598 29.7066 31.1673 29.4636 30.9317 29.31L24.5619 25.2438C24.3228 25.0902 24.1337 25.1974 24.1408 25.4797L24.3371 34.055L24.3371 34.5838L24.3371 35.1162L24.4334 39.2074L24.4549 40.2364L24.6119 46.9681C24.6156 47.1042 24.6728 47.2334 24.7709 47.3277C24.8691 47.422 25.0004 47.4738 25.1364 47.4719L29.1154 47.379C29.2517 47.3743 29.3807 47.3163 29.4748 47.2174C29.5689 47.1186 29.6205 46.9867 29.6185 46.8501L29.4365 39.0966C29.4416 38.945 29.4861 38.7974 29.5656 38.6684C29.645 38.5393 29.7568 38.4332 29.8897 38.3605L32.4162 36.9313C32.5485 36.8565 32.6979 36.8172 32.8498 36.8172C33.0018 36.8172 33.1511 36.8565 33.2834 36.9313L39.8852 41.0939C39.9409 41.1299 40.0034 41.1538 40.0688 41.1642C40.1342 41.1747 40.2011 41.1714 40.2652 41.1546C40.3293 41.1378 40.3892 41.1078 40.4411 41.0667C40.493 41.0255 40.5358 40.9739 40.5668 40.9153L42.6258 37.1493C42.6885 37.0279 42.7039 36.8875 42.669 36.7554C42.634 36.6233 42.5512 36.509 42.4367 36.4347L37.0482 33.1046Z" fill="#4C4C4C"/>
</g>
<path d="M46.2952 29.8404C46.3537 29.8728 46.4053 29.9165 46.4469 29.9689C46.4885 30.0214 46.5193 30.0816 46.5375 30.146C46.5558 30.2105 46.5611 30.2779 46.5532 30.3444C46.5453 30.4109 46.5243 30.4752 46.4914 30.5336L44.3503 34.2781C44.2815 34.3987 44.1678 34.4871 44.034 34.5239C43.9002 34.5608 43.7574 34.543 43.6366 34.4746L38.1054 31.3732L37.2097 30.873L32.1816 28.0646L31.2788 27.5751L24.6092 24.0199C24.3594 23.8877 24.3594 23.6626 24.6092 23.5375L32.1745 19.4856L32.642 19.2355L33.1095 18.9854L37.2204 16.7987L38.1268 16.3128L43.733 13.34C43.7936 13.3058 43.8605 13.2843 43.9296 13.2766C43.9987 13.2689 44.0687 13.2753 44.1353 13.2953C44.202 13.3153 44.2639 13.3486 44.3174 13.3931C44.3709 13.4376 44.4148 13.4924 44.4467 13.5544L46.3202 17.0667C46.3521 17.1263 46.3719 17.1916 46.3786 17.2588C46.3853 17.3261 46.3786 17.394 46.3591 17.4587C46.3395 17.5234 46.3074 17.5837 46.2646 17.6359C46.2218 17.6882 46.1692 17.7315 46.1096 17.7634L39.7219 21.165C39.5931 21.2421 39.488 21.3533 39.4182 21.4863C39.3483 21.6192 39.3164 21.7689 39.3258 21.9189C39.3258 21.9189 39.4507 22.9908 39.4507 23.8269C39.4507 24.5665 39.3544 25.492 39.3544 25.492C39.347 25.6421 39.3798 25.7915 39.4494 25.9247C39.5191 26.0579 39.623 26.17 39.7505 26.2495L46.2952 29.8404Z" fill="url(#paint7_linear_6140_17272)"/>
<g opacity="0.15">
<path opacity="0.15" d="M40.5905 6.53882C40.5593 6.48049 40.5162 6.42929 40.4642 6.38846C40.4121 6.34762 40.3522 6.31805 40.2881 6.30159C40.224 6.28514 40.1573 6.28217 40.092 6.29287C40.0268 6.30356 39.9644 6.3277 39.909 6.36374L33.3072 10.5228C33.1751 10.5983 33.0257 10.638 32.8736 10.638C32.7215 10.638 32.5721 10.5983 32.44 10.5228L29.9135 9.11143C29.7805 9.0388 29.6688 8.9327 29.5893 8.80362C29.5099 8.67454 29.4654 8.52694 29.4603 8.37538L29.6423 0.621826C29.6437 0.552892 29.6314 0.484369 29.606 0.420268C29.5807 0.356168 29.5428 0.297784 29.4946 0.248534C29.4464 0.199283 29.3889 0.160156 29.3254 0.133452C29.2619 0.106747 29.1937 0.0929988 29.1248 0.0930136L25.1459 0.000115916C25.0102 -0.00276681 24.8789 0.0482148 24.7806 0.141935C24.6824 0.235655 24.6251 0.3645 24.6214 0.500343L24.4858 7.23199L24.4643 8.26104L24.3609 12.3486L24.3609 12.8774L24.3609 13.4063L24.1289 21.9959C24.1289 22.2782 24.3109 22.3854 24.55 22.2353L30.9198 18.1656L31.787 17.6189L36.1656 14.9105L37.0398 14.3674L42.4497 11.0194C42.5643 10.9451 42.6471 10.8308 42.682 10.6987C42.717 10.5666 42.7016 10.4262 42.6389 10.3048L40.5905 6.53882Z" fill="#4C4C4C"/>
</g>
<g opacity="0.15">
<path opacity="0.15" d="M37.0482 33.1046L36.1739 32.5615L31.7989 29.8567C31.5598 29.7066 31.1673 29.4636 30.9317 29.31L24.5619 25.2438C24.3228 25.0902 24.1337 25.1974 24.1408 25.4797L24.3371 34.055L24.3371 34.5838L24.3371 35.1162L24.4334 39.2074L24.4549 40.2364L24.6119 46.9681C24.6156 47.1042 24.6728 47.2334 24.7709 47.3277C24.8691 47.422 25.0004 47.4738 25.1364 47.4719L29.1154 47.379C29.2517 47.3743 29.3807 47.3163 29.4748 47.2174C29.5689 47.1186 29.6205 46.9867 29.6185 46.8501L29.4365 39.0966C29.4416 38.945 29.4861 38.7974 29.5656 38.6684C29.645 38.5393 29.7568 38.4332 29.8897 38.3605L32.4162 36.9313C32.5485 36.8565 32.6979 36.8172 32.8498 36.8172C33.0018 36.8172 33.1511 36.8565 33.2834 36.9313L39.8852 41.0939C39.9409 41.1299 40.0034 41.1538 40.0688 41.1642C40.1342 41.1747 40.2011 41.1714 40.2652 41.1546C40.3293 41.1378 40.3892 41.1078 40.4411 41.0667C40.493 41.0255 40.5358 40.9739 40.5668 40.9153L42.6258 37.1493C42.6885 37.0279 42.7039 36.8875 42.669 36.7554C42.634 36.6233 42.5512 36.509 42.4367 36.4347L37.0482 33.1046Z" fill="#4C4C4C"/>
</g>
<defs>
<linearGradient id="paint0_linear_6140_17272" x1="20.9368" y1="28.4991" x2="11.2726" y2="45.382" gradientUnits="userSpaceOnUse">
<stop offset="0.09" stop-color="#009444"/>
<stop offset="0.11" stop-color="#08994A"/>
<stop offset="0.18" stop-color="#20A75A"/>
<stop offset="0.25" stop-color="#32B268"/>
<stop offset="0.34" stop-color="#3FB971"/>
<stop offset="0.46" stop-color="#47BE76"/>
<stop offset="0.7" stop-color="#49BF78"/>
</linearGradient>
<linearGradient id="paint1_linear_6140_17272" x1="1.6331" y1="24.006" x2="20.1221" y2="22.9553" gradientUnits="userSpaceOnUse">
<stop offset="0.61" stop-color="#EFC739"/>
<stop offset="0.68" stop-color="#EFB43B"/>
<stop offset="0.79" stop-color="#EEA13D"/>
<stop offset="0.89" stop-color="#EE963E"/>
<stop offset="1" stop-color="#EE923E"/>
</linearGradient>
<linearGradient id="paint2_linear_6140_17272" x1="34.8559" y1="3.15156" x2="26.2096" y2="20.6115" gradientUnits="userSpaceOnUse">
<stop offset="0.58" stop-color="#CC4040"/>
<stop offset="0.71" stop-color="#B83A3A"/>
<stop offset="0.88" stop-color="#A53434"/>
<stop offset="1" stop-color="#9E3232"/>
</linearGradient>
<linearGradient id="paint3_linear_6140_17272" x1="12.023" y1="3.16255" x2="20.6693" y2="20.6225" gradientUnits="userSpaceOnUse">
<stop offset="0.58" stop-color="#CC4040"/>
<stop offset="0.71" stop-color="#B83A3A"/>
<stop offset="0.88" stop-color="#A53434"/>
<stop offset="1" stop-color="#9E3232"/>
</linearGradient>
<linearGradient id="paint4_linear_6140_17272" x1="26.6142" y1="28.7168" x2="35.8105" y2="45.8793" gradientUnits="userSpaceOnUse">
<stop stop-color="#2B77AA"/>
<stop offset="0.31" stop-color="#0495B7"/>
</linearGradient>
<linearGradient id="paint5_linear_6140_17272" x1="12.0226" y1="3.19113" x2="20.8725" y2="20.5436" gradientUnits="userSpaceOnUse">
<stop offset="0.63" stop-color="#EE923E"/>
<stop offset="1" stop-color="#CC4040"/>
</linearGradient>
<linearGradient id="paint6_linear_6140_17272" x1="28.5774" y1="23.609" x2="47.198" y2="23.9725" gradientUnits="userSpaceOnUse">
<stop stop-color="#662D91"/>
<stop offset="0.17" stop-color="#6B25B8"/>
<stop offset="0.31" stop-color="#6F21CF"/>
<stop offset="0.39" stop-color="#701FD8"/>
</linearGradient>
<linearGradient id="paint7_linear_6140_17272" x1="28.5774" y1="23.609" x2="47.198" y2="23.9725" gradientUnits="userSpaceOnUse">
<stop stop-color="#662D91"/>
<stop offset="0.17" stop-color="#6B25B8"/>
<stop offset="0.31" stop-color="#6F21CF"/>
<stop offset="0.39" stop-color="#701FD8"/>
</linearGradient>
</defs>
</svg>
