<svg width="860" height="704" viewBox="0 0 860 704" fill="none" xmlns="http://www.w3.org/2000/svg">
<g opacity="0.1">
<path d="M564.526 283.945L556.111 289.263L513.619 315.578L505.169 320.793L453.055 353.047C451.948 353.766 451.148 354.871 450.81 356.147C450.472 357.424 450.621 358.781 451.227 359.954L471.024 396.318C471.324 396.884 471.737 397.383 472.239 397.781C472.741 398.179 473.32 398.468 473.939 398.631C474.558 398.793 475.205 398.825 475.837 398.724C476.469 398.623 477.074 398.392 477.612 398.045L541.384 357.985C542.66 357.256 544.104 356.872 545.574 356.872C547.044 356.872 548.488 357.256 549.765 357.985L574.321 371.799C575.606 372.501 576.686 373.526 577.454 374.774C578.223 376.021 578.653 377.448 578.702 378.913L576.943 453.747C576.924 455.067 577.423 456.342 578.332 457.297C579.241 458.253 580.488 458.813 581.806 458.858L620.262 459.756C621.577 459.775 622.846 459.274 623.795 458.363C624.744 457.452 625.296 456.203 625.332 454.887L626.85 389.86L627.057 379.914L627.988 340.339V335.193V330.082L629.885 247.201C629.885 244.473 628.126 243.437 625.815 244.922L564.526 283.945Z" fill="url(#paint0_linear_962_16965)"/>
<path d="M550.817 188.577L546.323 186.192L541.83 183.807L502.495 162.973L493.784 158.335L440.035 129.849C439.456 129.526 438.818 129.324 438.16 129.254C437.502 129.183 436.837 129.246 436.203 129.438C435.57 129.631 434.981 129.949 434.472 130.374C433.962 130.798 433.543 131.322 433.238 131.912L415.425 165.769C415.095 166.349 414.886 166.99 414.811 167.654C414.736 168.318 414.797 168.991 414.989 169.631C415.181 170.27 415.501 170.864 415.929 171.376C416.357 171.887 416.884 172.305 417.478 172.605L478.901 205.2C480.14 205.93 481.153 206.99 481.831 208.263C482.508 209.536 482.823 210.972 482.741 212.413C482.741 212.413 481.616 222.752 481.641 230.73C481.785 237.812 482.614 246.667 482.614 246.667C482.695 248.114 482.386 249.556 481.72 250.841C481.054 252.125 480.055 253.205 478.829 253.966L415.832 288.841C415.267 289.149 414.769 289.568 414.367 290.072C413.965 290.577 413.668 291.158 413.493 291.78C413.317 292.402 413.267 293.053 413.346 293.694C413.424 294.336 413.63 294.956 413.95 295.516L434.58 331.483C434.909 332.059 435.349 332.565 435.873 332.971C436.398 333.376 436.996 333.674 437.635 333.846C438.274 334.018 438.94 334.062 439.596 333.975C440.252 333.888 440.884 333.671 441.456 333.338L494.566 303.272L503.153 298.421L551.091 271.279C553.457 269.958 557.31 267.714 559.714 266.53L623.472 232.087C625.84 230.801 625.863 228.599 623.378 227.446L550.817 188.577Z" fill="url(#paint1_linear_962_16965)"/>
<path d="M802.327 63.4752C802.024 62.9114 801.608 62.4165 801.105 62.0219C800.602 61.6272 800.022 61.3414 799.403 61.1823C798.784 61.0233 798.139 60.9946 797.508 61.098C796.878 61.2014 796.275 61.4346 795.739 61.783L731.933 101.98C730.656 102.71 729.212 103.094 727.742 103.094C726.272 103.094 724.828 102.71 723.552 101.98L699.133 88.3394C697.848 87.6375 696.768 86.612 696 85.3645C695.232 84.1169 694.802 82.6903 694.753 81.2255L696.511 6.2873C696.525 5.62105 696.406 4.95877 696.161 4.33924C695.916 3.71971 695.55 3.15543 695.084 2.67942C694.618 2.20342 694.062 1.82525 693.448 1.56715C692.835 1.30906 692.176 1.17618 691.51 1.17632L653.054 0.278464C651.743 0.250603 650.474 0.74334 649.524 1.64915C648.574 2.55495 648.02 3.80024 647.984 5.11316L646.674 70.1747L646.467 80.1204L645.466 119.627L645.466 124.738L645.466 129.849L643.225 212.868C643.225 215.596 644.984 216.632 647.294 215.182L708.859 175.848L717.24 170.564L759.559 144.388L768.009 139.138L820.296 106.78C821.403 106.062 822.203 104.957 822.541 103.68C822.879 102.404 822.73 101.047 822.124 99.8737L802.327 63.4752Z" fill="url(#paint2_linear_962_16965)"/>
<path d="M470.779 63.5738C471.081 63.01 471.497 62.5151 472 62.1205C472.504 61.7258 473.083 61.44 473.702 61.281C474.321 61.1219 474.966 61.0932 475.597 61.1966C476.228 61.3 476.83 61.5332 477.367 61.8816L541.173 102.079C542.449 102.809 543.894 103.193 545.363 103.193C546.833 103.193 548.278 102.809 549.554 102.079L573.973 88.4381C575.258 87.7361 576.338 86.7107 577.106 85.4631C577.874 84.2155 578.304 82.7889 578.353 81.3241L576.594 6.38593C576.58 5.71968 576.699 5.05741 576.945 4.43788C577.19 3.81834 577.556 3.25407 578.022 2.77806C578.487 2.30205 579.043 1.92389 579.657 1.66579C580.271 1.40769 580.929 1.27481 581.595 1.27495L620.051 0.377097C621.363 0.349235 622.632 0.841973 623.582 1.74778C624.532 2.65359 625.085 3.89887 625.121 5.2118L626.432 70.2733L626.639 80.219L627.639 119.726L627.639 124.837L627.639 129.948L629.881 212.967C629.881 215.695 628.122 216.731 625.811 215.28L564.247 175.946L555.866 170.663L513.546 144.486L505.096 139.237L452.81 106.879C451.703 106.161 450.903 105.055 450.565 103.779C450.227 102.502 450.376 101.145 450.982 99.9723L470.779 63.5738Z" fill="url(#paint3_linear_962_16965)"/>
<path d="M768.107 320.23L759.657 314.981L717.373 288.839C715.062 287.389 711.268 285.04 708.992 283.555L647.427 244.256C645.116 242.771 643.288 243.807 643.357 246.535L645.254 329.416L645.254 334.527L645.254 339.673L646.186 379.214L646.392 389.16L647.91 454.221C647.946 455.537 648.498 456.786 649.447 457.697C650.396 458.608 651.665 459.109 652.98 459.09L691.436 458.192C692.754 458.147 694.001 457.587 694.91 456.631C695.819 455.676 696.318 454.401 696.299 453.081L694.54 378.143C694.59 376.678 695.019 375.252 695.788 374.004C696.556 372.757 697.636 371.731 698.921 371.029L723.339 357.216C724.618 356.493 726.061 356.112 727.53 356.112C728.998 356.112 730.442 356.493 731.72 357.216L795.527 397.448C796.065 397.795 796.669 398.026 797.302 398.127C797.934 398.228 798.58 398.196 799.2 398.034C799.819 397.871 800.398 397.582 800.9 397.184C801.401 396.786 801.815 396.288 802.114 395.721L822.015 359.322C822.621 358.149 822.77 356.793 822.432 355.516C822.094 354.239 821.294 353.134 820.187 352.416L768.107 320.23Z" fill="url(#paint4_linear_962_16965)"/>
<path d="M628.057 130.017V124.906V119.795L627.126 80.1845L626.919 70.2388L625.401 5.2118C625.365 3.89887 624.811 2.65359 623.862 1.74778C622.912 0.841973 621.642 0.349235 620.331 0.377097L581.875 1.27495C580.56 1.31114 579.313 1.86412 578.403 2.81421C577.493 3.76429 576.993 5.03506 577.012 6.35142L578.771 81.1515C578.705 82.6163 578.261 84.0391 577.481 85.2802C576.701 86.5212 575.612 87.538 574.321 88.2308L549.73 101.872C548.454 102.602 547.009 102.985 545.54 102.985C544.07 102.985 542.625 102.602 541.349 101.872L477.715 61.778C477.179 61.4297 476.577 61.1964 475.946 61.093C475.315 60.9896 474.67 61.0184 474.051 61.1774C473.432 61.3364 472.852 61.6223 472.349 62.0169C471.846 62.4115 471.43 62.9064 471.128 63.4702L451.227 99.8687C450.621 101.042 450.472 102.399 450.81 103.675C451.148 104.952 451.948 106.057 453.055 106.775L505.135 139.03L513.585 144.245L556.111 170.559L564.526 175.843L626.056 215.28C628.367 216.731 630.195 215.695 630.126 212.967L628.057 130.017Z" fill="url(#paint5_linear_962_16965)"/>
<path d="M857.47 288.681C858.036 288.994 858.534 289.416 858.936 289.923C859.338 290.43 859.636 291.012 859.813 291.635C859.989 292.258 860.04 292.909 859.964 293.552C859.887 294.195 859.685 294.816 859.367 295.38L838.673 331.572C838.008 332.737 836.909 333.591 835.616 333.947C834.323 334.303 832.942 334.132 831.775 333.471L778.316 303.496L769.659 298.661L721.063 271.518L712.337 266.786L647.875 232.425C645.461 231.148 645.461 228.972 647.875 227.763L720.994 188.602L725.512 186.185L730.03 183.767L769.762 162.633L778.523 157.936L832.706 129.204C833.292 128.874 833.939 128.666 834.607 128.592C835.275 128.517 835.951 128.579 836.595 128.772C837.239 128.966 837.838 129.287 838.355 129.717C838.872 130.147 839.297 130.678 839.604 131.276L857.712 165.223C858.02 165.799 858.212 166.43 858.276 167.08C858.341 167.73 858.277 168.387 858.088 169.012C857.899 169.637 857.589 170.219 857.175 170.725C856.761 171.23 856.252 171.649 855.677 171.957L793.94 204.833C792.695 205.578 791.679 206.653 791.004 207.938C790.329 209.223 790.02 210.67 790.111 212.119C790.111 212.119 791.319 222.48 791.319 230.561C791.319 237.709 790.387 246.653 790.387 246.653C790.316 248.104 790.633 249.548 791.306 250.836C791.979 252.123 792.984 253.207 794.216 253.974L857.47 288.681Z" fill="url(#paint6_linear_962_16965)"/>
<g opacity="0.15">
<path opacity="0.15" d="M802.36 63.4752C802.057 62.9114 801.641 62.4165 801.138 62.0219C800.635 61.6272 800.056 61.3414 799.437 61.1823C798.818 61.0233 798.172 60.9946 797.541 61.098C796.911 61.2014 796.308 61.4346 795.772 61.783L731.966 101.98C730.69 102.71 729.245 103.094 727.775 103.094C726.306 103.094 724.861 102.71 723.585 101.98L699.166 88.3394C697.881 87.6375 696.801 86.612 696.033 85.3645C695.265 84.1169 694.835 82.6903 694.786 81.2255L696.545 6.2873C696.558 5.62105 696.439 4.95877 696.194 4.33924C695.949 3.71971 695.583 3.15543 695.117 2.67942C694.651 2.20342 694.095 1.82525 693.482 1.56715C692.868 1.30906 692.209 1.17618 691.544 1.17632L653.087 0.278464C651.776 0.250603 650.507 0.74334 649.557 1.64915C648.607 2.55495 648.054 3.80024 648.017 5.11316L646.707 70.1747L646.5 80.1204L645.5 119.627L645.5 124.738L645.5 129.849L643.258 212.868C643.258 215.596 645.017 216.632 647.328 215.182L708.892 175.848L717.273 170.564L759.592 144.388L768.042 139.138L820.329 106.78C821.436 106.062 822.236 104.957 822.574 103.68C822.912 102.404 822.763 101.047 822.157 99.8737L802.36 63.4752Z" fill="#4C4C4C"/>
</g>
<g opacity="0.15">
<path opacity="0.15" d="M768.137 320.241L759.687 314.992L717.402 288.85C715.091 287.4 711.297 285.052 709.021 283.567L647.456 244.267C645.146 242.782 643.318 243.818 643.387 246.547L645.284 329.427L645.284 334.538L645.284 339.684L646.215 379.225L646.422 389.171L647.939 454.232C647.975 455.548 648.528 456.797 649.477 457.708C650.426 458.62 651.695 459.12 653.009 459.101L691.466 458.204C692.783 458.159 694.03 457.598 694.939 456.642C695.849 455.687 696.347 454.412 696.329 453.093L694.57 378.154C694.619 376.69 695.049 375.263 695.817 374.015C696.585 372.768 697.665 371.743 698.95 371.041L723.369 357.227C724.647 356.504 726.091 356.124 727.559 356.124C729.028 356.124 730.471 356.504 731.75 357.227L795.556 397.459C796.094 397.806 796.699 398.037 797.331 398.138C797.963 398.239 798.609 398.207 799.229 398.045C799.848 397.883 800.427 397.593 800.929 397.195C801.431 396.797 801.844 396.299 802.144 395.732L822.044 359.334C822.651 358.161 822.799 356.804 822.461 355.527C822.123 354.25 821.323 353.145 820.216 352.427L768.137 320.241Z" fill="#4C4C4C"/>
</g>
<path d="M857.47 288.681C858.036 288.994 858.534 289.416 858.936 289.923C859.338 290.43 859.636 291.012 859.813 291.635C859.989 292.258 860.04 292.909 859.964 293.552C859.887 294.195 859.685 294.816 859.367 295.38L838.673 331.572C838.008 332.737 836.909 333.591 835.616 333.947C834.323 334.303 832.942 334.132 831.775 333.471L778.316 303.496L769.659 298.661L721.063 271.518L712.337 266.786L647.875 232.425C645.461 231.148 645.461 228.972 647.875 227.763L720.994 188.602L725.512 186.185L730.03 183.767L769.762 162.633L778.523 157.936L832.706 129.204C833.292 128.874 833.939 128.666 834.607 128.592C835.275 128.517 835.951 128.579 836.595 128.772C837.239 128.966 837.838 129.287 838.355 129.717C838.872 130.147 839.297 130.678 839.604 131.276L857.712 165.223C858.02 165.799 858.212 166.43 858.276 167.08C858.341 167.73 858.277 168.387 858.088 169.012C857.899 169.637 857.589 170.219 857.175 170.725C856.761 171.23 856.252 171.649 855.677 171.957L793.94 204.833C792.695 205.578 791.679 206.653 791.004 207.938C790.329 209.223 790.02 210.67 790.111 212.12C790.111 212.12 791.319 222.48 791.319 230.561C791.319 237.709 790.387 246.653 790.387 246.653C790.316 248.104 790.633 249.548 791.306 250.836C791.979 252.123 792.984 253.207 794.216 253.974L857.47 288.681Z" fill="url(#paint7_linear_962_16965)"/>
<g opacity="0.15">
<path opacity="0.15" d="M802.36 63.4752C802.057 62.9114 801.641 62.4165 801.138 62.0219C800.635 61.6272 800.056 61.3414 799.437 61.1823C798.818 61.0233 798.172 60.9946 797.541 61.098C796.911 61.2014 796.308 61.4346 795.772 61.783L731.966 101.98C730.69 102.71 729.245 103.094 727.775 103.094C726.306 103.094 724.861 102.71 723.585 101.98L699.166 88.3394C697.881 87.6375 696.801 86.612 696.033 85.3645C695.265 84.1169 694.835 82.6903 694.786 81.2255L696.545 6.2873C696.558 5.62105 696.439 4.95877 696.194 4.33924C695.949 3.71971 695.583 3.15543 695.117 2.67942C694.651 2.20342 694.095 1.82525 693.482 1.56715C692.868 1.30906 692.209 1.17618 691.544 1.17632L653.087 0.278464C651.776 0.250603 650.507 0.74334 649.557 1.64915C648.607 2.55495 648.054 3.80024 648.017 5.11316L646.707 70.1747L646.5 80.1204L645.5 119.627L645.5 124.738L645.5 129.849L643.258 212.868C643.258 215.596 645.017 216.632 647.328 215.182L708.892 175.848L717.273 170.564L759.592 144.388L768.042 139.138L820.329 106.78C821.436 106.062 822.236 104.957 822.574 103.68C822.912 102.404 822.763 101.047 822.157 99.8737L802.36 63.4752Z" fill="#4C4C4C"/>
</g>
<g opacity="0.15">
<path opacity="0.15" d="M768.137 320.241L759.687 314.992L717.402 288.85C715.091 287.4 711.297 285.052 709.021 283.567L647.456 244.267C645.146 242.782 643.318 243.818 643.387 246.547L645.284 329.427L645.284 334.538L645.284 339.684L646.215 379.225L646.422 389.171L647.939 454.232C647.975 455.548 648.528 456.797 649.477 457.708C650.426 458.62 651.695 459.12 653.009 459.101L691.466 458.204C692.783 458.159 694.03 457.598 694.939 456.642C695.849 455.687 696.347 454.412 696.329 453.093L694.57 378.154C694.619 376.69 695.049 375.263 695.817 374.015C696.585 372.768 697.665 371.743 698.95 371.041L723.369 357.227C724.647 356.504 726.091 356.124 727.559 356.124C729.028 356.124 730.471 356.504 731.75 357.227L795.556 397.459C796.094 397.806 796.699 398.037 797.331 398.138C797.963 398.239 798.609 398.207 799.229 398.045C799.848 397.883 800.427 397.593 800.929 397.195C801.431 396.797 801.844 396.299 802.144 395.732L822.044 359.334C822.651 358.161 822.799 356.804 822.461 355.527C822.123 354.25 821.323 353.145 820.216 352.427L768.137 320.241Z" fill="#4C4C4C"/>
</g>
</g>
<g opacity="0.1">
<path d="M154.913 527.911L146.498 533.229L104.006 559.544L95.5559 564.758L43.4417 597.013C42.3349 597.731 41.5346 598.836 41.1968 600.113C40.8589 601.39 41.0075 602.747 41.6137 603.92L61.4109 640.284C61.7103 640.85 62.124 641.348 62.6258 641.747C63.1275 642.145 63.7064 642.434 64.3258 642.596C64.9451 642.759 65.5914 642.791 66.2236 642.69C66.8558 642.589 67.4603 642.357 67.9985 642.01L131.77 601.951C133.047 601.221 134.491 600.838 135.961 600.838C137.431 600.838 138.875 601.221 140.151 601.951L164.708 615.765C165.993 616.467 167.073 617.492 167.841 618.74C168.609 619.987 169.039 621.414 169.088 622.879L167.329 697.713C167.311 699.033 167.809 700.307 168.719 701.263C169.628 702.219 170.875 702.779 172.192 702.824L210.649 703.722C211.963 703.741 213.233 703.24 214.181 702.329C215.13 701.418 215.683 700.169 215.719 698.853L217.236 633.826L217.443 623.88L218.374 584.304V579.159V574.048L220.271 491.167C220.271 488.439 218.512 487.403 216.202 488.888L154.913 527.911Z" fill="url(#paint8_linear_962_16965)"/>
<path d="M141.204 432.543L136.71 430.158L132.217 427.773L92.8815 406.939L84.1706 402.3L30.4215 373.814C29.8423 373.492 29.2049 373.29 28.5469 373.22C27.8888 373.149 27.2234 373.212 26.5899 373.404C25.9564 373.597 25.3677 373.915 24.8584 374.339C24.3491 374.764 23.9295 375.287 23.6245 375.878L5.81136 409.734C5.48152 410.314 5.27275 410.956 5.19781 411.62C5.12287 412.284 5.18334 412.957 5.37552 413.596C5.56769 414.236 5.88754 414.83 6.31553 415.341C6.74351 415.853 7.27065 416.271 7.86473 416.571L69.2882 449.166C70.5263 449.896 71.5399 450.956 72.2173 452.229C72.8947 453.502 73.2096 454.938 73.1273 456.379C73.1273 456.379 72.0032 466.718 72.028 474.696C72.1715 481.778 73.0006 490.633 73.0006 490.633C73.0818 492.08 72.7731 493.522 72.107 494.806C71.4408 496.091 70.4421 497.171 69.2162 497.932L6.21897 532.807C5.65382 533.115 5.15569 533.534 4.7539 534.038C4.3521 534.543 4.05477 535.123 3.87939 535.745C3.704 536.367 3.6541 537.018 3.73264 537.66C3.81119 538.302 4.01659 538.921 4.33674 539.482L24.9664 575.449C25.2961 576.025 25.7357 576.531 26.2601 576.936C26.7844 577.342 27.3832 577.64 28.022 577.812C28.6609 577.984 29.3272 578.028 29.9829 577.941C30.6385 577.854 31.2706 577.637 31.8429 577.304L84.9528 547.237L93.5398 542.386L141.477 515.245C143.844 513.924 147.697 511.68 150.101 510.496L213.859 476.053C216.226 474.767 216.25 472.565 213.765 471.412L141.204 432.543Z" fill="url(#paint9_linear_962_16965)"/>
<path d="M392.713 307.441C392.411 306.877 391.995 306.382 391.492 305.988C390.989 305.593 390.409 305.307 389.79 305.148C389.171 304.989 388.526 304.96 387.895 305.064C387.264 305.167 386.662 305.4 386.126 305.749L322.319 345.946C321.043 346.676 319.599 347.06 318.129 347.06C316.659 347.06 315.215 346.676 313.938 345.946L289.519 332.305C288.235 331.603 287.155 330.578 286.386 329.33C285.618 328.083 285.188 326.656 285.139 325.191L286.898 250.253C286.912 249.587 286.793 248.925 286.548 248.305C286.303 247.686 285.936 247.121 285.471 246.645C285.005 246.169 284.449 245.791 283.835 245.533C283.222 245.275 282.563 245.142 281.897 245.142L243.441 244.244C242.13 244.216 240.86 244.709 239.91 245.615C238.961 246.521 238.407 247.766 238.371 249.079L237.06 314.14L236.853 324.086L235.853 363.593L235.853 368.704L235.853 373.815L233.611 456.834C233.611 459.562 235.37 460.598 237.681 459.148L299.246 419.814L307.627 414.53L349.946 388.353L358.396 383.104L410.682 350.746C411.789 350.028 412.59 348.923 412.927 347.646C413.265 346.369 413.117 345.012 412.51 343.839L392.713 307.441Z" fill="url(#paint10_linear_962_16965)"/>
<path d="M61.1656 307.54C61.4681 306.976 61.884 306.481 62.3871 306.086C62.8903 305.692 63.4697 305.406 64.0888 305.247C64.7079 305.088 65.3532 305.059 65.9839 305.162C66.6146 305.266 67.2171 305.499 67.7532 305.847L131.56 346.045C132.836 346.775 134.28 347.158 135.75 347.158C137.22 347.158 138.664 346.775 139.941 346.045L164.359 332.404C165.644 331.702 166.724 330.676 167.492 329.429C168.261 328.181 168.691 326.755 168.74 325.29L166.981 250.352C166.967 249.686 167.086 249.023 167.331 248.404C167.576 247.784 167.943 247.22 168.408 246.744C168.874 246.268 169.43 245.89 170.044 245.632C170.657 245.374 171.316 245.241 171.982 245.241L210.438 244.343C211.749 244.315 213.019 244.808 213.968 245.714C214.918 246.619 215.472 247.865 215.508 249.178L216.819 314.239L217.026 324.185L218.026 363.691L218.026 368.802L218.026 373.913L220.268 456.932C220.268 459.661 218.509 460.697 216.198 459.246L154.633 419.912L146.252 414.629L103.933 388.452L95.4831 383.203L43.1964 350.845C42.0896 350.126 41.2893 349.021 40.9515 347.745C40.6136 346.468 40.7622 345.111 41.3685 343.938L61.1656 307.54Z" fill="url(#paint11_linear_962_16965)"/>
<path d="M358.494 564.196L350.044 558.947L307.759 532.805C305.449 531.354 301.655 529.006 299.378 527.521L237.814 488.222C235.503 486.737 233.675 487.773 233.744 490.501L235.641 573.382L235.641 578.493L235.641 583.639L236.572 623.18L236.779 633.125L238.297 698.187C238.333 699.503 238.885 700.752 239.834 701.663C240.783 702.574 242.052 703.075 243.367 703.056L281.823 702.158C283.14 702.113 284.388 701.553 285.297 700.597C286.206 699.641 286.705 698.367 286.686 697.047L284.927 622.109C284.976 620.644 285.406 619.218 286.174 617.97C286.942 616.722 288.022 615.697 289.307 614.995L313.726 601.182C315.005 600.458 316.448 600.078 317.917 600.078C319.385 600.078 320.829 600.458 322.107 601.182L385.913 641.413C386.452 641.76 387.056 641.992 387.688 642.093C388.321 642.194 388.967 642.162 389.586 642C390.206 641.837 390.785 641.548 391.286 641.15C391.788 640.752 392.202 640.253 392.501 639.687L412.402 603.288C413.008 602.115 413.157 600.758 412.819 599.482C412.481 598.205 411.681 597.1 410.574 596.381L358.494 564.196Z" fill="url(#paint12_linear_962_16965)"/>
<path d="M218.443 373.982V368.871V363.76L217.512 324.15L217.305 314.205L215.788 249.178C215.752 247.865 215.198 246.619 214.248 245.714C213.298 244.808 212.029 244.315 210.718 244.343L172.262 245.241C170.947 245.277 169.7 245.83 168.79 246.78C167.88 247.73 167.38 249.001 167.398 250.317L169.157 325.117C169.092 326.582 168.648 328.005 167.868 329.246C167.088 330.487 165.999 331.504 164.708 332.197L140.117 345.838C138.841 346.567 137.396 346.951 135.926 346.951C134.457 346.951 133.012 346.567 131.736 345.838L68.102 305.744C67.5659 305.395 66.9634 305.162 66.3327 305.059C65.7019 304.955 65.0566 304.984 64.4375 305.143C63.8184 305.302 63.239 305.588 62.7359 305.983C62.2328 306.377 61.8168 306.872 61.5144 307.436L41.6137 343.835C41.0075 345.008 40.8589 346.364 41.1968 347.641C41.5346 348.918 42.3349 350.023 43.4417 350.741L95.5215 382.996L103.971 388.21L146.498 414.525L154.913 419.809L216.443 459.246C218.754 460.697 220.582 459.661 220.513 456.932L218.443 373.982Z" fill="url(#paint13_linear_962_16965)"/>
<path d="M447.857 532.647C448.423 532.96 448.921 533.382 449.323 533.889C449.725 534.396 450.023 534.978 450.199 535.601C450.376 536.224 450.427 536.875 450.351 537.518C450.274 538.161 450.071 538.782 449.754 539.346L429.06 575.537C428.395 576.703 427.295 577.557 426.003 577.913C424.71 578.269 423.329 578.098 422.162 577.437L368.703 547.462L360.046 542.627L311.449 515.483L302.724 510.752L238.262 476.391C235.848 475.113 235.848 472.938 238.262 471.729L311.38 432.568L315.899 430.151L320.417 427.733L360.149 406.599L368.91 401.902L423.093 373.17C423.679 372.84 424.326 372.632 424.994 372.557C425.662 372.483 426.338 372.545 426.982 372.738C427.626 372.931 428.224 373.253 428.741 373.683C429.258 374.113 429.683 374.643 429.991 375.242L448.098 409.189C448.407 409.764 448.599 410.396 448.663 411.046C448.728 411.696 448.664 412.352 448.475 412.978C448.286 413.603 447.975 414.185 447.562 414.69C447.148 415.196 446.639 415.614 446.063 415.923L384.327 448.799C383.082 449.544 382.066 450.618 381.391 451.904C380.715 453.189 380.407 454.636 380.498 456.085C380.498 456.085 381.705 466.445 381.705 474.526C381.705 481.675 380.774 490.619 380.774 490.619C380.702 492.07 381.02 493.514 381.693 494.802C382.366 496.089 383.37 497.172 384.602 497.94L447.857 532.647Z" fill="url(#paint14_linear_962_16965)"/>
<g opacity="0.15">
<path opacity="0.15" d="M392.746 307.441C392.444 306.877 392.028 306.382 391.525 305.988C391.022 305.593 390.442 305.307 389.823 305.148C389.204 304.989 388.559 304.96 387.928 305.064C387.297 305.167 386.695 305.4 386.159 305.749L322.353 345.946C321.076 346.676 319.632 347.06 318.162 347.06C316.692 347.06 315.248 346.676 313.971 345.946L289.553 332.305C288.268 331.603 287.188 330.578 286.42 329.33C285.652 328.083 285.222 326.656 285.172 325.191L286.931 250.253C286.945 249.587 286.826 248.925 286.581 248.305C286.336 247.686 285.97 247.121 285.504 246.645C285.038 246.169 284.482 245.791 283.868 245.533C283.255 245.275 282.596 245.142 281.93 245.142L243.474 244.244C242.163 244.216 240.894 244.709 239.944 245.615C238.994 246.521 238.44 247.766 238.404 249.079L237.094 314.14L236.887 324.086L235.886 363.593L235.886 368.704L235.886 373.815L233.645 456.834C233.645 459.562 235.403 460.598 237.714 459.148L299.279 419.814L307.66 414.53L349.979 388.353L358.429 383.104L410.716 350.746C411.822 350.028 412.623 348.923 412.961 347.646C413.299 346.369 413.15 345.012 412.544 343.839L392.746 307.441Z" fill="#4C4C4C"/>
</g>
<g opacity="0.15">
<path opacity="0.15" d="M358.523 564.207L350.073 558.958L307.789 532.816C305.478 531.366 301.684 529.017 299.408 527.532L237.843 488.233C235.532 486.748 233.704 487.784 233.773 490.512L235.67 573.393L235.67 578.504L235.67 583.65L236.602 623.191L236.809 633.137L238.326 698.198C238.362 699.514 238.914 700.763 239.863 701.674C240.812 702.585 242.081 703.086 243.396 703.067L281.852 702.169C283.17 702.124 284.417 701.564 285.326 700.608C286.235 699.653 286.734 698.378 286.715 697.058L284.956 622.12C285.006 620.656 285.435 619.229 286.204 617.981C286.972 616.734 288.052 615.708 289.337 615.006L313.755 601.193C315.034 600.47 316.477 600.09 317.946 600.09C319.414 600.09 320.858 600.47 322.136 601.193L385.943 641.425C386.481 641.772 387.085 642.003 387.718 642.104C388.35 642.205 388.996 642.173 389.616 642.011C390.235 641.848 390.814 641.559 391.316 641.161C391.817 640.763 392.231 640.265 392.53 639.698L412.431 603.299C413.037 602.126 413.186 600.77 412.848 599.493C412.51 598.216 411.71 597.111 410.603 596.393L358.523 564.207Z" fill="#4C4C4C"/>
</g>
<path d="M447.857 532.647C448.423 532.96 448.921 533.382 449.323 533.889C449.725 534.396 450.023 534.978 450.199 535.601C450.376 536.224 450.427 536.875 450.351 537.518C450.274 538.161 450.071 538.782 449.754 539.346L429.06 575.537C428.395 576.703 427.295 577.557 426.003 577.913C424.71 578.269 423.329 578.098 422.162 577.437L368.703 547.462L360.046 542.627L311.449 515.483L302.723 510.752L238.262 476.391C235.848 475.113 235.848 472.938 238.262 471.729L311.38 432.568L315.899 430.151L320.417 427.733L360.149 406.599L368.91 401.902L423.093 373.17C423.679 372.84 424.325 372.632 424.994 372.557C425.662 372.483 426.338 372.545 426.982 372.738C427.626 372.931 428.224 373.253 428.741 373.683C429.258 374.113 429.683 374.643 429.991 375.242L448.098 409.189C448.407 409.764 448.598 410.396 448.663 411.046C448.728 411.696 448.664 412.352 448.475 412.978C448.286 413.603 447.975 414.185 447.562 414.69C447.148 415.196 446.639 415.614 446.063 415.923L384.327 448.799C383.082 449.544 382.066 450.618 381.391 451.904C380.715 453.189 380.407 454.636 380.498 456.085C380.498 456.085 381.705 466.445 381.705 474.526C381.705 481.675 380.774 490.619 380.774 490.619C380.702 492.07 381.02 493.514 381.693 494.802C382.366 496.089 383.37 497.172 384.602 497.94L447.857 532.647Z" fill="url(#paint15_linear_962_16965)"/>
<g opacity="0.15">
<path opacity="0.15" d="M392.746 307.441C392.444 306.877 392.028 306.382 391.525 305.988C391.022 305.593 390.442 305.307 389.823 305.148C389.204 304.989 388.559 304.96 387.928 305.064C387.297 305.167 386.695 305.4 386.159 305.749L322.353 345.946C321.076 346.676 319.632 347.06 318.162 347.06C316.692 347.06 315.248 346.676 313.971 345.946L289.553 332.305C288.268 331.603 287.188 330.578 286.42 329.33C285.652 328.083 285.222 326.656 285.172 325.191L286.931 250.253C286.945 249.587 286.826 248.925 286.581 248.305C286.336 247.686 285.97 247.121 285.504 246.645C285.038 246.169 284.482 245.791 283.868 245.533C283.255 245.275 282.596 245.142 281.93 245.142L243.474 244.244C242.163 244.216 240.894 244.709 239.944 245.615C238.994 246.521 238.44 247.766 238.404 249.079L237.094 314.14L236.887 324.086L235.886 363.593L235.886 368.704L235.886 373.815L233.645 456.834C233.645 459.562 235.403 460.598 237.714 459.148L299.279 419.814L307.66 414.53L349.979 388.353L358.429 383.104L410.716 350.746C411.822 350.028 412.623 348.923 412.961 347.646C413.299 346.369 413.15 345.012 412.544 343.839L392.746 307.441Z" fill="#4C4C4C"/>
</g>
<g opacity="0.15">
<path opacity="0.15" d="M358.523 564.207L350.073 558.958L307.789 532.816C305.478 531.366 301.684 529.017 299.408 527.532L237.843 488.233C235.532 486.748 233.704 487.784 233.773 490.512L235.67 573.393L235.67 578.504L235.67 583.65L236.602 623.191L236.809 633.137L238.326 698.198C238.362 699.514 238.914 700.763 239.863 701.674C240.812 702.585 242.081 703.086 243.396 703.067L281.852 702.169C283.17 702.124 284.417 701.564 285.326 700.608C286.235 699.653 286.734 698.378 286.715 697.058L284.956 622.12C285.006 620.656 285.435 619.229 286.204 617.981C286.972 616.734 288.052 615.708 289.337 615.006L313.755 601.193C315.034 600.47 316.477 600.09 317.946 600.09C319.414 600.09 320.858 600.47 322.136 601.193L385.943 641.425C386.481 641.772 387.085 642.003 387.718 642.104C388.35 642.205 388.996 642.173 389.616 642.011C390.235 641.848 390.814 641.559 391.316 641.161C391.817 640.763 392.231 640.265 392.53 639.698L412.431 603.299C413.037 602.126 413.186 600.77 412.848 599.493C412.51 598.216 411.71 597.111 410.603 596.393L358.523 564.207Z" fill="#4C4C4C"/>
</g>
</g>
<defs>
<linearGradient id="paint0_linear_962_16965" x1="612.364" y1="275.726" x2="518.959" y2="438.899" gradientUnits="userSpaceOnUse">
<stop offset="0.09" stop-color="#009444"/>
<stop offset="0.11" stop-color="#08994A"/>
<stop offset="0.18" stop-color="#20A75A"/>
<stop offset="0.25" stop-color="#32B268"/>
<stop offset="0.34" stop-color="#3FB971"/>
<stop offset="0.46" stop-color="#47BE76"/>
<stop offset="0.7" stop-color="#49BF78"/>
</linearGradient>
<linearGradient id="paint1_linear_962_16965" x1="425.784" y1="232.286" x2="604.48" y2="222.13" gradientUnits="userSpaceOnUse">
<stop offset="0.61" stop-color="#EFC739"/>
<stop offset="0.68" stop-color="#EFB43B"/>
<stop offset="0.79" stop-color="#EEA13D"/>
<stop offset="0.89" stop-color="#EE963E"/>
<stop offset="1" stop-color="#EE923E"/>
</linearGradient>
<linearGradient id="paint2_linear_962_16965" x1="746.901" y1="30.7372" x2="663.334" y2="199.488" gradientUnits="userSpaceOnUse">
<stop offset="0.58" stop-color="#CC4040"/>
<stop offset="0.71" stop-color="#B83A3A"/>
<stop offset="0.88" stop-color="#A53434"/>
<stop offset="1" stop-color="#9E3232"/>
</linearGradient>
<linearGradient id="paint3_linear_962_16965" x1="526.204" y1="30.8358" x2="609.771" y2="199.587" gradientUnits="userSpaceOnUse">
<stop offset="0.58" stop-color="#CC4040"/>
<stop offset="0.71" stop-color="#B83A3A"/>
<stop offset="0.88" stop-color="#A53434"/>
<stop offset="1" stop-color="#9E3232"/>
</linearGradient>
<linearGradient id="paint4_linear_962_16965" x1="667.224" y1="277.823" x2="756.108" y2="443.698" gradientUnits="userSpaceOnUse">
<stop stop-color="#2B77AA"/>
<stop offset="0.31" stop-color="#0495B7"/>
</linearGradient>
<linearGradient id="paint5_linear_962_16965" x1="526.208" y1="31.1121" x2="611.743" y2="198.824" gradientUnits="userSpaceOnUse">
<stop offset="0.63" stop-color="#EE923E"/>
<stop offset="1" stop-color="#CC4040"/>
</linearGradient>
<linearGradient id="paint6_linear_962_16965" x1="686.228" y1="228.454" x2="866.196" y2="231.967" gradientUnits="userSpaceOnUse">
<stop stop-color="#662D91"/>
<stop offset="0.17" stop-color="#6B25B8"/>
<stop offset="0.31" stop-color="#6F21CF"/>
<stop offset="0.39" stop-color="#701FD8"/>
</linearGradient>
<linearGradient id="paint7_linear_962_16965" x1="686.228" y1="228.454" x2="866.196" y2="231.967" gradientUnits="userSpaceOnUse">
<stop stop-color="#662D91"/>
<stop offset="0.17" stop-color="#6B25B8"/>
<stop offset="0.31" stop-color="#6F21CF"/>
<stop offset="0.39" stop-color="#701FD8"/>
</linearGradient>
<linearGradient id="paint8_linear_962_16965" x1="202.751" y1="519.692" x2="109.346" y2="682.865" gradientUnits="userSpaceOnUse">
<stop offset="0.09" stop-color="#009444"/>
<stop offset="0.11" stop-color="#08994A"/>
<stop offset="0.18" stop-color="#20A75A"/>
<stop offset="0.25" stop-color="#32B268"/>
<stop offset="0.34" stop-color="#3FB971"/>
<stop offset="0.46" stop-color="#47BE76"/>
<stop offset="0.7" stop-color="#49BF78"/>
</linearGradient>
<linearGradient id="paint9_linear_962_16965" x1="16.1706" y1="476.251" x2="194.867" y2="466.096" gradientUnits="userSpaceOnUse">
<stop offset="0.61" stop-color="#EFC739"/>
<stop offset="0.68" stop-color="#EFB43B"/>
<stop offset="0.79" stop-color="#EEA13D"/>
<stop offset="0.89" stop-color="#EE963E"/>
<stop offset="1" stop-color="#EE923E"/>
</linearGradient>
<linearGradient id="paint10_linear_962_16965" x1="337.288" y1="274.703" x2="253.721" y2="443.454" gradientUnits="userSpaceOnUse">
<stop offset="0.58" stop-color="#CC4040"/>
<stop offset="0.71" stop-color="#B83A3A"/>
<stop offset="0.88" stop-color="#A53434"/>
<stop offset="1" stop-color="#9E3232"/>
</linearGradient>
<linearGradient id="paint11_linear_962_16965" x1="116.591" y1="274.802" x2="200.158" y2="443.553" gradientUnits="userSpaceOnUse">
<stop offset="0.58" stop-color="#CC4040"/>
<stop offset="0.71" stop-color="#B83A3A"/>
<stop offset="0.88" stop-color="#A53434"/>
<stop offset="1" stop-color="#9E3232"/>
</linearGradient>
<linearGradient id="paint12_linear_962_16965" x1="257.611" y1="521.789" x2="346.494" y2="687.664" gradientUnits="userSpaceOnUse">
<stop stop-color="#2B77AA"/>
<stop offset="0.31" stop-color="#0495B7"/>
</linearGradient>
<linearGradient id="paint13_linear_962_16965" x1="116.595" y1="275.078" x2="202.13" y2="442.789" gradientUnits="userSpaceOnUse">
<stop offset="0.63" stop-color="#EE923E"/>
<stop offset="1" stop-color="#CC4040"/>
</linearGradient>
<linearGradient id="paint14_linear_962_16965" x1="276.615" y1="472.42" x2="456.583" y2="475.933" gradientUnits="userSpaceOnUse">
<stop stop-color="#662D91"/>
<stop offset="0.17" stop-color="#6B25B8"/>
<stop offset="0.31" stop-color="#6F21CF"/>
<stop offset="0.39" stop-color="#701FD8"/>
</linearGradient>
<linearGradient id="paint15_linear_962_16965" x1="276.615" y1="472.42" x2="456.583" y2="475.933" gradientUnits="userSpaceOnUse">
<stop stop-color="#662D91"/>
<stop offset="0.17" stop-color="#6B25B8"/>
<stop offset="0.31" stop-color="#6F21CF"/>
<stop offset="0.39" stop-color="#701FD8"/>
</linearGradient>
</defs>
</svg>
