<svg width="32" height="32" viewBox="0 0 32 32" fill="none" xmlns="http://www.w3.org/2000/svg">
<path d="M22.9688 16C22.9688 16.4375 22.625 16.7812 22.2188 16.7812H11.5938L15.75 20.7188C16.0625 21 16.0625 21.5 15.7812 21.7812C15.5 22.0938 15.0312 22.0938 14.7188 21.8125L9.21875 16.5625C9.0625 16.4062 9 16.2188 9 16C9 15.8125 9.0625 15.625 9.21875 15.4688L14.7188 10.2188C15.0312 9.9375 15.5 9.9375 15.7812 10.25C16.0625 10.5312 16.0625 11.0312 15.75 11.3125L11.5938 15.25H22.2188C22.6562 15.25 22.9688 15.5938 22.9688 16Z" fill="#27272A"/>
</svg>
