<svg width="32" height="32" viewBox="0 0 32 32" fill="none" xmlns="http://www.w3.org/2000/svg">
<path d="M10.75 9.5C11.1562 9.5 11.5 9.84375 11.5 10.25V11.75C11.5 12.1875 11.1562 12.5 10.75 12.5H9.25C8.8125 12.5 8.5 12.1875 8.5 11.75V10.25C8.5 9.84375 8.8125 9.5 9.25 9.5H10.75ZM23.25 10.25C23.6562 10.25 24 10.5938 24 11C24 11.4375 23.6562 11.75 23.25 11.75H13.75C13.3125 11.75 13 11.4375 13 11C13 10.5938 13.3125 10.25 13.75 10.25H23.25ZM23.25 15.25C23.6562 15.25 24 15.5938 24 16C24 16.4375 23.6562 16.75 23.25 16.75H13.75C13.3125 16.75 13 16.4375 13 16C13 15.5938 13.3125 15.25 13.75 15.25H23.25ZM23.25 20.25C23.6562 20.25 24 20.5938 24 21C24 21.4375 23.6562 21.75 23.25 21.75H13.75C13.3125 21.75 13 21.4375 13 21C13 20.5938 13.3125 20.25 13.75 20.25H23.25ZM8.5 15.25C8.5 14.8438 8.8125 14.5 9.25 14.5H10.75C11.1562 14.5 11.5 14.8438 11.5 15.25V16.75C11.5 17.1875 11.1562 17.5 10.75 17.5H9.25C8.8125 17.5 8.5 17.1875 8.5 16.75V15.25ZM10.75 19.5C11.1562 19.5 11.5 19.8438 11.5 20.25V21.75C11.5 22.1875 11.1562 22.5 10.75 22.5H9.25C8.8125 22.5 8.5 22.1875 8.5 21.75V20.25C8.5 19.8438 8.8125 19.5 9.25 19.5H10.75Z" fill="#27272A"/>
</svg>
