<svg width="24" height="24" viewBox="0 0 24 24" fill="none" xmlns="http://www.w3.org/2000/svg">
    <path d="M23.687 14.908a.26.26 0 0 1 .125.153.247.247 0 0 1-.024.194l-1.098 1.876a.274.274 0 0 1-.366.099l-2.838-1.554-.46-.25-2.579-1.408-.463-.245-3.421-1.782c-.128-.066-.128-.179 0-.241l3.88-2.03.24-.126.24-.125 2.11-1.096.464-.243 2.876-1.49a.27.27 0 0 1 .366.108l.961 1.76a.254.254 0 0 1-.108.349l-3.277 1.704a.403.403 0 0 0-.203.378s.064.537.064.956c0 .37-.05.834-.05.834a.415.415 0 0 0 .204.38l3.357 1.799zM20.75 3.276a.241.241 0 0 0-.156-.119.25.25 0 0 0-.195.032l-3.386 2.083a.457.457 0 0 1-.445 0l-1.296-.707a.442.442 0 0 1-.232-.369l.093-3.884a.255.255 0 0 0-.076-.187.266.266 0 0 0-.19-.078L12.828 0a.267.267 0 0 0-.188.071.255.255 0 0 0-.082.18l-.07 3.373-.01.515-.053 2.048v.53l-.12 4.304c0 .141.094.195.217.12l3.267-2.04.445-.273 2.246-1.357.449-.272 2.775-1.678a.27.27 0 0 0 .097-.358l-1.05-1.887zM11.495 6.724v-.53l-.05-2.053-.01-.516-.08-3.37a.255.255 0 0 0-.082-.18.267.267 0 0 0-.188-.071L9.044.05a.268.268 0 0 0-.184.08.257.257 0 0 0-.074.183l.093 3.878a.431.431 0 0 1-.236.367l-1.305.707a.456.456 0 0 1-.445 0L3.516 3.187a.249.249 0 0 0-.35.087L2.11 5.161a.27.27 0 0 0 .097.359L4.97 7.191l.448.27 2.257 1.364.447.274 3.266 2.045c.123.075.22.021.216-.12l-.11-4.3zM18.93 16.587l-.448-.272-2.245-1.355c-.122-.075-.324-.197-.445-.274l-3.267-2.037c-.123-.077-.22-.024-.216.118l.1 4.296v.532l.05 2.05.01.515.081 3.373a.257.257 0 0 0 .082.18.27.27 0 0 0 .187.073l2.042-.047a.27.27 0 0 0 .184-.08.258.258 0 0 0 .074-.185l-.094-3.885a.43.43 0 0 1 .233-.368l1.296-.716a.46.46 0 0 1 .445 0l3.386 2.085a.249.249 0 0 0 .35-.09l1.056-1.886a.27.27 0 0 0-.097-.358l-2.764-1.669zM8.113 14.684l-.446.276-2.256 1.364-.448.27-2.766 1.672a.27.27 0 0 0-.097.358l1.05 1.886a.24.24 0 0 0 .155.12.248.248 0 0 0 .195-.03l3.385-2.078a.456.456 0 0 1 .445 0l1.303.717a.443.443 0 0 1 .233.368l-.094 3.88a.259.259 0 0 0 .074.184.27.27 0 0 0 .185.08l2.04.047a.268.268 0 0 0 .188-.072.258.258 0 0 0 .082-.18l.08-3.371.011-.516.05-2.051v-.532l.1-4.297c0-.141-.093-.195-.216-.118l-3.253 2.023zM7.475 9.748l-.238-.129-.238-.129-2.083-1.126-.462-.25-2.846-1.54a.27.27 0 0 0-.366.1l-.99 1.744a.252.252 0 0 0 .102.358l3.253 1.762a.4.4 0 0 1 .198.38s-.072.536-.08.952c0 .369.036.83.036.83a.411.411 0 0 1-.21.376L.14 14.826a.256.256 0 0 0-.129.15.248.248 0 0 0 .02.195l1.066 1.894a.265.265 0 0 0 .161.127.275.275 0 0 0 .205-.023l2.876-1.51.465-.243L7.4 14.054c.128-.066.337-.18.467-.238l3.45-1.726c.128-.065.132-.18 0-.242l-3.842-2.1z" fill="#fff"/>
</svg>
