<svg width="343" height="87" viewBox="0 0 343 87" fill="none" xmlns="http://www.w3.org/2000/svg">
<g clip-path="url(#clip0_2_31)">
<path d="M152.931 52.2082C152.931 32.6673 166.604 17.9123 187.581 17.9123C208.429 17.9123 222.102 32.6672 222.102 52.2082C222.102 71.7492 208.429 86.5039 187.581 86.5039C166.604 86.5039 152.931 71.7488 152.931 52.2082V52.2082ZM209.756 52.2082C209.756 39.7112 200.991 29.3444 187.581 29.3444C174.043 29.3444 165.278 39.7112 165.278 52.2082C165.278 64.7052 174.043 75.072 187.581 75.072C200.991 75.072 209.756 64.7049 209.756 52.2082V52.2082Z" fill="white"/>
<path d="M283.155 23.083L277.389 33.4501C273.97 31.1813 269.957 29.978 265.856 29.9922C254.214 29.9922 246.545 38.903 246.545 52.4454V84.9323H234.25V19.0927H245.212L245.347 30.1269C250.691 21.8833 257.521 17.893 266.58 17.893C273.019 17.893 279.183 19.8882 283.155 23.0829V23.083Z" fill="white"/>
<path d="M282.7 52.2082C282.7 31.8719 296.905 17.9123 317.215 17.9123C326.647 17.9123 334.74 21.2354 341.781 28.0163L334.092 36.2535C331.911 34.032 329.306 32.2749 326.432 31.0875C323.557 29.9001 320.473 29.3071 317.363 29.3443C304.485 29.3443 295.06 38.5179 295.06 52.2081C295.06 65.8983 304.35 75.0719 317.363 75.0719C320.609 75.1108 323.827 74.4818 326.821 73.2239C329.815 71.9657 332.518 70.1057 334.766 67.7585L342.452 76.2714C335.283 83.3281 327.32 86.5357 317.363 86.5357C296.771 86.5038 282.7 72.8135 282.7 52.208V52.2082Z" fill="white"/>
<path d="M130.57 31.4421H145.608C145.86 31.4351 146.103 31.3384 146.29 31.1691C146.478 30.9998 146.6 30.7689 146.633 30.5181L147.773 20.0101C147.788 19.8937 147.778 19.7755 147.743 19.6636C147.708 19.5517 147.649 19.4486 147.57 19.3615C147.492 19.2744 147.396 19.2053 147.288 19.1589C147.18 19.1125 147.064 19.0899 146.947 19.0927H128.751V0.828606C128.754 0.711506 128.731 0.595306 128.685 0.487806C128.638 0.380306 128.569 0.284206 128.482 0.206106C128.395 0.128006 128.292 0.0698058 128.18 0.0355058C128.068 0.00120579 127.95 -0.00839421 127.835 0.00750579L117.333 1.14941C117.084 1.18421 116.855 1.30651 116.687 1.49451C116.519 1.68251 116.424 1.92391 116.417 2.17591V30.5503C116.419 30.7948 116.516 31.0289 116.689 31.2016C116.862 31.3744 117.095 31.4722 117.34 31.474H130.57V31.4421H130.57Z" fill="white"/>
<path d="M147.78 72.7176C144.951 73.9886 141.907 74.7114 138.81 74.8476C131.57 74.8476 128.757 70.5943 128.757 63.3001V35.5543H116.417V63.2809C116.417 78.0357 123.388 86.0164 137.33 86.0164C142.196 86.0437 147.008 84.9989 151.426 82.9563L147.78 72.7176Z" fill="white"/>
<path d="M82.9032 54.5304C83.0083 54.5885 83.101 54.6672 83.1756 54.7613C83.2505 54.8554 83.3057 54.9634 83.3385 55.0793C83.3713 55.1949 83.3809 55.316 83.3667 55.4353C83.3525 55.5549 83.3147 55.6702 83.2558 55.7751L79.4114 62.4981C79.288 62.7147 79.0838 62.8733 78.8437 62.9395C78.6036 63.0057 78.3469 62.9738 78.1302 62.8509L68.199 57.2828L66.5908 56.3846L57.5633 51.342L55.9424 50.4633L43.9675 44.08C43.5191 43.8428 43.5191 43.4385 43.9675 43.2141L57.5506 35.9391L58.3898 35.4902L59.2293 35.041L66.6103 31.115L68.2376 30.2424L78.303 24.9051C78.4119 24.8438 78.5321 24.8051 78.6561 24.7913C78.7804 24.7775 78.9058 24.7889 79.0255 24.8249C79.1451 24.8608 79.2564 24.9205 79.3525 25.0004C79.4483 25.0803 79.5273 25.1788 79.5845 25.29L82.9483 31.5962C83.0055 31.7031 83.0412 31.8204 83.0531 31.9412C83.065 32.062 83.0531 32.184 83.0183 32.3001C82.9832 32.4163 82.9254 32.5243 82.8487 32.6184C82.7718 32.7122 82.6771 32.79 82.5702 32.8472L71.1014 38.9543C70.8703 39.0928 70.6815 39.2926 70.5561 39.5313C70.4307 39.77 70.3734 40.0389 70.3903 40.3081C70.3903 40.3081 70.6148 42.2328 70.6148 43.7338C70.6148 45.0617 70.4417 46.7233 70.4417 46.7233C70.4283 46.9928 70.4873 47.2611 70.6125 47.5004C70.7374 47.7394 70.9241 47.9406 71.1529 48.0832L82.9034 54.5306L82.9032 54.5304Z" fill="#701FD8"/>
<path d="M72.6201 12.8507C72.5638 12.746 72.4865 12.654 72.393 12.5807C72.2995 12.5074 72.1921 12.4543 72.0771 12.4248C71.9621 12.3952 71.8422 12.3899 71.7249 12.4091C71.6079 12.4283 71.4958 12.4716 71.3962 12.5363L59.5432 20.0036C59.306 20.1392 59.0376 20.2105 58.7647 20.2105C58.4918 20.2105 58.2234 20.1392 57.9862 20.0036L53.4501 17.4696C53.2114 17.3392 53.0107 17.1487 52.8682 16.9169C52.7253 16.6851 52.6455 16.4201 52.6365 16.148L52.9632 2.22701C52.9658 2.10321 52.9437 1.98021 52.8982 1.86511C52.8527 1.75001 52.7847 1.64521 52.6981 1.55681C52.6116 1.46841 52.5082 1.39811 52.3944 1.35021C52.2803 1.30231 52.158 1.27761 52.0343 1.27761L44.8902 1.11081C44.6469 1.10561 44.4111 1.19721 44.2345 1.36541C44.0579 1.53371 43.9552 1.76501 43.9485 2.00891L43.7052 14.0952L43.6666 15.9428L43.4808 23.2818V25.1807L43.0644 40.6029C43.0644 41.1096 43.3911 41.3022 43.8206 41.0327L55.2572 33.7257L56.8142 32.7442L64.6755 27.8816L66.2453 26.9065L75.9584 20.8954C76.164 20.7619 76.3127 20.5566 76.3754 20.3195C76.4381 20.0823 76.4105 19.8303 76.2979 19.6124L72.6205 12.8508L72.6201 12.8507Z" fill="#CC4040"/>
<path d="M40.2322 25.2064V23.3075L40.0591 15.9492L40.0208 14.1016L39.7388 2.02171C39.7321 1.77781 39.6293 1.54651 39.4528 1.37821C39.2762 1.20991 39.0405 1.11841 38.7968 1.12361L31.653 1.29041C31.4088 1.29711 31.1771 1.39981 31.0081 1.57631C30.8391 1.75281 30.7462 1.98891 30.7497 2.23341L31.0764 16.1288C31.0645 16.4009 30.9817 16.6652 30.8368 16.8958C30.6919 17.1264 30.4898 17.3153 30.2499 17.444L25.6817 19.978C25.4446 20.1136 25.1763 20.1849 24.9032 20.1849C24.6301 20.1849 24.3618 20.1136 24.1247 19.978L12.3036 12.5299C12.204 12.4652 12.0921 12.4218 11.9749 12.4026C11.8577 12.3834 11.7379 12.3887 11.6228 12.4183C11.5078 12.4478 11.4002 12.5009 11.3067 12.5743C11.2133 12.6476 11.136 12.7395 11.0798 12.8442L7.38291 19.6059C7.27031 19.8238 7.24271 20.0759 7.30541 20.313C7.36821 20.5502 7.51681 20.7555 7.72251 20.8889L17.3972 26.8807L18.9669 27.8494L26.8668 32.7377L28.4301 33.7192L39.8603 41.0456C40.2895 41.3148 40.6292 41.1226 40.6165 40.6155L40.232 25.2062L40.2322 25.2064Z" fill="#EE923E"/>
<path d="M66.2577 60.5478L64.6879 59.573L56.833 54.7166C56.4038 54.4471 55.6988 54.011 55.276 53.7351L43.8394 46.4345C43.4102 46.1586 43.0705 46.3512 43.0832 46.8579L43.4357 62.2544V64.1596L43.6088 71.5052L43.6471 73.3526L43.9291 85.439C43.9358 85.6835 44.0383 85.9152 44.2145 86.0845C44.3907 86.2538 44.6266 86.347 44.8708 86.3435L52.0149 86.1765C52.2594 86.1684 52.4911 86.0641 52.6601 85.8867C52.8291 85.709 52.9217 85.4723 52.9183 85.2272L52.5913 71.3061C52.6006 71.034 52.6805 70.7689 52.823 70.5372C52.9659 70.3055 53.1665 70.115 53.4052 69.9846L57.9413 67.4185C58.1788 67.2841 58.4469 67.2135 58.7198 67.2135C58.9925 67.2135 59.2608 67.2841 59.498 67.4185L71.3513 74.8922C71.4512 74.9567 71.5636 74.9996 71.6809 75.0185C71.7985 75.0371 71.9184 75.0313 72.0334 75.0011C72.1487 74.9709 72.2561 74.9172 72.3493 74.8434C72.4425 74.7694 72.5195 74.6767 72.5749 74.5716L76.2718 67.81C76.3845 67.5919 76.4121 67.3399 76.3493 67.1029C76.2866 66.8657 76.1379 66.6604 75.9323 66.5268L66.2575 60.5478H66.2577Z" fill="#0495B7"/>
<path d="M28.3983 53.7287L26.835 54.7166L18.9415 59.605L17.3718 60.5737L7.6907 66.5655C7.4851 66.6988 7.3364 66.9041 7.2737 67.1413C7.2109 67.3785 7.2385 67.6306 7.3511 67.8484L11.0288 74.6036C11.0844 74.709 11.1613 74.8014 11.2545 74.8754C11.3477 74.9494 11.4552 75.0032 11.5703 75.0334C11.6854 75.0636 11.8054 75.0694 11.9229 75.0505C12.0403 75.0319 12.1526 74.9889 12.2526 74.9245L24.0993 67.4828C24.3364 67.3472 24.6047 67.2758 24.8778 67.2758C25.1509 67.2758 25.4192 67.3472 25.6563 67.4828L30.2182 70.0489C30.4569 70.1793 30.6576 70.3698 30.8001 70.6015C30.9427 70.8332 31.0225 71.0983 31.0318 71.3704L30.7051 85.272C30.7016 85.5171 30.7942 85.754 30.963 85.9315C31.132 86.1089 31.3637 86.2132 31.6085 86.2216L38.7523 86.3883C38.9965 86.3918 39.2323 86.2989 39.4086 86.1296C39.5849 85.9603 39.6874 85.7283 39.6943 85.4838L39.976 73.404L40.0146 71.5563L40.1874 64.2046V62.2994L40.5399 46.9029C40.5399 46.3959 40.2132 46.2036 39.7837 46.4792L28.3984 53.7287H28.3983Z" fill="#49BF78"/>
<path d="M26.1622 36.0418L25.3293 35.5798L24.4964 35.1178L17.2051 31.0829L15.5905 30.1847L5.62751 24.6675C5.52021 24.6052 5.40151 24.5651 5.27851 24.5495C5.15551 24.5339 5.03061 24.5431 4.91111 24.5766C4.79171 24.6101 4.68021 24.6672 4.58311 24.7445C4.48611 24.8218 4.40541 24.9178 4.34611 25.0268L0.879807 31.2751C0.815807 31.3823 0.774207 31.501 0.757707 31.6247C0.741107 31.7481 0.749907 31.8739 0.783507 31.9941C0.817107 32.114 0.874807 32.2261 0.953007 32.3231C1.03131 32.4201 1.12841 32.5002 1.23861 32.5583L12.624 38.8707C12.8532 39.0118 13.0391 39.2134 13.1612 39.4532C13.2833 39.6933 13.3369 39.9622 13.3159 40.2309C13.3159 40.2309 13.066 42.1553 13.0404 43.6438C13.0404 44.9653 13.1621 46.6205 13.1621 46.6205C13.1718 46.8906 13.1085 47.1583 12.9788 47.3955C12.8491 47.6325 12.6579 47.8302 12.4253 47.9676L0.489007 54.2354C0.381907 54.2906 0.287007 54.3669 0.209807 54.4596C0.132607 54.5522 0.0747069 54.6594 0.0395069 54.7747C0.00430693 54.89 -0.00749307 55.0114 0.00470692 55.1313C0.0170069 55.2515 0.0531069 55.3677 0.111007 55.4737L3.83991 62.2609C3.89951 62.3698 3.98001 62.4656 4.07671 62.5434C4.17341 62.6209 4.28451 62.6787 4.40351 62.7133C4.52251 62.7479 4.64721 62.7586 4.77041 62.7447C4.89361 62.7311 5.01281 62.693 5.12131 62.6329L15.1868 57.225L16.8142 56.3524L25.8994 51.4704C26.3479 51.2332 27.0783 50.8289 27.5332 50.6172L39.6107 44.4329C40.0591 44.202 40.0718 43.7914 39.6107 43.567L26.1621 36.0419L26.1622 36.0418Z" fill="#EFC739"/>
</g>
<defs>
<clipPath id="clip0_2_31">
<rect width="342.452" height="86.5359" fill="white"/>
</clipPath>
</defs>
</svg>
