<svg width="12" height="14" viewBox="0 0 12 14"
    xmlns="http://www.w3.org/2000/svg">
    <path fill="currentColor" fillRule="evenodd" clipRule="evenodd" d="M9.11321 3.10378V3.89623C9.11321 3.96887 9.05378 4.0283 8.98114 4.0283H2.64151C2.56887 4.0283 2.50944 3.96887 2.50944 3.89623V3.10378C2.50944 3.03113 2.56887 2.9717 2.64151 2.9717H8.98114C9.05378 2.9717 9.11321 3.03113 9.11321 3.10378ZM2.50944 5.48114C2.50944 5.40849 2.56887 5.34906 2.64151 5.34906H5.67925C5.75189 5.34906 5.81132 5.40849 5.81132 5.48114V6.27359C5.81132 6.34623 5.75189 6.40566 5.67925 6.40566H2.64151C2.56887 6.40566 2.50944 6.34623 2.50944 6.27359V5.48114ZM1.18868 12.8113H5.01887C5.09151 12.8113 5.15095 12.8708 5.15095 12.9434V13.8679C5.15095 13.9406 5.09151 14 5.01887 14H0.528302C0.236085 14 0 13.7639 0 13.4717V0.528302C0 0.236085 0.236085 0 0.528302 0H11.0943C11.3866 0 11.6226 0.236085 11.6226 0.528302V6.86793C11.6226 6.94057 11.5632 7 11.4906 7H10.566C10.4934 7 10.434 6.94057 10.434 6.86793V1.18868H1.18868V12.8113ZM6.96552 12.1274C6.95011 12.1297 6.9347 12.1312 6.9193 12.1312C6.85073 12.1312 6.78678 12.1043 6.73593 12.055C6.70611 12.0255 6.68393 11.9891 6.67131 11.9491C6.65869 11.9091 6.65601 11.8666 6.66351 11.8254L6.89079 10.5295C6.89387 10.5141 6.9008 10.5002 6.91236 10.4887L10.1783 7.22275C10.1929 7.20811 10.2122 7.20041 10.233 7.20041C10.2538 7.20041 10.273 7.20811 10.2877 7.22275L11.5681 8.504C11.5753 8.51112 11.5809 8.51959 11.5848 8.52891C11.5887 8.53823 11.5907 8.54822 11.5907 8.55831C11.5907 8.5684 11.5887 8.57839 11.5848 8.58771C11.5809 8.59703 11.5753 8.6055 11.5681 8.61263L8.30224 11.8785C8.29145 11.8901 8.27681 11.897 8.2614 11.9001L6.96552 12.1274ZM10.233 7.99396L7.43857 10.7876L7.31838 11.4733L8.00331 11.3523L10.7977 8.5587L10.233 7.99396ZM6.0433 12.7784H11.7137C11.8501 12.7784 11.9603 12.8886 11.9603 13.0249V13.3023C11.9603 13.3362 11.9326 13.3639 11.8987 13.3639H5.8584C5.8245 13.3639 5.79676 13.3362 5.79676 13.3023V13.0249C5.79676 12.8886 5.90694 12.7784 6.0433 12.7784Z" fill-opacity="0.85"/>
</svg>
