<svg width="135" height="799" viewBox="0 0 135 799" fill="none" xmlns="http://www.w3.org/2000/svg">
<g opacity="0.4">
<path d="M-14.6186 367.063C-6.67823 375.003 6.19567 375.003 14.136 367.063C22.0764 359.123 22.0764 346.249 14.136 338.308C6.19568 330.368 -6.67823 330.368 -14.6186 338.308C-22.559 346.249 -22.559 359.123 -14.6186 367.063Z" fill="#EA7F6C"/>
<path d="M-20.6425 247.623C-20.2428 258.845 -10.8213 267.619 0.400982 267.219C11.6232 266.819 20.3966 257.398 19.9969 246.176C19.5972 234.953 10.1757 226.18 -1.04658 226.58C-12.2688 226.979 -21.0422 236.401 -20.6425 247.623Z" fill="#EA7F6C"/>
<path d="M-8.02336 160.007C2.35123 164.305 14.2452 159.378 18.5425 149.004C22.8398 138.629 17.9131 126.735 7.53854 122.438C-2.83605 118.14 -14.73 123.067 -19.0273 133.442C-23.3246 143.816 -18.398 155.71 -8.02336 160.007Z" fill="#EA7F6C"/>
<path d="M-10.0414 45.9833C0.289657 50.2505 12.1238 45.3348 16.391 35.0037C20.6582 24.6727 15.7424 12.8385 5.41141 8.57136C-4.91962 4.3042 -16.7538 9.21994 -21.021 19.551C-25.2881 29.882 -20.3724 41.7162 -10.0414 45.9833Z" fill="#EA7F6C"/>
<path d="M85.6154 357.33C88.1949 368.259 99.1458 375.028 110.075 372.448C121.004 369.869 127.773 358.918 125.193 347.989C122.614 337.06 111.663 330.291 100.734 332.871C89.8046 335.45 83.0359 346.401 85.6154 357.33Z" fill="#EA7F6C"/>
<path d="M107.702 265.783C118.932 266.232 128.399 257.493 128.848 246.263C129.297 235.034 120.558 225.567 109.329 225.118C98.0994 224.668 88.6321 233.407 88.1829 244.637C87.7337 255.866 96.4728 265.334 107.702 265.783Z" fill="#EA7F6C"/>
<path d="M85.4814 144.521C87.2806 155.606 97.7248 163.133 108.809 161.333C119.893 159.534 127.42 149.09 125.621 138.006C123.822 126.921 113.378 119.394 102.294 121.194C91.2092 122.993 83.6822 133.437 85.4814 144.521Z" fill="#EA7F6C"/>
<path d="M85.4776 38.7938C87.2768 49.8781 97.721 57.4051 108.805 55.6059C119.89 53.8066 127.417 43.3625 125.617 32.2782C123.818 21.1939 113.374 13.6668 102.29 15.4661C91.2054 17.2653 83.6783 27.7095 85.4776 38.7938Z" fill="#EA7F6C"/>
<path d="M-14.6224 784.017C-6.68207 791.958 6.19183 791.958 14.1322 784.017C22.0726 776.077 22.0726 763.203 14.1322 755.263C6.19183 747.322 -6.68207 747.322 -14.6224 755.263C-22.5628 763.203 -22.5628 776.077 -14.6224 784.017Z" fill="#EA7F6C"/>
<path d="M-20.663 664.576C-20.2633 675.799 -10.8418 684.572 0.380475 684.172C11.6027 683.773 20.3761 674.351 19.9764 663.129C19.5767 651.907 10.1552 643.133 -1.06709 643.533C-12.2894 643.933 -21.0628 653.354 -20.663 664.576Z" fill="#EA7F6C"/>
<path d="M-20.1261 562.82C-17.5466 573.749 -6.59568 580.518 4.33341 577.939C15.2625 575.359 22.0312 564.408 19.4517 553.479C16.8722 542.55 5.9213 535.781 -5.00779 538.361C-15.9369 540.94 -22.7056 551.891 -20.1261 562.82Z" fill="#EA7F6C"/>
<path d="M-8.02449 471.234C2.3501 475.531 14.244 470.604 18.5413 460.23C22.8386 449.855 17.912 437.961 7.53741 433.664C-2.83718 429.367 -14.7311 434.293 -19.0284 444.668C-23.3257 455.043 -18.3991 466.936 -8.02449 471.234Z" fill="#EA7F6C"/>
<path d="M85.5926 774.291C88.1721 785.22 99.123 791.989 110.052 789.41C120.981 786.83 127.75 775.879 125.17 764.95C122.591 754.021 111.64 747.252 100.711 749.832C89.7818 752.411 83.0131 763.362 85.5926 774.291Z" fill="#EA7F6C"/>
<path d="M108.061 682.089C119.29 682.538 128.758 673.799 129.207 662.57C129.656 651.34 120.917 641.873 109.688 641.424C98.4582 640.974 88.9908 649.714 88.5417 660.943C88.0925 672.172 96.8316 681.64 108.061 682.089Z" fill="#EA7F6C"/>
<path d="M91.1078 572.565C99.0481 580.505 111.922 580.505 119.862 572.565C127.803 564.625 127.803 551.751 119.862 543.81C111.922 535.87 99.0481 535.87 91.1078 543.81C83.1674 551.751 83.1674 564.625 91.1078 572.565Z" fill="#EA7F6C"/>
<path d="M85.4971 455.744C87.2964 466.829 97.7406 474.356 108.825 472.557C119.909 470.757 127.436 460.313 125.637 449.229C123.838 438.145 113.394 430.618 102.309 432.417C91.2249 434.216 83.6979 444.66 85.4971 455.744Z" fill="#EA7F6C"/>
</g>
</svg>
