<svg width="32" height="32" viewBox="0 0 32 32" fill="none" xmlns="http://www.w3.org/2000/svg">
<path d="M8.75 12.75H19L18.9688 15.25C18.9688 15.5625 19.1562 15.8438 19.4375 15.9375C19.7188 16.0625 20.0312 16.0312 20.25 15.8125L23.75 12.5625C24.0625 12.2812 24.0625 11.75 23.75 11.4688L20.25 8.21875C20.0312 8 19.7188 7.96875 19.4375 8.0625C19.1562 8.1875 18.9688 8.46875 18.9688 8.75L19 11.25H8.75C8.3125 11.25 8 11.5938 8 12C8 12.375 8.3125 12.75 8.75 12.75ZM23.25 19.25H12.9688L13 16.75C13 16.4375 12.8125 16.1562 12.5312 16.0625C12.25 15.9375 11.9375 16 11.7188 16.2188L8.21875 19.4688C7.90625 19.75 7.90625 20.2812 8.21875 20.5625L11.7188 23.8125C11.9375 24.0312 12.25 24.0625 12.5312 23.9375C12.8125 23.8438 13 23.5625 13 23.25L12.9688 20.75H23.25C23.6562 20.75 24 20.4375 24 20C24 19.5938 23.6562 19.25 23.25 19.25Z" fill="#27272A"/>
</svg>
