<svg width="32" height="32" viewBox="0 0 32 32" fill="none" xmlns="http://www.w3.org/2000/svg">
<path d="M17.25 10.2188L22.75 15.4688C22.9062 15.625 23 15.8125 23 16.0312C23 16.2188 22.9062 16.4062 22.75 16.5625L17.25 21.8125C16.9688 22.0938 16.4688 22.0938 16.1875 21.7812C15.9062 21.5 15.9062 21 16.2188 20.7188L20.375 16.7812H9.75C9.3125 16.7812 9 16.4375 9 16.0312C9 15.5938 9.3125 15.2812 9.75 15.2812H20.375L16.2188 11.3125C15.9062 11.0312 15.9062 10.5312 16.1875 10.25C16.4688 9.9375 16.9375 9.9375 17.25 10.2188Z" fill="#27272A"/>
</svg>
