<svg width="124" height="124" viewBox="0 0 124 124" fill="none" xmlns="http://www.w3.org/2000/svg">
    <path fill-rule="evenodd" clip-rule="evenodd" d="M61.993 6.782c-30.59 0-55.396 24.904-55.396 55.625 0 24.571 15.873 45.417 37.896 52.779 2.77.512 3.78-1.206 3.78-2.681 0-1.322-.048-4.82-.075-9.46-15.41 3.359-18.664-7.458-18.664-7.458-2.514-6.427-6.15-8.138-6.15-8.138-5.035-3.449.374-3.38.374-3.38 5.561.395 8.484 5.735 8.484 5.735 4.944 8.497 12.97 6.046 16.129 4.62.498-3.595 1.932-6.047 3.518-7.439-12.3-1.406-25.236-6.177-25.236-27.487 0-6.073 2.16-11.039 5.706-14.931-.575-1.406-2.472-7.064.54-14.716 0 0 4.654-1.496 15.236 5.7 4.419-1.234 9.156-1.85 13.872-1.87 4.702.027 9.446.636 13.872 1.876 10.575-7.195 15.222-5.7 15.222-5.7 3.02 7.66 1.121 13.311.554 14.717 3.552 3.892 5.692 8.858 5.692 14.931 0 21.365-12.95 26.067-25.291 27.446 1.987 1.717 3.76 5.11 3.76 10.298 0 7.438-.069 13.435-.069 15.256 0 1.489.997 3.221 3.809 2.674 21.988-7.369 37.847-28.208 37.847-52.772 0-30.721-24.806-55.625-55.41-55.625z" fill="#202021"/>
</svg>
