<svg width="32" height="32" viewBox="0 0 32 32" fill="none" xmlns="http://www.w3.org/2000/svg">
<g filter="url(#filter0_d_1575_38172)">
<path fill-rule="evenodd" clip-rule="evenodd" d="M23.9542 3.08488L20.2333 5.46196C19.7067 5.07065 19.1351 4.7464 18.5314 4.49641L18.6317 0.0613805L16.1511 0L16.0588 3.91953L16.0551 4.15291C15.8891 4.14298 15.7217 4.13794 15.5532 4.13794C15.3884 4.13794 15.2247 4.14276 15.0623 4.15226L15.0572 3.93589L14.9689 0.0163574L12.4843 0.0777379L12.6047 4.49231C11.9989 4.74065 11.4259 5.06502 10.8988 5.45789L7.19798 3.08488L5.93359 5.44151L8.99121 7.37029C8.7685 7.65961 8.5645 7.96408 8.38102 8.28189L5.28044 6.59106L4.10837 8.82496L7.46569 10.6501C7.34232 11.2184 7.27734 11.8085 7.27734 12.4138C7.27734 12.7205 7.29403 13.0233 7.32654 13.3213L4 15.1502L5.31657 17.4946L8.06282 15.9375C8.2149 16.2602 8.38722 16.5715 8.57814 16.8697L5.91406 18.5502L7.17846 20.9068L10.3662 18.8628C11.0255 19.3937 11.7679 19.8257 12.5708 20.1359L12.4849 23.9304L14.9695 23.9877L15.0441 20.6742C15.2125 20.6844 15.3822 20.6896 15.5532 20.6896C15.7331 20.6896 15.9117 20.6839 16.0888 20.6726L16.1672 24.0001L18.6478 23.9428L18.5615 20.1259C19.3564 19.8156 20.0916 19.3859 20.745 18.8589L23.9542 20.9193L25.2226 18.5627L22.5315 16.8646C22.7248 16.5622 22.899 16.2464 23.0523 15.9188L25.8596 17.5069L27.1722 15.1626L23.7833 13.2886C23.8135 13.0011 23.829 12.7093 23.829 12.4138C23.829 11.8147 23.7654 11.2305 23.6445 10.6675L27.0557 8.81688L25.8516 6.58301L22.7262 8.28334C22.5436 7.96685 22.3406 7.66357 22.119 7.37529L25.2226 5.42106L23.9542 3.08488Z" fill="url(#paint0_linear_1575_38172)"/>
<path d="M13.8671 13.5883L11.9802 11.647L10.5898 13.0774L13.8671 16.5512L20.5209 9.70578L19.1305 8.27539L13.8671 13.5883Z" fill="white"/>
</g>
<defs>
<filter id="filter0_d_1575_38172" x="0" y="0" width="31.1719" height="32" filterUnits="userSpaceOnUse" color-interpolation-filters="sRGB">
<feFlood flood-opacity="0" result="BackgroundImageFix"/>
<feColorMatrix in="SourceAlpha" type="matrix" values="0 0 0 0 0 0 0 0 0 0 0 0 0 0 0 0 0 0 127 0" result="hardAlpha"/>
<feOffset dy="4"/>
<feGaussianBlur stdDeviation="2"/>
<feComposite in2="hardAlpha" operator="out"/>
<feColorMatrix type="matrix" values="0 0 0 0 0 0 0 0 0 0 0 0 0 0 0 0 0 0 0.17 0"/>
<feBlend mode="normal" in2="BackgroundImageFix" result="effect1_dropShadow_1575_38172"/>
<feBlend mode="normal" in="SourceGraphic" in2="effect1_dropShadow_1575_38172" result="shape"/>
</filter>
<linearGradient id="paint0_linear_1575_38172" x1="4" y1="2.50001" x2="27.0001" y2="20.5002" gradientUnits="userSpaceOnUse">
<stop stop-color="#E0A93E"/>
<stop offset="0.330702" stop-color="#F06460"/>
<stop offset="0.674466" stop-color="#03C4B9"/>
<stop offset="1" stop-color="#4C32FF"/>
</linearGradient>
</defs>
</svg>
