<svg width="26" height="26" viewBox="0 0 26 26" fill="none" xmlns="http://www.w3.org/2000/svg">
<circle cx="13" cy="13" r="13" fill="#4330D5"/>
<path d="M10.2288 15.2913L9.89384 15.503L8.20248 16.5504L7.86612 16.758L5.79173 18.0419C5.74767 18.0705 5.71582 18.1144 5.70237 18.1653C5.68892 18.2161 5.69483 18.2701 5.71897 18.3168L6.50699 19.7642C6.51891 19.7868 6.53537 19.8066 6.55534 19.8225C6.57532 19.8383 6.59836 19.8498 6.62301 19.8563C6.64767 19.8628 6.67339 19.864 6.69856 19.86C6.72372 19.856 6.74778 19.8468 6.76921 19.833L9.30763 18.2384C9.35843 18.2094 9.41593 18.1941 9.47444 18.1941C9.53294 18.1941 9.59043 18.2094 9.64124 18.2384L10.6187 18.7883C10.6699 18.8162 10.7128 18.857 10.7434 18.9067C10.774 18.9563 10.7911 19.0131 10.7931 19.0714L10.7231 22.0502C10.7223 22.1027 10.7422 22.1535 10.7784 22.1915C10.8145 22.2296 10.8642 22.2519 10.9166 22.2537L12.4474 22.2894C12.4997 22.2901 12.5502 22.2702 12.588 22.2339C12.6258 22.1977 12.6477 22.148 12.6492 22.0956L12.7096 19.5072L12.7178 19.1113L12.7549 17.536V17.3312V17.1277L12.8304 13.8287C12.8304 13.7201 12.7604 13.6789 12.6684 13.738L10.2288 15.2913Z" fill="white"/>
<path d="M9.69113 11.496L9.51227 11.401L9.3334 11.3061L7.76768 10.4768L7.42094 10.2922L5.28147 9.1583C5.25841 9.14548 5.23304 9.13743 5.20685 9.13463C5.18065 9.13183 5.15417 9.13433 5.12895 9.14198C5.10374 9.14964 5.0803 9.16229 5.06003 9.1792C5.03976 9.19611 5.02306 9.21694 5.01091 9.24044L4.30186 10.5881C4.28874 10.6112 4.28042 10.6367 4.27744 10.6632C4.27446 10.6896 4.27687 10.7164 4.28452 10.7418C4.29217 10.7673 4.3049 10.7909 4.32193 10.8113C4.33897 10.8316 4.35995 10.8483 4.3836 10.8602L6.82855 12.1577C6.87783 12.1867 6.91818 12.2289 6.94514 12.2796C6.97211 12.3302 6.98464 12.3874 6.98136 12.4448C6.98136 12.4448 6.93662 12.8563 6.93761 13.1739C6.94332 13.4558 6.97632 13.8083 6.97632 13.8083C6.97955 13.8658 6.96726 13.9232 6.94075 13.9744C6.91423 14.0255 6.87448 14.0685 6.82568 14.0988L4.31809 15.487C4.29559 15.4992 4.27577 15.5159 4.25977 15.536C4.24378 15.5561 4.23194 15.5792 4.22496 15.6039C4.21798 15.6287 4.21599 15.6546 4.21912 15.6802C4.22225 15.7057 4.23042 15.7304 4.24317 15.7527L5.06433 17.1843C5.07745 17.2073 5.09495 17.2274 5.11582 17.2435C5.13669 17.2597 5.16053 17.2715 5.18596 17.2784C5.21138 17.2852 5.23791 17.287 5.26401 17.2835C5.29011 17.2801 5.31527 17.2714 5.33804 17.2582L7.45208 16.0614L7.79388 15.8683L9.70202 14.7879C9.79624 14.7354 9.94959 14.646 10.0453 14.5989L12.5832 13.2279C12.6774 13.1767 12.6783 13.0891 12.5794 13.0432L9.69113 11.496Z" fill="white"/>
<path d="M19.7002 6.51558C19.6882 6.49314 19.6716 6.47344 19.6516 6.45773C19.6316 6.44202 19.6085 6.43064 19.5839 6.42431C19.5592 6.41798 19.5335 6.41684 19.5084 6.42095C19.4833 6.42507 19.4593 6.43435 19.438 6.44822L16.8982 8.04827C16.8474 8.07732 16.7899 8.0926 16.7314 8.0926C16.6729 8.0926 16.6154 8.07732 16.5646 8.04827L15.5926 7.5053C15.5415 7.47736 15.4985 7.43654 15.4679 7.38688C15.4373 7.33722 15.4202 7.28043 15.4182 7.22213L15.4883 4.23923C15.4888 4.21271 15.4841 4.18634 15.4743 4.16168C15.4646 4.13702 15.45 4.11456 15.4314 4.09561C15.4129 4.07667 15.3908 4.06161 15.3663 4.05134C15.3419 4.04107 15.3157 4.03578 15.2892 4.03578L13.7585 4.00004C13.7063 3.99894 13.6557 4.01855 13.6179 4.0546C13.5801 4.09066 13.5581 4.14023 13.5566 4.19249L13.5045 6.78225L13.4962 7.17814L13.4564 8.75069L13.4564 8.95413L13.4564 9.15758L13.3672 12.4621C13.3672 12.5707 13.4372 12.612 13.5292 12.5542L15.9797 10.9886L16.3134 10.7782L17.9979 9.73629L18.3342 9.52734L20.4155 8.23934C20.4595 8.21074 20.4914 8.16675 20.5048 8.11593C20.5183 8.06512 20.5124 8.01111 20.4882 7.96442L19.7002 6.51558Z" fill="white"/>
<path d="M6.50291 6.51949C6.51495 6.49704 6.53151 6.47735 6.55153 6.46164C6.57156 6.44593 6.59463 6.43455 6.61927 6.42822C6.64391 6.42189 6.6696 6.42075 6.6947 6.42486C6.71981 6.42898 6.74379 6.43826 6.76513 6.45213L9.30493 8.05217C9.35573 8.08122 9.41323 8.0965 9.47173 8.0965C9.53024 8.0965 9.58773 8.08122 9.63854 8.05217L10.6105 7.5092C10.6617 7.48126 10.7047 7.44044 10.7352 7.39078C10.7658 7.34113 10.7829 7.28434 10.7849 7.22603L10.7149 4.24313C10.7143 4.21661 10.7191 4.19025 10.7288 4.16559C10.7386 4.14093 10.7532 4.11847 10.7717 4.09952C10.7902 4.08057 10.8124 4.06552 10.8368 4.05525C10.8612 4.04497 10.8874 4.03968 10.9139 4.03969L12.4447 4.00395C12.4969 4.00284 12.5474 4.02246 12.5852 4.05851C12.623 4.09457 12.645 4.14413 12.6465 4.1964L12.6987 6.78616L12.7069 7.18205L12.7467 8.7546L12.7467 8.95804L12.7467 9.16148L12.8359 12.466C12.8359 12.5746 12.7659 12.6159 12.6739 12.5581L10.2234 10.9925L9.88977 10.7821L8.20527 9.74019L7.86891 9.53125L5.78765 8.24324C5.74359 8.21465 5.71174 8.17066 5.69829 8.11984C5.68484 8.06902 5.69076 8.01501 5.71489 7.96832L6.50291 6.51949Z" fill="white"/>
<path d="M18.3407 16.7357L18.0044 16.5268L16.3212 15.4862C16.2293 15.4285 16.0782 15.335 15.9876 15.2759L13.5371 13.7116C13.4451 13.6525 13.3723 13.6937 13.3751 13.8023L13.4506 17.1014L13.4506 17.3048L13.4506 17.5096L13.4877 19.0836L13.4959 19.4795L13.5563 22.0692C13.5577 22.1216 13.5797 22.1713 13.6175 22.2076C13.6553 22.2439 13.7058 22.2638 13.7581 22.263L15.2888 22.2273C15.3413 22.2255 15.3909 22.2032 15.4271 22.1651C15.4633 22.1271 15.4832 22.0764 15.4824 22.0238L15.4124 19.041C15.4144 18.9826 15.4315 18.9259 15.4621 18.8762C15.4926 18.8265 15.5356 18.7857 15.5868 18.7578L16.5587 18.2079C16.6096 18.1791 16.6671 18.164 16.7255 18.164C16.784 18.164 16.8415 18.1791 16.8924 18.2079L19.4322 19.8094C19.4536 19.8232 19.4776 19.8324 19.5028 19.8364C19.528 19.8404 19.5537 19.8391 19.5783 19.8327C19.603 19.8262 19.626 19.8147 19.646 19.7989C19.666 19.783 19.6825 19.7632 19.6944 19.7406L20.4865 18.2918C20.5106 18.2451 20.5166 18.1911 20.5031 18.1403C20.4897 18.0895 20.4578 18.0455 20.4138 18.0169L18.3407 16.7357Z" fill="white"/>
<path d="M12.7576 9.16423V8.96079V8.75735L12.7206 7.18067L12.7123 6.78478L12.6519 4.1964C12.6505 4.14413 12.6285 4.09457 12.5907 4.05851C12.5528 4.02246 12.5023 4.00284 12.4501 4.00395L10.9194 4.03969C10.8671 4.04113 10.8174 4.06314 10.7812 4.10096C10.745 4.13878 10.7251 4.18936 10.7258 4.24176L10.7958 7.21916C10.7932 7.27747 10.7755 7.3341 10.7445 7.3835C10.7134 7.4329 10.6701 7.47338 10.6187 7.50095L9.63987 8.04393C9.58906 8.07298 9.53157 8.08826 9.47306 8.08826C9.41456 8.08826 9.35707 8.07298 9.30626 8.04393L6.77333 6.448C6.75198 6.43414 6.728 6.42485 6.7029 6.42074C6.67779 6.41662 6.6521 6.41777 6.62746 6.4241C6.60282 6.43043 6.57976 6.4418 6.55973 6.45751C6.5397 6.47322 6.52315 6.49292 6.51111 6.51536L5.71897 7.9642C5.69483 8.01089 5.68892 8.0649 5.70237 8.11572C5.71582 8.16653 5.74767 8.21052 5.79173 8.23912L7.86475 9.523L8.2011 9.73057L9.89385 10.778L10.2288 10.9883L12.678 12.5581C12.77 12.6159 12.8428 12.5746 12.84 12.466L12.7576 9.16423Z" fill="white"/>
<path d="M21.8993 15.48C21.9219 15.4925 21.9417 15.5093 21.9577 15.5294C21.9737 15.5496 21.9856 15.5728 21.9926 15.5976C21.9996 15.6224 22.0016 15.6483 21.9986 15.6739C21.9956 15.6995 21.9875 15.7242 21.9749 15.7467L21.1511 17.1873C21.1246 17.2336 21.0809 17.2676 21.0294 17.2818C20.978 17.296 20.923 17.2892 20.8766 17.2629L18.7486 16.0697L18.404 15.8772L16.4697 14.7968L16.1223 14.6085L13.5565 13.2407C13.4603 13.1899 13.4603 13.1033 13.5565 13.0552L16.4669 11.4964L16.6468 11.4001L16.8266 11.3039L18.4082 10.4627L18.7569 10.2757L20.9136 9.13204C20.937 9.11891 20.9627 9.11061 20.9893 9.10766C21.0159 9.10471 21.0428 9.10715 21.0684 9.11485C21.0941 9.12255 21.1179 9.13534 21.1384 9.15247C21.159 9.16959 21.1759 9.1907 21.1882 9.21452L21.909 10.5658C21.9212 10.5887 21.9289 10.6138 21.9314 10.6397C21.934 10.6656 21.9315 10.6917 21.9239 10.7166C21.9164 10.7415 21.9041 10.7646 21.8876 10.7848C21.8711 10.8049 21.8509 10.8215 21.828 10.8338L19.3705 12.1424C19.321 12.1721 19.2805 12.2149 19.2537 12.266C19.2268 12.3172 19.2145 12.3748 19.2181 12.4325C19.2181 12.4325 19.2662 12.8449 19.2662 13.1665C19.2662 13.4511 19.2291 13.8071 19.2291 13.8071C19.2263 13.8649 19.2389 13.9223 19.2657 13.9736C19.2925 14.0248 19.3325 14.0679 19.3815 14.0985L21.8993 15.48Z" fill="white"/>
<path d="M21.8993 15.48C21.9219 15.4925 21.9417 15.5093 21.9577 15.5294C21.9737 15.5496 21.9856 15.5728 21.9926 15.5976C21.9996 15.6224 22.0016 15.6483 21.9986 15.6739C21.9956 15.6995 21.9875 15.7242 21.9749 15.7467L21.1511 17.1873C21.1246 17.2336 21.0809 17.2676 21.0294 17.2818C20.978 17.296 20.923 17.2892 20.8766 17.2629L18.7486 16.0697L18.404 15.8772L16.4697 14.7968L16.1223 14.6085L13.5565 13.2407C13.4603 13.1899 13.4603 13.1033 13.5565 13.0552L16.4669 11.4964L16.6468 11.4001L16.8266 11.3039L18.4082 10.4627L18.7569 10.2757L20.9136 9.13204C20.937 9.11891 20.9627 9.11061 20.9893 9.10766C21.0159 9.10471 21.0428 9.10715 21.0684 9.11485C21.0941 9.12255 21.1179 9.13534 21.1384 9.15247C21.159 9.16959 21.1759 9.1907 21.1882 9.21452L21.909 10.5658C21.9212 10.5887 21.9289 10.6138 21.9314 10.6397C21.934 10.6656 21.9315 10.6917 21.9239 10.7166C21.9164 10.7415 21.9041 10.7646 21.8876 10.7848C21.8711 10.8049 21.8509 10.8215 21.828 10.8338L19.3705 12.1424C19.321 12.1721 19.2805 12.2149 19.2537 12.266C19.2268 12.3172 19.2145 12.3748 19.2181 12.4325C19.2181 12.4325 19.2662 12.8449 19.2662 13.1665C19.2662 13.4511 19.2291 13.8071 19.2291 13.8071C19.2263 13.8649 19.2389 13.9223 19.2657 13.9736C19.2925 14.0248 19.3325 14.0679 19.3815 14.0985L21.8993 15.48Z" fill="white"/>
</svg>
