<svg width="16" height="16" viewBox="0 0 16 16" fill="none" xmlns="http://www.w3.org/2000/svg">
    <g clip-path="url(#euxlsn3t8a)">
        <path d="M14 9.5h-4V11h4a.5.5 0 0 1 .5.5V14a.5.5 0 0 1-.5.5H2a.5.5 0 0 1-.5-.5v-2.5c0-.275.224-.5.5-.5h4V9.5H2a2 2 0 0 0-2 2V14a2 2 0 0 0 2 2h12a2 2 0 0 0 2-2v-2.5c0-1.103-.897-2-2-2zM4.253 5.503 7.25 2.561V11a.75.75 0 0 0 1.5 0V2.56l2.97 2.97c.146.148.336.22.53.22a.75.75 0 0 0 .53-1.28L8.53.22a.75.75 0 0 0-1.06 0L3.22 4.47a.75.75 0 0 0 0 1.06c.293.293.767.292 1.033-.027zM13.5 12.75a.75.75 0 1 0-1.5 0 .75.75 0 0 0 1.5 0z" fill="#0495B7"/>
    </g>
    <defs>
        <clipPath id="euxlsn3t8a">
            <path fill="#fff" d="M0 0h16v16H0z"/>
        </clipPath>
    </defs>
</svg>
