<svg width="30" height="30" viewBox="0 0 30 30" fill="none" xmlns="http://www.w3.org/2000/svg">
<g filter="url(#filter0_d_7120_81349)">
<path d="M15 1C8.4 1 3 6.4 3 13C3 19.6 8.4 25 15 25C21.6 25 27 19.6 27 13C27 6.4 21.6 1 15 1Z" fill="url(#paint0_linear_7120_81349)"/>
<path d="M3.5 13C3.5 6.67614 8.67614 1.5 15 1.5C21.3239 1.5 26.5 6.67614 26.5 13C26.5 19.3239 21.3239 24.5 15 24.5C8.67614 24.5 3.5 19.3239 3.5 13Z" stroke="#149E14" stroke-opacity="0.16"/>
</g>
<g filter="url(#filter1_d_7120_81349)">
<rect x="7" y="12" width="16" height="2" rx="1" fill="white"/>
</g>
<defs>
<filter id="filter0_d_7120_81349" x="0" y="0" width="30" height="30" filterUnits="userSpaceOnUse" color-interpolation-filters="sRGB">
<feFlood flood-opacity="0" result="BackgroundImageFix"/>
<feColorMatrix in="SourceAlpha" type="matrix" values="0 0 0 0 0 0 0 0 0 0 0 0 0 0 0 0 0 0 127 0" result="hardAlpha"/>
<feOffset dy="2"/>
<feGaussianBlur stdDeviation="1.5"/>
<feComposite in2="hardAlpha" operator="out"/>
<feColorMatrix type="matrix" values="0 0 0 0 0 0 0 0 0 0 0 0 0 0 0 0 0 0 0.25 0"/>
<feBlend mode="normal" in2="BackgroundImageFix" result="effect1_dropShadow_7120_81349"/>
<feBlend mode="normal" in="SourceGraphic" in2="effect1_dropShadow_7120_81349" result="shape"/>
</filter>
<filter id="filter1_d_7120_81349" x="6" y="12" width="18" height="4" filterUnits="userSpaceOnUse" color-interpolation-filters="sRGB">
<feFlood flood-opacity="0" result="BackgroundImageFix"/>
<feColorMatrix in="SourceAlpha" type="matrix" values="0 0 0 0 0 0 0 0 0 0 0 0 0 0 0 0 0 0 127 0" result="hardAlpha"/>
<feOffset dy="1"/>
<feGaussianBlur stdDeviation="0.5"/>
<feComposite in2="hardAlpha" operator="out"/>
<feColorMatrix type="matrix" values="0 0 0 0 0 0 0 0 0 0 0 0 0 0 0 0 0 0 0.25 0"/>
<feBlend mode="normal" in2="BackgroundImageFix" result="effect1_dropShadow_7120_81349"/>
<feBlend mode="normal" in="SourceGraphic" in2="effect1_dropShadow_7120_81349" result="shape"/>
</filter>
<linearGradient id="paint0_linear_7120_81349" x1="15" y1="1" x2="15" y2="25" gradientUnits="userSpaceOnUse">
<stop stop-color="#F4D675"/>
<stop offset="1" stop-color="#EEA13D"/>
</linearGradient>
</defs>
</svg>
