<svg width="64" height="64" viewBox="0 0 64 64" fill="none" xmlns="http://www.w3.org/2000/svg">
    <rect width="64" height="64" rx="4" fill="#EFC739"/>
    <path fill-rule="evenodd" clip-rule="evenodd" d="M22.644 19.142a1 1 0 0 0-1.414 0l-2.828 2.829a1 1 0 0 0 0 1.414l8.485 8.485-8.485 8.485a1 1 0 0 0 0 1.415l2.828 2.828a1 1 0 0 0 1.414 0l8.486-8.485 8.485 8.485a1 1 0 0 0 1.414 0l2.829-2.828a1 1 0 0 0 0-1.415l-8.486-8.485 8.486-8.485a1 1 0 0 0 0-1.414l-2.829-2.829a1 1 0 0 0-1.414 0l-8.485 8.485-8.486-8.485z" fill="#202021"/>
</svg>
