<svg width="28" height="52" viewBox="0 0 28 52" fill="none" xmlns="http://www.w3.org/2000/svg">
    <path fill-rule="evenodd" clip-rule="evenodd" d="m11.845 19 2.171.004 2.167.011c.261.001.5.154.615.394L20 26.04l-3.227 6.571a.688.688 0 0 1-.618.39l-2.171-.004-2.167-.01a.69.69 0 0 1-.615-.395L8 25.96l3.227-6.571a.688.688 0 0 1 .618-.39zm2.689 32.196L27.919 26.47a.683.683 0 0 0 .062-.485.683.683 0 0 0-.078-.361L14.686.809c-.627-1.545-.957-.49-1.22-.004L.081 25.53a.685.685 0 0 0-.062.485.682.682 0 0 0 .078.361l13.217 24.815c.627 1.545.957.49 1.22.005z" fill="#49BF78"/>
</svg>
