<svg width="25" height="26" viewBox="0 0 25 26" fill="none" xmlns="http://www.w3.org/2000/svg">
    <path d="m15.475 17.375.707-.707-.594-.594-.688.482.575.82zm1.503-1.325-.74-.673-.642.705.674.675.708-.707zM4.657 4.343a8 8 0 0 0 0 11.314l1.414-1.414a6 6 0 0 1 0-8.486L4.657 4.343zm11.314 0a8 8 0 0 0-11.314 0l1.414 1.414a6 6 0 0 1 8.486 0l1.414-1.414zm0 11.314a8 8 0 0 0 0-11.314l-1.415 1.414a6 6 0 0 1 0 8.486l1.415 1.414zm-11.314 0a8 8 0 0 0 11.314 0l-1.415-1.414a6 6 0 0 1-8.485 0l-1.414 1.414zm0 0a8 8 0 0 1 0-11.314L3.243 2.93c-3.905 3.905-3.905 10.237 0 14.142l1.414-1.414zm10.243.9a8.003 8.003 0 0 1-10.243-.9L3.243 17.07c3.486 3.486 8.904 3.86 12.806 1.123L14.9 16.557zm8.093 6.922-6.811-6.811-1.414 1.414 6.811 6.812 1.414-1.415zm0 0-1.414 1.415a2 2 0 0 0 2.828 0l-1.414-1.415zm0 0 1.415 1.415a2 2 0 0 0 0-2.829l-1.415 1.414zm-6.723-6.722 6.723 6.722 1.415-1.414-6.723-6.723-1.415 1.415zm-.3-12.414a8 8 0 0 1 .268 11.034l1.48 1.345c3.569-3.925 3.458-10.002-.333-13.793L15.97 4.343zm-11.313 0a8 8 0 0 1 11.314 0l1.414-1.414C13.48-.976 7.148-.976 3.243 2.929l1.414 1.414z" fill="#0495B7"/>
</svg>
