<svg width="20" height="20" viewBox="0 0 20 20" fill="none" xmlns="http://www.w3.org/2000/svg">
    <path d="m18.629 1.371.628-.628-.628.628zm0 1.258.628.628-.628-.628zM17.372 1.37 18 2l-.628-.629zM10 8.743l-.628.628a.889.889 0 0 0 1.257 0L10 8.743zM2.63 1.37 2 2l.629-.629zm-1.257 0L.743.743l.629.628zm0 1.258-.629.628.629-.628zM8.743 10l.629.629a.889.889 0 0 0 0-1.258L8.743 10zm-7.371 7.371L2 18l-.628-.629zm0 1.258-.629.628.629-.629zm1.257 0 .628.628-.628-.629zM10 11.256l.629-.628a.889.889 0 0 0-1.257 0l.628.628zm7.372 7.371-.629.63.629-.63zm1.257 0 .628.63-.628-.63zm0-1.257.628-.628-.628.628zM11.257 10l-.628-.629a.889.889 0 0 0 0 1.258l.628-.629zM18 2l1.257 1.257a1.778 1.778 0 0 0 0-2.514L18 2zm0 0L19.257.743a1.778 1.778 0 0 0-2.514 0L18 2zM10.63 9.371 18 2 16.743.743 9.372 8.114l1.257 1.257zm0-1.257L3.257.743 2 2l7.372 7.371 1.257-1.257zM3.257.743a1.778 1.778 0 0 0-2.514 0L2 2 3.257.743zm-2.514 0a1.778 1.778 0 0 0 0 2.514L2 2 .743.743zm0 2.514 7.372 7.372L9.372 9.37 2 2 .743 3.257zM2 18l7.372-7.371L8.115 9.37.743 16.743 2 18zm0 0L.743 16.743a1.778 1.778 0 0 0 0 2.514L2 18zm0 0L.743 19.257c.694.694 1.82.694 2.514 0L2 18zm7.372-7.371L2 18l1.257 1.257 7.372-7.371-1.257-1.257zm0 1.257 7.371 7.371L18 18l-7.371-7.371-1.257 1.257zm7.371 7.371c.694.694 1.82.694 2.514 0L18 18l-1.257 1.257zm2.514 0a1.778 1.778 0 0 0 0-2.514L18 18l1.257 1.257zm0-2.514L11.886 9.37l-1.257 1.258L18 18l1.257-1.257zM18 2 10.63 9.371l1.257 1.258 7.371-7.372L18 2z" fill="#0495B7"/>
</svg>
