<svg width="13" height="11" viewBox="0 0 13 11" fill="none" xmlns="http://www.w3.org/2000/svg">
<path d="M0.25 1.15625C0.25 0.800781 0.523438 0.5 0.90625 0.5H11.8438C12.1992 0.5 12.5 0.800781 12.5 1.15625C12.5 1.53906 12.1992 1.8125 11.8438 1.8125H0.90625C0.523438 1.8125 0.25 1.53906 0.25 1.15625ZM0.25 5.53125C0.25 5.17578 0.523438 4.875 0.90625 4.875H11.8438C12.1992 4.875 12.5 5.17578 12.5 5.53125C12.5 5.91406 12.1992 6.1875 11.8438 6.1875H0.90625C0.523438 6.1875 0.25 5.91406 0.25 5.53125ZM11.8438 10.5625H0.90625C0.523438 10.5625 0.25 10.2891 0.25 9.90625C0.25 9.55078 0.523438 9.25 0.90625 9.25H11.8438C12.1992 9.25 12.5 9.55078 12.5 9.90625C12.5 10.2891 12.1992 10.5625 11.8438 10.5625Z" fill="#FAFAFA"/>
</svg>
