<svg width="16" height="16" viewBox="0 0 16 16" fill="none" xmlns="http://www.w3.org/2000/svg">
    <g clip-path="url(#48limvdxta)">
        <path d="M10.5 9.5c0-.275.225-.5.5-.5h1c.275 0 .5.225.5.5v1c0 .275-.225.5-.5.5h-1a.501.501 0 0 1-.5-.5v-1zm0-6c0-.275.225-.5.5-.5h1c.275 0 .5.225.5.5v1c0 .275-.225.5-.5.5h-1a.501.501 0 0 1-.5-.5v-1zM11 8a.501.501 0 0 1-.5-.5v-1c0-.275.225-.5.5-.5h1c.275 0 .5.225.5.5v1c0 .275-.225.5-.5.5h-1zm3-8a2 2 0 0 1 2 2v12c0 1.103-.897 2-2 2H9c-1.103 0-2-.897-2-2V2a2 2 0 0 1 2-2h5zm0 1.5H9a.5.5 0 0 0-.5.5v12c0 .275.225.5.5.5h5c.275 0 .5-.225.5-.5V2a.5.5 0 0 0-.5-.5zm-8 4H2.25a.75.75 0 0 0-.75.75v7.5c0 .416.336.75.75.75h3.79a3 3 0 0 0 .723 1.5H2.25A2.25 2.25 0 0 1 0 13.75v-7.5A2.25 2.25 0 0 1 2.25 4H6v1.5zM4.5 10c.275 0 .5.225.5.5v1c0 .275-.225.5-.5.5h-1a.501.501 0 0 1-.5-.5v-1c0-.275.225-.5.5-.5h1zm0-3c.275 0 .5.225.5.5v1c0 .275-.225.5-.5.5h-1a.501.501 0 0 1-.5-.5v-1c0-.275.225-.5.5-.5h1z" fill="#636364"/>
    </g>
    <defs>
        <clipPath id="48limvdxta">
            <path fill="#fff" d="M0 0h16v16H0z"/>
        </clipPath>
    </defs>
</svg>
