<svg width="17" height="16" viewBox="0 0 17 16" fill="none" xmlns="http://www.w3.org/2000/svg">
<path d="M6.71875 9.21875L4.15625 11.7812L2.6875 10.3125C2.5 10.125 2.25 10 1.96875 10C1.84375 10 1.71875 10.0312 1.59375 10.0938C1.21875 10.25 0.96875 10.625 0.96875 11V15.25C1 15.6875 1.3125 16 1.75 16H6C6.375 16 6.75 15.7812 6.90625 15.4062C7.0625 15.0312 6.96875 14.5938 6.6875 14.3125L5.21875 12.8438L7.75 10.2812C8.0625 10 8.0625 9.53125 7.75 9.25C7.46875 8.9375 7 8.9375 6.71875 9.21875ZM16.2188 0H11.9688C11.5625 0 11.1875 0.25 11.0312 0.625C10.875 1 10.9688 1.4375 11.25 1.71875L12.7188 3.1875L10.1875 5.75C9.875 6.03125 9.875 6.5 10.1875 6.78125C10.4688 7.09375 10.9375 7.09375 11.25 6.78125L13.7812 4.25L15.25 5.71875C15.4375 5.90625 15.6875 6 15.9688 6C16.0938 6 16.2188 6 16.3438 5.9375C16.75 5.78125 17 5.40625 17 5V0.75C17 0.34375 16.6562 0 16.2188 0Z" fill="#71717A"/>
</svg>
