<svg width="16" height="16" viewBox="0 0 16 16" fill="none" xmlns="http://www.w3.org/2000/svg">
<path d="M4.12483 5.81233C4.4175 5.51967 4.74217 5.27833 5.0875 5.08767C7.01217 4.027 9.48017 4.591 10.7175 6.467L9.22017 7.96367C8.79083 6.98433 7.72483 6.427 6.66417 6.66433C6.26483 6.75367 5.8855 6.953 5.5755 7.263L2.70617 10.1337C1.83483 11.005 1.83483 12.4223 2.70617 13.2937C3.5775 14.165 4.99483 14.165 5.86617 13.2937L6.75083 12.409C7.5555 12.7283 8.41817 12.8557 9.27017 12.7923L7.3175 14.745C5.6435 16.419 2.9295 16.419 1.2555 14.745C-0.4185 13.071 -0.4185 10.357 1.2555 8.683L4.12483 5.81233ZM8.68217 1.255L6.7295 3.20767C7.58083 3.14367 8.44417 3.27167 9.24883 3.59033L10.1328 2.70633C11.0042 1.835 12.4215 1.835 13.2928 2.70633C14.1642 3.57767 14.1642 4.995 13.2928 5.86633L10.4228 8.73633C9.54883 9.61033 8.1295 9.603 7.26283 8.73633C7.06083 8.53433 6.88683 8.283 6.77817 8.03567L5.28083 9.53233C5.43817 9.771 5.6015 9.977 5.8115 10.187C6.35283 10.7283 7.04217 11.1317 7.8355 11.323C8.8635 11.5703 9.96483 11.4337 10.9108 10.9117C11.2562 10.721 11.5808 10.4797 11.8735 10.187L14.7428 7.317C16.4175 5.643 16.4175 2.929 14.7435 1.255C13.0695 -0.418333 10.3562 -0.418333 8.68217 1.255Z" fill="#0495B7"/>
</svg>
