<svg width="16" height="16" viewBox="0 0 16 16" fill="none" xmlns="http://www.w3.org/2000/svg">
    <g clip-path="url(#glx60728na)">
        <path d="m1.137 11.278-.718 2.44-.388 1.32a.75.75 0 0 0 .928.934l1.322-.39 2.44-.72c.326-.093.629-.25.894-.453l.01.007.015-.025c.044-.035.085-.07.125-.104.044-.037.085-.078.125-.118l9.507-9.503a2 2 0 0 0 0-2.828L14.165.603a2 2 0 0 0-2.828 0L1.831 10.11a2.814 2.814 0 0 0-.222.25l-.025.016.006.01a2.774 2.774 0 0 0-.453.893zm10.832-5.31-5.8 5.8-1.55-.387-.388-1.55 5.8-5.8 1.938 1.938zM3.03 11.217l.24.968a.753.753 0 0 0 .548.547l.968.24-.231.35a1.281 1.281 0 0 1-.253.107l-.731.216-1.716.5.503-1.713.216-.731c.025-.087.062-.175.106-.253l.35-.231zm6.822-4.382a.502.502 0 0 0 0-.706.502.502 0 0 0-.706 0l-3 3a.502.502 0 0 0 0 .706.502.502 0 0 0 .706 0l3-3z" fill="#0495B7"/>
    </g>
    <defs>
        <clipPath id="glx60728na">
            <path fill="#fff" d="M0 0h16v16H0z"/>
        </clipPath>
    </defs>
</svg>
