<svg width="13" height="10" viewBox="0 0 13 10" fill="none" xmlns="http://www.w3.org/2000/svg">
    <g clip-path="url(#boaxcokgua)">
        <path d="m1.675 7.049-.506 1.525-.272.824a.433.433 0 0 0 .132.465.578.578 0 0 0 .52.12l.93-.245 1.716-.449c.228-.059.442-.156.628-.283l.007.004.01-.016c.032-.021.06-.043.089-.064.03-.024.06-.05.088-.075L11.7 2.916c.481-.428.54-1.086.18-1.572a1.299 1.299 0 0 0-.18-.196l-.866-.771a1.533 1.533 0 0 0-1.988 0L2.162 6.318a1.846 1.846 0 0 0-.156.157l-.017.01.004.005a1.67 1.67 0 0 0-.318.559zM9.29 3.73 5.212 7.355l-1.09-.242-.272-.968L7.928 2.52 9.29 3.73zM3.006 7.01l.17.605a.503.503 0 0 0 .384.342l.681.15-.163.22a.963.963 0 0 1-.178.066l-.514.134-1.206.313.354-1.07.151-.457a.71.71 0 0 1 .075-.159l.246-.144zM7.803 4.27a.29.29 0 0 0 0-.44.385.385 0 0 0-.497 0l-2.11 1.874a.29.29 0 0 0 0 .441c.137.122.361.122.497 0l2.11-1.875z" fill="#202021"/>
    </g>
    <defs>
        <clipPath id="boaxcokgua">
            <path fill="#fff" transform="translate(.875)" d="M0 0h11.25v10H0z"/>
        </clipPath>
    </defs>
</svg>
