<svg width="16" height="16" viewBox="0 0 16 16" fill="none" xmlns="http://www.w3.org/2000/svg">
    <path fill-rule="evenodd" clip-rule="evenodd" d="M14.563 3.547a.703.703 0 0 0-.704-.703h-2.18l-.996-1.661A1.406 1.406 0 0 0 9.477.5H6.523c-.494 0-.952.26-1.206.683l-.996 1.66H2.14a.703.703 0 0 0-.704.704v.351c0 .195.158.352.352.352h.586v9.844c0 .776.63 1.406 1.406 1.406h8.438c.776 0 1.406-.63 1.406-1.406V4.25h.586a.352.352 0 0 0 .351-.352v-.351zM3.78 4.25h8.438v9.668a.176.176 0 0 1-.176.176H3.957a.176.176 0 0 1-.176-.176V4.25zm2.18-1.406h4.078l-.51-.852a.176.176 0 0 0-.152-.086H6.623a.176.176 0 0 0-.151.086l-.511.852zm1.101 3.164v6.328a.352.352 0 0 1-.351.351h-.703a.352.352 0 0 1-.352-.351V6.008c0-.194.158-.352.352-.352h.703c.194 0 .351.158.351.352zm2.93-.352H9.29a.352.352 0 0 0-.351.352v6.328c0 .194.157.351.351.351h.703a.352.352 0 0 0 .352-.351V6.008a.352.352 0 0 0-.352-.352z" fill="#0495B7"/>
</svg>
