<svg width="14" height="12" viewBox="0 0 14 12" fill="none" xmlns="http://www.w3.org/2000/svg">
    <path fill="#EFC739" d="M.5 0H14v12H.5z"/>
    <path fill-rule="evenodd" clip-rule="evenodd" d="M12.787 2.66c0-.291-.266-.527-.593-.527h-1.84L9.514.887C9.299.57 8.913.375 8.496.375H6.004c-.417 0-.803.194-1.018.512l-.84 1.246h-1.84c-.328 0-.593.236-.593.527v.264c0 .145.133.264.297.264h.494v7.382c0 .583.531 1.055 1.186 1.055h7.12c.655 0 1.186-.472 1.186-1.055V3.187h.495c.163 0 .296-.118.296-.263V2.66zm-9.097.527h7.12v7.252c0 .072-.067.131-.149.131H3.84c-.082 0-.149-.059-.149-.132v-7.25zm1.84-1.054h3.44l-.43-.64a.153.153 0 0 0-.128-.063H6.088c-.052 0-.1.024-.127.064l-.432.639zm.929 2.373v4.746c0 .146-.133.264-.297.264H5.57c-.164 0-.297-.118-.297-.264V4.506c0-.146.133-.264.297-.264h.593c.164 0 .297.118.297.264zm2.472-.264h-.593c-.164 0-.297.118-.297.264v4.746c0 .146.133.264.297.264h.593c.164 0 .297-.118.297-.264V4.506c0-.146-.133-.264-.297-.264z" fill="#000"/>
</svg>
